<svg fill="none" height="44" viewBox="0 0 210 44" width="210" xmlns="http://www.w3.org/2000/svg"><path d="m0 22c0-12.15026 9.84974-22 22-22h166c12.15 0 22 9.84974 22 22 0 12.1503-9.85 22-22 22h-166c-12.15026 0-22-9.8497-22-22z" fill="#ff5b24"/><g fill="#fff"><path d="m31.8652 26.2537h-5.9799v-11.0386h-2.3306v13.0349h8.3105zm5.8884 2.195c2.9539 0 4.7515-1.9331 4.7515-5.1399 0-3.1887-1.8067-5.1218-4.7515-5.1218-2.9358 0-4.7515 1.9422-4.7515 5.1218 0 3.2068 1.7886 5.1399 4.7515 5.1399zm0-1.8337c-1.5627 0-2.457-1.2105-2.457-3.2971 0-2.0867.8943-3.2971 2.457-3.2971 1.5537 0 2.448 1.2104 2.448 3.2971 0 2.0866-.8852 3.2971-2.448 3.2971zm11.0554 5.3928c2.8816 0 4.7063-1.4363 4.7063-3.7036v-9.9275h-2.159v1.5808h-.1535c-.542-1.0749-1.7163-1.7434-3.0623-1.7434-2.5202 0-4.083 1.9692-4.083 4.9954 0 2.9629 1.5537 4.896 4.0469 4.896 1.373 0 2.448-.5782 3.0171-1.6441h.1535v1.8789c0 1.2556-.8942 1.9964-2.4299 1.9964-1.2285 0-2.0234-.4427-2.168-1.1382h-2.2492c.1806 1.6982 1.8428 2.8093 4.3811 2.8093zm0-5.6819c-1.5628 0-2.448-1.2104-2.448-3.1255 0-1.906.8852-3.1164 2.448-3.1164 1.5537 0 2.5022 1.2104 2.5022 3.1255 0 1.906-.9395 3.1164-2.5022 3.1164zm13.1317-9.6023c.7407 0 1.346-.5871 1.346-1.3278 0-.7317-.6053-1.3279-1.346-1.3279-.7317 0-1.3369.5962-1.3369 1.3279 0 .7407.6052 1.3278 1.3369 1.3278zm-1.1111 11.5264h2.2312v-9.8733h-2.2312zm4.8135 0h2.2402v-5.7542c0-1.4814.8401-2.4118 2.177-2.4118 1.364 0 1.9963.7678 1.9963 2.3035v5.8625h2.2403v-6.3865c0-2.3486-1.2014-3.6765-3.4055-3.6765-1.4725 0-2.4661.6685-2.9358 1.7705h-.1536v-1.5808h-2.1589zm29.0753-9.8733h-2.2312l-1.635 7.4163h-.1536l-1.915-7.4163h-2.1409l-1.8969 7.4163h-.1536l-1.6441-7.4163h-2.2583l2.6739 9.8733h2.3305l1.9151-7.1543h.1535l1.9241 7.1543h2.3577zm2.8984-1.6531c.7407 0 1.3459-.5871 1.3459-1.3278 0-.7317-.6052-1.3279-1.3459-1.3279-.7317 0-1.3369.5962-1.3369 1.3279 0 .7407.6052 1.3278 1.3369 1.3278zm-1.1111 11.5264h2.2312v-9.8733h-2.2312zm5.5273-12.2942v2.4841h-1.563v1.7434h1.563v5.4471c0 1.906.903 2.6648 3.17 2.6648.434 0 .85-.0362 1.175-.0994v-1.7163c-.271.0271-.443.0452-.759.0452-.94 0-1.355-.4427-1.355-1.4273v-4.9141h2.114v-1.7434h-2.114v-2.4841zm6.475 12.2942h2.241v-5.7361c0-1.4453.822-2.4118 2.294-2.4118 1.301 0 1.987.7768 1.987 2.3034v5.8445h2.241v-6.3684c0-2.3486-1.283-3.6856-3.397-3.6856-1.472 0-2.529.6685-2.999 1.7796h-.163v-5.4199h-2.204z"/><path clip-rule="evenodd" d="m188.25 20.0884c-.72-2.7477-2.469-3.8384-4.855-3.8384-1.934 0-4.361 1.0907-4.361 3.7172 0 1.6968 1.173 3.0304 3.085 3.374l1.811.323c1.234.2221 1.584.6869 1.584 1.3132 0 .7071-.761 1.111-1.893 1.111-1.481 0-2.406-.5252-2.551-2.0001l-2.612.4042c.411 2.8483 2.962 4.0204 5.266 4.0204 2.181 0 4.505-1.2528 4.505-3.778 0-1.7174-1.049-2.9696-3.003-3.3337l-1.996-.3633c-1.111-.202-1.481-.7475-1.481-1.2727 0-.6668.72-1.0907 1.708-1.0907 1.255 0 2.139.4239 2.18 1.8179zm-58.075 4.3229 2.715-7.8584h3.188l-4.731 11.6565h-2.366l-4.731-11.6563h3.188zm16.683-4.5249c0 .9292-.74 1.5756-1.604 1.5756s-1.605-.6464-1.605-1.5756c0-.9294.741-1.5756 1.605-1.5756s1.605.6462 1.605 1.5756zm.494 4.1213c-1.07 1.3734-2.201 2.3229-4.197 2.323-2.036 0-3.62-1.2121-4.854-2.9897-.494-.7275-1.255-.889-1.811-.5051-.514.3637-.637 1.1314-.164 1.7982 1.707 2.5656 4.073 4.0602 6.829 4.0602 2.531 0 4.506-1.2119 6.048-3.2322.576-.7473.556-1.515 0-1.9393-.514-.4044-1.275-.2624-1.851.4849zm7.098-1.6568c0 2.384 1.399 3.6367 2.962 3.6367 1.481 0 3.004-1.1719 3.004-3.6367 0-2.4244-1.523-3.5959-2.983-3.5959-1.584 0-2.983 1.1111-2.983 3.5959zm0-4.1815v-1.5964h-2.9v15.677h2.9v-5.576c.967 1.2932 2.222 1.8389 3.641 1.8389 2.654 0 5.246-2.0608 5.246-6.3031 0-4.061-2.695-5.9596-4.999-5.9596-1.831 0-3.086.8281-3.888 1.9192zm13.928 4.1815c0 2.384 1.398 3.6367 2.962 3.6367 1.481 0 3.003-1.1719 3.003-3.6367 0-2.4244-1.522-3.5959-2.983-3.5959-1.584 0-2.983 1.1111-2.983 3.5959zm0-4.1815v-1.5964h-.001-2.9v15.677h2.9v-5.576c.967 1.2932 2.222 1.8389 3.641 1.8389 2.654 0 5.246-2.0608 5.246-6.3031 0-4.061-2.695-5.9596-4.999-5.9596-1.831 0-3.085.8281-3.887 1.9192z" fill-rule="evenodd"/></g></svg>