<?xml version="1.0" encoding="utf-8"?>
<!-- Generator: Adobe Illustrator 21.1.0, SVG Export Plug-In . SVG Version: 6.00 Build 0)  -->
<svg version="1.1" id="Layer_1" xmlns="http://www.w3.org/2000/svg" xmlns:xlink="http://www.w3.org/1999/xlink" x="0px" y="0px"
	 width="163.5px" height="66.3px" viewBox="0 0 163.5 66.3" style="enable-background:new 0 0 163.5 66.3;" xml:space="preserve">
<style type="text/css">
	.st0{fill:#49377E;}
	.st1{fill:none;}
</style>
<path class="st1" d="M38.2,22.1L33.1,7.2L28,22.1h-5.9L30.9,0h4.4l8.8,22.1C44.1,22.1,38.2,22.1,38.2,22.1z"/>
<path class="st1" d="M28,44.2l5.1,14.9l5.1-14.9h5.9l-8.8,22.1h-4.4l-8.8-22.1C22.1,44.2,28,44.2,28,44.2z"/>
<path class="st1" d="M22.1,28.1L7.2,33.2l14.9,5.1v5.9L0,35.3l0-4.4l22.1-8.8C22.1,22.2,22.1,28.1,22.1,28.1z"/>
<path class="st1" d="M141.4,38.2l14.9-5.1L141.4,28v-5.9l22.1,8.8v4.4l-22.1,8.8C141.4,44.1,141.4,38.2,141.4,38.2z"/>
<path class="st0" d="M44.8,34.1c1-0.7,2.5-0.4,3.4,1c2.3,3.4,5.3,5.7,9.1,5.7c3.7,0,5.8-1.8,7.8-4.4c1.1-1.4,2.5-1.7,3.5-0.9
	c1,0.8,1.1,2.3,0,3.7c-2.9,3.8-6.3,6.1-11.3,6.1c-5.1,0-9.6-2.8-12.7-7.7C43.6,36.2,43.9,34.8,44.8,34.1z M62.2,27.4
	c-0.3,0.1-0.3,0.4,0,0.5l2.5,0.3c1.5,0.2,2.1,1.3,1.9,2.4c-0.3,1.2-1.3,1.8-2.9,1.4l-5.6-1.4c-1.7-0.4-2.2-1.3-2.2-2.3
	c0-0.8,0.4-1.5,1.7-2.2l4.8-2.6c1.8-1,3.2-0.7,3.8,0.3c0.6,1.2,0,2.4-1.3,2.8L62.2,27.4z"/>
</svg>
