<svg width="48" height="32" viewBox="0 0 48 32" fill="none" xmlns="http://www.w3.org/2000/svg">
<rect width="48" height="32" rx="3.5" fill="#FF5B24"/>
<rect x="3" y="2" width="42" height="27" rx="13.5" fill="#FF5B24"/>
<path fill-rule="evenodd" clip-rule="evenodd" d="M27.864 12.2625C29.241 12.2625 30.4211 11.2171 30.4211 9.7145H30.4214C30.4214 8.21154 29.241 7.1665 27.864 7.1665C26.4873 7.1665 25.3075 8.21154 25.3075 9.7145C25.3075 11.2171 26.4873 12.2625 27.864 12.2625ZM31.2077 16.3794C29.5027 18.6004 27.6998 20.136 24.5198 20.136H24.5202C21.2758 20.136 18.7511 18.1758 16.7844 15.3011C15.9974 14.1248 14.7845 13.8636 13.8993 14.4843C13.0799 15.0725 12.8837 16.3139 13.6372 17.3922C16.3578 21.5412 20.1274 23.9583 24.5198 23.9583C28.5523 23.9583 31.6994 21.9985 34.1576 18.7314C35.0752 17.5228 35.0425 16.2814 34.1576 15.5952C33.3378 14.9412 32.125 15.1709 31.2077 16.3794Z" fill="white"/>
</svg>
