<svg width="140" height="40" viewBox="0 0 140 40" fill="none" xmlns="http://www.w3.org/2000/svg">
<rect width="140" height="40" rx="5" fill="#FF5B24"/>
<path fill-rule="evenodd" clip-rule="evenodd" d="M102 16.8384C101.28 14.0907 99.5314 13 97.1447 13C95.2111 13 92.7842 14.0907 92.7842 16.7172C92.7842 18.414 93.9565 19.7476 95.8694 20.0912L97.6797 20.4142C98.9141 20.6363 99.2639 21.1011 99.2639 21.7274C99.2639 22.4345 98.5027 22.8384 97.3713 22.8384C95.8904 22.8384 94.9646 22.3132 94.8205 20.8383L92.2081 21.2425C92.6193 24.0908 95.17 25.2629 97.4739 25.2629C99.6547 25.2629 101.979 24.0101 101.979 21.4849C101.979 19.7675 100.93 18.5153 98.9756 18.1512L96.9805 17.7879C95.8694 17.5859 95.4993 17.0404 95.4993 16.5152C95.4993 15.8484 96.2191 15.4245 97.2066 15.4245C98.4616 15.4245 99.3461 15.8484 99.3872 17.2424L102 16.8384ZM43.925 21.1613L46.6399 13.3029H49.8283L45.0969 24.9594H42.7315L38 13.3031H41.1884L43.925 21.1613ZM60.6084 16.6364C60.6084 17.5656 59.8678 18.212 59.0037 18.212C58.1397 18.212 57.3994 17.5656 57.3994 16.6364C57.3994 15.707 58.1397 15.0608 59.0037 15.0608C59.8678 15.0608 60.6086 15.707 60.6086 16.6364H60.6084ZM61.102 20.7577C60.0321 22.1311 58.9007 23.0806 56.9053 23.0807C54.8693 23.0807 53.2849 21.8686 52.0507 20.091C51.5568 19.3635 50.7957 19.202 50.2402 19.5859C49.726 19.9496 49.6028 20.7173 50.0757 21.3841C51.783 23.9497 54.1486 25.4443 56.9051 25.4443C59.4356 25.4443 61.4106 24.2324 62.9532 22.2121C63.5291 21.4648 63.5085 20.6971 62.9532 20.2728C62.4388 19.8684 61.6777 20.0104 61.102 20.7577ZM68.2 19.1009C68.2 21.4849 69.5989 22.7376 71.1625 22.7376C72.6434 22.7376 74.1659 21.5657 74.1659 19.1009C74.1659 16.6765 72.6434 15.505 71.1828 15.505C69.5989 15.505 68.2 16.6161 68.2 19.1009ZM68.2 14.9194V13.323H65.2996V29H68.2V23.424C69.1669 24.7172 70.4217 25.2629 71.8409 25.2629C74.495 25.2629 77.0868 23.2021 77.0868 18.9598C77.0868 14.8988 74.392 13.0002 72.0879 13.0002C70.257 13.0002 69.0024 13.8283 68.2 14.9194ZM82.1275 19.1009C82.1275 21.4849 83.5262 22.7376 85.0898 22.7376C86.5707 22.7376 88.093 21.5657 88.093 19.1009C88.093 16.6765 86.5707 15.505 85.1102 15.505C83.5262 15.505 82.1273 16.6161 82.1273 19.1009H82.1275ZM82.1275 14.9194V13.323H82.1273H79.2269V29H82.1273V23.424C83.0943 24.7172 84.349 25.2629 85.7683 25.2629C88.4222 25.2629 91.0142 23.2021 91.0142 18.9598C91.0142 14.8988 88.3194 13.0002 86.0152 13.0002C84.1843 13.0002 82.9298 13.8283 82.1275 14.9194Z" fill="white"/>
</svg>
