<svg width="140" height="40" viewBox="0 0 140 40" fill="none" xmlns="http://www.w3.org/2000/svg">
<rect width="140" height="40" rx="5" fill="#FF5B24"/>
<path fill-rule="evenodd" clip-rule="evenodd" d="M102 17.8384C101.28 15.0907 99.5314 14 97.1447 14C95.2111 14 92.7842 15.0907 92.7842 17.7172C92.7842 19.414 93.9565 20.7476 95.8694 21.0912L97.6797 21.4142C98.9141 21.6363 99.2639 22.1011 99.2639 22.7274C99.2639 23.4345 98.5027 23.8384 97.3713 23.8384C95.8904 23.8384 94.9646 23.3132 94.8205 21.8383L92.2081 22.2425C92.6193 25.0908 95.17 26.2629 97.4739 26.2629C99.6547 26.2629 101.979 25.0101 101.979 22.4849C101.979 20.7675 100.93 19.5153 98.9756 19.1512L96.9805 18.7879C95.8694 18.5859 95.4993 18.0404 95.4993 17.5152C95.4993 16.8484 96.2191 16.4245 97.2066 16.4245C98.4616 16.4245 99.3461 16.8484 99.3872 18.2424L102 17.8384ZM43.925 22.1613L46.6399 14.3029H49.8283L45.0969 25.9594H42.7315L38 14.3031H41.1884L43.925 22.1613ZM60.6084 17.6364C60.6084 18.5656 59.8678 19.212 59.0037 19.212C58.1397 19.212 57.3994 18.5656 57.3994 17.6364C57.3994 16.707 58.1397 16.0608 59.0037 16.0608C59.8678 16.0608 60.6086 16.707 60.6086 17.6364H60.6084ZM61.102 21.7577C60.0321 23.1311 58.9007 24.0806 56.9053 24.0807C54.8693 24.0807 53.2849 22.8686 52.0507 21.091C51.5568 20.3635 50.7957 20.202 50.2402 20.5859C49.726 20.9496 49.6028 21.7173 50.0757 22.3841C51.783 24.9497 54.1486 26.4443 56.9051 26.4443C59.4356 26.4443 61.4106 25.2324 62.9532 23.2121C63.5291 22.4648 63.5085 21.6971 62.9532 21.2728C62.4388 20.8684 61.6777 21.0104 61.102 21.7577ZM68.2 20.1009C68.2 22.4849 69.5989 23.7376 71.1625 23.7376C72.6434 23.7376 74.1659 22.5657 74.1659 20.1009C74.1659 17.6765 72.6434 16.505 71.1828 16.505C69.5989 16.505 68.2 17.6161 68.2 20.1009ZM68.2 15.9194V14.323H65.2996V30H68.2V24.424C69.1669 25.7172 70.4217 26.2629 71.8409 26.2629C74.495 26.2629 77.0868 24.2021 77.0868 19.9598C77.0868 15.8988 74.392 14.0002 72.0879 14.0002C70.257 14.0002 69.0024 14.8283 68.2 15.9194ZM82.1275 20.1009C82.1275 22.4849 83.5262 23.7376 85.0898 23.7376C86.5707 23.7376 88.093 22.5657 88.093 20.1009C88.093 17.6765 86.5707 16.505 85.1102 16.505C83.5262 16.505 82.1273 17.6161 82.1273 20.1009H82.1275ZM82.1275 15.9194V14.323H82.1273H79.2269V30H82.1273V24.424C83.0943 25.7172 84.349 26.2629 85.7683 26.2629C88.4222 26.2629 91.0142 24.2021 91.0142 19.9598C91.0142 15.8988 88.3194 14.0002 86.0152 14.0002C84.1843 14.0002 82.9298 14.8283 82.1275 15.9194Z" fill="white"/>
</svg>
