<svg width="210" height="44" viewBox="0 0 210 44" fill="none" xmlns="http://www.w3.org/2000/svg">
<rect width="210" height="44" rx="5" fill="#FF5B24"/>
<path d="M16.69 28V22.7156H22.1551V20.7734H16.69V16.9795H22.67V14.9651H14.3595V28H16.69ZM29.0823 28.1987C32.0362 28.1987 33.8338 26.2656 33.8338 23.0588C33.8338 19.8611 32.0272 17.9189 29.0823 17.9189C26.1465 17.9189 24.3309 19.8701 24.3309 23.0588C24.3309 26.2656 26.1194 28.1987 29.0823 28.1987ZM29.0823 26.3198C27.5196 26.3198 26.6253 25.1274 26.6253 23.0588C26.6253 20.9993 27.5196 19.7979 29.0823 19.7979C30.636 19.7979 31.5303 20.9993 31.5303 23.0588C31.5303 25.1274 30.6451 26.3198 29.0823 26.3198ZM35.8921 28H38.1323V22.291C38.1323 20.9089 39.144 20.0056 40.5984 20.0056C40.9778 20.0056 41.574 20.0688 41.7456 20.1321V18.0544C41.5378 17.9912 41.1404 17.9551 40.8152 17.9551C39.5415 17.9551 38.4756 18.6777 38.2046 19.6533H38.051V18.1177H35.8921V28ZM44.5537 15.6968V18.1809H42.9909V19.9695H44.5537V25.3623C44.5537 27.2773 45.457 28.0452 47.7243 28.0452C48.1579 28.0452 48.5734 28 48.8986 27.9368V26.1843C48.6276 26.2114 48.456 26.2295 48.1398 26.2295C47.2004 26.2295 46.7849 25.7959 46.7849 24.8203V19.9695H48.8986V18.1809H46.7849V15.6968H44.5537ZM50.5866 20.9451C50.5866 22.4355 51.4809 23.3118 53.3778 23.7454L55.1303 24.1519C56.0697 24.3596 56.4943 24.7119 56.4943 25.272C56.4943 26.0037 55.7084 26.5005 54.5793 26.5005C53.4591 26.5005 52.7636 26.0669 52.5468 25.3352H50.3336C50.5053 27.1328 52.059 28.1987 54.5251 28.1987C56.9911 28.1987 58.7345 26.9341 58.7345 25.0371C58.7345 23.5828 57.8583 22.7698 55.9704 22.3452L54.227 21.9478C53.2333 21.7219 52.7636 21.3787 52.7636 20.8186C52.7636 20.105 53.5314 19.6172 54.5522 19.6172C55.6 19.6172 56.2594 20.0598 56.422 20.7554H58.5268C58.3642 18.9578 56.8918 17.9189 54.5431 17.9189C52.2126 17.9189 50.5866 19.1565 50.5866 20.9451ZM64.9481 19.6985C66.294 19.6985 67.1793 20.6379 67.2245 22.1013H62.5724C62.6717 20.656 63.6112 19.6985 64.9481 19.6985ZM67.2425 25.281C66.9173 26.0127 66.1495 26.4192 65.0384 26.4192C63.566 26.4192 62.6175 25.3894 62.5633 23.7454V23.6279H69.4647V22.9053C69.4647 19.7888 67.7755 17.9189 64.9571 17.9189C62.0936 17.9189 60.3141 19.9153 60.3141 23.095C60.3141 26.2747 62.0665 28.1987 64.9752 28.1987C67.3058 28.1987 68.9408 27.0786 69.3653 25.281H67.2425ZM72.2276 15.6968V18.1809H70.6648V19.9695H72.2276V25.3623C72.2276 27.2773 73.1309 28.0452 75.3982 28.0452C75.8318 28.0452 76.2474 28 76.5726 27.9368V26.1843C76.3016 26.2114 76.1299 26.2295 75.8138 26.2295C74.8743 26.2295 74.4588 25.7959 74.4588 24.8203V19.9695H76.5726V18.1809H74.4588V15.6968H72.2276ZM79.3806 15.6968V18.1809H77.8179V19.9695H79.3806V25.3623C79.3806 27.2773 80.2839 28.0452 82.5513 28.0452C82.9849 28.0452 83.4004 28 83.7256 27.9368V26.1843C83.4546 26.2114 83.283 26.2295 82.9668 26.2295C82.0273 26.2295 81.6118 25.7959 81.6118 24.8203V19.9695H83.7256V18.1809H81.6118V15.6968H79.3806ZM90.4979 28H92.7382V21.9929C92.7382 20.7825 93.5602 19.8701 94.6713 19.8701C95.7733 19.8701 96.4599 20.5295 96.4599 21.6135V28H98.6369V21.8484C98.6369 20.7192 99.4047 19.8701 100.57 19.8701C101.771 19.8701 102.377 20.5024 102.377 21.7761V28H104.608V21.207C104.608 19.1565 103.415 17.9189 101.437 17.9189C100.064 17.9189 98.9259 18.6326 98.4381 19.7166H98.2846C97.869 18.6055 96.9206 17.9189 95.5565 17.9189C94.2467 17.9189 93.235 18.5874 92.8104 19.7166H92.6569V18.1177H90.4979V28ZM111.21 19.6985C112.556 19.6985 113.441 20.6379 113.486 22.1013H108.834C108.933 20.656 109.873 19.6985 111.21 19.6985ZM113.504 25.281C113.179 26.0127 112.411 26.4192 111.3 26.4192C109.828 26.4192 108.879 25.3894 108.825 23.7454V23.6279H115.726V22.9053C115.726 19.7888 114.037 17.9189 111.219 17.9189C108.355 17.9189 106.576 19.9153 106.576 23.095C106.576 26.2747 108.328 28.1987 111.237 28.1987C113.567 28.1987 115.202 27.0786 115.627 25.281H113.504ZM121.353 28.1626C122.726 28.1626 123.864 27.5212 124.424 26.4373H124.578V28H126.746V14.2966H124.505V19.6895H124.352C123.828 18.6055 122.708 17.9551 121.353 17.9551C118.86 17.9551 117.288 19.9243 117.288 23.0498C117.288 26.1934 118.851 28.1626 121.353 28.1626ZM122.048 19.8611C123.584 19.8611 124.533 21.0896 124.533 23.0588C124.533 25.0461 123.593 26.2566 122.048 26.2566C120.513 26.2566 119.582 25.0552 119.582 23.0588C119.582 21.0715 120.522 19.8611 122.048 19.8611Z" fill="white"/>
<path fill-rule="evenodd" clip-rule="evenodd" d="M198 19.8384C197.28 17.0907 195.531 16 193.145 16C191.211 16 188.784 17.0907 188.784 19.7172C188.784 21.414 189.957 22.7476 191.869 23.0912L193.68 23.4142C194.914 23.6363 195.264 24.1011 195.264 24.7274C195.264 25.4345 194.503 25.8384 193.371 25.8384C191.89 25.8384 190.965 25.3132 190.82 23.8383L188.208 24.2425C188.619 27.0908 191.17 28.2629 193.474 28.2629C195.655 28.2629 197.979 27.0101 197.979 24.4849C197.979 22.7675 196.93 21.5153 194.976 21.1512L192.98 20.7879C191.869 20.5859 191.499 20.0404 191.499 19.5152C191.499 18.8484 192.219 18.4245 193.207 18.4245C194.462 18.4245 195.346 18.8484 195.387 20.2424L198 19.8384ZM139.925 24.1613L142.64 16.3029H145.828L141.097 27.9594H138.731L134 16.3031H137.188L139.925 24.1613ZM156.608 19.6364C156.608 20.5656 155.868 21.212 155.004 21.212C154.14 21.212 153.399 20.5656 153.399 19.6364C153.399 18.707 154.14 18.0608 155.004 18.0608C155.868 18.0608 156.609 18.707 156.609 19.6364H156.608ZM157.102 23.7577C156.032 25.1311 154.901 26.0806 152.905 26.0807C150.869 26.0807 149.285 24.8686 148.051 23.091C147.557 22.3635 146.796 22.202 146.24 22.5859C145.726 22.9496 145.603 23.7173 146.076 24.3841C147.783 26.9497 150.149 28.4443 152.905 28.4443C155.436 28.4443 157.411 27.2324 158.953 25.2121C159.529 24.4648 159.509 23.6971 158.953 23.2728C158.439 22.8684 157.678 23.0104 157.102 23.7577ZM164.2 22.1009C164.2 24.4849 165.599 25.7376 167.162 25.7376C168.643 25.7376 170.166 24.5657 170.166 22.1009C170.166 19.6765 168.643 18.505 167.183 18.505C165.599 18.505 164.2 19.6161 164.2 22.1009ZM164.2 17.9194V16.323H161.3V32H164.2V26.424C165.167 27.7172 166.422 28.2629 167.841 28.2629C170.495 28.2629 173.087 26.2021 173.087 21.9598C173.087 17.8988 170.392 16.0002 168.088 16.0002C166.257 16.0002 165.002 16.8283 164.2 17.9194ZM178.128 22.1009C178.128 24.4849 179.526 25.7376 181.09 25.7376C182.571 25.7376 184.093 24.5657 184.093 22.1009C184.093 19.6765 182.571 18.505 181.11 18.505C179.526 18.505 178.127 19.6161 178.127 22.1009H178.128ZM178.128 17.9194V16.323H178.127H175.227V32H178.127V26.424C179.094 27.7172 180.349 28.2629 181.768 28.2629C184.422 28.2629 187.014 26.2021 187.014 21.9598C187.014 17.8988 184.319 16.0002 182.015 16.0002C180.184 16.0002 178.93 16.8283 178.128 17.9194Z" fill="white"/>
</svg>
