<svg width="250" height="44" viewBox="0 0 250 44" fill="none" xmlns="http://www.w3.org/2000/svg">
<rect width="250" height="44" rx="5" fill="#FF5B24"/>
<path d="M36.69 28V22.7156H42.1551V20.7734H36.69V16.9795H42.67V14.9651H34.3595V28H36.69ZM49.0823 28.1987C52.0362 28.1987 53.8338 26.2656 53.8338 23.0588C53.8338 19.8611 52.0272 17.9189 49.0823 17.9189C46.1465 17.9189 44.3309 19.8701 44.3309 23.0588C44.3309 26.2656 46.1194 28.1987 49.0823 28.1987ZM49.0823 26.3198C47.5196 26.3198 46.6253 25.1274 46.6253 23.0588C46.6253 20.9993 47.5196 19.7979 49.0823 19.7979C50.636 19.7979 51.5303 20.9993 51.5303 23.0588C51.5303 25.1274 50.6451 26.3198 49.0823 26.3198ZM55.8921 28H58.1323V22.291C58.1323 20.9089 59.144 20.0056 60.5984 20.0056C60.9778 20.0056 61.574 20.0688 61.7456 20.1321V18.0544C61.5378 17.9912 61.1404 17.9551 60.8152 17.9551C59.5415 17.9551 58.4756 18.6777 58.2046 19.6533H58.051V18.1177H55.8921V28ZM64.5537 15.6968V18.1809H62.9909V19.9695H64.5537V25.3623C64.5537 27.2773 65.457 28.0452 67.7243 28.0452C68.1579 28.0452 68.5734 28 68.8986 27.9368V26.1843C68.6276 26.2114 68.456 26.2295 68.1398 26.2295C67.2004 26.2295 66.7849 25.7959 66.7849 24.8203V19.9695H68.8986V18.1809H66.7849V15.6968H64.5537ZM70.5866 20.9451C70.5866 22.4355 71.4809 23.3118 73.3778 23.7454L75.1303 24.1519C76.0697 24.3596 76.4943 24.7119 76.4943 25.272C76.4943 26.0037 75.7084 26.5005 74.5793 26.5005C73.4591 26.5005 72.7636 26.0669 72.5468 25.3352H70.3336C70.5053 27.1328 72.059 28.1987 74.5251 28.1987C76.9911 28.1987 78.7345 26.9341 78.7345 25.0371C78.7345 23.5828 77.8583 22.7698 75.9704 22.3452L74.227 21.9478C73.2333 21.7219 72.7636 21.3787 72.7636 20.8186C72.7636 20.105 73.5314 19.6172 74.5522 19.6172C75.6 19.6172 76.2594 20.0598 76.422 20.7554H78.5268C78.3642 18.9578 76.8918 17.9189 74.5431 17.9189C72.2126 17.9189 70.5866 19.1565 70.5866 20.9451ZM84.9481 19.6985C86.294 19.6985 87.1793 20.6379 87.2245 22.1013H82.5724C82.6717 20.656 83.6112 19.6985 84.9481 19.6985ZM87.2425 25.281C86.9173 26.0127 86.1495 26.4192 85.0384 26.4192C83.566 26.4192 82.6175 25.3894 82.5633 23.7454V23.6279H89.4647V22.9053C89.4647 19.7888 87.7755 17.9189 84.9571 17.9189C82.0936 17.9189 80.3141 19.9153 80.3141 23.095C80.3141 26.2747 82.0665 28.1987 84.9752 28.1987C87.3058 28.1987 88.9588 27.0786 89.3653 25.281H87.2425ZM92.2276 15.6968V18.1809H90.6648V19.9695H92.2276V25.3623C92.2276 27.2773 93.1309 28.0452 95.3982 28.0452C95.8318 28.0452 96.2474 28 96.5726 27.9368V26.1843C96.3016 26.2114 96.1299 26.2295 95.8138 26.2295C94.8743 26.2295 94.4588 25.7959 94.4588 24.8203V19.9695H96.5726V18.1809H94.4588V15.6968H92.2276ZM99.3806 15.6968V18.1809H97.8179V19.9695H99.3806V25.3623C99.3806 27.2773 100.284 28.0452 102.551 28.0452C102.985 28.0452 103.4 28 103.726 27.9368V26.1843C103.455 26.2114 103.283 26.2295 102.967 26.2295C102.027 26.2295 101.612 25.7959 101.612 24.8203V19.9695H103.726V18.1809H101.612V15.6968H99.3806ZM110.498 28H112.738V21.9929C112.738 20.7825 113.56 19.8701 114.671 19.8701C115.773 19.8701 116.46 20.5295 116.46 21.6135V28H118.637V21.8484C118.637 20.7192 119.405 19.8701 120.57 19.8701C121.771 19.8701 122.377 20.5024 122.377 21.7761V28H124.608V21.207C124.608 19.1565 123.415 17.9189 121.437 17.9189C120.064 17.9189 118.926 18.6326 118.438 19.7166H118.285C117.869 18.6055 116.921 17.9189 115.557 17.9189C114.247 17.9189 113.235 18.5874 112.81 19.7166H112.657V18.1177H110.498V28ZM131.21 19.6985C132.556 19.6985 133.441 20.6379 133.486 22.1013H128.834C128.933 20.656 129.873 19.6985 131.21 19.6985ZM133.504 25.281C133.179 26.0127 132.411 26.4192 131.3 26.4192C129.828 26.4192 128.879 25.3894 128.825 23.7454V23.6279H135.726V22.9053C135.726 19.7888 134.037 17.9189 131.219 17.9189C128.355 17.9189 126.576 19.9153 126.576 23.095C126.576 26.2747 128.328 28.1987 131.237 28.1987C133.567 28.1987 135.221 27.0786 135.627 25.281H133.504ZM141.353 28.1626C142.726 28.1626 143.864 27.5212 144.424 26.4373H144.578V28H146.746V14.2966H144.505V19.6895H144.352C143.828 18.6055 142.708 17.9551 141.353 17.9551C138.86 17.9551 137.288 19.9243 137.288 23.0498C137.288 26.1934 138.851 28.1626 141.353 28.1626ZM142.048 19.8611C143.584 19.8611 144.533 21.0896 144.533 23.0588C144.533 25.0461 143.593 26.2566 142.048 26.2566C140.513 26.2566 139.582 25.0552 139.582 23.0588C139.582 21.0715 140.522 19.8611 142.048 19.8611Z" fill="white"/>
<path fill-rule="evenodd" clip-rule="evenodd" d="M218 19.8384C217.28 17.0907 215.531 16 213.145 16C211.211 16 208.784 17.0907 208.784 19.7172C208.784 21.414 209.957 22.7476 211.869 23.0912L213.68 23.4142C214.914 23.6363 215.264 24.1011 215.264 24.7274C215.264 25.4345 214.503 25.8384 213.371 25.8384C211.89 25.8384 210.965 25.3132 210.82 23.8383L208.208 24.2425C208.619 27.0908 211.17 28.2629 213.474 28.2629C215.655 28.2629 217.979 27.0101 217.979 24.4849C217.979 22.7675 216.93 21.5153 214.976 21.1512L212.98 20.7879C211.869 20.5859 211.499 20.0404 211.499 19.5152C211.499 18.8484 212.219 18.4245 213.207 18.4245C214.462 18.4245 215.346 18.8484 215.387 20.2424L218 19.8384ZM159.925 24.1613L162.64 16.3029H165.828L161.097 27.9594H158.731L154 16.3031H157.188L159.925 24.1613ZM176.608 19.6364C176.608 20.5656 175.868 21.212 175.004 21.212C174.14 21.212 173.399 20.5656 173.399 19.6364C173.399 18.707 174.14 18.0608 175.004 18.0608C175.868 18.0608 176.609 18.707 176.609 19.6364H176.608ZM177.102 23.7577C176.032 25.1311 174.901 26.0806 172.905 26.0807C170.869 26.0807 169.285 24.8686 168.051 23.091C167.557 22.3635 166.796 22.202 166.24 22.5859C165.726 22.9496 165.603 23.7173 166.076 24.3841C167.783 26.9497 170.149 28.4443 172.905 28.4443C175.436 28.4443 177.411 27.2324 178.953 25.2121C179.529 24.4648 179.509 23.6971 178.953 23.2728C178.439 22.8684 177.678 23.0104 177.102 23.7577ZM184.2 22.1009C184.2 24.4849 185.599 25.7376 187.162 25.7376C188.643 25.7376 190.166 24.5657 190.166 22.1009C190.166 19.6765 188.643 18.505 187.183 18.505C185.599 18.505 184.2 19.6161 184.2 22.1009ZM184.2 17.9194V16.323H181.3V32H184.2V26.424C185.167 27.7172 186.422 28.2629 187.841 28.2629C190.495 28.2629 193.087 26.2021 193.087 21.9598C193.087 17.8988 190.392 16.0002 188.088 16.0002C186.257 16.0002 185.002 16.8283 184.2 17.9194ZM198.128 22.1009C198.128 24.4849 199.526 25.7376 201.09 25.7376C202.571 25.7376 204.093 24.5657 204.093 22.1009C204.093 19.6765 202.571 18.505 201.11 18.505C199.526 18.505 198.127 19.6161 198.127 22.1009H198.128ZM198.128 17.9194V16.323H198.127H195.227V32H198.127V26.424C199.094 27.7172 200.349 28.2629 201.768 28.2629C204.422 28.2629 207.014 26.2021 207.014 21.9598C207.014 17.8988 204.319 16.0002 202.015 16.0002C200.184 16.0002 198.93 16.8283 198.128 17.9194Z" fill="white"/>
</svg>
