<svg width="210" height="44" viewBox="0 0 210 44" fill="none" xmlns="http://www.w3.org/2000/svg">
<rect width="210" height="44" rx="5" fill="#FF5B24"/>
<path d="M19.7618 25.9585H13.7818V14.9651H11.4513V28H19.7618V25.9585ZM25.6502 28.1987C28.6041 28.1987 30.4017 26.2656 30.4017 23.0588C30.4017 19.8611 28.595 17.9189 25.6502 17.9189C22.7144 17.9189 20.8987 19.8701 20.8987 23.0588C20.8987 26.2656 22.6873 28.1987 25.6502 28.1987ZM25.6502 26.3198C24.0875 26.3198 23.1932 25.1274 23.1932 23.0588C23.1932 20.9993 24.0875 19.7979 25.6502 19.7979C27.2039 19.7979 28.0982 20.9993 28.0982 23.0588C28.0982 25.1274 27.2129 26.3198 25.6502 26.3198ZM36.7056 26.0308C35.1428 26.0308 34.2576 24.8384 34.2576 22.9504C34.2576 21.0625 35.1428 19.8611 36.7056 19.8611C38.2593 19.8611 39.2078 21.0625 39.2078 22.9504C39.2078 24.8384 38.2683 26.0308 36.7056 26.0308ZM36.7056 31.7578C39.5872 31.7578 41.4119 30.3215 41.4119 28.0361V18.1177H39.2529V19.6985H39.0994C38.5574 18.6235 37.3831 17.9551 36.0371 17.9551C33.5168 17.9551 31.9541 19.9243 31.9541 22.9504C31.9541 25.9224 33.5078 27.8555 36.001 27.8555C37.374 27.8555 38.449 27.2773 39.0181 26.2205H39.1716V28.0903C39.1716 29.3279 38.2773 30.0505 36.7417 30.0505C35.5132 30.0505 34.7183 29.6169 34.5737 28.9395H32.3245C32.5051 30.6377 34.1672 31.7578 36.7056 31.7578ZM48.2126 26.0308C46.6499 26.0308 45.7646 24.8384 45.7646 22.9504C45.7646 21.0625 46.6499 19.8611 48.2126 19.8611C49.7663 19.8611 50.7148 21.0625 50.7148 22.9504C50.7148 24.8384 49.7753 26.0308 48.2126 26.0308ZM48.2126 31.7578C51.0942 31.7578 52.9189 30.3215 52.9189 28.0361V18.1177H50.76V19.6985H50.6064C50.0644 18.6235 48.8901 17.9551 47.5441 17.9551C45.0239 17.9551 43.4611 19.9243 43.4611 22.9504C43.4611 25.9224 45.0148 27.8555 47.508 27.8555C48.8811 27.8555 49.956 27.2773 50.5251 26.2205H50.6787V28.0903C50.6787 29.3279 49.7844 30.0505 48.2487 30.0505C47.0202 30.0505 46.2253 29.6169 46.0808 28.9395H43.8315C44.0122 30.6377 45.6743 31.7578 48.2126 31.7578ZM60.2333 28H62.4645V18.1177H60.2333V28ZM61.3443 16.5098C62.1664 16.5098 62.7264 15.9858 62.7264 15.2722C62.7264 14.5586 62.1664 14.0347 61.3443 14.0347C60.5313 14.0347 59.9623 14.5586 59.9623 15.2722C59.9623 15.9858 60.5313 16.5098 61.3443 16.5098ZM65.0467 28H67.2869V22.2458C67.2869 20.7915 68.127 19.8701 69.4639 19.8701C70.8279 19.8701 71.4603 20.6289 71.4603 22.1375V28H73.7005V21.6045C73.7005 19.2468 72.4991 17.9189 70.295 17.9189C68.8226 17.9189 67.8289 18.5964 67.3592 19.6985H67.2056V18.1177H65.0467V28ZM76.1562 28H78.3965V22.2458C78.3965 20.7915 79.2366 19.8701 80.5735 19.8701C81.9375 19.8701 82.5698 20.6289 82.5698 22.1375V28H84.8101V21.6045C84.8101 19.2468 83.6086 17.9189 81.4045 17.9189C79.9321 17.9189 78.9385 18.5964 78.4688 19.6985H78.3152V18.1177H76.1562V28ZM91.9979 28H94.2382V21.9929C94.2382 20.7825 95.0602 19.8701 96.1713 19.8701C97.2733 19.8701 97.9599 20.5295 97.9599 21.6135V28H100.137V21.8484C100.137 20.7192 100.905 19.8701 102.07 19.8701C103.271 19.8701 103.877 20.5024 103.877 21.7761V28H106.108V21.207C106.108 19.1565 104.915 17.9189 102.937 17.9189C101.564 17.9189 100.426 18.6326 99.9381 19.7166H99.7846C99.369 18.6055 98.4206 17.9189 97.0565 17.9189C95.7467 17.9189 94.735 18.5874 94.3104 19.7166H94.1569V18.1177H91.9979V28ZM112.71 19.6985C114.056 19.6985 114.941 20.6379 114.986 22.1013H110.334C110.433 20.656 111.373 19.6985 112.71 19.6985ZM115.004 25.281C114.679 26.0127 113.911 26.4192 112.8 26.4192C111.328 26.4192 110.379 25.3894 110.325 23.7454V23.6279H117.226V22.9053C117.226 19.7888 115.537 17.9189 112.719 17.9189C109.855 17.9189 108.076 19.9153 108.076 23.095C108.076 26.2747 109.828 28.1987 112.737 28.1987C115.067 28.1987 116.702 27.0786 117.127 25.281H115.004ZM122.853 28.1626C124.226 28.1626 125.364 27.5212 125.924 26.4373H126.078V28H128.246V14.2966H126.005V19.6895H125.852C125.328 18.6055 124.208 17.9551 122.853 17.9551C120.36 17.9551 118.788 19.9243 118.788 23.0498C118.788 26.1934 120.351 28.1626 122.853 28.1626ZM123.548 19.8611C125.084 19.8611 126.033 21.0896 126.033 23.0588C126.033 25.0461 125.093 26.2566 123.548 26.2566C122.013 26.2566 121.082 25.0552 121.082 23.0588C121.082 21.0715 122.022 19.8611 123.548 19.8611Z" fill="white"/>
<path fill-rule="evenodd" clip-rule="evenodd" d="M199.5 19.8384C198.78 17.0907 197.031 16 194.645 16C192.711 16 190.284 17.0907 190.284 19.7172C190.284 21.414 191.457 22.7476 193.369 23.0912L195.18 23.4142C196.414 23.6363 196.764 24.1011 196.764 24.7274C196.764 25.4345 196.003 25.8384 194.871 25.8384C193.39 25.8384 192.465 25.3132 192.32 23.8383L189.708 24.2425C190.119 27.0908 192.67 28.2629 194.974 28.2629C197.155 28.2629 199.479 27.0101 199.479 24.4849C199.479 22.7675 198.43 21.5153 196.476 21.1512L194.48 20.7879C193.369 20.5859 192.999 20.0404 192.999 19.5152C192.999 18.8484 193.719 18.4245 194.707 18.4245C195.962 18.4245 196.846 18.8484 196.887 20.2424L199.5 19.8384ZM141.425 24.1613L144.14 16.3029H147.328L142.597 27.9594H140.231L135.5 16.3031H138.688L141.425 24.1613ZM158.108 19.6364C158.108 20.5656 157.368 21.212 156.504 21.212C155.64 21.212 154.899 20.5656 154.899 19.6364C154.899 18.707 155.64 18.0608 156.504 18.0608C157.368 18.0608 158.109 18.707 158.109 19.6364H158.108ZM158.602 23.7577C157.532 25.1311 156.401 26.0806 154.405 26.0807C152.369 26.0807 150.785 24.8686 149.551 23.091C149.057 22.3635 148.296 22.202 147.74 22.5859C147.226 22.9496 147.103 23.7173 147.576 24.3841C149.283 26.9497 151.649 28.4443 154.405 28.4443C156.936 28.4443 158.911 27.2324 160.453 25.2121C161.029 24.4648 161.009 23.6971 160.453 23.2728C159.939 22.8684 159.178 23.0104 158.602 23.7577ZM165.7 22.1009C165.7 24.4849 167.099 25.7376 168.662 25.7376C170.143 25.7376 171.666 24.5657 171.666 22.1009C171.666 19.6765 170.143 18.505 168.683 18.505C167.099 18.505 165.7 19.6161 165.7 22.1009ZM165.7 17.9194V16.323H162.8V32H165.7V26.424C166.667 27.7172 167.922 28.2629 169.341 28.2629C171.995 28.2629 174.587 26.2021 174.587 21.9598C174.587 17.8988 171.892 16.0002 169.588 16.0002C167.757 16.0002 166.502 16.8283 165.7 17.9194ZM179.628 22.1009C179.628 24.4849 181.026 25.7376 182.59 25.7376C184.071 25.7376 185.593 24.5657 185.593 22.1009C185.593 19.6765 184.071 18.505 182.61 18.505C181.026 18.505 179.627 19.6161 179.627 22.1009H179.628ZM179.628 17.9194V16.323H179.627H176.727V32H179.627V26.424C180.594 27.7172 181.849 28.2629 183.268 28.2629C185.922 28.2629 188.514 26.2021 188.514 21.9598C188.514 17.8988 185.819 16.0002 183.515 16.0002C181.684 16.0002 180.43 16.8283 179.628 17.9194Z" fill="white"/>
</svg>
