<svg width="254" height="48" viewBox="0 0 254 48" fill="none" xmlns="http://www.w3.org/2000/svg">
<g filter="url(#filter0_d)">
<rect x="2" y="1" width="250" height="44" rx="5" fill="#FF5B24"/>
</g>
<path d="M41.7618 26.9585H35.7818V15.9651H33.4513V29H41.7618V26.9585ZM47.6502 29.1987C50.6041 29.1987 52.4017 27.2656 52.4017 24.0588C52.4017 20.8611 50.595 18.9189 47.6502 18.9189C44.7144 18.9189 42.8987 20.8701 42.8987 24.0588C42.8987 27.2656 44.6873 29.1987 47.6502 29.1987ZM47.6502 27.3198C46.0875 27.3198 45.1932 26.1274 45.1932 24.0588C45.1932 21.9993 46.0875 20.7979 47.6502 20.7979C49.2039 20.7979 50.0982 21.9993 50.0982 24.0588C50.0982 26.1274 49.2129 27.3198 47.6502 27.3198ZM58.7056 27.0308C57.1428 27.0308 56.2576 25.8384 56.2576 23.9504C56.2576 22.0625 57.1428 20.8611 58.7056 20.8611C60.2593 20.8611 61.2078 22.0625 61.2078 23.9504C61.2078 25.8384 60.2683 27.0308 58.7056 27.0308ZM58.7056 32.7578C61.5872 32.7578 63.4119 31.3215 63.4119 29.0361V19.1177H61.2529V20.6985H61.0994C60.5574 19.6235 59.3831 18.9551 58.0371 18.9551C55.5168 18.9551 53.9541 20.9243 53.9541 23.9504C53.9541 26.9224 55.5078 28.8555 58.001 28.8555C59.374 28.8555 60.449 28.2773 61.0181 27.2205H61.1716V29.0903C61.1716 30.3279 60.2773 31.0505 58.7417 31.0505C57.5132 31.0505 56.7183 30.6169 56.5737 29.9395H54.3245C54.5051 31.6377 56.1672 32.7578 58.7056 32.7578ZM70.2126 27.0308C68.6499 27.0308 67.7646 25.8384 67.7646 23.9504C67.7646 22.0625 68.6499 20.8611 70.2126 20.8611C71.7663 20.8611 72.7148 22.0625 72.7148 23.9504C72.7148 25.8384 71.7753 27.0308 70.2126 27.0308ZM70.2126 32.7578C73.0942 32.7578 74.9189 31.3215 74.9189 29.0361V19.1177H72.76V20.6985H72.6064C72.0644 19.6235 70.8901 18.9551 69.5441 18.9551C67.0239 18.9551 65.4611 20.9243 65.4611 23.9504C65.4611 26.9224 67.0148 28.8555 69.508 28.8555C70.8811 28.8555 71.956 28.2773 72.5251 27.2205H72.6787V29.0903C72.6787 30.3279 71.7844 31.0505 70.2487 31.0505C69.0202 31.0505 68.2253 30.6169 68.0808 29.9395H65.8315C66.0122 31.6377 67.6743 32.7578 70.2126 32.7578ZM82.2333 29H84.4645V19.1177H82.2333V29ZM83.3443 17.5098C84.1664 17.5098 84.7264 16.9858 84.7264 16.2722C84.7264 15.5586 84.1664 15.0347 83.3443 15.0347C82.5313 15.0347 81.9623 15.5586 81.9623 16.2722C81.9623 16.9858 82.5313 17.5098 83.3443 17.5098ZM87.0467 29H89.2869V23.2458C89.2869 21.7915 90.127 20.8701 91.4639 20.8701C92.8279 20.8701 93.4603 21.6289 93.4603 23.1375V29H95.7005V22.6045C95.7005 20.2468 94.4991 18.9189 92.295 18.9189C90.8226 18.9189 89.8289 19.5964 89.3592 20.6985H89.2056V19.1177H87.0467V29ZM98.1562 29H100.396V23.2458C100.396 21.7915 101.237 20.8701 102.573 20.8701C103.938 20.8701 104.57 21.6289 104.57 23.1375V29H106.81V22.6045C106.81 20.2468 105.609 18.9189 103.405 18.9189C101.932 18.9189 100.938 19.5964 100.469 20.6985H100.315V19.1177H98.1562V29ZM113.998 29H116.238V22.9929C116.238 21.7825 117.06 20.8701 118.171 20.8701C119.273 20.8701 119.96 21.5295 119.96 22.6135V29H122.137V22.8484C122.137 21.7192 122.905 20.8701 124.07 20.8701C125.271 20.8701 125.877 21.5024 125.877 22.7761V29H128.108V22.207C128.108 20.1565 126.915 18.9189 124.937 18.9189C123.564 18.9189 122.426 19.6326 121.938 20.7166H121.785C121.369 19.6055 120.421 18.9189 119.057 18.9189C117.747 18.9189 116.735 19.5874 116.31 20.7166H116.157V19.1177H113.998V29ZM134.71 20.6985C136.056 20.6985 136.941 21.6379 136.986 23.1013H132.334C132.433 21.656 133.373 20.6985 134.71 20.6985ZM137.004 26.281C136.679 27.0127 135.911 27.4192 134.8 27.4192C133.328 27.4192 132.379 26.3894 132.325 24.7454V24.6279H139.226V23.9053C139.226 20.7888 137.537 18.9189 134.719 18.9189C131.855 18.9189 130.076 20.9153 130.076 24.095C130.076 27.2747 131.828 29.1987 134.737 29.1987C137.067 29.1987 138.702 28.0786 139.127 26.281H137.004ZM144.853 29.1626C146.226 29.1626 147.364 28.5212 147.924 27.4373H148.078V29H150.246V15.2966H148.005V20.6895H147.852C147.328 19.6055 146.208 18.9551 144.853 18.9551C142.36 18.9551 140.788 20.9243 140.788 24.0498C140.788 27.1934 142.351 29.1626 144.853 29.1626ZM145.548 20.8611C147.084 20.8611 148.033 22.0896 148.033 24.0588C148.033 26.0461 147.093 27.2566 145.548 27.2566C144.013 27.2566 143.082 26.0552 143.082 24.0588C143.082 22.0715 144.022 20.8611 145.548 20.8611Z" fill="white"/>
<path fill-rule="evenodd" clip-rule="evenodd" d="M221.5 20.8384C220.78 18.0907 219.031 17 216.645 17C214.711 17 212.284 18.0907 212.284 20.7172C212.284 22.414 213.457 23.7476 215.369 24.0912L217.18 24.4142C218.414 24.6363 218.764 25.1011 218.764 25.7274C218.764 26.4345 218.003 26.8384 216.871 26.8384C215.39 26.8384 214.465 26.3132 214.32 24.8383L211.708 25.2425C212.119 28.0908 214.67 29.2629 216.974 29.2629C219.155 29.2629 221.479 28.0101 221.479 25.4849C221.479 23.7675 220.43 22.5153 218.476 22.1512L216.48 21.7879C215.369 21.5859 214.999 21.0404 214.999 20.5152C214.999 19.8484 215.719 19.4245 216.707 19.4245C217.962 19.4245 218.846 19.8484 218.887 21.2424L221.5 20.8384ZM163.425 25.1613L166.14 17.3029H169.328L164.597 28.9594H162.231L157.5 17.3031H160.688L163.425 25.1613ZM180.108 20.6364C180.108 21.5656 179.368 22.212 178.504 22.212C177.64 22.212 176.899 21.5656 176.899 20.6364C176.899 19.707 177.64 19.0608 178.504 19.0608C179.368 19.0608 180.109 19.707 180.109 20.6364H180.108ZM180.602 24.7577C179.532 26.1311 178.401 27.0806 176.405 27.0807C174.369 27.0807 172.785 25.8686 171.551 24.091C171.057 23.3635 170.296 23.202 169.74 23.5859C169.226 23.9496 169.103 24.7173 169.576 25.3841C171.283 27.9497 173.649 29.4443 176.405 29.4443C178.936 29.4443 180.911 28.2324 182.453 26.2121C183.029 25.4648 183.009 24.6971 182.453 24.2728C181.939 23.8684 181.178 24.0104 180.602 24.7577ZM187.7 23.1009C187.7 25.4849 189.099 26.7376 190.662 26.7376C192.143 26.7376 193.666 25.5657 193.666 23.1009C193.666 20.6765 192.143 19.505 190.683 19.505C189.099 19.505 187.7 20.6161 187.7 23.1009ZM187.7 18.9194V17.323H184.8V33H187.7V27.424C188.667 28.7172 189.922 29.2629 191.341 29.2629C193.995 29.2629 196.587 27.2021 196.587 22.9598C196.587 18.8988 193.892 17.0002 191.588 17.0002C189.757 17.0002 188.502 17.8283 187.7 18.9194ZM201.628 23.1009C201.628 25.4849 203.026 26.7376 204.59 26.7376C206.071 26.7376 207.593 25.5657 207.593 23.1009C207.593 20.6765 206.071 19.505 204.61 19.505C203.026 19.505 201.627 20.6161 201.627 23.1009H201.628ZM201.628 18.9194V17.323H201.627H198.727V33H201.627V27.424C202.594 28.7172 203.849 29.2629 205.268 29.2629C207.922 29.2629 210.514 27.2021 210.514 22.9598C210.514 18.8988 207.819 17.0002 205.515 17.0002C203.684 17.0002 202.43 17.8283 201.628 18.9194Z" fill="white"/>
<defs>
<filter id="filter0_d" x="0" y="0" width="254" height="48" filterUnits="userSpaceOnUse" color-interpolation-filters="sRGB">
<feFlood flood-opacity="0" result="BackgroundImageFix"/>
<feColorMatrix in="SourceAlpha" type="matrix" values="0 0 0 0 0 0 0 0 0 0 0 0 0 0 0 0 0 0 127 0"/>
<feOffset dy="1"/>
<feGaussianBlur stdDeviation="1"/>
<feColorMatrix type="matrix" values="0 0 0 0 0.0862745 0 0 0 0 0.0705882 0 0 0 0 0.145098 0 0 0 0.07 0"/>
<feBlend mode="normal" in2="BackgroundImageFix" result="effect1_dropShadow"/>
<feBlend mode="normal" in="SourceGraphic" in2="effect1_dropShadow" result="shape"/>
</filter>
</defs>
</svg>
