<svg width="250" height="44" viewBox="0 0 250 44" fill="none" xmlns="http://www.w3.org/2000/svg">
<rect width="250" height="44" rx="5" fill="#FF5B24"/>
<path d="M39.7618 25.9585H33.7818V14.9651H31.4513V28H39.7618V25.9585ZM45.6502 28.1987C48.6041 28.1987 50.4017 26.2656 50.4017 23.0588C50.4017 19.8611 48.595 17.9189 45.6502 17.9189C42.7144 17.9189 40.8987 19.8701 40.8987 23.0588C40.8987 26.2656 42.6873 28.1987 45.6502 28.1987ZM45.6502 26.3198C44.0875 26.3198 43.1932 25.1274 43.1932 23.0588C43.1932 20.9993 44.0875 19.7979 45.6502 19.7979C47.2039 19.7979 48.0982 20.9993 48.0982 23.0588C48.0982 25.1274 47.2129 26.3198 45.6502 26.3198ZM56.7056 26.0308C55.1428 26.0308 54.2576 24.8384 54.2576 22.9504C54.2576 21.0625 55.1428 19.8611 56.7056 19.8611C58.2593 19.8611 59.2078 21.0625 59.2078 22.9504C59.2078 24.8384 58.2683 26.0308 56.7056 26.0308ZM56.7056 31.7578C59.5872 31.7578 61.4119 30.3215 61.4119 28.0361V18.1177H59.2529V19.6985H59.0994C58.5574 18.6235 57.3831 17.9551 56.0371 17.9551C53.5168 17.9551 51.9541 19.9243 51.9541 22.9504C51.9541 25.9224 53.5078 27.8555 56.001 27.8555C57.374 27.8555 58.449 27.2773 59.0181 26.2205H59.1716V28.0903C59.1716 29.3279 58.2773 30.0505 56.7417 30.0505C55.5132 30.0505 54.7183 29.6169 54.5737 28.9395H52.3245C52.5051 30.6377 54.1672 31.7578 56.7056 31.7578ZM68.2126 26.0308C66.6499 26.0308 65.7646 24.8384 65.7646 22.9504C65.7646 21.0625 66.6499 19.8611 68.2126 19.8611C69.7663 19.8611 70.7148 21.0625 70.7148 22.9504C70.7148 24.8384 69.7753 26.0308 68.2126 26.0308ZM68.2126 31.7578C71.0942 31.7578 72.9189 30.3215 72.9189 28.0361V18.1177H70.76V19.6985H70.6064C70.0644 18.6235 68.8901 17.9551 67.5441 17.9551C65.0239 17.9551 63.4611 19.9243 63.4611 22.9504C63.4611 25.9224 65.0148 27.8555 67.508 27.8555C68.8811 27.8555 69.956 27.2773 70.5251 26.2205H70.6787V28.0903C70.6787 29.3279 69.7844 30.0505 68.2487 30.0505C67.0202 30.0505 66.2253 29.6169 66.0808 28.9395H63.8315C64.0122 30.6377 65.6743 31.7578 68.2126 31.7578ZM80.2333 28H82.4645V18.1177H80.2333V28ZM81.3443 16.5098C82.1664 16.5098 82.7264 15.9858 82.7264 15.2722C82.7264 14.5586 82.1664 14.0347 81.3443 14.0347C80.5313 14.0347 79.9623 14.5586 79.9623 15.2722C79.9623 15.9858 80.5313 16.5098 81.3443 16.5098ZM85.0467 28H87.2869V22.2458C87.2869 20.7915 88.127 19.8701 89.4639 19.8701C90.8279 19.8701 91.4603 20.6289 91.4603 22.1375V28H93.7005V21.6045C93.7005 19.2468 92.4991 17.9189 90.295 17.9189C88.8226 17.9189 87.8289 18.5964 87.3592 19.6985H87.2056V18.1177H85.0467V28ZM96.1562 28H98.3965V22.2458C98.3965 20.7915 99.2366 19.8701 100.573 19.8701C101.938 19.8701 102.57 20.6289 102.57 22.1375V28H104.81V21.6045C104.81 19.2468 103.609 17.9189 101.405 17.9189C99.9321 17.9189 98.9385 18.5964 98.4688 19.6985H98.3152V18.1177H96.1562V28ZM111.998 28H114.238V21.9929C114.238 20.7825 115.06 19.8701 116.171 19.8701C117.273 19.8701 117.96 20.5295 117.96 21.6135V28H120.137V21.8484C120.137 20.7192 120.905 19.8701 122.07 19.8701C123.271 19.8701 123.877 20.5024 123.877 21.7761V28H126.108V21.207C126.108 19.1565 124.915 17.9189 122.937 17.9189C121.564 17.9189 120.426 18.6326 119.938 19.7166H119.785C119.369 18.6055 118.421 17.9189 117.057 17.9189C115.747 17.9189 114.735 18.5874 114.31 19.7166H114.157V18.1177H111.998V28ZM132.71 19.6985C134.056 19.6985 134.941 20.6379 134.986 22.1013H130.334C130.433 20.656 131.373 19.6985 132.71 19.6985ZM135.004 25.281C134.679 26.0127 133.911 26.4192 132.8 26.4192C131.328 26.4192 130.379 25.3894 130.325 23.7454V23.6279H137.226V22.9053C137.226 19.7888 135.537 17.9189 132.719 17.9189C129.855 17.9189 128.076 19.9153 128.076 23.095C128.076 26.2747 129.828 28.1987 132.737 28.1987C135.067 28.1987 136.702 27.0786 137.127 25.281H135.004ZM142.853 28.1626C144.226 28.1626 145.364 27.5212 145.924 26.4373H146.078V28H148.246V14.2966H146.005V19.6895H145.852C145.328 18.6055 144.208 17.9551 142.853 17.9551C140.36 17.9551 138.788 19.9243 138.788 23.0498C138.788 26.1934 140.351 28.1626 142.853 28.1626ZM143.548 19.8611C145.084 19.8611 146.033 21.0896 146.033 23.0588C146.033 25.0461 145.093 26.2566 143.548 26.2566C142.013 26.2566 141.082 25.0552 141.082 23.0588C141.082 21.0715 142.022 19.8611 143.548 19.8611Z" fill="white"/>
<path fill-rule="evenodd" clip-rule="evenodd" d="M219.5 19.8384C218.78 17.0907 217.031 16 214.645 16C212.711 16 210.284 17.0907 210.284 19.7172C210.284 21.414 211.457 22.7476 213.369 23.0912L215.18 23.4142C216.414 23.6363 216.764 24.1011 216.764 24.7274C216.764 25.4345 216.003 25.8384 214.871 25.8384C213.39 25.8384 212.465 25.3132 212.32 23.8383L209.708 24.2425C210.119 27.0908 212.67 28.2629 214.974 28.2629C217.155 28.2629 219.479 27.0101 219.479 24.4849C219.479 22.7675 218.43 21.5153 216.476 21.1512L214.48 20.7879C213.369 20.5859 212.999 20.0404 212.999 19.5152C212.999 18.8484 213.719 18.4245 214.707 18.4245C215.962 18.4245 216.846 18.8484 216.887 20.2424L219.5 19.8384ZM161.425 24.1613L164.14 16.3029H167.328L162.597 27.9594H160.231L155.5 16.3031H158.688L161.425 24.1613ZM178.108 19.6364C178.108 20.5656 177.368 21.212 176.504 21.212C175.64 21.212 174.899 20.5656 174.899 19.6364C174.899 18.707 175.64 18.0608 176.504 18.0608C177.368 18.0608 178.109 18.707 178.109 19.6364H178.108ZM178.602 23.7577C177.532 25.1311 176.401 26.0806 174.405 26.0807C172.369 26.0807 170.785 24.8686 169.551 23.091C169.057 22.3635 168.296 22.202 167.74 22.5859C167.226 22.9496 167.103 23.7173 167.576 24.3841C169.283 26.9497 171.649 28.4443 174.405 28.4443C176.936 28.4443 178.911 27.2324 180.453 25.2121C181.029 24.4648 181.009 23.6971 180.453 23.2728C179.939 22.8684 179.178 23.0104 178.602 23.7577ZM185.7 22.1009C185.7 24.4849 187.099 25.7376 188.662 25.7376C190.143 25.7376 191.666 24.5657 191.666 22.1009C191.666 19.6765 190.143 18.505 188.683 18.505C187.099 18.505 185.7 19.6161 185.7 22.1009ZM185.7 17.9194V16.323H182.8V32H185.7V26.424C186.667 27.7172 187.922 28.2629 189.341 28.2629C191.995 28.2629 194.587 26.2021 194.587 21.9598C194.587 17.8988 191.892 16.0002 189.588 16.0002C187.757 16.0002 186.502 16.8283 185.7 17.9194ZM199.628 22.1009C199.628 24.4849 201.026 25.7376 202.59 25.7376C204.071 25.7376 205.593 24.5657 205.593 22.1009C205.593 19.6765 204.071 18.505 202.61 18.505C201.026 18.505 199.627 19.6161 199.627 22.1009H199.628ZM199.628 17.9194V16.323H199.627H196.727V32H199.627V26.424C200.594 27.7172 201.849 28.2629 203.268 28.2629C205.922 28.2629 208.514 26.2021 208.514 21.9598C208.514 17.8988 205.819 16.0002 203.515 16.0002C201.684 16.0002 200.43 16.8283 199.628 17.9194Z" fill="white"/>
</svg>
