<svg width="214" height="48" viewBox="0 0 214 48" fill="none" xmlns="http://www.w3.org/2000/svg">
<g filter="url(#filter0_d)">
<rect x="2" y="1" width="210" height="44" rx="5" fill="#FF5B24"/>
</g>
<path d="M21.7618 26.9585H15.7818V15.9651H13.4513V29H21.7618V26.9585ZM27.6502 29.1987C30.6041 29.1987 32.4017 27.2656 32.4017 24.0588C32.4017 20.8611 30.595 18.9189 27.6502 18.9189C24.7144 18.9189 22.8987 20.8701 22.8987 24.0588C22.8987 27.2656 24.6873 29.1987 27.6502 29.1987ZM27.6502 27.3198C26.0875 27.3198 25.1932 26.1274 25.1932 24.0588C25.1932 21.9993 26.0875 20.7979 27.6502 20.7979C29.2039 20.7979 30.0982 21.9993 30.0982 24.0588C30.0982 26.1274 29.2129 27.3198 27.6502 27.3198ZM38.7056 27.0308C37.1428 27.0308 36.2576 25.8384 36.2576 23.9504C36.2576 22.0625 37.1428 20.8611 38.7056 20.8611C40.2593 20.8611 41.2078 22.0625 41.2078 23.9504C41.2078 25.8384 40.2683 27.0308 38.7056 27.0308ZM38.7056 32.7578C41.5872 32.7578 43.4119 31.3215 43.4119 29.0361V19.1177H41.2529V20.6985H41.0994C40.5574 19.6235 39.3831 18.9551 38.0371 18.9551C35.5168 18.9551 33.9541 20.9243 33.9541 23.9504C33.9541 26.9224 35.5078 28.8555 38.001 28.8555C39.374 28.8555 40.449 28.2773 41.0181 27.2205H41.1716V29.0903C41.1716 30.3279 40.2773 31.0505 38.7417 31.0505C37.5132 31.0505 36.7183 30.6169 36.5737 29.9395H34.3245C34.5051 31.6377 36.1672 32.7578 38.7056 32.7578ZM50.2126 27.0308C48.6499 27.0308 47.7646 25.8384 47.7646 23.9504C47.7646 22.0625 48.6499 20.8611 50.2126 20.8611C51.7663 20.8611 52.7148 22.0625 52.7148 23.9504C52.7148 25.8384 51.7753 27.0308 50.2126 27.0308ZM50.2126 32.7578C53.0942 32.7578 54.9189 31.3215 54.9189 29.0361V19.1177H52.76V20.6985H52.6064C52.0644 19.6235 50.8901 18.9551 49.5441 18.9551C47.0239 18.9551 45.4611 20.9243 45.4611 23.9504C45.4611 26.9224 47.0148 28.8555 49.508 28.8555C50.8811 28.8555 51.956 28.2773 52.5251 27.2205H52.6787V29.0903C52.6787 30.3279 51.7844 31.0505 50.2487 31.0505C49.0202 31.0505 48.2253 30.6169 48.0808 29.9395H45.8315C46.0122 31.6377 47.6743 32.7578 50.2126 32.7578ZM62.2333 29H64.4645V19.1177H62.2333V29ZM63.3443 17.5098C64.1664 17.5098 64.7264 16.9858 64.7264 16.2722C64.7264 15.5586 64.1664 15.0347 63.3443 15.0347C62.5313 15.0347 61.9623 15.5586 61.9623 16.2722C61.9623 16.9858 62.5313 17.5098 63.3443 17.5098ZM67.0467 29H69.2869V23.2458C69.2869 21.7915 70.127 20.8701 71.4639 20.8701C72.8279 20.8701 73.4603 21.6289 73.4603 23.1375V29H75.7005V22.6045C75.7005 20.2468 74.4991 18.9189 72.295 18.9189C70.8226 18.9189 69.8289 19.5964 69.3592 20.6985H69.2056V19.1177H67.0467V29ZM78.1562 29H80.3965V23.2458C80.3965 21.7915 81.2366 20.8701 82.5735 20.8701C83.9375 20.8701 84.5698 21.6289 84.5698 23.1375V29H86.8101V22.6045C86.8101 20.2468 85.6086 18.9189 83.4045 18.9189C81.9321 18.9189 80.9385 19.5964 80.4688 20.6985H80.3152V19.1177H78.1562V29ZM93.9979 29H96.2382V22.9929C96.2382 21.7825 97.0602 20.8701 98.1713 20.8701C99.2733 20.8701 99.9599 21.5295 99.9599 22.6135V29H102.137V22.8484C102.137 21.7192 102.905 20.8701 104.07 20.8701C105.271 20.8701 105.877 21.5024 105.877 22.7761V29H108.108V22.207C108.108 20.1565 106.915 18.9189 104.937 18.9189C103.564 18.9189 102.426 19.6326 101.938 20.7166H101.785C101.369 19.6055 100.421 18.9189 99.0565 18.9189C97.7467 18.9189 96.735 19.5874 96.3104 20.7166H96.1569V19.1177H93.9979V29ZM114.71 20.6985C116.056 20.6985 116.941 21.6379 116.986 23.1013H112.334C112.433 21.656 113.373 20.6985 114.71 20.6985ZM117.004 26.281C116.679 27.0127 115.911 27.4192 114.8 27.4192C113.328 27.4192 112.379 26.3894 112.325 24.7454V24.6279H119.226V23.9053C119.226 20.7888 117.537 18.9189 114.719 18.9189C111.855 18.9189 110.076 20.9153 110.076 24.095C110.076 27.2747 111.828 29.1987 114.737 29.1987C117.067 29.1987 118.702 28.0786 119.127 26.281H117.004ZM124.853 29.1626C126.226 29.1626 127.364 28.5212 127.924 27.4373H128.078V29H130.246V15.2966H128.005V20.6895H127.852C127.328 19.6055 126.208 18.9551 124.853 18.9551C122.36 18.9551 120.788 20.9243 120.788 24.0498C120.788 27.1934 122.351 29.1626 124.853 29.1626ZM125.548 20.8611C127.084 20.8611 128.033 22.0896 128.033 24.0588C128.033 26.0461 127.093 27.2566 125.548 27.2566C124.013 27.2566 123.082 26.0552 123.082 24.0588C123.082 22.0715 124.022 20.8611 125.548 20.8611Z" fill="white"/>
<path fill-rule="evenodd" clip-rule="evenodd" d="M201.5 20.8384C200.78 18.0907 199.031 17 196.645 17C194.711 17 192.284 18.0907 192.284 20.7172C192.284 22.414 193.457 23.7476 195.369 24.0912L197.18 24.4142C198.414 24.6363 198.764 25.1011 198.764 25.7274C198.764 26.4345 198.003 26.8384 196.871 26.8384C195.39 26.8384 194.465 26.3132 194.32 24.8383L191.708 25.2425C192.119 28.0908 194.67 29.2629 196.974 29.2629C199.155 29.2629 201.479 28.0101 201.479 25.4849C201.479 23.7675 200.43 22.5153 198.476 22.1512L196.48 21.7879C195.369 21.5859 194.999 21.0404 194.999 20.5152C194.999 19.8484 195.719 19.4245 196.707 19.4245C197.962 19.4245 198.846 19.8484 198.887 21.2424L201.5 20.8384ZM143.425 25.1613L146.14 17.3029H149.328L144.597 28.9594H142.231L137.5 17.3031H140.688L143.425 25.1613ZM160.108 20.6364C160.108 21.5656 159.368 22.212 158.504 22.212C157.64 22.212 156.899 21.5656 156.899 20.6364C156.899 19.707 157.64 19.0608 158.504 19.0608C159.368 19.0608 160.109 19.707 160.109 20.6364H160.108ZM160.602 24.7577C159.532 26.1311 158.401 27.0806 156.405 27.0807C154.369 27.0807 152.785 25.8686 151.551 24.091C151.057 23.3635 150.296 23.202 149.74 23.5859C149.226 23.9496 149.103 24.7173 149.576 25.3841C151.283 27.9497 153.649 29.4443 156.405 29.4443C158.936 29.4443 160.911 28.2324 162.453 26.2121C163.029 25.4648 163.009 24.6971 162.453 24.2728C161.939 23.8684 161.178 24.0104 160.602 24.7577ZM167.7 23.1009C167.7 25.4849 169.099 26.7376 170.662 26.7376C172.143 26.7376 173.666 25.5657 173.666 23.1009C173.666 20.6765 172.143 19.505 170.683 19.505C169.099 19.505 167.7 20.6161 167.7 23.1009ZM167.7 18.9194V17.323H164.8V33H167.7V27.424C168.667 28.7172 169.922 29.2629 171.341 29.2629C173.995 29.2629 176.587 27.2021 176.587 22.9598C176.587 18.8988 173.892 17.0002 171.588 17.0002C169.757 17.0002 168.502 17.8283 167.7 18.9194ZM181.628 23.1009C181.628 25.4849 183.026 26.7376 184.59 26.7376C186.071 26.7376 187.593 25.5657 187.593 23.1009C187.593 20.6765 186.071 19.505 184.61 19.505C183.026 19.505 181.627 20.6161 181.627 23.1009H181.628ZM181.628 18.9194V17.323H181.627H178.727V33H181.627V27.424C182.594 28.7172 183.849 29.2629 185.268 29.2629C187.922 29.2629 190.514 27.2021 190.514 22.9598C190.514 18.8988 187.819 17.0002 185.515 17.0002C183.684 17.0002 182.43 17.8283 181.628 18.9194Z" fill="white"/>
<defs>
<filter id="filter0_d" x="0" y="0" width="214" height="48" filterUnits="userSpaceOnUse" color-interpolation-filters="sRGB">
<feFlood flood-opacity="0" result="BackgroundImageFix"/>
<feColorMatrix in="SourceAlpha" type="matrix" values="0 0 0 0 0 0 0 0 0 0 0 0 0 0 0 0 0 0 127 0"/>
<feOffset dy="1"/>
<feGaussianBlur stdDeviation="1"/>
<feColorMatrix type="matrix" values="0 0 0 0 0.0862745 0 0 0 0 0.0705882 0 0 0 0 0.145098 0 0 0 0.07 0"/>
<feBlend mode="normal" in2="BackgroundImageFix" result="effect1_dropShadow"/>
<feBlend mode="normal" in="SourceGraphic" in2="effect1_dropShadow" result="shape"/>
</filter>
</defs>
</svg>
