<svg width="140" height="40" viewBox="0 0 140 40" fill="none" xmlns="http://www.w3.org/2000/svg">
<rect width="140" height="40" rx="5" fill="#FF5B24"/>
<path d="M40.8672 26V12.9651H38.5457V18.3579H32.2044V12.9651H29.8738V26H32.2044V20.3723H38.5457V26H40.8672ZM52.2568 16.1177H50.0166V21.8718C50.0166 23.3352 49.2217 24.2295 47.7673 24.2295C46.4304 24.2295 45.8071 23.4888 45.8071 21.9802V16.1177H43.5669V22.5403C43.5669 24.8528 44.8315 26.1987 46.9905 26.1987C48.499 26.1987 49.4656 25.5574 49.9443 24.4282H50.0979V26H52.2568V16.1177ZM54.8029 26H57.0432V20.291C57.0432 18.9089 58.0549 18.0056 59.5092 18.0056C59.8886 18.0056 60.4848 18.0688 60.6564 18.1321V16.0544C60.4487 15.9912 60.0512 15.9551 59.726 15.9551C58.4523 15.9551 57.3864 16.6777 57.1154 17.6533H56.9619V16.1177H54.8029V26ZM63.4645 13.6968V16.1809H61.9018V17.9695H63.4645V23.3623C63.4645 25.2773 64.3678 26.0452 66.6352 26.0452C67.0687 26.0452 67.4843 26 67.8095 25.9368V24.1843C67.5385 24.2114 67.3668 24.2295 67.0507 24.2295C66.1112 24.2295 65.6957 23.7959 65.6957 22.8203V17.9695H67.8095V16.1809H65.6957V13.6968H63.4645ZM69.8768 26H72.108V16.1177H69.8768V26ZM70.9879 14.5098C71.8099 14.5098 72.37 13.9858 72.37 13.2722C72.37 12.5586 71.8099 12.0347 70.9879 12.0347C70.1749 12.0347 69.6058 12.5586 69.6058 13.2722C69.6058 13.9858 70.1749 14.5098 70.9879 14.5098ZM78.9358 24.0308C77.3731 24.0308 76.4878 22.8384 76.4878 20.9504C76.4878 19.0625 77.3731 17.8611 78.9358 17.8611C80.4895 17.8611 81.438 19.0625 81.438 20.9504C81.438 22.8384 80.4986 24.0308 78.9358 24.0308ZM78.9358 29.7578C81.8174 29.7578 83.6421 28.3215 83.6421 26.0361V16.1177H81.4832V17.6985H81.3296C80.7876 16.6235 79.6133 15.9551 78.2674 15.9551C75.7471 15.9551 74.1844 17.9243 74.1844 20.9504C74.1844 23.9224 75.7381 25.8555 78.2312 25.8555C79.6043 25.8555 80.6792 25.2773 81.2483 24.2205H81.4019V26.0903C81.4019 27.3279 80.5076 28.0505 78.972 28.0505C77.7435 28.0505 76.9485 27.6169 76.804 26.9395H74.5547C74.7354 28.6377 76.3975 29.7578 78.9358 29.7578ZM88.6814 20.1465H88.5278V12.2966H86.2876V26H88.5278V22.5583L89.3228 21.7634L92.4934 26H95.2034L90.9939 20.3542L94.9324 16.1177H92.3308L88.6814 20.1465ZM99.7819 24.4011C98.7883 24.4011 98.0747 23.9043 98.0747 23.0732C98.0747 22.2693 98.6618 21.8176 99.9174 21.7363L102.149 21.5918V22.3777C102.149 23.5249 101.137 24.4011 99.7819 24.4011ZM99.1225 26.1626C100.414 26.1626 101.498 25.6025 102.049 24.645H102.203V26H104.362V19.2522C104.362 17.1565 102.935 15.9189 100.396 15.9189C98.0476 15.9189 96.4125 17.03 96.2319 18.7734H98.3456C98.5534 18.105 99.258 17.7437 100.288 17.7437C101.498 17.7437 102.149 18.2856 102.149 19.2522V20.0833L99.6013 20.2368C97.1984 20.3813 95.8525 21.4111 95.8525 23.1997C95.8525 25.0063 97.2165 26.1626 99.1225 26.1626ZM106.637 18.9451C106.637 20.4355 107.531 21.3118 109.428 21.7454L111.181 22.1519C112.12 22.3596 112.545 22.7119 112.545 23.272C112.545 24.0037 111.759 24.5005 110.63 24.5005C109.509 24.5005 108.814 24.0669 108.597 23.3352H106.384C106.556 25.1328 108.109 26.1987 110.575 26.1987C113.041 26.1987 114.785 24.9341 114.785 23.0371C114.785 21.5828 113.909 20.7698 112.021 20.3452L110.277 19.9478C109.284 19.7219 108.814 19.3787 108.814 18.8186C108.814 18.105 109.582 17.6172 110.602 17.6172C111.65 17.6172 112.31 18.0598 112.472 18.7554H114.577C114.414 16.9578 112.942 15.9189 110.593 15.9189C108.263 15.9189 106.637 17.1565 106.637 18.9451ZM116.446 18.9451C116.446 20.4355 117.34 21.3118 119.237 21.7454L120.989 22.1519C121.929 22.3596 122.353 22.7119 122.353 23.272C122.353 24.0037 121.567 24.5005 120.438 24.5005C119.318 24.5005 118.623 24.0669 118.406 23.3352H116.193C116.364 25.1328 117.918 26.1987 120.384 26.1987C122.85 26.1987 124.594 24.9341 124.594 23.0371C124.594 21.5828 123.717 20.7698 121.829 20.3452L120.086 19.9478C119.092 19.7219 118.623 19.3787 118.623 18.8186C118.623 18.105 119.39 17.6172 120.411 17.6172C121.459 17.6172 122.118 18.0598 122.281 18.7554H124.386C124.223 16.9578 122.751 15.9189 120.402 15.9189C118.072 15.9189 116.446 17.1565 116.446 18.9451ZM130.807 17.6985C132.153 17.6985 133.038 18.6379 133.084 20.1013H128.431C128.531 18.656 129.47 17.6985 130.807 17.6985ZM133.102 23.281C132.776 24.0127 132.009 24.4192 130.898 24.4192C129.425 24.4192 128.477 23.3894 128.422 21.7454V21.6279H135.324V20.9053C135.324 17.7888 133.635 15.9189 130.816 15.9189C127.953 15.9189 126.173 17.9153 126.173 21.095C126.173 24.2747 127.926 26.1987 130.834 26.1987C133.165 26.1987 134.8 25.0786 135.224 23.281H133.102Z" fill="white"/>
<path fill-rule="evenodd" clip-rule="evenodd" d="M18.2099 17.1925C19.3539 17.1925 20.3342 16.3368 20.3342 15.1068H20.3345C20.3345 13.8765 19.3539 13.021 18.2099 13.021C17.0663 13.021 16.0862 13.8765 16.0862 15.1068C16.0862 16.3368 17.0663 17.1925 18.2099 17.1925ZM20.9878 20.5625C19.5715 22.3805 18.0738 23.6375 15.4323 23.6376C12.7371 23.6376 10.6397 22.033 9.00589 19.6798C8.35213 18.7169 7.34456 18.5031 6.60915 19.0112C5.92847 19.4927 5.76547 20.5089 6.39143 21.3916C8.6515 24.7879 11.7831 26.7665 15.432 26.7665C18.7819 26.7665 21.3963 25.1622 23.4384 22.4878C24.2007 21.4985 24.1735 20.4822 23.4384 19.9205C22.7574 19.3852 21.7499 19.5732 20.9878 20.5625Z" fill="white"/>
</svg>
