<svg width="210" height="44" viewBox="0 0 210 44" fill="none" xmlns="http://www.w3.org/2000/svg">
<rect width="210" height="44" rx="5" fill="#FF5B24"/>
<path d="M98.8672 28V14.9651H96.5457V20.3579H90.2044V14.9651H87.8738V28H90.2044V22.3723H96.5457V28H98.8672ZM110.257 18.1177H108.017V23.8718C108.017 25.3352 107.222 26.2295 105.767 26.2295C104.43 26.2295 103.807 25.4888 103.807 23.9802V18.1177H101.567V24.5403C101.567 26.8528 102.832 28.1987 104.99 28.1987C106.499 28.1987 107.466 27.5574 107.944 26.4282H108.098V28H110.257V18.1177ZM112.803 28H115.043V22.291C115.043 20.9089 116.055 20.0056 117.509 20.0056C117.889 20.0056 118.485 20.0688 118.656 20.1321V18.0544C118.449 17.9912 118.051 17.9551 117.726 17.9551C116.452 17.9551 115.386 18.6777 115.115 19.6533H114.962V18.1177H112.803V28ZM121.465 15.6968V18.1809H119.902V19.9695H121.465V25.3623C121.465 27.2773 122.368 28.0452 124.635 28.0452C125.069 28.0452 125.484 28 125.809 27.9368V26.1843C125.538 26.2114 125.367 26.2295 125.051 26.2295C124.111 26.2295 123.696 25.7959 123.696 24.8203V19.9695H125.809V18.1809H123.696V15.6968H121.465ZM127.877 28H130.108V18.1177H127.877V28ZM128.988 16.5098C129.81 16.5098 130.37 15.9858 130.37 15.2722C130.37 14.5586 129.81 14.0347 128.988 14.0347C128.175 14.0347 127.606 14.5586 127.606 15.2722C127.606 15.9858 128.175 16.5098 128.988 16.5098ZM136.936 26.0308C135.373 26.0308 134.488 24.8384 134.488 22.9504C134.488 21.0625 135.373 19.8611 136.936 19.8611C138.49 19.8611 139.438 21.0625 139.438 22.9504C139.438 24.8384 138.499 26.0308 136.936 26.0308ZM136.936 31.7578C139.817 31.7578 141.642 30.3215 141.642 28.0361V18.1177H139.483V19.6985H139.33C138.788 18.6235 137.613 17.9551 136.267 17.9551C133.747 17.9551 132.184 19.9243 132.184 22.9504C132.184 25.9224 133.738 27.8555 136.231 27.8555C137.604 27.8555 138.679 27.2773 139.248 26.2205H139.402V28.0903C139.402 29.3279 138.508 30.0505 136.972 30.0505C135.743 30.0505 134.949 29.6169 134.804 28.9395H132.555C132.735 30.6377 134.398 31.7578 136.936 31.7578ZM146.681 22.1465H146.528V14.2966H144.288V28H146.528V24.5583L147.323 23.7634L150.493 28H153.203L148.994 22.3542L152.932 18.1177H150.331L146.681 22.1465ZM157.782 26.4011C156.788 26.4011 156.075 25.9043 156.075 25.0732C156.075 24.2693 156.662 23.8176 157.917 23.7363L160.149 23.5918V24.3777C160.149 25.5249 159.137 26.4011 157.782 26.4011ZM157.123 28.1626C158.414 28.1626 159.498 27.6025 160.049 26.645H160.203V28H162.362V21.2522C162.362 19.1565 160.935 17.9189 158.396 17.9189C156.048 17.9189 154.413 19.03 154.232 20.7734H156.346C156.553 20.105 157.258 19.7437 158.288 19.7437C159.498 19.7437 160.149 20.2856 160.149 21.2522V22.0833L157.601 22.2368C155.198 22.3813 153.852 23.4111 153.852 25.1997C153.852 27.0063 155.216 28.1626 157.123 28.1626ZM164.637 20.9451C164.637 22.4355 165.531 23.3118 167.428 23.7454L169.181 24.1519C170.12 24.3596 170.545 24.7119 170.545 25.272C170.545 26.0037 169.759 26.5005 168.63 26.5005C167.509 26.5005 166.814 26.0669 166.597 25.3352H164.384C164.556 27.1328 166.109 28.1987 168.575 28.1987C171.041 28.1987 172.785 26.9341 172.785 25.0371C172.785 23.5828 171.909 22.7698 170.021 22.3452L168.277 21.9478C167.284 21.7219 166.814 21.3787 166.814 20.8186C166.814 20.105 167.582 19.6172 168.602 19.6172C169.65 19.6172 170.31 20.0598 170.472 20.7554H172.577C172.414 18.9578 170.942 17.9189 168.593 17.9189C166.263 17.9189 164.637 19.1565 164.637 20.9451ZM174.446 20.9451C174.446 22.4355 175.34 23.3118 177.237 23.7454L178.989 24.1519C179.929 24.3596 180.353 24.7119 180.353 25.272C180.353 26.0037 179.567 26.5005 178.438 26.5005C177.318 26.5005 176.623 26.0669 176.406 25.3352H174.193C174.364 27.1328 175.918 28.1987 178.384 28.1987C180.85 28.1987 182.594 26.9341 182.594 25.0371C182.594 23.5828 181.717 22.7698 179.829 22.3452L178.086 21.9478C177.092 21.7219 176.623 21.3787 176.623 20.8186C176.623 20.105 177.39 19.6172 178.411 19.6172C179.459 19.6172 180.118 20.0598 180.281 20.7554H182.386C182.223 18.9578 180.751 17.9189 178.402 17.9189C176.072 17.9189 174.446 19.1565 174.446 20.9451ZM188.807 19.6985C190.153 19.6985 191.038 20.6379 191.084 22.1013H186.431C186.531 20.656 187.47 19.6985 188.807 19.6985ZM191.102 25.281C190.776 26.0127 190.009 26.4192 188.898 26.4192C187.425 26.4192 186.477 25.3894 186.422 23.7454V23.6279H193.324V22.9053C193.324 19.7888 191.635 17.9189 188.816 17.9189C185.953 17.9189 184.173 19.9153 184.173 23.095C184.173 26.2747 185.926 28.1987 188.834 28.1987C191.165 28.1987 192.8 27.0786 193.224 25.281H191.102Z" fill="white"/>
<path fill-rule="evenodd" clip-rule="evenodd" d="M80 19.8384C79.2798 17.0907 77.5314 16 75.1447 16C73.2111 16 70.7842 17.0907 70.7842 19.7172C70.7842 21.414 71.9565 22.7476 73.8694 23.0912L75.6797 23.4142C76.9141 23.6363 77.2639 24.1011 77.2639 24.7274C77.2639 25.4345 76.5027 25.8384 75.3713 25.8384C73.8904 25.8384 72.9646 25.3132 72.8205 23.8383L70.2081 24.2425C70.6193 27.0908 73.17 28.2629 75.4739 28.2629C77.6547 28.2629 79.9792 27.0101 79.9792 24.4849C79.9792 22.7675 78.9298 21.5153 76.9756 21.1512L74.9805 20.7879C73.8694 20.5859 73.4993 20.0404 73.4993 19.5152C73.4993 18.8484 74.2191 18.4245 75.2066 18.4245C76.4616 18.4245 77.3461 18.8484 77.3872 20.2424L80 19.8384ZM21.925 24.1613L24.6399 16.3029H27.8283L23.0969 27.9594H20.7315L16 16.3031H19.1884L21.925 24.1613ZM38.6084 19.6364C38.6084 20.5656 37.8678 21.212 37.0037 21.212C36.1397 21.212 35.3994 20.5656 35.3994 19.6364C35.3994 18.707 36.1397 18.0608 37.0037 18.0608C37.8678 18.0608 38.6086 18.707 38.6086 19.6364H38.6084ZM39.102 23.7577C38.0321 25.1311 36.9007 26.0806 34.9053 26.0807C32.8693 26.0807 31.2849 24.8686 30.0507 23.091C29.5568 22.3635 28.7957 22.202 28.2402 22.5859C27.726 22.9496 27.6028 23.7173 28.0757 24.3841C29.783 26.9497 32.1486 28.4443 34.9051 28.4443C37.4356 28.4443 39.4106 27.2324 40.9532 25.2121C41.5291 24.4648 41.5085 23.6971 40.9532 23.2728C40.4388 22.8684 39.6777 23.0104 39.102 23.7577ZM46.2 22.1009C46.2 24.4849 47.5989 25.7376 49.1625 25.7376C50.6434 25.7376 52.1659 24.5657 52.1659 22.1009C52.1659 19.6765 50.6434 18.505 49.1828 18.505C47.5989 18.505 46.2 19.6161 46.2 22.1009ZM46.2 17.9194V16.323H43.2996V32H46.2V26.424C47.1669 27.7172 48.4217 28.2629 49.8409 28.2629C52.495 28.2629 55.0868 26.2021 55.0868 21.9598C55.0868 17.8988 52.392 16.0002 50.0879 16.0002C48.257 16.0002 47.0024 16.8283 46.2 17.9194ZM60.1275 22.1009C60.1275 24.4849 61.5262 25.7376 63.0898 25.7376C64.5707 25.7376 66.093 24.5657 66.093 22.1009C66.093 19.6765 64.5707 18.505 63.1102 18.505C61.5262 18.505 60.1273 19.6161 60.1273 22.1009H60.1275ZM60.1275 17.9194V16.323H60.1273H57.2269V32H60.1273V26.424C61.0943 27.7172 62.349 28.2629 63.7683 28.2629C66.4222 28.2629 69.0142 26.2021 69.0142 21.9598C69.0142 17.8988 66.3194 16.0002 64.0152 16.0002C62.1843 16.0002 60.9298 16.8283 60.1275 17.9194Z" fill="white"/>
</svg>
