<svg width="250" height="44" viewBox="0 0 250 44" fill="none" xmlns="http://www.w3.org/2000/svg">
<rect width="250" height="44" rx="5" fill="#FF5B24"/>
<path d="M118.867 28V14.9651H116.546V20.3579H110.204V14.9651H107.874V28H110.204V22.3723H116.546V28H118.867ZM130.257 18.1177H128.017V23.8718C128.017 25.3352 127.222 26.2295 125.767 26.2295C124.43 26.2295 123.807 25.4888 123.807 23.9802V18.1177H121.567V24.5403C121.567 26.8528 122.832 28.1987 124.99 28.1987C126.499 28.1987 127.466 27.5574 127.944 26.4282H128.098V28H130.257V18.1177ZM132.803 28H135.043V22.291C135.043 20.9089 136.055 20.0056 137.509 20.0056C137.889 20.0056 138.485 20.0688 138.656 20.1321V18.0544C138.449 17.9912 138.051 17.9551 137.726 17.9551C136.452 17.9551 135.386 18.6777 135.115 19.6533H134.962V18.1177H132.803V28ZM141.465 15.6968V18.1809H139.902V19.9695H141.465V25.3623C141.465 27.2773 142.368 28.0452 144.635 28.0452C145.069 28.0452 145.484 28 145.809 27.9368V26.1843C145.538 26.2114 145.367 26.2295 145.051 26.2295C144.111 26.2295 143.696 25.7959 143.696 24.8203V19.9695H145.809V18.1809H143.696V15.6968H141.465ZM147.877 28H150.108V18.1177H147.877V28ZM148.988 16.5098C149.81 16.5098 150.37 15.9858 150.37 15.2722C150.37 14.5586 149.81 14.0347 148.988 14.0347C148.175 14.0347 147.606 14.5586 147.606 15.2722C147.606 15.9858 148.175 16.5098 148.988 16.5098ZM156.936 26.0308C155.373 26.0308 154.488 24.8384 154.488 22.9504C154.488 21.0625 155.373 19.8611 156.936 19.8611C158.49 19.8611 159.438 21.0625 159.438 22.9504C159.438 24.8384 158.499 26.0308 156.936 26.0308ZM156.936 31.7578C159.817 31.7578 161.642 30.3215 161.642 28.0361V18.1177H159.483V19.6985H159.33C158.788 18.6235 157.613 17.9551 156.267 17.9551C153.747 17.9551 152.184 19.9243 152.184 22.9504C152.184 25.9224 153.738 27.8555 156.231 27.8555C157.604 27.8555 158.679 27.2773 159.248 26.2205H159.402V28.0903C159.402 29.3279 158.508 30.0505 156.972 30.0505C155.743 30.0505 154.949 29.6169 154.804 28.9395H152.555C152.735 30.6377 154.398 31.7578 156.936 31.7578ZM166.681 22.1465H166.528V14.2966H164.288V28H166.528V24.5583L167.323 23.7634L170.493 28H173.203L168.994 22.3542L172.932 18.1177H170.331L166.681 22.1465ZM177.782 26.4011C176.788 26.4011 176.075 25.9043 176.075 25.0732C176.075 24.2693 176.662 23.8176 177.917 23.7363L180.149 23.5918V24.3777C180.149 25.5249 179.137 26.4011 177.782 26.4011ZM177.123 28.1626C178.414 28.1626 179.498 27.6025 180.049 26.645H180.203V28H182.362V21.2522C182.362 19.1565 180.935 17.9189 178.396 17.9189C176.048 17.9189 174.413 19.03 174.232 20.7734H176.346C176.553 20.105 177.258 19.7437 178.288 19.7437C179.498 19.7437 180.149 20.2856 180.149 21.2522V22.0833L177.601 22.2368C175.198 22.3813 173.852 23.4111 173.852 25.1997C173.852 27.0063 175.216 28.1626 177.123 28.1626ZM184.637 20.9451C184.637 22.4355 185.531 23.3118 187.428 23.7454L189.181 24.1519C190.12 24.3596 190.545 24.7119 190.545 25.272C190.545 26.0037 189.759 26.5005 188.63 26.5005C187.509 26.5005 186.814 26.0669 186.597 25.3352H184.384C184.556 27.1328 186.109 28.1987 188.575 28.1987C191.041 28.1987 192.785 26.9341 192.785 25.0371C192.785 23.5828 191.909 22.7698 190.021 22.3452L188.277 21.9478C187.284 21.7219 186.814 21.3787 186.814 20.8186C186.814 20.105 187.582 19.6172 188.602 19.6172C189.65 19.6172 190.31 20.0598 190.472 20.7554H192.577C192.414 18.9578 190.942 17.9189 188.593 17.9189C186.263 17.9189 184.637 19.1565 184.637 20.9451ZM194.446 20.9451C194.446 22.4355 195.34 23.3118 197.237 23.7454L198.989 24.1519C199.929 24.3596 200.353 24.7119 200.353 25.272C200.353 26.0037 199.567 26.5005 198.438 26.5005C197.318 26.5005 196.623 26.0669 196.406 25.3352H194.193C194.364 27.1328 195.918 28.1987 198.384 28.1987C200.85 28.1987 202.594 26.9341 202.594 25.0371C202.594 23.5828 201.717 22.7698 199.829 22.3452L198.086 21.9478C197.092 21.7219 196.623 21.3787 196.623 20.8186C196.623 20.105 197.39 19.6172 198.411 19.6172C199.459 19.6172 200.118 20.0598 200.281 20.7554H202.386C202.223 18.9578 200.751 17.9189 198.402 17.9189C196.072 17.9189 194.446 19.1565 194.446 20.9451ZM208.807 19.6985C210.153 19.6985 211.038 20.6379 211.084 22.1013H206.431C206.531 20.656 207.47 19.6985 208.807 19.6985ZM211.102 25.281C210.776 26.0127 210.009 26.4192 208.898 26.4192C207.425 26.4192 206.477 25.3894 206.422 23.7454V23.6279H213.324V22.9053C213.324 19.7888 211.635 17.9189 208.816 17.9189C205.953 17.9189 204.173 19.9153 204.173 23.095C204.173 26.2747 205.926 28.1987 208.834 28.1987C211.165 28.1987 212.8 27.0786 213.224 25.281H211.102Z" fill="white"/>
<path fill-rule="evenodd" clip-rule="evenodd" d="M100 19.8384C99.2798 17.0907 97.5314 16 95.1447 16C93.2111 16 90.7842 17.0907 90.7842 19.7172C90.7842 21.414 91.9565 22.7476 93.8694 23.0912L95.6797 23.4142C96.9141 23.6363 97.2639 24.1011 97.2639 24.7274C97.2639 25.4345 96.5027 25.8384 95.3713 25.8384C93.8904 25.8384 92.9646 25.3132 92.8205 23.8383L90.2081 24.2425C90.6193 27.0908 93.17 28.2629 95.4739 28.2629C97.6547 28.2629 99.9792 27.0101 99.9792 24.4849C99.9792 22.7675 98.9298 21.5153 96.9756 21.1512L94.9805 20.7879C93.8694 20.5859 93.4993 20.0404 93.4993 19.5152C93.4993 18.8484 94.2191 18.4245 95.2066 18.4245C96.4616 18.4245 97.3461 18.8484 97.3872 20.2424L100 19.8384ZM41.925 24.1613L44.6399 16.3029H47.8283L43.0969 27.9594H40.7315L36 16.3031H39.1884L41.925 24.1613ZM58.6084 19.6364C58.6084 20.5656 57.8678 21.212 57.0037 21.212C56.1397 21.212 55.3994 20.5656 55.3994 19.6364C55.3994 18.707 56.1397 18.0608 57.0037 18.0608C57.8678 18.0608 58.6086 18.707 58.6086 19.6364H58.6084ZM59.102 23.7577C58.0321 25.1311 56.9007 26.0806 54.9053 26.0807C52.8693 26.0807 51.2849 24.8686 50.0507 23.091C49.5568 22.3635 48.7957 22.202 48.2402 22.5859C47.726 22.9496 47.6028 23.7173 48.0757 24.3841C49.783 26.9497 52.1486 28.4443 54.9051 28.4443C57.4356 28.4443 59.4106 27.2324 60.9532 25.2121C61.5291 24.4648 61.5085 23.6971 60.9532 23.2728C60.4388 22.8684 59.6777 23.0104 59.102 23.7577ZM66.2 22.1009C66.2 24.4849 67.5989 25.7376 69.1625 25.7376C70.6434 25.7376 72.1659 24.5657 72.1659 22.1009C72.1659 19.6765 70.6434 18.505 69.1828 18.505C67.5989 18.505 66.2 19.6161 66.2 22.1009ZM66.2 17.9194V16.323H63.2996V32H66.2V26.424C67.1669 27.7172 68.4217 28.2629 69.8409 28.2629C72.495 28.2629 75.0868 26.2021 75.0868 21.9598C75.0868 17.8988 72.392 16.0002 70.0879 16.0002C68.257 16.0002 67.0024 16.8283 66.2 17.9194ZM80.1275 22.1009C80.1275 24.4849 81.5262 25.7376 83.0898 25.7376C84.5707 25.7376 86.093 24.5657 86.093 22.1009C86.093 19.6765 84.5707 18.505 83.1102 18.505C81.5262 18.505 80.1273 19.6161 80.1273 22.1009H80.1275ZM80.1275 17.9194V16.323H80.1273H77.2269V32H80.1273V26.424C81.0943 27.7172 82.349 28.2629 83.7683 28.2629C86.4222 28.2629 89.0142 26.2021 89.0142 21.9598C89.0142 17.8988 86.3194 16.0002 84.0152 16.0002C82.1843 16.0002 80.9298 16.8283 80.1275 17.9194Z" fill="white"/>
</svg>
