<svg fill="none" height="44" viewBox="0 0 250 44" width="250" xmlns="http://www.w3.org/2000/svg"><path d="m0 22c0-12.15026 9.84973-22 22-22h206c12.15 0 22 9.84974 22 22 0 12.1503-9.85 22-22 22h-206c-12.15026 0-22-9.8497-22-22z" fill="#ff5b24"/><g fill="#fff"><path d="m36.4643 28.25v-5.3206h5.465v-1.8969h-5.465v-3.8572h5.9799v-1.9602h-8.3105v13.0349zm12.3922.1987c2.9539 0 4.7515-1.9331 4.7515-5.1399 0-3.1887-1.8066-5.1218-4.7515-5.1218-2.9357 0-4.7514 1.9422-4.7514 5.1218 0 3.2068 1.7886 5.1399 4.7514 5.1399zm0-1.8337c-1.5627 0-2.457-1.2105-2.457-3.2971 0-2.0867.8943-3.2971 2.457-3.2971 1.5538 0 2.448 1.2104 2.448 3.2971 0 2.0866-.8852 3.2971-2.448 3.2971zm6.8098 1.635h2.2402v-5.7361c0-1.3911 1.0118-2.2944 2.4661-2.2944.3794 0 .9756.0632 1.1472.1264v-2.0415c-.2077-.0542-.6052-.0903-.9304-.0903-1.2737 0-2.3396.7227-2.6106 1.6983h-.1536v-1.5357h-2.1589zm8.6616-12.2942v2.4841h-1.5628v1.7434h1.5628v5.4471c0 1.906.9033 2.6648 3.1706 2.6648.4336 0 .8492-.0362 1.1743-.0994v-1.7163c-.2709.0271-.4426.0452-.7587.0452-.9395 0-1.355-.4427-1.355-1.4273v-4.9141h2.1137v-1.7434h-2.1137v-2.4841zm6.0329 5.2393c0 1.4814.8943 2.3486 2.7913 2.7822l1.7524.4065c.9394.2168 1.364.5781 1.364 1.1382 0 .7497-.7859 1.2646-1.915 1.2646-1.1202 0-1.8157-.4516-2.0325-1.1833h-2.2131c.1716 1.7795 1.7253 2.8454 4.1914 2.8454 2.466 0 4.2094-1.2556 4.2094-3.1435 0-1.4544-.8762-2.2583-2.7641-2.6919l-1.7434-.3884c-.9937-.2349-1.4634-.5872-1.4634-1.1473 0-.7317.7678-1.2285 1.7886-1.2285 1.0478 0 1.7072.4517 1.8698 1.1472h2.1048c-.1626-1.7795-1.635-2.8093-3.9837-2.8093-2.3305 0-3.9565 1.2376-3.9565 3.0081zm16.6559 4.354c-.3251.7407-1.093 1.1562-2.2041 1.1562-1.4724 0-2.4209-1.0478-2.4751-2.719v-.1174h6.9014v-.7136c0-3.0984-1.6892-4.9683-4.5076-4.9683-2.8635 0-4.643 1.9963-4.643 5.167 0 3.1616 1.7524 5.0947 4.6611 5.0947 2.3306 0 3.9837-1.1201 4.3901-2.8996zm-2.2944-5.6187c1.346 0 2.2312.9485 2.2764 2.448h-4.6521c.0993-1.4814 1.0388-2.448 2.3757-2.448zm7.2795-3.9746v2.4841h-1.5627v1.7434h1.5627v5.4471c0 1.906.9033 2.6648 3.1707 2.6648.4336 0 .8491-.0362 1.1743-.0994v-1.7163c-.271.0271-.4427.0452-.7588.0452-.9395 0-1.355-.4427-1.355-1.4273v-4.9141h2.1138v-1.7434h-2.1138v-2.4841zm7.153 0v2.4841h-1.5627v1.7434h1.5627v5.4471c0 1.906.9032 2.6648 3.1702 2.6648.434 0 .85-.0362 1.175-.0994v-1.7163c-.271.0271-.443.0452-.759.0452-.939 0-1.355-.4427-1.355-1.4273v-4.9141h2.114v-1.7434h-2.114v-2.4841zm11.1172 12.2942h2.24v-6.0071c0-1.2285.822-2.1589 1.934-2.1589 1.102 0 1.788.6684 1.788 1.7615v6.4045h2.177v-6.1697c0-1.1291.768-1.9963 1.933-1.9963 1.202 0 1.807.6413 1.807 1.9241v6.2419h2.231v-6.793c0-2.0505-1.192-3.27-3.171-3.27-1.373 0-2.511.7046-2.999 1.7796h-.153c-.416-1.0931-1.364-1.7796-2.728-1.7796-1.31 0-2.322.6685-2.746 1.7796h-.154v-1.5899h-2.159zm23.006-2.7009c-.325.7407-1.093 1.1562-2.204 1.1562-1.472 0-2.421-1.0478-2.475-2.719v-.1174h6.902v-.7136c0-3.0984-1.69-4.9683-4.508-4.9683-2.863 0-4.643 1.9963-4.643 5.167 0 3.1616 1.752 5.0947 4.661 5.0947 2.331 0 3.984-1.1201 4.39-2.8996zm-2.294-5.6187c1.346 0 2.231.9485 2.276 2.448h-4.652c.1-1.4814 1.039-2.448 2.376-2.448zm10.143 8.4822c1.373 0 2.511-.6414 3.071-1.7253h.154v1.5627h2.168v-13.6943h-2.24v5.3928h-.154c-.524-1.084-1.644-1.7344-2.999-1.7344-2.493 0-4.065 1.9692-4.065 5.0947 0 3.1346 1.563 5.1038 4.065 5.1038zm.696-8.3286c1.535 0 2.484 1.2375 2.484 3.2339 0 2.0053-.94 3.2339-2.484 3.2339-1.536 0-2.466-1.2105-2.466-3.2339 0-2.0144.939-3.2339 2.466-3.2339z"/><path clip-rule="evenodd" d="m217.75 20.0884c-.72-2.7477-2.469-3.8384-4.855-3.8384-1.934 0-4.361 1.0907-4.361 3.7172 0 1.6968 1.173 3.0304 3.085 3.374l1.811.323c1.234.2221 1.584.6869 1.584 1.3132 0 .7071-.761 1.111-1.893 1.111-1.481 0-2.406-.5252-2.551-2.0001l-2.612.4042c.411 2.8483 2.962 4.0204 5.266 4.0204 2.181 0 4.505-1.2528 4.505-3.778 0-1.7174-1.049-2.9696-3.003-3.3337l-1.996-.3633c-1.111-.202-1.481-.7475-1.481-1.2727 0-.6668.72-1.0907 1.708-1.0907 1.255 0 2.139.4239 2.18 1.8179zm-58.075 4.3229 2.715-7.8584h3.188l-4.731 11.6565h-2.366l-4.731-11.6563h3.188zm16.683-4.5249c0 .9292-.74 1.5756-1.604 1.5756s-1.605-.6464-1.605-1.5756c0-.9294.741-1.5756 1.605-1.5756s1.605.6462 1.605 1.5756zm.494 4.1213c-1.07 1.3734-2.201 2.3229-4.197 2.323-2.036 0-3.62-1.2121-4.854-2.9897-.494-.7275-1.255-.889-1.811-.5051-.514.3637-.637 1.1314-.164 1.7982 1.707 2.5656 4.073 4.0602 6.829 4.0602 2.531 0 4.506-1.2119 6.048-3.2322.576-.7473.556-1.515 0-1.9393-.514-.4044-1.275-.2624-1.851.4849zm7.098-1.6568c0 2.384 1.399 3.6367 2.962 3.6367 1.481 0 3.004-1.1719 3.004-3.6367 0-2.4244-1.523-3.5959-2.983-3.5959-1.584 0-2.983 1.1111-2.983 3.5959zm0-4.1815v-1.5964h-2.9v15.677h2.9v-5.576c.967 1.2932 2.222 1.8389 3.641 1.8389 2.654 0 5.246-2.0608 5.246-6.3031 0-4.061-2.695-5.9596-4.999-5.9596-1.831 0-3.086.8281-3.888 1.9192zm13.928 4.1815c0 2.384 1.398 3.6367 2.962 3.6367 1.481 0 3.003-1.1719 3.003-3.6367 0-2.4244-1.522-3.5959-2.983-3.5959-1.584 0-2.983 1.1111-2.983 3.5959zm0-4.1815v-1.5964h-.001-2.9v15.677h2.9v-5.576c.967 1.2932 2.222 1.8389 3.641 1.8389 2.654 0 5.246-2.0608 5.246-6.3031 0-4.061-2.695-5.9596-4.999-5.9596-1.831 0-3.085.8281-3.887 1.9192z" fill-rule="evenodd"/></g></svg>