<svg width="210" height="44" viewBox="0 0 210 44" fill="none" xmlns="http://www.w3.org/2000/svg">
<rect width="210" height="44" rx="5" fill="#FF5B24"/>
<path d="M32.9448 28C35.727 28 37.4252 26.5818 37.4252 24.2964C37.4252 22.5981 36.2148 21.3335 34.4624 21.1709V21.0083C35.7722 20.8005 36.7839 19.5901 36.7839 18.217C36.7839 16.2117 35.2934 14.9651 32.8183 14.9651H27.3713V28H32.9448ZM29.7019 16.8169H32.2492C33.6584 16.8169 34.4804 17.4854 34.4804 18.6326C34.4804 19.8069 33.6042 20.4482 31.9511 20.4482H29.7019V16.8169ZM29.7019 26.1482V22.1284H32.3215C34.101 22.1284 35.0405 22.8149 35.0405 24.1157C35.0405 25.4436 34.1281 26.1482 32.4118 26.1482H29.7019ZM43.675 19.6985C45.0209 19.6985 45.9062 20.6379 45.9513 22.1013H41.2992C41.3986 20.656 42.338 19.6985 43.675 19.6985ZM45.9694 25.281C45.6442 26.0127 44.8764 26.4192 43.7653 26.4192C42.2929 26.4192 41.3444 25.3894 41.2902 23.7454V23.6279H48.1916V22.9053C48.1916 19.7888 46.5023 17.9189 43.684 17.9189C40.8205 17.9189 39.0409 19.9153 39.0409 23.095C39.0409 26.2747 40.7934 28.1987 43.7021 28.1987C46.0326 28.1987 47.6857 27.0786 48.0922 25.281H45.9694ZM50.9544 15.6968V18.1809H49.3917V19.9695H50.9544V25.3623C50.9544 27.2773 51.8578 28.0452 54.1251 28.0452C54.5587 28.0452 54.9742 28 55.2994 27.9368V26.1843C55.0284 26.2114 54.8568 26.2295 54.5406 26.2295C53.6012 26.2295 53.1856 25.7959 53.1856 24.8203V19.9695H55.2994V18.1809H53.1856V15.6968H50.9544ZM60.7181 26.4011C59.7244 26.4011 59.0108 25.9043 59.0108 25.0732C59.0108 24.2693 59.598 23.8176 60.8536 23.7363L63.0848 23.5918V24.3777C63.0848 25.5249 62.0731 26.4011 60.7181 26.4011ZM60.0586 28.1626C61.3504 28.1626 62.4344 27.6025 62.9854 26.645H63.139V28H65.2979V21.2522C65.2979 19.1565 63.8707 17.9189 61.3323 17.9189C58.9837 17.9189 57.3487 19.03 57.168 20.7734H59.2818C59.4896 20.105 60.1941 19.7437 61.2239 19.7437C62.4344 19.7437 63.0848 20.2856 63.0848 21.2522V22.0833L60.5374 22.2368C58.1346 22.3813 56.7886 23.4111 56.7886 25.1997C56.7886 27.0063 58.1526 28.1626 60.0586 28.1626ZM67.8892 28H70.1294V14.2966H67.8892V28ZM77.498 28H79.7382V21.9929C79.7382 20.7825 80.5602 19.8701 81.6713 19.8701C82.7733 19.8701 83.4599 20.5295 83.4599 21.6135V28H85.6369V21.8484C85.6369 20.7192 86.4047 19.8701 87.57 19.8701C88.7714 19.8701 89.3766 20.5024 89.3766 21.7761V28H91.6078V21.207C91.6078 19.1565 90.4154 17.9189 88.4372 17.9189C87.0641 17.9189 85.9259 18.6326 85.4381 19.7166H85.2846C84.869 18.6055 83.9206 17.9189 82.5565 17.9189C81.2467 17.9189 80.235 18.5874 79.8105 19.7166H79.6569V18.1177H77.498V28ZM98.2098 19.6985C99.5558 19.6985 100.441 20.6379 100.486 22.1013H95.8341C95.9334 20.656 96.8729 19.6985 98.2098 19.6985ZM100.504 25.281C100.179 26.0127 99.4112 26.4192 98.3001 26.4192C96.8277 26.4192 95.8792 25.3894 95.8251 23.7454V23.6279H102.726V22.9053C102.726 19.7888 101.037 17.9189 98.2188 17.9189C95.3553 17.9189 93.5758 19.9153 93.5758 23.095C93.5758 26.2747 95.3282 28.1987 98.2369 28.1987C100.567 28.1987 102.221 27.0786 102.627 25.281H100.504ZM108.353 28.1626C109.726 28.1626 110.864 27.5212 111.424 26.4373H111.578V28H113.746V14.2966H111.505V19.6895H111.352C110.828 18.6055 109.708 17.9551 108.353 17.9551C105.86 17.9551 104.288 19.9243 104.288 23.0498C104.288 26.1934 105.851 28.1626 108.353 28.1626ZM109.048 19.8611C110.584 19.8611 111.533 21.0896 111.533 23.0588C111.533 25.0461 110.593 26.2566 109.048 26.2566C107.513 26.2566 106.582 25.0552 106.582 23.0588C106.582 21.0715 107.522 19.8611 109.048 19.8611Z" fill="white"/>
<path fill-rule="evenodd" clip-rule="evenodd" d="M185 19.8384C184.28 17.0907 182.531 16 180.145 16C178.211 16 175.784 17.0907 175.784 19.7172C175.784 21.414 176.957 22.7476 178.869 23.0912L180.68 23.4142C181.914 23.6363 182.264 24.1011 182.264 24.7274C182.264 25.4345 181.503 25.8384 180.371 25.8384C178.89 25.8384 177.965 25.3132 177.82 23.8383L175.208 24.2425C175.619 27.0908 178.17 28.2629 180.474 28.2629C182.655 28.2629 184.979 27.0101 184.979 24.4849C184.979 22.7675 183.93 21.5153 181.976 21.1512L179.98 20.7879C178.869 20.5859 178.499 20.0404 178.499 19.5152C178.499 18.8484 179.219 18.4245 180.207 18.4245C181.462 18.4245 182.346 18.8484 182.387 20.2424L185 19.8384ZM126.925 24.1613L129.64 16.3029H132.828L128.097 27.9594H125.731L121 16.3031H124.188L126.925 24.1613ZM143.608 19.6364C143.608 20.5656 142.868 21.212 142.004 21.212C141.14 21.212 140.399 20.5656 140.399 19.6364C140.399 18.707 141.14 18.0608 142.004 18.0608C142.868 18.0608 143.609 18.707 143.609 19.6364H143.608ZM144.102 23.7577C143.032 25.1311 141.901 26.0806 139.905 26.0807C137.869 26.0807 136.285 24.8686 135.051 23.091C134.557 22.3635 133.796 22.202 133.24 22.5859C132.726 22.9496 132.603 23.7173 133.076 24.3841C134.783 26.9497 137.149 28.4443 139.905 28.4443C142.436 28.4443 144.411 27.2324 145.953 25.2121C146.529 24.4648 146.509 23.6971 145.953 23.2728C145.439 22.8684 144.678 23.0104 144.102 23.7577ZM151.2 22.1009C151.2 24.4849 152.599 25.7376 154.162 25.7376C155.643 25.7376 157.166 24.5657 157.166 22.1009C157.166 19.6765 155.643 18.505 154.183 18.505C152.599 18.505 151.2 19.6161 151.2 22.1009ZM151.2 17.9194V16.323H148.3V32H151.2V26.424C152.167 27.7172 153.422 28.2629 154.841 28.2629C157.495 28.2629 160.087 26.2021 160.087 21.9598C160.087 17.8988 157.392 16.0002 155.088 16.0002C153.257 16.0002 152.002 16.8283 151.2 17.9194ZM165.128 22.1009C165.128 24.4849 166.526 25.7376 168.09 25.7376C169.571 25.7376 171.093 24.5657 171.093 22.1009C171.093 19.6765 169.571 18.505 168.11 18.505C166.526 18.505 165.127 19.6161 165.127 22.1009H165.128ZM165.128 17.9194V16.323H165.127H162.227V32H165.127V26.424C166.094 27.7172 167.349 28.2629 168.768 28.2629C171.422 28.2629 174.014 26.2021 174.014 21.9598C174.014 17.8988 171.319 16.0002 169.015 16.0002C167.184 16.0002 165.93 16.8283 165.128 17.9194Z" fill="white"/>
</svg>
