<svg width="250" height="44" viewBox="0 0 250 44" fill="none" xmlns="http://www.w3.org/2000/svg">
<rect width="250" height="44" rx="5" fill="#FF5B24"/>
<path d="M52.9448 28C55.727 28 57.4252 26.5818 57.4252 24.2964C57.4252 22.5981 56.2148 21.3335 54.4624 21.1709V21.0083C55.7722 20.8005 56.7839 19.5901 56.7839 18.217C56.7839 16.2117 55.2934 14.9651 52.8183 14.9651H47.3713V28H52.9448ZM49.7019 16.8169H52.2492C53.6584 16.8169 54.4804 17.4854 54.4804 18.6326C54.4804 19.8069 53.6042 20.4482 51.9511 20.4482H49.7019V16.8169ZM49.7019 26.1482V22.1284H52.3215C54.101 22.1284 55.0405 22.8149 55.0405 24.1157C55.0405 25.4436 54.1281 26.1482 52.4118 26.1482H49.7019ZM63.675 19.6985C65.0209 19.6985 65.9062 20.6379 65.9513 22.1013H61.2992C61.3986 20.656 62.338 19.6985 63.675 19.6985ZM65.9694 25.281C65.6442 26.0127 64.8764 26.4192 63.7653 26.4192C62.2929 26.4192 61.3444 25.3894 61.2902 23.7454V23.6279H68.1916V22.9053C68.1916 19.7888 66.5023 17.9189 63.684 17.9189C60.8205 17.9189 59.0409 19.9153 59.0409 23.095C59.0409 26.2747 60.7934 28.1987 63.7021 28.1987C66.0326 28.1987 67.6857 27.0786 68.0922 25.281H65.9694ZM70.9544 15.6968V18.1809H69.3917V19.9695H70.9544V25.3623C70.9544 27.2773 71.8578 28.0452 74.1251 28.0452C74.5587 28.0452 74.9742 28 75.2994 27.9368V26.1843C75.0284 26.2114 74.8568 26.2295 74.5406 26.2295C73.6012 26.2295 73.1856 25.7959 73.1856 24.8203V19.9695H75.2994V18.1809H73.1856V15.6968H70.9544ZM80.7181 26.4011C79.7244 26.4011 79.0108 25.9043 79.0108 25.0732C79.0108 24.2693 79.598 23.8176 80.8536 23.7363L83.0848 23.5918V24.3777C83.0848 25.5249 82.0731 26.4011 80.7181 26.4011ZM80.0586 28.1626C81.3504 28.1626 82.4344 27.6025 82.9854 26.645H83.139V28H85.2979V21.2522C85.2979 19.1565 83.8707 17.9189 81.3323 17.9189C78.9837 17.9189 77.3487 19.03 77.168 20.7734H79.2818C79.4896 20.105 80.1941 19.7437 81.2239 19.7437C82.4344 19.7437 83.0848 20.2856 83.0848 21.2522V22.0833L80.5374 22.2368C78.1346 22.3813 76.7886 23.4111 76.7886 25.1997C76.7886 27.0063 78.1526 28.1626 80.0586 28.1626ZM87.8892 28H90.1294V14.2966H87.8892V28ZM97.498 28H99.7382V21.9929C99.7382 20.7825 100.56 19.8701 101.671 19.8701C102.773 19.8701 103.46 20.5295 103.46 21.6135V28H105.637V21.8484C105.637 20.7192 106.405 19.8701 107.57 19.8701C108.771 19.8701 109.377 20.5024 109.377 21.7761V28H111.608V21.207C111.608 19.1565 110.415 17.9189 108.437 17.9189C107.064 17.9189 105.926 18.6326 105.438 19.7166H105.285C104.869 18.6055 103.921 17.9189 102.557 17.9189C101.247 17.9189 100.235 18.5874 99.8105 19.7166H99.6569V18.1177H97.498V28ZM118.21 19.6985C119.556 19.6985 120.441 20.6379 120.486 22.1013H115.834C115.933 20.656 116.873 19.6985 118.21 19.6985ZM120.504 25.281C120.179 26.0127 119.411 26.4192 118.3 26.4192C116.828 26.4192 115.879 25.3894 115.825 23.7454V23.6279H122.726V22.9053C122.726 19.7888 121.037 17.9189 118.219 17.9189C115.355 17.9189 113.576 19.9153 113.576 23.095C113.576 26.2747 115.328 28.1987 118.237 28.1987C120.567 28.1987 122.221 27.0786 122.627 25.281H120.504ZM128.353 28.1626C129.726 28.1626 130.864 27.5212 131.424 26.4373H131.578V28H133.746V14.2966H131.505V19.6895H131.352C130.828 18.6055 129.708 17.9551 128.353 17.9551C125.86 17.9551 124.288 19.9243 124.288 23.0498C124.288 26.1934 125.851 28.1626 128.353 28.1626ZM129.048 19.8611C130.584 19.8611 131.533 21.0896 131.533 23.0588C131.533 25.0461 130.593 26.2566 129.048 26.2566C127.513 26.2566 126.582 25.0552 126.582 23.0588C126.582 21.0715 127.522 19.8611 129.048 19.8611Z" fill="white"/>
<path fill-rule="evenodd" clip-rule="evenodd" d="M205 19.8384C204.28 17.0907 202.531 16 200.145 16C198.211 16 195.784 17.0907 195.784 19.7172C195.784 21.414 196.957 22.7476 198.869 23.0912L200.68 23.4142C201.914 23.6363 202.264 24.1011 202.264 24.7274C202.264 25.4345 201.503 25.8384 200.371 25.8384C198.89 25.8384 197.965 25.3132 197.82 23.8383L195.208 24.2425C195.619 27.0908 198.17 28.2629 200.474 28.2629C202.655 28.2629 204.979 27.0101 204.979 24.4849C204.979 22.7675 203.93 21.5153 201.976 21.1512L199.98 20.7879C198.869 20.5859 198.499 20.0404 198.499 19.5152C198.499 18.8484 199.219 18.4245 200.207 18.4245C201.462 18.4245 202.346 18.8484 202.387 20.2424L205 19.8384ZM146.925 24.1613L149.64 16.3029H152.828L148.097 27.9594H145.731L141 16.3031H144.188L146.925 24.1613ZM163.608 19.6364C163.608 20.5656 162.868 21.212 162.004 21.212C161.14 21.212 160.399 20.5656 160.399 19.6364C160.399 18.707 161.14 18.0608 162.004 18.0608C162.868 18.0608 163.609 18.707 163.609 19.6364H163.608ZM164.102 23.7577C163.032 25.1311 161.901 26.0806 159.905 26.0807C157.869 26.0807 156.285 24.8686 155.051 23.091C154.557 22.3635 153.796 22.202 153.24 22.5859C152.726 22.9496 152.603 23.7173 153.076 24.3841C154.783 26.9497 157.149 28.4443 159.905 28.4443C162.436 28.4443 164.411 27.2324 165.953 25.2121C166.529 24.4648 166.509 23.6971 165.953 23.2728C165.439 22.8684 164.678 23.0104 164.102 23.7577ZM171.2 22.1009C171.2 24.4849 172.599 25.7376 174.162 25.7376C175.643 25.7376 177.166 24.5657 177.166 22.1009C177.166 19.6765 175.643 18.505 174.183 18.505C172.599 18.505 171.2 19.6161 171.2 22.1009ZM171.2 17.9194V16.323H168.3V32H171.2V26.424C172.167 27.7172 173.422 28.2629 174.841 28.2629C177.495 28.2629 180.087 26.2021 180.087 21.9598C180.087 17.8988 177.392 16.0002 175.088 16.0002C173.257 16.0002 172.002 16.8283 171.2 17.9194ZM185.128 22.1009C185.128 24.4849 186.526 25.7376 188.09 25.7376C189.571 25.7376 191.093 24.5657 191.093 22.1009C191.093 19.6765 189.571 18.505 188.11 18.505C186.526 18.505 185.127 19.6161 185.127 22.1009H185.128ZM185.128 17.9194V16.323H185.127H182.227V32H185.127V26.424C186.094 27.7172 187.349 28.2629 188.768 28.2629C191.422 28.2629 194.014 26.2021 194.014 21.9598C194.014 17.8988 191.319 16.0002 189.015 16.0002C187.184 16.0002 185.93 16.8283 185.128 17.9194Z" fill="white"/>
</svg>
