<svg xmlns="http://www.w3.org/2000/svg" width="64" height="16" fill="none"><path d="M64 3.838C63.28 1.09 61.53 0 59.145 0c-1.934 0-4.36 1.09-4.36 3.717 0 1.697 1.172 3.03 3.085 3.374l1.81.323c.585.105.97.265 1.215.47.128.107.217.227.275.358.066.148.093.3.093.485 0 .707-.76 1.11-1.893 1.11-1.48 0-2.407-.525-2.55-2l-2.612.404c.41 2.848 2.962 4.02 5.266 4.02 2.18 0 4.505-1.252 4.505-3.778 0-1.717-1.05-2.97-3.003-3.333l-1.995-.363c-1.11-.202-1.48-.748-1.48-1.273 0-.667.72-1.09 1.707-1.09 1.255 0 2.14.424 2.18 1.818L64 3.838zM5.925 8.16L8.64.303h3.188L7.097 11.96H4.73L0 .303h3.188L5.925 8.16zm16.684-4.525c0 .93-.74 1.576-1.604 1.576S19.4 4.565 19.4 3.636s.74-1.576 1.605-1.576 1.604.646 1.604 1.576zm.493 4.122c-1.07 1.374-2.2 2.323-4.197 2.323-2.036 0-3.62-1.212-4.855-3-.494-.728-1.255-.89-1.81-.505-.514.364-.637 1.13-.164 1.798 1.707 2.565 4.073 4.06 6.83 4.06 2.53 0 4.505-1.212 6.048-3.232.576-.748.555-1.515 0-1.94-.515-.404-1.276-.262-1.85.485zM30.2 6.1c0 2.384 1.4 3.637 2.962 3.637 1.48 0 3.003-1.172 3.003-3.637 0-2.424-1.522-3.596-2.983-3.596-1.584 0-2.983 1.11-2.983 3.596zm0-4.18V.323h-2.9V16h2.9v-5.576a4.33 4.33 0 0 0 3.641 1.839c2.654 0 5.246-2.06 5.246-6.303 0-4.06-2.695-5.96-5-5.96-1.83 0-3.085.828-3.888 1.92zM44.127 6.1c0 2.384 1.4 3.637 2.962 3.637 1.48 0 3.004-1.172 3.004-3.637 0-2.424-1.523-3.596-2.983-3.596-1.584 0-2.983 1.11-2.983 3.596zm0-4.18V.323h-2.9V16h2.9v-5.576a4.33 4.33 0 0 0 3.641 1.839c2.654 0 5.246-2.06 5.246-6.303 0-4.06-2.695-5.96-5-5.96-1.83 0-3.085.828-3.888 1.92z" fill-rule="evenodd" fill="#fff"/></svg>