<svg width="22" height="17" viewBox="0 0 22 17" fill="none" xmlns="http://www.w3.org/2000/svg">
<path fill-rule="evenodd" clip-rule="evenodd" d="M14.8646 5.26221C16.2416 5.26221 17.4218 4.2168 17.4218 2.71387C17.4218 1.21094 16.2416 0.166016 14.8646 0.166016C13.4877 0.166016 12.308 1.21094 12.308 2.71387C12.308 4.2168 13.4877 5.26221 14.8646 5.26221ZM18.2079 9.37891C16.5033 11.6001 14.7001 13.1357 11.5204 13.1357C8.27626 13.1357 5.75136 11.1753 3.78456 8.30078C2.99794 7.12451 1.78505 6.86328 0.899797 7.48389C0.0804614 8.07227 -0.115828 9.31348 0.63759 10.3921C3.35829 14.541 7.12782 16.958 11.5204 16.958C15.5526 16.958 18.6996 14.998 21.1581 11.731C22.0756 10.5225 22.0429 9.28076 21.1581 8.59473C20.3383 7.94092 19.1254 8.17041 18.2079 9.37891Z" fill="white"/>
</svg>
