<?xml version="1.0" encoding="utf-8"?>
<!-- Generator: Adobe Illustrator 21.1.0, SVG Export Plug-In . SVG Version: 6.00 Build 0)  -->
<svg version="1.1" id="Layer_1" xmlns="http://www.w3.org/2000/svg" xmlns:xlink="http://www.w3.org/1999/xlink" x="0px" y="0px"
	 width="163.5px" height="66.3px" viewBox="0 0 163.5 66.3" style="enable-background:new 0 0 163.5 66.3;" xml:space="preserve">
<style type="text/css">
	.st0{fill:#FFFFFF;}
	.st1{fill:none;}
</style>
<path class="st1" d="M38.2,22.1L33.1,7.2L28,22.1h-5.9L30.9,0h4.4l8.8,22.1C44.1,22.1,38.2,22.1,38.2,22.1z"/>
<path class="st1" d="M28,44.2l5.1,14.9l5.1-14.9h5.9l-8.8,22.1h-4.4l-8.8-22.1C22.1,44.2,28,44.2,28,44.2z"/>
<path class="st1" d="M22.1,28.1L7.2,33.2l14.9,5.1v5.9L0,35.3l0-4.4l22.1-8.8C22.1,22.2,22.1,28.1,22.1,28.1z"/>
<path class="st1" d="M141.4,38.2l14.9-5.1L141.4,28v-5.9l22.1,8.8v4.4l-22.1,8.8C141.4,44.1,141.4,38.2,141.4,38.2z"/>
<path class="st0" d="M66,39.2c1.7,0.5,2.2,1.6,1.9,2.8c-0.3,1.1-1.4,2-3.1,1.5l-17.1-4.3c-1.7-0.5-2.2-1.7-1.9-2.9
	c0.3-1.1,1.4-1.9,3.1-1.5L66,39.2z M64.2,28.4c0,1.8-1.4,3-3,3s-3-1.2-3-3s1.4-3,3-3S64.2,26.6,64.2,28.4z"/>
</svg>
