<svg fill="none" height="44" viewBox="0 0 210 44" width="210" xmlns="http://www.w3.org/2000/svg"><path d="m0 8c0-2.80026 0-4.20039.544967-5.26995.479363-.94081 1.244273-1.70572 2.185083-2.185083 1.06956-.544967 2.46969-.544967 5.26995-.544967h194c2.8 0 4.2 0 5.27.544967.941.479363 1.706 1.244273 2.185 2.185083.545 1.06956.545 2.46969.545 5.26995v28c0 2.8003 0 4.2004-.545 5.27-.479.9408-1.244 1.7057-2.185 2.185-1.07.545-2.47.545-5.27.545h-194c-2.80026 0-4.20039 0-5.26995-.545-.94081-.4793-1.70572-1.2442-2.185083-2.185-.544967-1.0696-.544967-2.4697-.544967-5.27z" fill="#ff5b24"/><g fill="#fff"><path d="m34.1216 15.2151v13.0349h2.3306v-4.3088h2.8274c2.6377 0 4.4805-1.7615 4.4805-4.336 0-2.6196-1.7796-4.3901-4.3811-4.3901zm2.3306 1.906h2.3125c1.6802 0 2.6287.8672 2.6287 2.4841 0 1.5718-.9756 2.4571-2.6377 2.4571h-2.3035zm11.8051 11.2915c1.2918 0 2.3758-.5601 2.9268-1.5176h.1535v1.355h2.159v-6.7478c0-2.0867-1.4273-3.3152-3.9656-3.3152-2.3486 0-3.9836 1.1021-4.1643 2.8274h2.1138c.2077-.6775.9123-1.0478 1.9421-1.0478 1.2105 0 1.8608.551 1.8608 1.5356v.8491l-2.5473.1536c-2.4028.1355-3.7488 1.1743-3.7488 2.9448 0 1.8066 1.364 2.9629 3.27 2.9629zm.6594-1.7253c-.9936 0-1.7072-.4969-1.7072-1.346 0-.822.5871-1.2827 1.8427-1.364l2.2312-.1536v.804c0 1.1743-1.0117 2.0596-2.3667 2.0596zm7.8577 5.1398c2.2131 0 3.27-.8039 4.1101-3.2338l3.5681-10.2166h-2.3667l-2.3035 7.7505h-.1535l-2.3125-7.7505h-2.4571l3.532 9.9094-.1174.4607c-.2891.9304-.822 1.2918-1.7705 1.2918-.1536 0-.4878-.0091-.6143-.0271v1.7795c.1445.0271.7498.0361.8853.0361zm27.3771-13.4504h-2.2312l-1.635 7.4163h-.1536l-1.915-7.4163h-2.1409l-1.897 7.4163h-.1536l-1.644-7.4163h-2.2583l2.6738 9.8733h2.3306l1.915-7.1543h.1536l1.9241 7.1543h2.3576zm2.8984-1.6531c.7407 0 1.3459-.5871 1.3459-1.3278 0-.7317-.6052-1.3279-1.3459-1.3279-.7317 0-1.337.5962-1.337 1.3279 0 .7407.6053 1.3278 1.337 1.3278zm-1.1111 11.5264h2.2312v-9.8733h-2.2312zm5.527-12.2942v2.4841h-1.5627v1.7434h1.5627v5.4471c0 1.906.9033 2.6648 3.1707 2.6648.4336 0 .8491-.0362 1.1743-.0994v-1.7163c-.271.0271-.4426.0452-.7588.0452-.9395 0-1.355-.4427-1.355-1.4273v-4.9141h2.1138v-1.7434h-2.1138v-2.4841zm6.4756 12.2942h2.2406v-5.7361c0-1.4453.822-2.4118 2.294-2.4118 1.301 0 1.987.7768 1.987 2.3034v5.8445h2.241v-6.3684c0-2.3486-1.283-3.6856-3.397-3.6856-1.472 0-2.529.6685-2.999 1.7796h-.163v-5.4199h-2.2036z"/><path clip-rule="evenodd" d="m177.75 20.0884c-.72-2.7477-2.469-3.8384-4.855-3.8384-1.934 0-4.361 1.0907-4.361 3.7172 0 1.6968 1.173 3.0304 3.085 3.374l1.811.323c1.234.2221 1.584.6869 1.584 1.3132 0 .7071-.761 1.111-1.893 1.111-1.481 0-2.406-.5252-2.551-2.0001l-2.612.4042c.411 2.8483 2.962 4.0204 5.266 4.0204 2.181 0 4.505-1.2528 4.505-3.778 0-1.7174-1.049-2.9696-3.003-3.3337l-1.996-.3633c-1.111-.202-1.481-.7475-1.481-1.2727 0-.6668.72-1.0907 1.708-1.0907 1.255 0 2.139.4239 2.18 1.8179zm-58.075 4.3229 2.715-7.8584h3.188l-4.731 11.6565h-2.366l-4.731-11.6563h3.188zm16.683-4.5249c0 .9292-.74 1.5756-1.604 1.5756s-1.605-.6464-1.605-1.5756c0-.9294.741-1.5756 1.605-1.5756s1.605.6462 1.605 1.5756zm.494 4.1213c-1.07 1.3734-2.201 2.3229-4.197 2.323-2.036 0-3.62-1.2121-4.854-2.9897-.494-.7275-1.255-.889-1.811-.5051-.514.3637-.637 1.1314-.164 1.7982 1.707 2.5656 4.073 4.0602 6.829 4.0602 2.531 0 4.506-1.2119 6.048-3.2322.576-.7473.556-1.515 0-1.9393-.514-.4044-1.275-.2624-1.851.4849zm7.098-1.6568c0 2.384 1.399 3.6367 2.962 3.6367 1.481 0 3.004-1.1719 3.004-3.6367 0-2.4244-1.523-3.5959-2.983-3.5959-1.584 0-2.983 1.1111-2.983 3.5959zm0-4.1815v-1.5964h-2.9v15.677h2.9v-5.576c.967 1.2932 2.222 1.8389 3.641 1.8389 2.654 0 5.246-2.0608 5.246-6.3031 0-4.061-2.695-5.9596-4.999-5.9596-1.831 0-3.086.8281-3.888 1.9192zm13.928 4.1815c0 2.384 1.398 3.6367 2.962 3.6367 1.481 0 3.003-1.1719 3.003-3.6367 0-2.4244-1.522-3.5959-2.983-3.5959-1.584 0-2.983 1.1111-2.983 3.5959zm0-4.1815v-1.5964h-.001-2.9v15.677h2.9v-5.576c.967 1.2932 2.222 1.8389 3.641 1.8389 2.654 0 5.246-2.0608 5.246-6.3031 0-4.061-2.695-5.9596-4.999-5.9596-1.831 0-3.085.8281-3.887 1.9192z" fill-rule="evenodd"/></g></svg>