<svg fill="none" height="44" viewBox="0 0 250 44" width="250" xmlns="http://www.w3.org/2000/svg"><path d="m0 8c0-2.80026 0-4.20039.544967-5.26995.479363-.94081 1.244273-1.70572 2.185083-2.185083 1.06956-.544967 2.46969-.544967 5.26995-.544967h234c2.8 0 4.2 0 5.27.544967.941.479363 1.706 1.244273 2.185 2.185083.545 1.06956.545 2.46969.545 5.26995v28c0 2.8003 0 4.2004-.545 5.27-.479.9408-1.244 1.7057-2.185 2.185-1.07.545-2.47.545-5.27.545h-234c-2.80026 0-4.20039 0-5.26995-.545-.94081-.4793-1.70572-1.2442-2.185083-2.185-.544967-1.0696-.544967-2.4697-.544967-5.27z" fill="#ff5b24"/><g fill="#fff"><path d="m35.4712 23.345h2.5835l2.5564 4.905h2.6648l-2.8454-5.2573c1.5537-.5601 2.457-1.9964 2.457-3.7217 0-2.4932-1.7163-4.0559-4.4534-4.0559h-5.2934v13.0349h2.3305zm0-6.242h2.6377c1.4815 0 2.3848.8401 2.3848 2.2132 0 1.4001-.8491 2.2041-2.3306 2.2041h-2.6919zm15.9424 8.4461c-.3252.7407-1.093 1.1562-2.2041 1.1562-1.4724 0-2.4209-1.0478-2.4751-2.719v-.1174h6.9013v-.7136c0-3.0984-1.6892-4.9683-4.5075-4.9683-2.8636 0-4.6431 1.9963-4.6431 5.167 0 3.1616 1.7524 5.0947 4.6611 5.0947 2.3306 0 3.9837-1.1201 4.3902-2.8996zm-2.2945-5.6187c1.346 0 2.2312.9485 2.2764 2.448h-4.6521c.0994-1.4814 1.0388-2.448 2.3757-2.448zm10.8115 12.0774c2.8816 0 4.7063-1.4363 4.7063-3.7036v-9.9275h-2.1589v1.5808h-.1536c-.542-1.0749-1.7163-1.7434-3.0622-1.7434-2.5203 0-4.083 1.9692-4.083 4.9954 0 2.9629 1.5537 4.896 4.0468 4.896 1.3731 0 2.448-.5782 3.0171-1.6441h.1536v1.8789c0 1.2556-.8943 1.9964-2.43 1.9964-1.2285 0-2.0234-.4427-2.1679-1.1382h-2.2493c.1807 1.6982 1.8428 2.8093 4.3811 2.8093zm0-5.6819c-1.5627 0-2.448-1.2104-2.448-3.1255 0-1.906.8853-3.1164 2.448-3.1164 1.5537 0 2.5022 1.2104 2.5022 3.1255 0 1.906-.9394 3.1164-2.5022 3.1164zm8.3996-9.6023c.7407 0 1.346-.5871 1.346-1.3278 0-.7317-.6053-1.3279-1.346-1.3279-.7317 0-1.3369.5962-1.3369 1.3279 0 .7407.6052 1.3278 1.3369 1.3278zm-1.1111 11.5264h2.2312v-9.8733h-2.2312zm4.5876-7.0549c0 1.4814.8943 2.3486 2.7913 2.7822l1.7524.4065c.9395.2168 1.3641.5781 1.3641 1.1382 0 .7497-.7859 1.2646-1.9151 1.2646-1.1201 0-1.8157-.4516-2.0325-1.1833h-2.2131c.1716 1.7795 1.7254 2.8454 4.1914 2.8454 2.4661 0 4.2095-1.2556 4.2095-3.1435 0-1.4544-.8762-2.2583-2.7642-2.6919l-1.7434-.3884c-.9936-.2349-1.4634-.5872-1.4634-1.1473 0-.7317.7679-1.2285 1.7886-1.2285 1.0479 0 1.7073.4517 1.8699 1.1472h2.1047c-.1626-1.7795-1.635-2.8093-3.9836-2.8093-2.3306 0-3.9566 1.2376-3.9566 3.0081zm10.8567-5.2393v2.4841h-1.5628v1.7434h1.5628v5.4471c0 1.906.9033 2.6648 3.1706 2.6648.4336 0 .8492-.0362 1.1744-.0994v-1.7163c-.271.0271-.4427.0452-.7588.0452-.9395 0-1.355-.4427-1.355-1.4273v-4.9141h2.1138v-1.7434h-2.1138v-2.4841zm12.7355 9.5933c-.3252.7407-1.093 1.1562-2.2041 1.1562-1.4724 0-2.4209-1.0478-2.4751-2.719v-.1174h6.9014v-.7136c0-3.0984-1.6892-4.9683-4.5076-4.9683-2.8635 0-4.643 1.9963-4.643 5.167 0 3.1616 1.7524 5.0947 4.6611 5.0947 2.3306 0 3.9836-1.1201 4.3901-2.8996zm-2.2944-5.6187c1.3459 0 2.2312.9485 2.2764 2.448h-4.6521c.0993-1.4814 1.0388-2.448 2.3757-2.448zm6.5659 8.3196h2.2406v-5.7361c0-1.3911 1.011-2.2944 2.466-2.2944.379 0 .975.0632 1.147.1264v-2.0415c-.208-.0542-.605-.0903-.931-.0903-1.273 0-2.339.7227-2.61 1.6983h-.154v-1.5357h-2.1586zm25.4616-9.8733h-2.231l-1.635 7.4163h-.153l-1.915-7.4163h-2.141l-1.897 7.4163h-.154l-1.644-7.4163h-2.258l2.674 9.8733h2.33l1.915-7.1543h.154l1.924 7.1543h2.358zm2.899-1.6531c.741 0 1.346-.5871 1.346-1.3278 0-.7317-.605-1.3279-1.346-1.3279-.732 0-1.337.5962-1.337 1.3279 0 .7407.605 1.3278 1.337 1.3278zm-1.111 11.5264h2.231v-9.8733h-2.231zm5.527-12.2942v2.4841h-1.563v1.7434h1.563v5.4471c0 1.906.903 2.6648 3.17 2.6648.434 0 .85-.0362 1.175-.0994v-1.7163c-.271.0271-.443.0452-.759.0452-.939 0-1.355-.4427-1.355-1.4273v-4.9141h2.114v-1.7434h-2.114v-2.4841zm6.475 12.2942h2.241v-5.7361c0-1.4453.822-2.4118 2.294-2.4118 1.301 0 1.987.7768 1.987 2.3034v5.8445h2.241v-6.3684c0-2.3486-1.283-3.6856-3.397-3.6856-1.472 0-2.529.6685-2.999 1.7796h-.163v-5.4199h-2.204z"/><path clip-rule="evenodd" d="m218.75 20.0884c-.72-2.7477-2.469-3.8384-4.855-3.8384-1.934 0-4.361 1.0907-4.361 3.7172 0 1.6968 1.173 3.0304 3.085 3.374l1.811.323c1.234.2221 1.584.6869 1.584 1.3132 0 .7071-.761 1.111-1.893 1.111-1.481 0-2.406-.5252-2.551-2.0001l-2.612.4042c.411 2.8483 2.962 4.0204 5.266 4.0204 2.181 0 4.505-1.2528 4.505-3.778 0-1.7174-1.049-2.9696-3.003-3.3337l-1.996-.3633c-1.111-.202-1.481-.7475-1.481-1.2727 0-.6668.72-1.0907 1.708-1.0907 1.255 0 2.139.4239 2.18 1.8179zm-58.075 4.3229 2.715-7.8584h3.188l-4.731 11.6565h-2.366l-4.731-11.6563h3.188zm16.683-4.5249c0 .9292-.74 1.5756-1.604 1.5756s-1.605-.6464-1.605-1.5756c0-.9294.741-1.5756 1.605-1.5756s1.605.6462 1.605 1.5756zm.494 4.1213c-1.07 1.3734-2.201 2.3229-4.197 2.323-2.036 0-3.62-1.2121-4.854-2.9897-.494-.7275-1.255-.889-1.811-.5051-.514.3637-.637 1.1314-.164 1.7982 1.707 2.5656 4.073 4.0602 6.829 4.0602 2.531 0 4.506-1.2119 6.048-3.2322.576-.7473.556-1.515 0-1.9393-.514-.4044-1.275-.2624-1.851.4849zm7.098-1.6568c0 2.384 1.399 3.6367 2.962 3.6367 1.481 0 3.004-1.1719 3.004-3.6367 0-2.4244-1.523-3.5959-2.983-3.5959-1.584 0-2.983 1.1111-2.983 3.5959zm0-4.1815v-1.5964h-2.9v15.677h2.9v-5.576c.967 1.2932 2.222 1.8389 3.641 1.8389 2.654 0 5.246-2.0608 5.246-6.3031 0-4.061-2.695-5.9596-4.999-5.9596-1.831 0-3.086.8281-3.888 1.9192zm13.928 4.1815c0 2.384 1.398 3.6367 2.962 3.6367 1.481 0 3.003-1.1719 3.003-3.6367 0-2.4244-1.522-3.5959-2.983-3.5959-1.584 0-2.983 1.1111-2.983 3.5959zm0-4.1815v-1.5964h-.001-2.9v15.677h2.9v-5.576c.967 1.2932 2.222 1.8389 3.641 1.8389 2.654 0 5.246-2.0608 5.246-6.3031 0-4.061-2.695-5.9596-4.999-5.9596-1.831 0-3.085.8281-3.887 1.9192z" fill-rule="evenodd"/></g></svg>