<svg fill="none" height="40" viewBox="0 0 140 40" width="140" xmlns="http://www.w3.org/2000/svg"><path d="m0 20c0-11.04569 8.95431-20 20-20h100c11.046 0 20 8.95431 20 20 0 11.0457-8.954 20-20 20h-100c-11.0457 0-20-8.9543-20-20z" fill="#ff5b24"/><g fill="#fff"><path clip-rule="evenodd" d="m18.2099 17.1925c1.144 0 2.1243-.8557 2.1243-2.0857h.0003c0-1.2303-.9806-2.0858-2.1246-2.0858-1.1436 0-2.1237.8555-2.1237 2.0858 0 1.23.9801 2.0857 2.1237 2.0857zm2.7779 3.37c-1.4163 1.818-2.914 3.075-5.5555 3.0751-2.6952 0-4.7926-1.6046-6.42641-3.9578-.65376-.9629-1.66133-1.1767-2.39674-.6686-.68068.4815-.84368 1.4977-.21772 2.3804 2.26007 3.3963 5.39167 5.3749 9.04057 5.3749 3.3499 0 5.9643-1.6043 8.0064-4.2787.7623-.9893.7351-2.0056 0-2.5673-.681-.5353-1.6885-.3473-2.4506.642z" fill-rule="evenodd"/><path d="m40.6343 26.25v-13.0349h-2.3216v5.4199h-6.3413v-5.4199h-2.3305v13.0349h2.3305v-5.6548h6.3413v5.6548zm11.3896-9.8733h-2.2403v5.7542c0 1.4904-.7949 2.3938-2.2492 2.3938-1.3369 0-1.9602-.7408-1.9602-2.2764v-5.8716h-2.2403v6.4136c0 2.3125 1.2647 3.6584 3.4236 3.6584 1.5086 0 2.4751-.6413 2.9539-1.7705h.1535v1.5718h2.159zm2.5461 9.8733h2.2402v-5.7361c0-1.3911 1.0117-2.2944 2.4661-2.2944.3794 0 .9756.0632 1.1472.1264v-2.0415c-.2078-.0542-.6052-.0903-.9304-.0903-1.2737 0-2.3396.7227-2.6106 1.6983h-.1536v-1.5357h-2.1589zm8.6615-12.2942v2.4841h-1.5627v1.7434h1.5627v5.4471c0 1.906.9034 2.6648 3.1707 2.6648.4336 0 .8491-.0362 1.1743-.0994v-1.7163c-.271.0271-.4426.0452-.7588.0452-.9394 0-1.355-.4427-1.355-1.4273v-4.9141h2.1138v-1.7434h-2.1138v-2.4841zm7.5234.7678c.7408 0 1.346-.5871 1.346-1.3278 0-.7317-.6052-1.3279-1.346-1.3279-.7317 0-1.3369.5962-1.3369 1.3279 0 .7407.6052 1.3278 1.3369 1.3278zm-1.1111 11.5264h2.2312v-9.8733h-2.2312zm9.0591 3.7578c2.8816 0 4.7063-1.4363 4.7063-3.7036v-9.9275h-2.159v1.5808h-.1535c-.542-1.0749-1.7163-1.7434-3.0623-1.7434-2.5202 0-4.083 1.9692-4.083 4.9954 0 2.9629 1.5537 4.896 4.0469 4.896 1.373 0 2.448-.5782 3.0171-1.6441h.1535v1.8789c0 1.2556-.8942 1.9964-2.4299 1.9964-1.2285 0-2.0234-.4427-2.168-1.1382h-2.2492c.1806 1.6982 1.8428 2.8093 4.3811 2.8093zm0-5.6819c-1.5628 0-2.448-1.2104-2.448-3.1255 0-1.906.8852-3.1164 2.448-3.1164 1.5537 0 2.5022 1.2104 2.5022 3.1255 0 1.906-.9395 3.1164-2.5022 3.1164zm9.7455-3.9023h-.1535v-7.8679h-2.2403v13.6943h2.2403v-3.4688l.7949-.7949 3.1706 4.2637h2.71l-4.2095-5.6367 3.9385-4.2366h-2.6015zm10.4411 5.989c1.2915 0 2.3755-.5601 2.9265-1.5176h.154v1.355h2.159v-6.7478c0-2.0867-1.427-3.3152-3.966-3.3152-2.3484 0-3.9834 1.1021-4.1641 2.8274h2.1138c.2078-.6775.9123-1.0478 1.9423-1.0478 1.21 0 1.861.551 1.861 1.5356v.8491l-2.5477.1536c-2.4028.1355-3.7488 1.1743-3.7488 2.9448 0 1.8066 1.364 2.9629 3.27 2.9629zm.6595-1.7253c-.9937 0-1.7073-.4969-1.7073-1.346 0-.822.5872-1.2827 1.8428-1.364l2.2315-.1536v.804c0 1.1743-1.012 2.0596-2.367 2.0596zm6.855-5.4922c0 1.4814.894 2.3486 2.791 2.7822l1.753.4065c.939.2168 1.364.5781 1.364 1.1382 0 .7497-.786 1.2646-1.915 1.2646-1.121 0-1.816-.4516-2.033-1.1833h-2.213c.172 1.7795 1.725 2.8454 4.191 2.8454s4.21-1.2556 4.21-3.1435c0-1.4544-.876-2.2583-2.764-2.6919l-1.744-.3884c-.993-.2349-1.463-.5872-1.463-1.1473 0-.7317.768-1.2285 1.788-1.2285 1.048 0 1.708.4517 1.87 1.1472h2.105c-.163-1.7795-1.635-2.8093-3.984-2.8093-2.33 0-3.956 1.2376-3.956 3.0081zm9.809 0c0 1.4814.894 2.3486 2.791 2.7822l1.752.4065c.94.2168 1.364.5781 1.364 1.1382 0 .7497-.785 1.2646-1.915 1.2646-1.12 0-1.815-.4516-2.032-1.1833h-2.213c.171 1.7795 1.725 2.8454 4.191 2.8454s4.21-1.2556 4.21-3.1435c0-1.4544-.877-2.2583-2.765-2.6919l-1.743-.3884c-.994-.2349-1.463-.5872-1.463-1.1473 0-.7317.768-1.2285 1.788-1.2285 1.048 0 1.708.4517 1.87 1.1472h2.105c-.163-1.7795-1.635-2.8093-3.984-2.8093-2.33 0-3.956 1.2376-3.956 3.0081zm16.656 4.354c-.326.7407-1.093 1.1562-2.204 1.1562-1.473 0-2.421-1.0478-2.476-2.719v-.1174h6.902v-.7136c0-3.0984-1.689-4.9683-4.508-4.9683-2.863 0-4.643 1.9963-4.643 5.167 0 3.1616 1.753 5.0947 4.661 5.0947 2.331 0 3.984-1.1201 4.39-2.8996zm-2.295-5.6187c1.346 0 2.231.9485 2.277 2.448h-4.653c.1-1.4814 1.039-2.448 2.376-2.448z"/></g></svg>