<svg width="1012" height="610" viewBox="0 0 1012 610" fill="none" xmlns="http://www.w3.org/2000/svg">
<path d="M0 20C0 8.95432 8.95431 0 20 0H992C1003.05 0 1012 8.9543 1012 20V610H0V20Z" fill="#EFEEF3"/>
<rect x="16" y="60" width="980" height="550" fill="white"/>
<circle cx="30" cy="30" r="8" fill="#F36C5D"/>
<circle cx="54" cy="30" r="8" fill="#FABE4D"/>
<circle cx="78" cy="30" r="8" fill="#57C555"/>
<rect width="980" height="550" transform="translate(16 60)" fill="white"/>
<line opacity="0.1" x1="56" y1="345.5" x2="956" y2="345.5" stroke="black"/>
<line opacity="0.1" x1="56" y1="485.5" x2="956" y2="485.5" stroke="black"/>
<line opacity="0.1" x1="56" y1="415.5" x2="956" y2="415.5" stroke="black"/>
<path d="M119.575 386L115.993 375.979H118.188L120.724 383.396L123.178 375.979H125.324L121.735 386H119.575ZM126.083 377.756V375.979H128.004V377.756H126.083ZM126.083 386V378.74H128.004V386H126.083ZM129.925 378.74H131.716V379.807C131.948 379.442 132.263 379.146 132.659 378.918C133.056 378.69 133.495 378.576 133.979 378.576C134.822 378.576 135.537 378.907 136.125 379.567C136.713 380.228 137.007 381.149 137.007 382.329C137.007 383.541 136.711 384.485 136.118 385.159C135.526 385.829 134.808 386.164 133.965 386.164C133.564 386.164 133.199 386.084 132.871 385.925C132.548 385.765 132.206 385.492 131.846 385.104V388.762H129.925V378.74ZM131.825 382.247C131.825 383.063 131.987 383.667 132.311 384.059C132.634 384.446 133.028 384.64 133.493 384.64C133.94 384.64 134.311 384.462 134.607 384.106C134.904 383.746 135.052 383.159 135.052 382.343C135.052 381.582 134.899 381.017 134.594 380.647C134.288 380.278 133.91 380.094 133.459 380.094C132.99 380.094 132.6 380.276 132.29 380.641C131.98 381.001 131.825 381.536 131.825 382.247ZM138.483 378.74H140.274V379.807C140.507 379.442 140.821 379.146 141.218 378.918C141.614 378.69 142.054 378.576 142.537 378.576C143.38 378.576 144.096 378.907 144.684 379.567C145.271 380.228 145.565 381.149 145.565 382.329C145.565 383.541 145.269 384.485 144.677 385.159C144.084 385.829 143.367 386.164 142.523 386.164C142.122 386.164 141.758 386.084 141.43 385.925C141.106 385.765 140.764 385.492 140.404 385.104V388.762H138.483V378.74ZM140.384 382.247C140.384 383.063 140.546 383.667 140.869 384.059C141.193 384.446 141.587 384.64 142.052 384.64C142.498 384.64 142.87 384.462 143.166 384.106C143.462 383.746 143.61 383.159 143.61 382.343C143.61 381.582 143.458 381.017 143.152 380.647C142.847 380.278 142.469 380.094 142.018 380.094C141.548 380.094 141.159 380.276 140.849 380.641C140.539 381.001 140.384 381.536 140.384 382.247ZM146.42 383.929L148.348 383.635C148.43 384.008 148.596 384.293 148.847 384.489C149.097 384.681 149.448 384.776 149.899 384.776C150.396 384.776 150.77 384.685 151.021 384.503C151.189 384.375 151.273 384.204 151.273 383.99C151.273 383.844 151.228 383.724 151.137 383.628C151.041 383.537 150.827 383.452 150.494 383.375C148.945 383.033 147.963 382.721 147.548 382.438C146.974 382.047 146.687 381.502 146.687 380.805C146.687 380.176 146.935 379.647 147.432 379.219C147.928 378.79 148.699 378.576 149.742 378.576C150.736 378.576 151.474 378.738 151.957 379.062C152.44 379.385 152.773 379.864 152.955 380.497L151.144 380.832C151.066 380.549 150.918 380.333 150.699 380.183C150.485 380.032 150.177 379.957 149.776 379.957C149.271 379.957 148.908 380.028 148.689 380.169C148.544 380.269 148.471 380.399 148.471 380.559C148.471 380.695 148.535 380.812 148.662 380.907C148.835 381.035 149.432 381.215 150.453 381.447C151.479 381.68 152.194 381.965 152.6 382.302C153.001 382.644 153.201 383.12 153.201 383.73C153.201 384.396 152.923 384.968 152.367 385.446C151.811 385.925 150.989 386.164 149.899 386.164C148.91 386.164 148.127 385.964 147.548 385.562C146.974 385.161 146.598 384.617 146.42 383.929Z" fill="black"/>
<path d="M117.046 316V305.979H119.069V310.429L123.157 305.979H125.878L122.104 309.882L126.083 316H123.465L120.71 311.297L119.069 312.972V316H117.046ZM126.678 312.268C126.678 311.63 126.835 311.012 127.149 310.415C127.464 309.818 127.908 309.362 128.482 309.048C129.061 308.733 129.706 308.576 130.417 308.576C131.515 308.576 132.415 308.934 133.117 309.649C133.819 310.36 134.17 311.26 134.17 312.35C134.17 313.448 133.814 314.359 133.104 315.084C132.397 315.804 131.506 316.164 130.431 316.164C129.765 316.164 129.13 316.014 128.523 315.713C127.922 315.412 127.464 314.972 127.149 314.394C126.835 313.81 126.678 313.102 126.678 312.268ZM128.646 312.37C128.646 313.09 128.817 313.642 129.159 314.024C129.501 314.407 129.923 314.599 130.424 314.599C130.925 314.599 131.344 314.407 131.682 314.024C132.023 313.642 132.194 313.086 132.194 312.356C132.194 311.646 132.023 311.099 131.682 310.716C131.344 310.333 130.925 310.142 130.424 310.142C129.923 310.142 129.501 310.333 129.159 310.716C128.817 311.099 128.646 311.65 128.646 312.37ZM137.52 316H135.599V308.74H137.383V309.772C137.688 309.285 137.962 308.964 138.203 308.809C138.449 308.654 138.727 308.576 139.037 308.576C139.475 308.576 139.896 308.697 140.302 308.938L139.707 310.613C139.383 310.404 139.083 310.299 138.805 310.299C138.536 310.299 138.308 310.374 138.121 310.524C137.934 310.67 137.786 310.937 137.677 311.324C137.572 311.712 137.52 312.523 137.52 313.758V316ZM144.465 308.74V310.271H143.152V313.197C143.152 313.79 143.164 314.136 143.187 314.236C143.214 314.332 143.271 314.412 143.357 314.476C143.449 314.539 143.558 314.571 143.686 314.571C143.863 314.571 144.121 314.51 144.458 314.387L144.622 315.877C144.175 316.068 143.67 316.164 143.104 316.164C142.758 316.164 142.446 316.107 142.168 315.993C141.89 315.875 141.685 315.724 141.553 315.542C141.425 315.355 141.336 315.104 141.286 314.79C141.245 314.567 141.225 314.116 141.225 313.437V310.271H140.343V308.74H141.225V307.298L143.152 306.177V308.74H144.465Z" fill="black"/>
<path d="M121.681 452.315V450.627H126.042V454.619C125.618 455.029 125.003 455.392 124.196 455.706C123.394 456.016 122.581 456.171 121.756 456.171C120.708 456.171 119.794 455.952 119.015 455.515C118.235 455.073 117.65 454.444 117.258 453.628C116.866 452.808 116.67 451.917 116.67 450.955C116.67 449.911 116.889 448.984 117.326 448.173C117.764 447.362 118.404 446.74 119.247 446.307C119.89 445.974 120.689 445.808 121.646 445.808C122.891 445.808 123.861 446.07 124.559 446.594C125.26 447.113 125.712 447.833 125.912 448.754L123.902 449.13C123.761 448.638 123.494 448.25 123.103 447.968C122.715 447.681 122.23 447.537 121.646 447.537C120.762 447.537 120.058 447.817 119.534 448.378C119.015 448.938 118.755 449.77 118.755 450.873C118.755 452.062 119.019 452.956 119.548 453.553C120.076 454.145 120.769 454.441 121.626 454.441C122.05 454.441 122.474 454.359 122.897 454.195C123.326 454.027 123.693 453.824 123.998 453.587V452.315H121.681ZM129.337 450.955L127.594 450.641C127.79 449.939 128.127 449.419 128.605 449.082C129.084 448.745 129.795 448.576 130.738 448.576C131.595 448.576 132.233 448.679 132.652 448.884C133.072 449.084 133.366 449.342 133.534 449.656C133.707 449.966 133.794 450.538 133.794 451.372L133.773 453.614C133.773 454.252 133.803 454.724 133.862 455.029C133.926 455.33 134.042 455.654 134.211 456H132.311C132.26 455.872 132.199 455.683 132.126 455.433C132.094 455.319 132.071 455.243 132.058 455.207C131.729 455.526 131.379 455.765 131.005 455.925C130.631 456.084 130.232 456.164 129.809 456.164C129.061 456.164 128.471 455.961 128.038 455.556C127.61 455.15 127.396 454.637 127.396 454.018C127.396 453.607 127.493 453.243 127.689 452.924C127.885 452.6 128.159 452.354 128.51 452.186C128.865 452.012 129.376 451.862 130.041 451.734C130.939 451.566 131.561 451.409 131.907 451.263V451.071C131.907 450.702 131.816 450.44 131.634 450.285C131.451 450.126 131.107 450.046 130.602 450.046C130.26 450.046 129.993 450.114 129.802 450.251C129.61 450.383 129.455 450.618 129.337 450.955ZM131.907 452.514C131.661 452.596 131.271 452.694 130.738 452.808C130.205 452.922 129.856 453.033 129.692 453.143C129.442 453.32 129.316 453.546 129.316 453.819C129.316 454.088 129.417 454.321 129.617 454.517C129.818 454.713 130.073 454.811 130.383 454.811C130.729 454.811 131.06 454.697 131.374 454.469C131.606 454.296 131.759 454.084 131.832 453.833C131.882 453.669 131.907 453.357 131.907 452.896V452.514ZM137.69 456L134.765 448.74H136.781L138.148 452.445L138.545 453.683C138.65 453.368 138.716 453.161 138.743 453.061C138.807 452.855 138.875 452.65 138.948 452.445L140.329 448.74H142.305L139.42 456H137.69ZM147.691 453.689L149.605 454.011C149.359 454.713 148.97 455.248 148.437 455.617C147.908 455.982 147.245 456.164 146.447 456.164C145.185 456.164 144.251 455.752 143.645 454.927C143.166 454.266 142.927 453.432 142.927 452.425C142.927 451.222 143.241 450.281 143.87 449.602C144.499 448.918 145.294 448.576 146.256 448.576C147.336 448.576 148.188 448.934 148.812 449.649C149.437 450.36 149.735 451.452 149.708 452.924H144.896C144.909 453.493 145.064 453.938 145.36 454.257C145.657 454.571 146.026 454.729 146.468 454.729C146.769 454.729 147.021 454.646 147.227 454.482C147.432 454.318 147.587 454.054 147.691 453.689ZM147.801 451.748C147.787 451.192 147.644 450.771 147.37 450.483C147.097 450.192 146.764 450.046 146.372 450.046C145.953 450.046 145.606 450.199 145.333 450.504C145.06 450.809 144.925 451.224 144.93 451.748H147.801ZM151.212 456V445.979H153.133V451.297L155.382 448.74H157.747L155.266 451.393L157.925 456H155.854L154.028 452.739L153.133 453.676V456H151.212ZM158.629 452.268C158.629 451.63 158.786 451.012 159.101 450.415C159.415 449.818 159.859 449.362 160.434 449.048C161.012 448.733 161.657 448.576 162.368 448.576C163.466 448.576 164.367 448.934 165.068 449.649C165.77 450.36 166.121 451.26 166.121 452.35C166.121 453.448 165.766 454.359 165.055 455.084C164.348 455.804 163.457 456.164 162.382 456.164C161.716 456.164 161.081 456.014 160.475 455.713C159.873 455.412 159.415 454.972 159.101 454.394C158.786 453.81 158.629 453.102 158.629 452.268ZM160.598 452.37C160.598 453.09 160.769 453.642 161.11 454.024C161.452 454.407 161.874 454.599 162.375 454.599C162.876 454.599 163.296 454.407 163.633 454.024C163.975 453.642 164.146 453.086 164.146 452.356C164.146 451.646 163.975 451.099 163.633 450.716C163.296 450.333 162.876 450.142 162.375 450.142C161.874 450.142 161.452 450.333 161.11 450.716C160.769 451.099 160.598 451.65 160.598 452.37ZM169.471 456H167.55V448.74H169.334V449.772C169.639 449.285 169.913 448.964 170.154 448.809C170.4 448.654 170.678 448.576 170.988 448.576C171.426 448.576 171.847 448.697 172.253 448.938L171.658 450.613C171.335 450.404 171.034 450.299 170.756 450.299C170.487 450.299 170.259 450.374 170.072 450.524C169.885 450.67 169.737 450.937 169.628 451.324C169.523 451.712 169.471 452.523 169.471 453.758V456ZM176.416 448.74V450.271H175.104V453.197C175.104 453.79 175.115 454.136 175.138 454.236C175.165 454.332 175.222 454.412 175.309 454.476C175.4 454.539 175.509 454.571 175.637 454.571C175.814 454.571 176.072 454.51 176.409 454.387L176.573 455.877C176.127 456.068 175.621 456.164 175.056 456.164C174.709 456.164 174.397 456.107 174.119 455.993C173.841 455.875 173.636 455.724 173.504 455.542C173.376 455.355 173.287 455.104 173.237 454.79C173.196 454.567 173.176 454.116 173.176 453.437V450.271H172.294V448.74H173.176V447.298L175.104 446.177V448.74H176.416Z" fill="black"/>
<circle cx="88" cy="311" r="11" stroke="#C9C6D7" stroke-width="2"/>
<circle cx="88" cy="381" r="11" stroke="#C9C6D7" stroke-width="2"/>
<circle cx="88" cy="451" r="11" stroke="#C9C6D7" stroke-width="2"/>
<path d="M77.0254 245.979H81.0312C81.8242 245.979 82.4144 246.013 82.8018 246.081C83.1937 246.145 83.5423 246.282 83.8477 246.491C84.1576 246.701 84.415 246.981 84.6201 247.332C84.8252 247.678 84.9277 248.068 84.9277 248.501C84.9277 248.97 84.8001 249.401 84.5449 249.793C84.2943 250.185 83.9525 250.479 83.5195 250.675C84.1302 250.853 84.5996 251.156 84.9277 251.584C85.2559 252.012 85.4199 252.516 85.4199 253.095C85.4199 253.55 85.3128 253.995 85.0986 254.428C84.889 254.856 84.5996 255.2 84.2305 255.46C83.8659 255.715 83.4147 255.872 82.877 255.932C82.5397 255.968 81.7262 255.991 80.4365 256H77.0254V245.979ZM79.0488 247.646V249.964H80.375C81.1634 249.964 81.6533 249.952 81.8447 249.93C82.1911 249.889 82.4622 249.77 82.6582 249.574C82.8587 249.374 82.959 249.112 82.959 248.788C82.959 248.478 82.8724 248.228 82.6992 248.036C82.5306 247.84 82.2777 247.722 81.9404 247.681C81.7399 247.658 81.1634 247.646 80.2109 247.646H79.0488ZM79.0488 251.632V254.312H80.9219C81.651 254.312 82.1136 254.291 82.3096 254.25C82.6104 254.195 82.8542 254.063 83.041 253.854C83.2324 253.639 83.3281 253.354 83.3281 252.999C83.3281 252.698 83.2552 252.443 83.1094 252.233C82.9635 252.024 82.7516 251.871 82.4736 251.775C82.2002 251.68 81.6032 251.632 80.6826 251.632H79.0488ZM91.3262 253.689L93.2402 254.011C92.9941 254.713 92.6045 255.248 92.0713 255.617C91.5426 255.982 90.8796 256.164 90.082 256.164C88.8197 256.164 87.8854 255.752 87.2793 254.927C86.8008 254.266 86.5615 253.432 86.5615 252.425C86.5615 251.222 86.876 250.281 87.5049 249.602C88.1338 248.918 88.929 248.576 89.8906 248.576C90.9707 248.576 91.8229 248.934 92.4473 249.649C93.0716 250.36 93.3701 251.452 93.3428 252.924H88.5303C88.5439 253.493 88.6989 253.938 88.9951 254.257C89.2913 254.571 89.6605 254.729 90.1025 254.729C90.4033 254.729 90.6562 254.646 90.8613 254.482C91.0664 254.318 91.2214 254.054 91.3262 253.689ZM91.4355 251.748C91.4219 251.192 91.2783 250.771 91.0049 250.483C90.7314 250.192 90.3988 250.046 90.0068 250.046C89.5876 250.046 89.2412 250.199 88.9678 250.504C88.6943 250.809 88.5599 251.224 88.5645 251.748H91.4355ZM98.2441 248.74V250.271H96.9316V253.197C96.9316 253.79 96.943 254.136 96.9658 254.236C96.9932 254.332 97.0501 254.412 97.1367 254.476C97.2279 254.539 97.3372 254.571 97.4648 254.571C97.6426 254.571 97.9001 254.51 98.2373 254.387L98.4014 255.877C97.9548 256.068 97.4489 256.164 96.8838 256.164C96.5374 256.164 96.2253 256.107 95.9473 255.993C95.6693 255.875 95.4642 255.724 95.332 255.542C95.2044 255.355 95.1156 255.104 95.0654 254.79C95.0244 254.567 95.0039 254.116 95.0039 253.437V250.271H94.1221V248.74H95.0039V247.298L96.9316 246.177V248.74H98.2441ZM101.013 250.955L99.2695 250.641C99.4655 249.939 99.8027 249.419 100.281 249.082C100.76 248.745 101.471 248.576 102.414 248.576C103.271 248.576 103.909 248.679 104.328 248.884C104.747 249.084 105.041 249.342 105.21 249.656C105.383 249.966 105.47 250.538 105.47 251.372L105.449 253.614C105.449 254.252 105.479 254.724 105.538 255.029C105.602 255.33 105.718 255.654 105.887 256H103.986C103.936 255.872 103.875 255.683 103.802 255.433C103.77 255.319 103.747 255.243 103.733 255.207C103.405 255.526 103.054 255.765 102.681 255.925C102.307 256.084 101.908 256.164 101.484 256.164C100.737 256.164 100.147 255.961 99.7139 255.556C99.2855 255.15 99.0713 254.637 99.0713 254.018C99.0713 253.607 99.1693 253.243 99.3652 252.924C99.5612 252.6 99.8346 252.354 100.186 252.186C100.541 252.012 101.051 251.862 101.717 251.734C102.615 251.566 103.237 251.409 103.583 251.263V251.071C103.583 250.702 103.492 250.44 103.31 250.285C103.127 250.126 102.783 250.046 102.277 250.046C101.936 250.046 101.669 250.114 101.478 250.251C101.286 250.383 101.131 250.618 101.013 250.955ZM103.583 252.514C103.337 252.596 102.947 252.694 102.414 252.808C101.881 252.922 101.532 253.033 101.368 253.143C101.118 253.32 100.992 253.546 100.992 253.819C100.992 254.088 101.092 254.321 101.293 254.517C101.493 254.713 101.749 254.811 102.059 254.811C102.405 254.811 102.735 254.697 103.05 254.469C103.282 254.296 103.435 254.084 103.508 253.833C103.558 253.669 103.583 253.357 103.583 252.896V252.514ZM107.37 256V245.979H109.291V256H107.37ZM111.267 247.756V245.979H113.188V247.756H111.267ZM111.267 256V248.74H113.188V256H111.267ZM121.767 256H119.846V252.295C119.846 251.511 119.805 251.005 119.723 250.777C119.641 250.545 119.506 250.365 119.319 250.237C119.137 250.11 118.916 250.046 118.656 250.046C118.324 250.046 118.025 250.137 117.761 250.319C117.496 250.502 117.314 250.743 117.214 251.044C117.118 251.345 117.07 251.901 117.07 252.712V256H115.149V248.74H116.934V249.807C117.567 248.986 118.365 248.576 119.326 248.576C119.75 248.576 120.137 248.654 120.488 248.809C120.839 248.959 121.104 249.153 121.281 249.39C121.464 249.627 121.589 249.896 121.657 250.196C121.73 250.497 121.767 250.928 121.767 251.488V256ZM123.544 256.479L125.738 256.745C125.775 257 125.859 257.176 125.991 257.271C126.174 257.408 126.461 257.477 126.853 257.477C127.354 257.477 127.73 257.401 127.98 257.251C128.149 257.151 128.277 256.989 128.363 256.766C128.423 256.606 128.452 256.312 128.452 255.884V254.824C127.878 255.608 127.153 256 126.278 256C125.303 256 124.531 255.588 123.961 254.763C123.514 254.111 123.291 253.3 123.291 252.329C123.291 251.112 123.583 250.183 124.166 249.54C124.754 248.897 125.483 248.576 126.354 248.576C127.251 248.576 127.992 248.97 128.575 249.759V248.74H130.373V255.255C130.373 256.112 130.302 256.752 130.161 257.176C130.02 257.6 129.822 257.932 129.566 258.174C129.311 258.415 128.969 258.604 128.541 258.741C128.117 258.878 127.579 258.946 126.928 258.946C125.697 258.946 124.825 258.734 124.31 258.311C123.795 257.891 123.537 257.358 123.537 256.711C123.537 256.647 123.539 256.57 123.544 256.479ZM125.26 252.22C125.26 252.99 125.408 253.555 125.704 253.915C126.005 254.271 126.374 254.448 126.812 254.448C127.281 254.448 127.677 254.266 128.001 253.901C128.325 253.532 128.486 252.988 128.486 252.268C128.486 251.516 128.331 250.957 128.021 250.593C127.712 250.228 127.32 250.046 126.846 250.046C126.385 250.046 126.005 250.226 125.704 250.586C125.408 250.941 125.26 251.486 125.26 252.22Z" fill="black"/>
<rect x="56" y="90" width="900" height="61" fill="#F4733A"/>
<path d="M451.953 127V112.684H454.844V118.318H460.508V112.684H463.398V127H460.508V120.74H454.844V127H451.953ZM468.428 119.793L465.938 119.344C466.217 118.341 466.699 117.599 467.383 117.117C468.066 116.635 469.082 116.395 470.43 116.395C471.654 116.395 472.565 116.541 473.164 116.834C473.763 117.12 474.183 117.488 474.424 117.938C474.671 118.38 474.795 119.197 474.795 120.389L474.766 123.592C474.766 124.503 474.808 125.177 474.893 125.613C474.984 126.043 475.15 126.505 475.391 127H472.676C472.604 126.818 472.516 126.548 472.412 126.189C472.367 126.027 472.334 125.919 472.314 125.867C471.846 126.323 471.344 126.665 470.811 126.893C470.277 127.12 469.707 127.234 469.102 127.234C468.034 127.234 467.191 126.945 466.572 126.365C465.96 125.786 465.654 125.053 465.654 124.168C465.654 123.582 465.794 123.061 466.074 122.605C466.354 122.143 466.745 121.792 467.246 121.551C467.754 121.303 468.483 121.089 469.434 120.906C470.716 120.665 471.605 120.441 472.1 120.232V119.959C472.1 119.432 471.969 119.057 471.709 118.836C471.449 118.608 470.957 118.494 470.234 118.494C469.746 118.494 469.365 118.592 469.092 118.787C468.818 118.976 468.597 119.311 468.428 119.793ZM472.1 122.02C471.748 122.137 471.191 122.277 470.43 122.439C469.668 122.602 469.17 122.762 468.936 122.918C468.577 123.172 468.398 123.494 468.398 123.885C468.398 124.269 468.542 124.601 468.828 124.881C469.115 125.161 469.479 125.301 469.922 125.301C470.417 125.301 470.889 125.138 471.338 124.812C471.67 124.565 471.888 124.262 471.992 123.904C472.064 123.67 472.1 123.224 472.1 122.566V122.02ZM486.943 127H484.199V121.707C484.199 120.587 484.141 119.865 484.023 119.539C483.906 119.207 483.714 118.95 483.447 118.768C483.187 118.585 482.871 118.494 482.5 118.494C482.025 118.494 481.598 118.624 481.221 118.885C480.843 119.145 480.583 119.49 480.439 119.92C480.303 120.35 480.234 121.144 480.234 122.303V127H477.49V116.629H480.039V118.152C480.944 116.98 482.083 116.395 483.457 116.395C484.062 116.395 484.616 116.505 485.117 116.727C485.618 116.941 485.996 117.218 486.25 117.557C486.51 117.895 486.689 118.279 486.787 118.709C486.891 119.139 486.943 119.754 486.943 120.555V127ZM499.248 127H496.699V125.477C496.276 126.069 495.775 126.512 495.195 126.805C494.622 127.091 494.043 127.234 493.457 127.234C492.266 127.234 491.243 126.756 490.391 125.799C489.544 124.835 489.121 123.494 489.121 121.775C489.121 120.018 489.535 118.683 490.361 117.771C491.188 116.854 492.233 116.395 493.496 116.395C494.655 116.395 495.658 116.876 496.504 117.84V112.684H499.248V127ZM491.924 121.59C491.924 122.697 492.077 123.497 492.383 123.992C492.826 124.708 493.444 125.066 494.238 125.066C494.87 125.066 495.407 124.799 495.85 124.266C496.292 123.725 496.514 122.921 496.514 121.854C496.514 120.662 496.299 119.806 495.869 119.285C495.439 118.758 494.889 118.494 494.219 118.494C493.568 118.494 493.021 118.755 492.578 119.275C492.142 119.79 491.924 120.561 491.924 121.59ZM501.963 127V112.684H504.707V127H501.963ZM513.535 123.699L516.27 124.158C515.918 125.161 515.361 125.926 514.6 126.453C513.844 126.974 512.897 127.234 511.758 127.234C509.954 127.234 508.62 126.645 507.754 125.467C507.07 124.523 506.729 123.331 506.729 121.893C506.729 120.174 507.178 118.829 508.076 117.859C508.975 116.883 510.111 116.395 511.484 116.395C513.027 116.395 514.245 116.906 515.137 117.928C516.029 118.943 516.455 120.503 516.416 122.605H509.541C509.561 123.419 509.782 124.054 510.205 124.51C510.628 124.959 511.156 125.184 511.787 125.184C512.217 125.184 512.578 125.066 512.871 124.832C513.164 124.598 513.385 124.22 513.535 123.699ZM513.691 120.926C513.672 120.132 513.467 119.529 513.076 119.119C512.686 118.702 512.21 118.494 511.65 118.494C511.051 118.494 510.557 118.712 510.166 119.148C509.775 119.585 509.583 120.177 509.59 120.926H513.691ZM518.564 127V112.684H521.309V120.281L524.521 116.629H527.9L524.355 120.418L528.154 127H525.195L522.588 122.342L521.309 123.68V127H518.564ZM536.621 127V125.447C536.243 126.001 535.745 126.437 535.127 126.756C534.515 127.075 533.867 127.234 533.184 127.234C532.487 127.234 531.862 127.081 531.309 126.775C530.755 126.469 530.355 126.04 530.107 125.486C529.86 124.933 529.736 124.168 529.736 123.191V116.629H532.48V121.395C532.48 122.853 532.529 123.748 532.627 124.08C532.731 124.406 532.917 124.666 533.184 124.861C533.451 125.05 533.789 125.145 534.199 125.145C534.668 125.145 535.088 125.018 535.459 124.764C535.83 124.503 536.084 124.184 536.221 123.807C536.357 123.423 536.426 122.488 536.426 121.004V116.629H539.17V127H536.621ZM544.648 127H541.904V116.629H544.453V118.104C544.889 117.407 545.28 116.948 545.625 116.727C545.977 116.505 546.374 116.395 546.816 116.395C547.441 116.395 548.044 116.567 548.623 116.912L547.773 119.305C547.311 119.005 546.882 118.855 546.484 118.855C546.1 118.855 545.775 118.963 545.508 119.178C545.241 119.386 545.029 119.767 544.873 120.32C544.723 120.874 544.648 122.033 544.648 123.797V127ZM552.666 127L548.486 116.629H551.367L553.32 121.922L553.887 123.689C554.036 123.24 554.131 122.944 554.17 122.801C554.261 122.508 554.359 122.215 554.463 121.922L556.436 116.629H559.258L555.137 127H552.666Z" fill="white"/>
<path d="M189.901 183V172.979H196.771V174.674H191.925V177.046H196.108V178.741H191.925V183H189.901ZM200.271 183H198.351V175.74H200.135V176.772C200.44 176.285 200.714 175.964 200.955 175.809C201.201 175.654 201.479 175.576 201.789 175.576C202.227 175.576 202.648 175.697 203.054 175.938L202.459 177.613C202.135 177.404 201.835 177.299 201.557 177.299C201.288 177.299 201.06 177.374 200.873 177.524C200.686 177.67 200.538 177.937 200.429 178.324C200.324 178.712 200.271 179.523 200.271 180.758V183ZM205.323 177.955L203.58 177.641C203.776 176.939 204.113 176.419 204.592 176.082C205.07 175.745 205.781 175.576 206.725 175.576C207.581 175.576 208.219 175.679 208.639 175.884C209.058 176.084 209.352 176.342 209.521 176.656C209.694 176.966 209.78 177.538 209.78 178.372L209.76 180.614C209.76 181.252 209.789 181.724 209.849 182.029C209.912 182.33 210.029 182.654 210.197 183H208.297C208.247 182.872 208.185 182.683 208.112 182.433C208.08 182.319 208.058 182.243 208.044 182.207C207.716 182.526 207.365 182.765 206.991 182.925C206.618 183.084 206.219 183.164 205.795 183.164C205.048 183.164 204.457 182.961 204.024 182.556C203.596 182.15 203.382 181.637 203.382 181.018C203.382 180.607 203.48 180.243 203.676 179.924C203.872 179.6 204.145 179.354 204.496 179.186C204.852 179.012 205.362 178.862 206.027 178.734C206.925 178.566 207.547 178.409 207.894 178.263V178.071C207.894 177.702 207.802 177.44 207.62 177.285C207.438 177.126 207.094 177.046 206.588 177.046C206.246 177.046 205.979 177.114 205.788 177.251C205.597 177.383 205.442 177.618 205.323 177.955ZM207.894 179.514C207.647 179.596 207.258 179.694 206.725 179.808C206.191 179.922 205.843 180.033 205.679 180.143C205.428 180.32 205.303 180.546 205.303 180.819C205.303 181.088 205.403 181.321 205.604 181.517C205.804 181.713 206.059 181.811 206.369 181.811C206.715 181.811 207.046 181.697 207.36 181.469C207.593 181.296 207.745 181.084 207.818 180.833C207.868 180.669 207.894 180.357 207.894 179.896V179.514ZM211.612 183V172.979H213.533V178.297L215.782 175.74H218.147L215.666 178.393L218.325 183H216.254L214.429 179.739L213.533 180.676V183H211.612ZM222.803 175.74V177.271H221.49V180.197C221.49 180.79 221.502 181.136 221.524 181.236C221.552 181.332 221.609 181.412 221.695 181.476C221.786 181.539 221.896 181.571 222.023 181.571C222.201 181.571 222.459 181.51 222.796 181.387L222.96 182.877C222.513 183.068 222.007 183.164 221.442 183.164C221.096 183.164 220.784 183.107 220.506 182.993C220.228 182.875 220.023 182.724 219.891 182.542C219.763 182.355 219.674 182.104 219.624 181.79C219.583 181.567 219.562 181.116 219.562 180.437V177.271H218.681V175.74H219.562V174.298L221.49 173.177V175.74H222.803Z" fill="#938FA8"/>
<path d="M478.388 172.979H482.394C483.187 172.979 483.777 173.013 484.164 173.081C484.556 173.145 484.905 173.282 485.21 173.491C485.52 173.701 485.777 173.981 485.982 174.332C486.188 174.678 486.29 175.068 486.29 175.501C486.29 175.97 486.162 176.401 485.907 176.793C485.657 177.185 485.315 177.479 484.882 177.675C485.493 177.853 485.962 178.156 486.29 178.584C486.618 179.012 486.782 179.516 486.782 180.095C486.782 180.55 486.675 180.995 486.461 181.428C486.251 181.856 485.962 182.2 485.593 182.46C485.228 182.715 484.777 182.872 484.239 182.932C483.902 182.968 483.089 182.991 481.799 183H478.388V172.979ZM480.411 174.646V176.964H481.737C482.526 176.964 483.016 176.952 483.207 176.93C483.553 176.889 483.825 176.77 484.021 176.574C484.221 176.374 484.321 176.112 484.321 175.788C484.321 175.478 484.235 175.228 484.062 175.036C483.893 174.84 483.64 174.722 483.303 174.681C483.102 174.658 482.526 174.646 481.573 174.646H480.411ZM480.411 178.632V181.312H482.284C483.013 181.312 483.476 181.291 483.672 181.25C483.973 181.195 484.216 181.063 484.403 180.854C484.595 180.639 484.69 180.354 484.69 179.999C484.69 179.698 484.618 179.443 484.472 179.233C484.326 179.024 484.114 178.871 483.836 178.775C483.562 178.68 482.965 178.632 482.045 178.632H480.411ZM492.688 180.689L494.603 181.011C494.356 181.713 493.967 182.248 493.434 182.617C492.905 182.982 492.242 183.164 491.444 183.164C490.182 183.164 489.248 182.752 488.642 181.927C488.163 181.266 487.924 180.432 487.924 179.425C487.924 178.222 488.238 177.281 488.867 176.602C489.496 175.918 490.291 175.576 491.253 175.576C492.333 175.576 493.185 175.934 493.81 176.649C494.434 177.36 494.732 178.452 494.705 179.924H489.893C489.906 180.493 490.061 180.938 490.357 181.257C490.654 181.571 491.023 181.729 491.465 181.729C491.766 181.729 492.019 181.646 492.224 181.482C492.429 181.318 492.584 181.054 492.688 180.689ZM492.798 178.748C492.784 178.192 492.641 177.771 492.367 177.483C492.094 177.192 491.761 177.046 491.369 177.046C490.95 177.046 490.604 177.199 490.33 177.504C490.057 177.809 489.922 178.224 489.927 178.748H492.798ZM499.606 175.74V177.271H498.294V180.197C498.294 180.79 498.305 181.136 498.328 181.236C498.355 181.332 498.412 181.412 498.499 181.476C498.59 181.539 498.7 181.571 498.827 181.571C499.005 181.571 499.262 181.51 499.6 181.387L499.764 182.877C499.317 183.068 498.811 183.164 498.246 183.164C497.9 183.164 497.588 183.107 497.31 182.993C497.032 182.875 496.826 182.724 496.694 182.542C496.567 182.355 496.478 182.104 496.428 181.79C496.387 181.567 496.366 181.116 496.366 180.437V177.271H495.484V175.74H496.366V174.298L498.294 173.177V175.74H499.606ZM502.375 177.955L500.632 177.641C500.828 176.939 501.165 176.419 501.644 176.082C502.122 175.745 502.833 175.576 503.776 175.576C504.633 175.576 505.271 175.679 505.69 175.884C506.11 176.084 506.404 176.342 506.572 176.656C506.745 176.966 506.832 177.538 506.832 178.372L506.812 180.614C506.812 181.252 506.841 181.724 506.9 182.029C506.964 182.33 507.08 182.654 507.249 183H505.349C505.299 182.872 505.237 182.683 505.164 182.433C505.132 182.319 505.109 182.243 505.096 182.207C504.768 182.526 504.417 182.765 504.043 182.925C503.669 183.084 503.271 183.164 502.847 183.164C502.099 183.164 501.509 182.961 501.076 182.556C500.648 182.15 500.434 181.637 500.434 181.018C500.434 180.607 500.532 180.243 500.728 179.924C500.924 179.6 501.197 179.354 501.548 179.186C501.903 179.012 502.414 178.862 503.079 178.734C503.977 178.566 504.599 178.409 504.945 178.263V178.071C504.945 177.702 504.854 177.44 504.672 177.285C504.49 177.126 504.146 177.046 503.64 177.046C503.298 177.046 503.031 177.114 502.84 177.251C502.648 177.383 502.493 177.618 502.375 177.955ZM504.945 179.514C504.699 179.596 504.31 179.694 503.776 179.808C503.243 179.922 502.895 180.033 502.73 180.143C502.48 180.32 502.354 180.546 502.354 180.819C502.354 181.088 502.455 181.321 502.655 181.517C502.856 181.713 503.111 181.811 503.421 181.811C503.767 181.811 504.098 181.697 504.412 181.469C504.645 181.296 504.797 181.084 504.87 180.833C504.92 180.669 504.945 180.357 504.945 179.896V179.514ZM508.732 183V172.979H510.653V183H508.732ZM512.629 174.756V172.979H514.55V174.756H512.629ZM512.629 183V175.74H514.55V183H512.629ZM523.129 183H521.208V179.295C521.208 178.511 521.167 178.005 521.085 177.777C521.003 177.545 520.868 177.365 520.682 177.237C520.499 177.11 520.278 177.046 520.019 177.046C519.686 177.046 519.387 177.137 519.123 177.319C518.859 177.502 518.676 177.743 518.576 178.044C518.48 178.345 518.433 178.901 518.433 179.712V183H516.512V175.74H518.296V176.807C518.929 175.986 519.727 175.576 520.688 175.576C521.112 175.576 521.5 175.654 521.851 175.809C522.201 175.959 522.466 176.153 522.644 176.39C522.826 176.627 522.951 176.896 523.02 177.196C523.092 177.497 523.129 177.928 523.129 178.488V183ZM524.906 183.479L527.101 183.745C527.137 184 527.221 184.176 527.354 184.271C527.536 184.408 527.823 184.477 528.215 184.477C528.716 184.477 529.092 184.401 529.343 184.251C529.511 184.151 529.639 183.989 529.726 183.766C529.785 183.606 529.814 183.312 529.814 182.884V181.824C529.24 182.608 528.516 183 527.641 183C526.665 183 525.893 182.588 525.323 181.763C524.877 181.111 524.653 180.3 524.653 179.329C524.653 178.112 524.945 177.183 525.528 176.54C526.116 175.897 526.845 175.576 527.716 175.576C528.614 175.576 529.354 175.97 529.938 176.759V175.74H531.735V182.255C531.735 183.112 531.665 183.752 531.523 184.176C531.382 184.6 531.184 184.932 530.929 185.174C530.674 185.415 530.332 185.604 529.903 185.741C529.479 185.878 528.942 185.946 528.29 185.946C527.06 185.946 526.187 185.734 525.672 185.311C525.157 184.891 524.899 184.358 524.899 183.711C524.899 183.647 524.902 183.57 524.906 183.479ZM526.622 179.22C526.622 179.99 526.77 180.555 527.066 180.915C527.367 181.271 527.736 181.448 528.174 181.448C528.643 181.448 529.04 181.266 529.363 180.901C529.687 180.532 529.849 179.988 529.849 179.268C529.849 178.516 529.694 177.957 529.384 177.593C529.074 177.228 528.682 177.046 528.208 177.046C527.748 177.046 527.367 177.226 527.066 177.586C526.77 177.941 526.622 178.486 526.622 179.22Z" fill="#F4733A"/>
<path d="M752.84 178.051C752.84 177.03 752.993 176.173 753.298 175.48C753.526 174.97 753.836 174.512 754.228 174.106C754.624 173.701 755.057 173.4 755.526 173.204C756.151 172.94 756.871 172.808 757.687 172.808C759.163 172.808 760.343 173.266 761.228 174.182C762.116 175.098 762.561 176.371 762.561 178.003C762.561 179.621 762.121 180.888 761.241 181.804C760.362 182.715 759.186 183.171 757.714 183.171C756.224 183.171 755.039 182.717 754.159 181.811C753.28 180.899 752.84 179.646 752.84 178.051ZM754.925 177.982C754.925 179.117 755.187 179.979 755.711 180.566C756.235 181.15 756.9 181.441 757.707 181.441C758.514 181.441 759.174 181.152 759.689 180.573C760.209 179.99 760.469 179.117 760.469 177.955C760.469 176.807 760.216 175.95 759.71 175.385C759.209 174.82 758.541 174.537 757.707 174.537C756.873 174.537 756.201 174.824 755.69 175.398C755.18 175.968 754.925 176.829 754.925 177.982ZM764.078 175.74H765.869V176.807C766.102 176.442 766.416 176.146 766.812 175.918C767.209 175.69 767.649 175.576 768.132 175.576C768.975 175.576 769.69 175.907 770.278 176.567C770.866 177.228 771.16 178.149 771.16 179.329C771.16 180.541 770.864 181.485 770.271 182.159C769.679 182.829 768.961 183.164 768.118 183.164C767.717 183.164 767.353 183.084 767.024 182.925C766.701 182.765 766.359 182.492 765.999 182.104V185.762H764.078V175.74ZM765.979 179.247C765.979 180.063 766.14 180.667 766.464 181.059C766.787 181.446 767.182 181.64 767.646 181.64C768.093 181.64 768.465 181.462 768.761 181.106C769.057 180.746 769.205 180.159 769.205 179.343C769.205 178.582 769.052 178.017 768.747 177.647C768.442 177.278 768.063 177.094 767.612 177.094C767.143 177.094 766.753 177.276 766.443 177.641C766.133 178.001 765.979 178.536 765.979 179.247ZM772.637 175.74H774.428V176.807C774.66 176.442 774.975 176.146 775.371 175.918C775.768 175.69 776.207 175.576 776.69 175.576C777.534 175.576 778.249 175.907 778.837 176.567C779.425 177.228 779.719 178.149 779.719 179.329C779.719 180.541 779.423 181.485 778.83 182.159C778.238 182.829 777.52 183.164 776.677 183.164C776.276 183.164 775.911 183.084 775.583 182.925C775.259 182.765 774.918 182.492 774.558 182.104V185.762H772.637V175.74ZM774.537 179.247C774.537 180.063 774.699 180.667 775.022 181.059C775.346 181.446 775.74 181.64 776.205 181.64C776.652 181.64 777.023 181.462 777.319 181.106C777.616 180.746 777.764 180.159 777.764 179.343C777.764 178.582 777.611 178.017 777.306 177.647C777 177.278 776.622 177.094 776.171 177.094C775.701 177.094 775.312 177.276 775.002 177.641C774.692 178.001 774.537 178.536 774.537 179.247ZM780.573 180.929L782.501 180.635C782.583 181.008 782.749 181.293 783 181.489C783.251 181.681 783.602 181.776 784.053 181.776C784.549 181.776 784.923 181.685 785.174 181.503C785.342 181.375 785.427 181.204 785.427 180.99C785.427 180.844 785.381 180.724 785.29 180.628C785.194 180.537 784.98 180.452 784.647 180.375C783.098 180.033 782.116 179.721 781.701 179.438C781.127 179.047 780.84 178.502 780.84 177.805C780.84 177.176 781.088 176.647 781.585 176.219C782.082 175.79 782.852 175.576 783.896 175.576C784.889 175.576 785.627 175.738 786.11 176.062C786.593 176.385 786.926 176.864 787.108 177.497L785.297 177.832C785.219 177.549 785.071 177.333 784.853 177.183C784.638 177.032 784.331 176.957 783.93 176.957C783.424 176.957 783.062 177.028 782.843 177.169C782.697 177.269 782.624 177.399 782.624 177.559C782.624 177.695 782.688 177.812 782.815 177.907C782.989 178.035 783.586 178.215 784.606 178.447C785.632 178.68 786.347 178.965 786.753 179.302C787.154 179.644 787.354 180.12 787.354 180.73C787.354 181.396 787.076 181.968 786.521 182.446C785.965 182.925 785.142 183.164 784.053 183.164C783.064 183.164 782.28 182.964 781.701 182.562C781.127 182.161 780.751 181.617 780.573 180.929ZM793.821 183V181.913C793.557 182.3 793.208 182.606 792.775 182.829C792.347 183.052 791.894 183.164 791.415 183.164C790.927 183.164 790.49 183.057 790.103 182.843C789.715 182.629 789.435 182.328 789.262 181.94C789.089 181.553 789.002 181.018 789.002 180.334V175.74H790.923V179.076C790.923 180.097 790.957 180.724 791.025 180.956C791.098 181.184 791.228 181.366 791.415 181.503C791.602 181.635 791.839 181.701 792.126 181.701C792.454 181.701 792.748 181.612 793.008 181.435C793.268 181.252 793.445 181.029 793.541 180.765C793.637 180.496 793.685 179.842 793.685 178.803V175.74H795.605V183H793.821ZM797.458 175.74H799.229V176.731C799.862 175.961 800.616 175.576 801.491 175.576C801.956 175.576 802.359 175.672 802.701 175.863C803.043 176.055 803.323 176.344 803.542 176.731C803.861 176.344 804.205 176.055 804.574 175.863C804.943 175.672 805.338 175.576 805.757 175.576C806.29 175.576 806.741 175.686 807.11 175.904C807.479 176.118 807.755 176.435 807.938 176.854C808.07 177.164 808.136 177.666 808.136 178.358V183H806.215V178.851C806.215 178.131 806.149 177.666 806.017 177.456C805.839 177.183 805.565 177.046 805.196 177.046C804.927 177.046 804.674 177.128 804.438 177.292C804.201 177.456 804.03 177.698 803.925 178.017C803.82 178.331 803.768 178.83 803.768 179.514V183H801.847V179.021C801.847 178.315 801.812 177.859 801.744 177.654C801.676 177.449 801.569 177.297 801.423 177.196C801.282 177.096 801.088 177.046 800.842 177.046C800.546 177.046 800.279 177.126 800.042 177.285C799.805 177.445 799.634 177.675 799.529 177.976C799.429 178.276 799.379 178.775 799.379 179.473V183H797.458V175.74ZM809.913 175.74H811.684V176.731C812.317 175.961 813.071 175.576 813.946 175.576C814.411 175.576 814.814 175.672 815.156 175.863C815.498 176.055 815.778 176.344 815.997 176.731C816.316 176.344 816.66 176.055 817.029 175.863C817.398 175.672 817.793 175.576 818.212 175.576C818.745 175.576 819.196 175.686 819.565 175.904C819.935 176.118 820.21 176.435 820.393 176.854C820.525 177.164 820.591 177.666 820.591 178.358V183H818.67V178.851C818.67 178.131 818.604 177.666 818.472 177.456C818.294 177.183 818.021 177.046 817.651 177.046C817.382 177.046 817.13 177.128 816.893 177.292C816.656 177.456 816.485 177.698 816.38 178.017C816.275 178.331 816.223 178.83 816.223 179.514V183H814.302V179.021C814.302 178.315 814.268 177.859 814.199 177.654C814.131 177.449 814.024 177.297 813.878 177.196C813.737 177.096 813.543 177.046 813.297 177.046C813.001 177.046 812.734 177.126 812.497 177.285C812.26 177.445 812.089 177.675 811.984 177.976C811.884 178.276 811.834 178.775 811.834 179.473V183H809.913V175.74ZM826.716 180.689L828.63 181.011C828.384 181.713 827.994 182.248 827.461 182.617C826.932 182.982 826.269 183.164 825.472 183.164C824.209 183.164 823.275 182.752 822.669 181.927C822.19 181.266 821.951 180.432 821.951 179.425C821.951 178.222 822.266 177.281 822.895 176.602C823.523 175.918 824.319 175.576 825.28 175.576C826.36 175.576 827.213 175.934 827.837 176.649C828.461 177.36 828.76 178.452 828.732 179.924H823.92C823.934 180.493 824.089 180.938 824.385 181.257C824.681 181.571 825.05 181.729 825.492 181.729C825.793 181.729 826.046 181.646 826.251 181.482C826.456 181.318 826.611 181.054 826.716 180.689ZM826.825 178.748C826.812 178.192 826.668 177.771 826.395 177.483C826.121 177.192 825.788 177.046 825.396 177.046C824.977 177.046 824.631 177.199 824.357 177.504C824.084 177.809 823.95 178.224 823.954 178.748H826.825ZM832.144 183H830.223V175.74H832.007V176.772C832.312 176.285 832.586 175.964 832.827 175.809C833.073 175.654 833.351 175.576 833.661 175.576C834.099 175.576 834.52 175.697 834.926 175.938L834.331 177.613C834.007 177.404 833.707 177.299 833.429 177.299C833.16 177.299 832.932 177.374 832.745 177.524C832.558 177.67 832.41 177.937 832.301 178.324C832.196 178.712 832.144 179.523 832.144 180.758V183ZM835.76 174.756V172.979H837.681V174.756H835.76ZM835.76 183V175.74H837.681V183H835.76ZM846.26 183H844.339V179.295C844.339 178.511 844.298 178.005 844.216 177.777C844.134 177.545 843.999 177.365 843.812 177.237C843.63 177.11 843.409 177.046 843.149 177.046C842.817 177.046 842.518 177.137 842.254 177.319C841.99 177.502 841.807 177.743 841.707 178.044C841.611 178.345 841.563 178.901 841.563 179.712V183H839.643V175.74H841.427V176.807C842.06 175.986 842.858 175.576 843.819 175.576C844.243 175.576 844.631 175.654 844.981 175.809C845.332 175.959 845.597 176.153 845.774 176.39C845.957 176.627 846.082 176.896 846.15 177.196C846.223 177.497 846.26 177.928 846.26 178.488V183ZM848.037 183.479L850.231 183.745C850.268 184 850.352 184.176 850.484 184.271C850.667 184.408 850.954 184.477 851.346 184.477C851.847 184.477 852.223 184.401 852.474 184.251C852.642 184.151 852.77 183.989 852.856 183.766C852.916 183.606 852.945 183.312 852.945 182.884V181.824C852.371 182.608 851.646 183 850.771 183C849.796 183 849.024 182.588 848.454 181.763C848.007 181.111 847.784 180.3 847.784 179.329C847.784 178.112 848.076 177.183 848.659 176.54C849.247 175.897 849.976 175.576 850.847 175.576C851.744 175.576 852.485 175.97 853.068 176.759V175.74H854.866V182.255C854.866 183.112 854.796 183.752 854.654 184.176C854.513 184.6 854.315 184.932 854.06 185.174C853.804 185.415 853.463 185.604 853.034 185.741C852.61 185.878 852.073 185.946 851.421 185.946C850.19 185.946 849.318 185.734 848.803 185.311C848.288 184.891 848.03 184.358 848.03 183.711C848.03 183.647 848.033 183.57 848.037 183.479ZM849.753 179.22C849.753 179.99 849.901 180.555 850.197 180.915C850.498 181.271 850.867 181.448 851.305 181.448C851.774 181.448 852.171 181.266 852.494 180.901C852.818 180.532 852.979 179.988 852.979 179.268C852.979 178.516 852.825 177.957 852.515 177.593C852.205 177.228 851.813 177.046 851.339 177.046C850.879 177.046 850.498 177.226 850.197 177.586C849.901 177.941 849.753 178.486 849.753 179.22Z" fill="#938FA8"/>
<rect x="56" y="207" width="300" height="2" fill="#C4C4C4"/>
<rect x="356" y="207" width="300" height="2" fill="#F4733A"/>
<rect x="656" y="207" width="300" height="2" fill="#C4C4C4"/>
<rect x="383" y="526" width="246" height="54" rx="5" fill="#F4733A"/>
<path d="M467.27 558V547.979H474.14V549.674H469.294V552.046H473.477V553.741H469.294V558H467.27ZM476.105 553.051C476.105 552.03 476.258 551.173 476.563 550.48C476.791 549.97 477.101 549.512 477.493 549.106C477.889 548.701 478.322 548.4 478.791 548.204C479.416 547.94 480.136 547.808 480.952 547.808C482.428 547.808 483.609 548.266 484.493 549.182C485.381 550.098 485.826 551.371 485.826 553.003C485.826 554.621 485.386 555.888 484.506 556.804C483.627 557.715 482.451 558.171 480.979 558.171C479.489 558.171 478.304 557.717 477.424 556.811C476.545 555.899 476.105 554.646 476.105 553.051ZM478.19 552.982C478.19 554.117 478.452 554.979 478.976 555.566C479.5 556.15 480.165 556.441 480.972 556.441C481.779 556.441 482.44 556.152 482.955 555.573C483.474 554.99 483.734 554.117 483.734 552.955C483.734 551.807 483.481 550.95 482.975 550.385C482.474 549.82 481.806 549.537 480.972 549.537C480.138 549.537 479.466 549.824 478.956 550.398C478.445 550.968 478.19 551.829 478.19 552.982ZM488.118 558V547.979H492.377C493.448 547.979 494.225 548.07 494.708 548.252C495.196 548.43 495.586 548.749 495.877 549.209C496.169 549.669 496.315 550.196 496.315 550.788C496.315 551.54 496.094 552.162 495.652 552.654C495.21 553.142 494.549 553.45 493.669 553.577C494.107 553.832 494.467 554.113 494.749 554.418C495.036 554.723 495.421 555.266 495.905 556.045L497.128 558H494.708L493.245 555.819C492.726 555.04 492.37 554.55 492.179 554.35C491.988 554.145 491.785 554.006 491.571 553.933C491.356 553.855 491.017 553.816 490.552 553.816H490.142V558H488.118ZM490.142 552.217H491.639C492.61 552.217 493.216 552.176 493.457 552.094C493.699 552.012 493.888 551.87 494.025 551.67C494.161 551.469 494.23 551.219 494.23 550.918C494.23 550.581 494.139 550.31 493.956 550.104C493.779 549.895 493.526 549.763 493.198 549.708C493.033 549.685 492.541 549.674 491.721 549.674H490.142V552.217ZM501.185 558V549.674H498.211V547.979H506.175V549.674H503.208V558H501.185ZM507.675 554.739L509.643 554.548C509.762 555.209 510.001 555.694 510.361 556.004C510.726 556.314 511.216 556.469 511.831 556.469C512.483 556.469 512.973 556.332 513.301 556.059C513.633 555.781 513.8 555.457 513.8 555.088C513.8 554.851 513.729 554.65 513.588 554.486C513.451 554.318 513.21 554.172 512.863 554.049C512.626 553.967 512.086 553.821 511.243 553.611C510.158 553.342 509.397 553.012 508.96 552.62C508.345 552.069 508.037 551.396 508.037 550.604C508.037 550.093 508.181 549.617 508.468 549.175C508.759 548.728 509.176 548.389 509.719 548.156C510.266 547.924 510.924 547.808 511.694 547.808C512.952 547.808 513.898 548.083 514.531 548.635C515.169 549.186 515.504 549.922 515.536 550.843L513.513 550.932C513.426 550.417 513.239 550.048 512.952 549.824C512.669 549.596 512.243 549.482 511.674 549.482C511.086 549.482 510.626 549.603 510.293 549.845C510.079 550 509.972 550.207 509.972 550.467C509.972 550.704 510.072 550.907 510.272 551.075C510.528 551.289 511.147 551.513 512.132 551.745C513.116 551.978 513.843 552.219 514.312 552.47C514.786 552.716 515.155 553.055 515.42 553.488C515.689 553.917 515.823 554.448 515.823 555.081C515.823 555.655 515.664 556.193 515.345 556.694C515.026 557.196 514.574 557.569 513.991 557.815C513.408 558.057 512.681 558.178 511.81 558.178C510.543 558.178 509.571 557.886 508.891 557.303C508.212 556.715 507.807 555.86 507.675 554.739ZM518.225 558V547.979H525.656V549.674H520.249V551.896H525.28V553.584H520.249V556.312H525.847V558H518.225ZM530.519 558V549.674H527.545V547.979H535.509V549.674H532.542V558H530.519ZM539.778 558V549.674H536.804V547.979H544.768V549.674H541.801V558H539.778Z" fill="white"/>
</svg>
