<svg width="214" height="92" viewBox="0 0 214 92" fill="none" xmlns="http://www.w3.org/2000/svg">
<rect width="214" height="92" fill="white"/>
<g filter="url(#filter0_d)">
<rect x="2" y="1" width="210" height="40" rx="5" fill="#FF5B24"/>
</g>
<path d="M34.9448 27C37.727 27 39.4252 25.5818 39.4252 23.2964C39.4252 21.5981 38.2148 20.3335 36.4624 20.1709V20.0083C37.7722 19.8005 38.7839 18.5901 38.7839 17.217C38.7839 15.2117 37.2934 13.9651 34.8183 13.9651H29.3713V27H34.9448ZM31.7019 15.8169H34.2492C35.6584 15.8169 36.4804 16.4854 36.4804 17.6326C36.4804 18.8069 35.6042 19.4482 33.9511 19.4482H31.7019V15.8169ZM31.7019 25.1482V21.1284H34.3215C36.101 21.1284 37.0405 21.8149 37.0405 23.1157C37.0405 24.4436 36.1281 25.1482 34.4118 25.1482H31.7019ZM45.675 18.6985C47.0209 18.6985 47.9062 19.6379 47.9513 21.1013H43.2992C43.3986 19.656 44.338 18.6985 45.675 18.6985ZM47.9694 24.281C47.6442 25.0127 46.8764 25.4192 45.7653 25.4192C44.2929 25.4192 43.3444 24.3894 43.2902 22.7454V22.6279H50.1916V21.9053C50.1916 18.7888 48.5023 16.9189 45.684 16.9189C42.8205 16.9189 41.0409 18.9153 41.0409 22.095C41.0409 25.2747 42.7934 27.1987 45.7021 27.1987C48.0326 27.1987 49.6857 26.0786 50.0922 24.281H47.9694ZM52.9544 14.6968V17.1809H51.3917V18.9695H52.9544V24.3623C52.9544 26.2773 53.8578 27.0452 56.1251 27.0452C56.5587 27.0452 56.9742 27 57.2994 26.9368V25.1843C57.0284 25.2114 56.8568 25.2295 56.5406 25.2295C55.6012 25.2295 55.1856 24.7959 55.1856 23.8203V18.9695H57.2994V17.1809H55.1856V14.6968H52.9544ZM62.7181 25.4011C61.7244 25.4011 61.0108 24.9043 61.0108 24.0732C61.0108 23.2693 61.598 22.8176 62.8536 22.7363L65.0848 22.5918V23.3777C65.0848 24.5249 64.0731 25.4011 62.7181 25.4011ZM62.0586 27.1626C63.3504 27.1626 64.4344 26.6025 64.9854 25.645H65.139V27H67.2979V20.2522C67.2979 18.1565 65.8707 16.9189 63.3323 16.9189C60.9837 16.9189 59.3487 18.03 59.168 19.7734H61.2818C61.4896 19.105 62.1941 18.7437 63.2239 18.7437C64.4344 18.7437 65.0848 19.2856 65.0848 20.2522V21.0833L62.5374 21.2368C60.1346 21.3813 58.7886 22.4111 58.7886 24.1997C58.7886 26.0063 60.1526 27.1626 62.0586 27.1626ZM69.8892 27H72.1294V13.2966H69.8892V27ZM79.498 27H81.7382V20.9929C81.7382 19.7825 82.5602 18.8701 83.6713 18.8701C84.7733 18.8701 85.4599 19.5295 85.4599 20.6135V27H87.6369V20.8484C87.6369 19.7192 88.4047 18.8701 89.57 18.8701C90.7714 18.8701 91.3766 19.5024 91.3766 20.7761V27H93.6078V20.207C93.6078 18.1565 92.4154 16.9189 90.4372 16.9189C89.0641 16.9189 87.9259 17.6326 87.4381 18.7166H87.2846C86.869 17.6055 85.9206 16.9189 84.5565 16.9189C83.2467 16.9189 82.235 17.5874 81.8105 18.7166H81.6569V17.1177H79.498V27ZM100.21 18.6985C101.556 18.6985 102.441 19.6379 102.486 21.1013H97.8341C97.9334 19.656 98.8729 18.6985 100.21 18.6985ZM102.504 24.281C102.179 25.0127 101.411 25.4192 100.3 25.4192C98.8277 25.4192 97.8792 24.3894 97.8251 22.7454V22.6279H104.726V21.9053C104.726 18.7888 103.037 16.9189 100.219 16.9189C97.3553 16.9189 95.5758 18.9153 95.5758 22.095C95.5758 25.2747 97.3282 27.1987 100.237 27.1987C102.567 27.1987 104.221 26.0786 104.627 24.281H102.504ZM110.353 27.1626C111.726 27.1626 112.864 26.5212 113.424 25.4373H113.578V27H115.746V13.2966H113.505V18.6895H113.352C112.828 17.6055 111.708 16.9551 110.353 16.9551C107.86 16.9551 106.288 18.9243 106.288 22.0498C106.288 25.1934 107.851 27.1626 110.353 27.1626ZM111.048 18.8611C112.584 18.8611 113.533 20.0896 113.533 22.0588C113.533 24.0461 112.593 25.2566 111.048 25.2566C109.513 25.2566 108.582 24.0552 108.582 22.0588C108.582 20.0715 109.522 18.8611 111.048 18.8611Z" fill="white"/>
<path fill-rule="evenodd" clip-rule="evenodd" d="M187 18.8384C186.28 16.0907 184.531 15 182.145 15C180.211 15 177.784 16.0907 177.784 18.7172C177.784 20.414 178.957 21.7476 180.869 22.0912L182.68 22.4142C183.914 22.6363 184.264 23.1011 184.264 23.7274C184.264 24.4345 183.503 24.8384 182.371 24.8384C180.89 24.8384 179.965 24.3132 179.82 22.8383L177.208 23.2425C177.619 26.0908 180.17 27.2629 182.474 27.2629C184.655 27.2629 186.979 26.0101 186.979 23.4849C186.979 21.7675 185.93 20.5153 183.976 20.1512L181.98 19.7879C180.869 19.5859 180.499 19.0404 180.499 18.5152C180.499 17.8484 181.219 17.4245 182.207 17.4245C183.462 17.4245 184.346 17.8484 184.387 19.2424L187 18.8384ZM128.925 23.1613L131.64 15.3029H134.828L130.097 26.9594H127.731L123 15.3031H126.188L128.925 23.1613ZM145.608 18.6364C145.608 19.5656 144.868 20.212 144.004 20.212C143.14 20.212 142.399 19.5656 142.399 18.6364C142.399 17.707 143.14 17.0608 144.004 17.0608C144.868 17.0608 145.609 17.707 145.609 18.6364H145.608ZM146.102 22.7577C145.032 24.1311 143.901 25.0806 141.905 25.0807C139.869 25.0807 138.285 23.8686 137.051 22.091C136.557 21.3635 135.796 21.202 135.24 21.5859C134.726 21.9496 134.603 22.7173 135.076 23.3841C136.783 25.9497 139.149 27.4443 141.905 27.4443C144.436 27.4443 146.411 26.2324 147.953 24.2121C148.529 23.4648 148.509 22.6971 147.953 22.2728C147.439 21.8684 146.678 22.0104 146.102 22.7577ZM153.2 21.1009C153.2 23.4849 154.599 24.7376 156.162 24.7376C157.643 24.7376 159.166 23.5657 159.166 21.1009C159.166 18.6765 157.643 17.505 156.183 17.505C154.599 17.505 153.2 18.6161 153.2 21.1009ZM153.2 16.9194V15.323H150.3V31H153.2V25.424C154.167 26.7172 155.422 27.2629 156.841 27.2629C159.495 27.2629 162.087 25.2021 162.087 20.9598C162.087 16.8988 159.392 15.0002 157.088 15.0002C155.257 15.0002 154.002 15.8283 153.2 16.9194ZM167.128 21.1009C167.128 23.4849 168.526 24.7376 170.09 24.7376C171.571 24.7376 173.093 23.5657 173.093 21.1009C173.093 18.6765 171.571 17.505 170.11 17.505C168.526 17.505 167.127 18.6161 167.127 21.1009H167.128ZM167.128 16.9194V15.323H167.127H164.227V31H167.127V25.424C168.094 26.7172 169.349 27.2629 170.768 27.2629C173.422 27.2629 176.014 25.2021 176.014 20.9598C176.014 16.8988 173.319 15.0002 171.015 15.0002C169.184 15.0002 167.93 15.8283 167.128 16.9194Z" fill="white"/>
<g filter="url(#filter1_d)">
<rect x="2" y="49" width="210" height="40" rx="5" fill="#FF5B24"/>
</g>
<path d="M100.867 75V61.9651H98.5457V67.3579H92.2044V61.9651H89.8738V75H92.2044V69.3723H98.5457V75H100.867ZM112.257 65.1177H110.017V70.8718C110.017 72.3352 109.222 73.2295 107.767 73.2295C106.43 73.2295 105.807 72.4888 105.807 70.9802V65.1177H103.567V71.5403C103.567 73.8528 104.832 75.1987 106.99 75.1987C108.499 75.1987 109.466 74.5574 109.944 73.4282H110.098V75H112.257V65.1177ZM114.803 75H117.043V69.291C117.043 67.9089 118.055 67.0056 119.509 67.0056C119.889 67.0056 120.485 67.0688 120.656 67.1321V65.0544C120.449 64.9912 120.051 64.9551 119.726 64.9551C118.452 64.9551 117.386 65.6777 117.115 66.6533H116.962V65.1177H114.803V75ZM123.465 62.6968V65.1809H121.902V66.9695H123.465V72.3623C123.465 74.2773 124.368 75.0452 126.635 75.0452C127.069 75.0452 127.484 75 127.809 74.9368V73.1843C127.538 73.2114 127.367 73.2295 127.051 73.2295C126.111 73.2295 125.696 72.7959 125.696 71.8203V66.9695H127.809V65.1809H125.696V62.6968H123.465ZM129.877 75H132.108V65.1177H129.877V75ZM130.988 63.4827C131.729 63.4827 132.325 62.8865 132.325 62.1367C132.325 61.387 131.729 60.7817 130.988 60.7817C130.256 60.7817 129.651 61.387 129.651 62.1367C129.651 62.8865 130.256 63.4827 130.988 63.4827ZM138.936 73.0308C137.373 73.0308 136.488 71.8384 136.488 69.9504C136.488 68.0625 137.373 66.8611 138.936 66.8611C140.49 66.8611 141.438 68.0625 141.438 69.9504C141.438 71.8384 140.499 73.0308 138.936 73.0308ZM138.936 78.7578C141.817 78.7578 143.642 77.3215 143.642 75.0361V65.1177H141.483V66.6985H141.33C140.788 65.6235 139.613 64.9551 138.267 64.9551C135.747 64.9551 134.184 66.9243 134.184 69.9504C134.184 72.9224 135.738 74.8555 138.231 74.8555C139.604 74.8555 140.679 74.2773 141.248 73.2205H141.402V75.0903C141.402 76.3279 140.508 77.0505 138.972 77.0505C137.743 77.0505 136.949 76.6169 136.804 75.9395H134.555C134.735 77.6377 136.398 78.7578 138.936 78.7578ZM148.681 69.1465H148.528V61.2966H146.288V75H148.528V71.5583L149.323 70.7634L152.493 75H155.203L150.994 69.3542L154.932 65.1177H152.331L148.681 69.1465ZM159.782 73.4011C158.788 73.4011 158.075 72.9043 158.075 72.0732C158.075 71.2693 158.662 70.8176 159.917 70.7363L162.149 70.5918V71.3777C162.149 72.5249 161.137 73.4011 159.782 73.4011ZM159.123 75.1626C160.414 75.1626 161.498 74.6025 162.049 73.645H162.203V75H164.362V68.2522C164.362 66.1565 162.935 64.9189 160.396 64.9189C158.048 64.9189 156.413 66.03 156.232 67.7734H158.346C158.553 67.105 159.258 66.7437 160.288 66.7437C161.498 66.7437 162.149 67.2856 162.149 68.2522V69.0833L159.601 69.2368C157.198 69.3813 155.852 70.4111 155.852 72.1997C155.852 74.0063 157.216 75.1626 159.123 75.1626ZM166.637 67.9451C166.637 69.4355 167.531 70.3118 169.428 70.7454L171.181 71.1519C172.12 71.3596 172.545 71.7119 172.545 72.272C172.545 73.0037 171.759 73.5005 170.63 73.5005C169.509 73.5005 168.814 73.0669 168.597 72.3352H166.384C166.556 74.1328 168.109 75.1987 170.575 75.1987C173.041 75.1987 174.785 73.9341 174.785 72.0371C174.785 70.5828 173.909 69.7698 172.021 69.3452L170.277 68.9478C169.284 68.7219 168.814 68.3787 168.814 67.8186C168.814 67.105 169.582 66.6172 170.602 66.6172C171.65 66.6172 172.31 67.0598 172.472 67.7554H174.577C174.414 65.9578 172.942 64.9189 170.593 64.9189C168.263 64.9189 166.637 66.1565 166.637 67.9451ZM176.446 67.9451C176.446 69.4355 177.34 70.3118 179.237 70.7454L180.989 71.1519C181.929 71.3596 182.353 71.7119 182.353 72.272C182.353 73.0037 181.567 73.5005 180.438 73.5005C179.318 73.5005 178.623 73.0669 178.406 72.3352H176.193C176.364 74.1328 177.918 75.1987 180.384 75.1987C182.85 75.1987 184.594 73.9341 184.594 72.0371C184.594 70.5828 183.717 69.7698 181.829 69.3452L180.086 68.9478C179.092 68.7219 178.623 68.3787 178.623 67.8186C178.623 67.105 179.39 66.6172 180.411 66.6172C181.459 66.6172 182.119 67.0598 182.281 67.7554H184.386C184.223 65.9578 182.751 64.9189 180.402 64.9189C178.072 64.9189 176.446 66.1565 176.446 67.9451ZM190.807 66.6985C192.153 66.6985 193.038 67.6379 193.084 69.1013H188.431C188.531 67.656 189.47 66.6985 190.807 66.6985ZM193.102 72.281C192.776 73.0127 192.009 73.4192 190.898 73.4192C189.425 73.4192 188.477 72.3894 188.422 70.7454V70.6279H195.324V69.9053C195.324 66.7888 193.635 64.9189 190.816 64.9189C187.953 64.9189 186.173 66.9153 186.173 70.095C186.173 73.2747 187.926 75.1987 190.834 75.1987C193.165 75.1987 194.818 74.0786 195.224 72.281H193.102Z" fill="white"/>
<path fill-rule="evenodd" clip-rule="evenodd" d="M82 66.8384C81.2798 64.0907 79.5314 63 77.1447 63C75.2111 63 72.7842 64.0907 72.7842 66.7172C72.7842 68.414 73.9565 69.7476 75.8694 70.0912L77.6797 70.4142C78.9141 70.6363 79.2639 71.1011 79.2639 71.7274C79.2639 72.4345 78.5027 72.8384 77.3713 72.8384C75.8904 72.8384 74.9646 72.3132 74.8205 70.8383L72.2081 71.2425C72.6193 74.0908 75.17 75.2629 77.4739 75.2629C79.6547 75.2629 81.9792 74.0101 81.9792 71.4849C81.9792 69.7675 80.9298 68.5153 78.9756 68.1512L76.9805 67.7879C75.8694 67.5859 75.4993 67.0404 75.4993 66.5152C75.4993 65.8484 76.2191 65.4245 77.2066 65.4245C78.4616 65.4245 79.3461 65.8484 79.3872 67.2424L82 66.8384ZM23.925 71.1613L26.6399 63.3029H29.8283L25.0969 74.9594H22.7315L18 63.3031H21.1884L23.925 71.1613ZM40.6084 66.6364C40.6084 67.5656 39.8678 68.212 39.0037 68.212C38.1397 68.212 37.3994 67.5656 37.3994 66.6364C37.3994 65.707 38.1397 65.0608 39.0037 65.0608C39.8678 65.0608 40.6086 65.707 40.6086 66.6364H40.6084ZM41.102 70.7577C40.0321 72.1311 38.9007 73.0806 36.9053 73.0807C34.8693 73.0807 33.2849 71.8686 32.0507 70.091C31.5568 69.3635 30.7957 69.202 30.2402 69.5859C29.726 69.9496 29.6028 70.7173 30.0757 71.3841C31.783 73.9497 34.1486 75.4443 36.9051 75.4443C39.4356 75.4443 41.4106 74.2324 42.9532 72.2121C43.5291 71.4648 43.5085 70.6971 42.9532 70.2728C42.4388 69.8684 41.6777 70.0104 41.102 70.7577ZM48.2 69.1009C48.2 71.4849 49.5989 72.7376 51.1625 72.7376C52.6434 72.7376 54.1659 71.5657 54.1659 69.1009C54.1659 66.6765 52.6434 65.505 51.1828 65.505C49.5989 65.505 48.2 66.6161 48.2 69.1009ZM48.2 64.9194V63.323H45.2996V79H48.2V73.424C49.1669 74.7172 50.4217 75.2629 51.8409 75.2629C54.495 75.2629 57.0868 73.2021 57.0868 68.9598C57.0868 64.8988 54.392 63.0002 52.0879 63.0002C50.257 63.0002 49.0024 63.8283 48.2 64.9194ZM62.1275 69.1009C62.1275 71.4849 63.5262 72.7376 65.0898 72.7376C66.5707 72.7376 68.093 71.5657 68.093 69.1009C68.093 66.6765 66.5707 65.505 65.1102 65.505C63.5262 65.505 62.1273 66.6161 62.1273 69.1009H62.1275ZM62.1275 64.9194V63.323H62.1273H59.2269V79H62.1273V73.424C63.0943 74.7172 64.349 75.2629 65.7683 75.2629C68.4222 75.2629 71.0142 73.2021 71.0142 68.9598C71.0142 64.8988 68.3194 63.0002 66.0152 63.0002C64.1843 63.0002 62.9298 63.8283 62.1275 64.9194Z" fill="white"/>
<defs>
<filter id="filter0_d" x="0" y="0" width="214" height="44" filterUnits="userSpaceOnUse" color-interpolation-filters="sRGB">
<feFlood flood-opacity="0" result="BackgroundImageFix"/>
<feColorMatrix in="SourceAlpha" type="matrix" values="0 0 0 0 0 0 0 0 0 0 0 0 0 0 0 0 0 0 127 0"/>
<feOffset dy="1"/>
<feGaussianBlur stdDeviation="1"/>
<feColorMatrix type="matrix" values="0 0 0 0 0.0862745 0 0 0 0 0.0705882 0 0 0 0 0.145098 0 0 0 0.07 0"/>
<feBlend mode="normal" in2="BackgroundImageFix" result="effect1_dropShadow"/>
<feBlend mode="normal" in="SourceGraphic" in2="effect1_dropShadow" result="shape"/>
</filter>
<filter id="filter1_d" x="0" y="48" width="214" height="44" filterUnits="userSpaceOnUse" color-interpolation-filters="sRGB">
<feFlood flood-opacity="0" result="BackgroundImageFix"/>
<feColorMatrix in="SourceAlpha" type="matrix" values="0 0 0 0 0 0 0 0 0 0 0 0 0 0 0 0 0 0 127 0"/>
<feOffset dy="1"/>
<feGaussianBlur stdDeviation="1"/>
<feColorMatrix type="matrix" values="0 0 0 0 0.0862745 0 0 0 0 0.0705882 0 0 0 0 0.145098 0 0 0 0.07 0"/>
<feBlend mode="normal" in2="BackgroundImageFix" result="effect1_dropShadow"/>
<feBlend mode="normal" in="SourceGraphic" in2="effect1_dropShadow" result="shape"/>
</filter>
</defs>
</svg>
