<svg width="1012" height="610" viewBox="0 0 1012 610" fill="none" xmlns="http://www.w3.org/2000/svg">
<path d="M0 20C0 8.95432 8.95431 0 20 0H992C1003.05 0 1012 8.9543 1012 20V610H0V20Z" fill="#EFEEF3"/>
<rect x="16" y="60" width="980" height="550" fill="white"/>
<circle cx="30" cy="30" r="8" fill="#F36C5D"/>
<circle cx="54" cy="30" r="8" fill="#FABE4D"/>
<circle cx="78" cy="30" r="8" fill="#57C555"/>
<rect width="980" height="550" transform="translate(16 60)" fill="white"/>
<g filter="url(#filter0_d)">
<rect x="629" y="497" width="210" height="44" rx="5" fill="#FF5B24"/>
</g>
<path d="M661.945 525C664.727 525 666.425 523.582 666.425 521.296C666.425 519.598 665.215 518.333 663.462 518.171V518.008C664.772 517.801 665.784 516.59 665.784 515.217C665.784 513.212 664.293 511.965 661.818 511.965H656.371V525H661.945ZM658.702 513.817H661.249C662.658 513.817 663.48 514.485 663.48 515.633C663.48 516.807 662.604 517.448 660.951 517.448H658.702V513.817ZM658.702 523.148V519.128H661.321C663.101 519.128 664.04 519.815 664.04 521.116C664.04 522.444 663.128 523.148 661.412 523.148H658.702ZM672.675 516.698C674.021 516.698 674.906 517.638 674.951 519.101H670.299C670.399 517.656 671.338 516.698 672.675 516.698ZM674.969 522.281C674.644 523.013 673.876 523.419 672.765 523.419C671.293 523.419 670.344 522.389 670.29 520.745V520.628H677.192V519.905C677.192 516.789 675.502 514.919 672.684 514.919C669.82 514.919 668.041 516.915 668.041 520.095C668.041 523.275 669.793 525.199 672.702 525.199C675.033 525.199 676.686 524.079 677.092 522.281H674.969ZM679.954 512.697V515.181H678.392V516.969H679.954V522.362C679.954 524.277 680.858 525.045 683.125 525.045C683.559 525.045 683.974 525 684.299 524.937V523.184C684.028 523.211 683.857 523.229 683.541 523.229C682.601 523.229 682.186 522.796 682.186 521.82V516.969H684.299V515.181H682.186V512.697H679.954ZM689.718 523.401C688.724 523.401 688.011 522.904 688.011 522.073C688.011 521.269 688.598 520.818 689.854 520.736L692.085 520.592V521.378C692.085 522.525 691.073 523.401 689.718 523.401ZM689.059 525.163C690.35 525.163 691.434 524.603 691.985 523.645H692.139V525H694.298V518.252C694.298 516.156 692.871 514.919 690.332 514.919C687.984 514.919 686.349 516.03 686.168 517.773H688.282C688.49 517.105 689.194 516.744 690.224 516.744C691.434 516.744 692.085 517.286 692.085 518.252V519.083L689.537 519.237C687.135 519.381 685.789 520.411 685.789 522.2C685.789 524.006 687.153 525.163 689.059 525.163ZM696.889 525H699.129V511.297H696.889V525ZM706.498 525H708.738V518.993C708.738 517.782 709.56 516.87 710.671 516.87C711.773 516.87 712.46 517.53 712.46 518.614V525H714.637V518.848C714.637 517.719 715.405 516.87 716.57 516.87C717.771 516.87 718.377 517.502 718.377 518.776V525H720.608V518.207C720.608 516.156 719.415 514.919 717.437 514.919C716.064 514.919 714.926 515.633 714.438 516.717H714.285C713.869 515.605 712.921 514.919 711.557 514.919C710.247 514.919 709.235 515.587 708.81 516.717H708.657V515.118H706.498V525ZM727.21 516.698C728.556 516.698 729.441 517.638 729.486 519.101H724.834C724.933 517.656 725.873 516.698 727.21 516.698ZM729.504 522.281C729.179 523.013 728.411 523.419 727.3 523.419C725.828 523.419 724.879 522.389 724.825 520.745V520.628H731.726V519.905C731.726 516.789 730.037 514.919 727.219 514.919C724.355 514.919 722.576 516.915 722.576 520.095C722.576 523.275 724.328 525.199 727.237 525.199C729.567 525.199 731.221 524.079 731.627 522.281H729.504ZM737.353 525.163C738.726 525.163 739.864 524.521 740.424 523.437H740.578V525H742.746V511.297H740.505V516.689H740.352C739.828 515.605 738.708 514.955 737.353 514.955C734.86 514.955 733.288 516.924 733.288 520.05C733.288 523.193 734.851 525.163 737.353 525.163ZM738.048 516.861C739.584 516.861 740.533 518.09 740.533 520.059C740.533 522.046 739.593 523.257 738.048 523.257C736.513 523.257 735.582 522.055 735.582 520.059C735.582 518.072 736.522 516.861 738.048 516.861Z" fill="white"/>
<path fill-rule="evenodd" clip-rule="evenodd" d="M814 516.838C813.28 514.091 811.531 513 809.145 513C807.211 513 804.784 514.091 804.784 516.717C804.784 518.414 805.956 519.748 807.869 520.091L809.68 520.414C810.914 520.636 811.264 521.101 811.264 521.727C811.264 522.434 810.503 522.838 809.371 522.838C807.89 522.838 806.964 522.313 806.82 520.838L804.208 521.242C804.619 524.091 807.17 525.263 809.474 525.263C811.655 525.263 813.979 524.01 813.979 521.485C813.979 519.768 812.93 518.515 810.976 518.151L808.98 517.788C807.869 517.586 807.499 517.04 807.499 516.515C807.499 515.848 808.219 515.424 809.207 515.424C810.461 515.424 811.346 515.848 811.387 517.242L814 516.838ZM755.925 521.161L758.64 513.303H761.828L757.097 524.959H754.731L750 513.303H753.188L755.925 521.161ZM772.608 516.636C772.608 517.566 771.868 518.212 771.004 518.212C770.14 518.212 769.399 517.566 769.399 516.636C769.399 515.707 770.14 515.061 771.004 515.061C771.868 515.061 772.609 515.707 772.608 516.636ZM773.102 520.758C772.032 522.131 770.901 523.081 768.905 523.081C766.869 523.081 765.285 521.869 764.051 520.091C763.557 519.364 762.796 519.202 762.24 519.586C761.726 519.95 761.603 520.717 762.076 521.384C763.783 523.95 766.149 525.444 768.905 525.444C771.436 525.444 773.411 524.232 774.953 522.212C775.529 521.465 775.509 520.697 774.953 520.273C774.439 519.868 773.678 520.01 773.102 520.758ZM780.2 519.101C780.2 521.485 781.599 522.738 783.162 522.738C784.643 522.738 786.166 521.566 786.166 519.101C786.166 516.676 784.643 515.505 783.183 515.505C781.599 515.505 780.2 516.616 780.2 519.101ZM780.2 514.919V513.323H777.3V529H780.2V523.424C781.167 524.717 782.422 525.263 783.841 525.263C786.495 525.263 789.087 523.202 789.087 518.96C789.087 514.899 786.392 513 784.088 513C782.257 513 781.002 513.828 780.2 514.919ZM794.128 519.101C794.128 521.485 795.526 522.738 797.09 522.738C798.571 522.738 800.093 521.566 800.093 519.101C800.093 516.676 798.571 515.505 797.11 515.505C795.526 515.505 794.127 516.616 794.128 519.101ZM794.128 514.919V513.323H791.227V529H794.127V523.424C795.094 524.717 796.349 525.263 797.768 525.263C800.422 525.263 803.014 523.202 803.014 518.96C803.014 514.899 800.32 513 798.015 513C796.184 513 794.93 513.828 794.128 514.919Z" fill="white"/>
<path d="M173.758 143V125.82H177.227V132.582H184.023V125.82H187.492V143H184.023V135.488H177.227V143H173.758ZM193.527 134.352L190.539 133.812C190.875 132.609 191.453 131.719 192.273 131.141C193.094 130.562 194.312 130.273 195.93 130.273C197.398 130.273 198.492 130.449 199.211 130.801C199.93 131.145 200.434 131.586 200.723 132.125C201.02 132.656 201.168 133.637 201.168 135.066L201.133 138.91C201.133 140.004 201.184 140.812 201.285 141.336C201.395 141.852 201.594 142.406 201.883 143H198.625C198.539 142.781 198.434 142.457 198.309 142.027C198.254 141.832 198.215 141.703 198.191 141.641C197.629 142.188 197.027 142.598 196.387 142.871C195.746 143.145 195.062 143.281 194.336 143.281C193.055 143.281 192.043 142.934 191.301 142.238C190.566 141.543 190.199 140.664 190.199 139.602C190.199 138.898 190.367 138.273 190.703 137.727C191.039 137.172 191.508 136.75 192.109 136.461C192.719 136.164 193.594 135.906 194.734 135.688C196.273 135.398 197.34 135.129 197.934 134.879V134.551C197.934 133.918 197.777 133.469 197.465 133.203C197.152 132.93 196.562 132.793 195.695 132.793C195.109 132.793 194.652 132.91 194.324 133.145C193.996 133.371 193.73 133.773 193.527 134.352ZM197.934 137.023C197.512 137.164 196.844 137.332 195.93 137.527C195.016 137.723 194.418 137.914 194.137 138.102C193.707 138.406 193.492 138.793 193.492 139.262C193.492 139.723 193.664 140.121 194.008 140.457C194.352 140.793 194.789 140.961 195.32 140.961C195.914 140.961 196.48 140.766 197.02 140.375C197.418 140.078 197.68 139.715 197.805 139.285C197.891 139.004 197.934 138.469 197.934 137.68V137.023ZM215.746 143H212.453V136.648C212.453 135.305 212.383 134.438 212.242 134.047C212.102 133.648 211.871 133.34 211.551 133.121C211.238 132.902 210.859 132.793 210.414 132.793C209.844 132.793 209.332 132.949 208.879 133.262C208.426 133.574 208.113 133.988 207.941 134.504C207.777 135.02 207.695 135.973 207.695 137.363V143H204.402V130.555H207.461V132.383C208.547 130.977 209.914 130.273 211.562 130.273C212.289 130.273 212.953 130.406 213.555 130.672C214.156 130.93 214.609 131.262 214.914 131.668C215.227 132.074 215.441 132.535 215.559 133.051C215.684 133.566 215.746 134.305 215.746 135.266V143ZM230.512 143H227.453V141.172C226.945 141.883 226.344 142.414 225.648 142.766C224.961 143.109 224.266 143.281 223.562 143.281C222.133 143.281 220.906 142.707 219.883 141.559C218.867 140.402 218.359 138.793 218.359 136.73C218.359 134.621 218.855 133.02 219.848 131.926C220.84 130.824 222.094 130.273 223.609 130.273C225 130.273 226.203 130.852 227.219 132.008V125.82H230.512V143ZM221.723 136.508C221.723 137.836 221.906 138.797 222.273 139.391C222.805 140.25 223.547 140.68 224.5 140.68C225.258 140.68 225.902 140.359 226.434 139.719C226.965 139.07 227.23 138.105 227.23 136.824C227.23 135.395 226.973 134.367 226.457 133.742C225.941 133.109 225.281 132.793 224.477 132.793C223.695 132.793 223.039 133.105 222.508 133.73C221.984 134.348 221.723 135.273 221.723 136.508ZM233.77 143V125.82H237.062V143H233.77ZM247.656 139.039L250.938 139.59C250.516 140.793 249.848 141.711 248.934 142.344C248.027 142.969 246.891 143.281 245.523 143.281C243.359 143.281 241.758 142.574 240.719 141.16C239.898 140.027 239.488 138.598 239.488 136.871C239.488 134.809 240.027 133.195 241.105 132.031C242.184 130.859 243.547 130.273 245.195 130.273C247.047 130.273 248.508 130.887 249.578 132.113C250.648 133.332 251.16 135.203 251.113 137.727H242.863C242.887 138.703 243.152 139.465 243.66 140.012C244.168 140.551 244.801 140.82 245.559 140.82C246.074 140.82 246.508 140.68 246.859 140.398C247.211 140.117 247.477 139.664 247.656 139.039ZM247.844 135.711C247.82 134.758 247.574 134.035 247.105 133.543C246.637 133.043 246.066 132.793 245.395 132.793C244.676 132.793 244.082 133.055 243.613 133.578C243.145 134.102 242.914 134.812 242.922 135.711H247.844ZM253.691 143V125.82H256.984V134.938L260.84 130.555H264.895L260.641 135.102L265.199 143H261.648L258.52 137.41L256.984 139.016V143H253.691ZM275.359 143V141.137C274.906 141.801 274.309 142.324 273.566 142.707C272.832 143.09 272.055 143.281 271.234 143.281C270.398 143.281 269.648 143.098 268.984 142.73C268.32 142.363 267.84 141.848 267.543 141.184C267.246 140.52 267.098 139.602 267.098 138.43V130.555H270.391V136.273C270.391 138.023 270.449 139.098 270.566 139.496C270.691 139.887 270.914 140.199 271.234 140.434C271.555 140.66 271.961 140.773 272.453 140.773C273.016 140.773 273.52 140.621 273.965 140.316C274.41 140.004 274.715 139.621 274.879 139.168C275.043 138.707 275.125 137.586 275.125 135.805V130.555H278.418V143H275.359ZM284.992 143H281.699V130.555H284.758V132.324C285.281 131.488 285.75 130.938 286.164 130.672C286.586 130.406 287.062 130.273 287.594 130.273C288.344 130.273 289.066 130.48 289.762 130.895L288.742 133.766C288.188 133.406 287.672 133.227 287.195 133.227C286.734 133.227 286.344 133.355 286.023 133.613C285.703 133.863 285.449 134.32 285.262 134.984C285.082 135.648 284.992 137.039 284.992 139.156V143ZM294.613 143L289.598 130.555H293.055L295.398 136.906L296.078 139.027C296.258 138.488 296.371 138.133 296.418 137.961C296.527 137.609 296.645 137.258 296.77 136.906L299.137 130.555H302.523L297.578 143H294.613Z" fill="black"/>
<path d="M262.046 222V211.979H264.069V216.429L268.157 211.979H270.878L267.104 215.882L271.083 222H268.465L265.71 217.297L264.069 218.972V222H262.046ZM273.558 216.955L271.814 216.641C272.01 215.939 272.348 215.419 272.826 215.082C273.305 214.745 274.016 214.576 274.959 214.576C275.816 214.576 276.454 214.679 276.873 214.884C277.292 215.084 277.586 215.342 277.755 215.656C277.928 215.966 278.015 216.538 278.015 217.372L277.994 219.614C277.994 220.252 278.024 220.724 278.083 221.029C278.147 221.33 278.263 221.654 278.432 222H276.531C276.481 221.872 276.42 221.683 276.347 221.433C276.315 221.319 276.292 221.243 276.278 221.207C275.95 221.526 275.599 221.765 275.226 221.925C274.852 222.084 274.453 222.164 274.029 222.164C273.282 222.164 272.692 221.961 272.259 221.556C271.83 221.15 271.616 220.637 271.616 220.018C271.616 219.607 271.714 219.243 271.91 218.924C272.106 218.6 272.38 218.354 272.73 218.186C273.086 218.012 273.596 217.862 274.262 217.734C275.16 217.566 275.782 217.409 276.128 217.263V217.071C276.128 216.702 276.037 216.44 275.854 216.285C275.672 216.126 275.328 216.046 274.822 216.046C274.48 216.046 274.214 216.114 274.022 216.251C273.831 216.383 273.676 216.618 273.558 216.955ZM276.128 218.514C275.882 218.596 275.492 218.694 274.959 218.808C274.426 218.922 274.077 219.033 273.913 219.143C273.662 219.32 273.537 219.546 273.537 219.819C273.537 220.088 273.637 220.321 273.838 220.517C274.038 220.713 274.294 220.811 274.604 220.811C274.95 220.811 275.28 220.697 275.595 220.469C275.827 220.296 275.98 220.084 276.053 219.833C276.103 219.669 276.128 219.357 276.128 218.896V218.514ZM279.074 214.74H280.141V214.193C280.141 213.583 280.204 213.127 280.332 212.826C280.464 212.525 280.703 212.282 281.05 212.095C281.401 211.903 281.843 211.808 282.376 211.808C282.923 211.808 283.458 211.89 283.982 212.054L283.723 213.394C283.417 213.321 283.123 213.284 282.841 213.284C282.563 213.284 282.362 213.35 282.239 213.482C282.121 213.61 282.062 213.858 282.062 214.228V214.74H283.497V216.251H282.062V222H280.141V216.251H279.074V214.74ZM283.736 214.74H284.803V214.193C284.803 213.583 284.867 213.127 284.994 212.826C285.126 212.525 285.366 212.282 285.712 212.095C286.063 211.903 286.505 211.808 287.038 211.808C287.585 211.808 288.12 211.89 288.645 212.054L288.385 213.394C288.079 213.321 287.785 213.284 287.503 213.284C287.225 213.284 287.024 213.35 286.901 213.482C286.783 213.61 286.724 213.858 286.724 214.228V214.74H288.159V216.251H286.724V222H284.803V216.251H283.736V214.74ZM293.443 219.689L295.357 220.011C295.111 220.713 294.722 221.248 294.188 221.617C293.66 221.982 292.997 222.164 292.199 222.164C290.937 222.164 290.003 221.752 289.396 220.927C288.918 220.266 288.679 219.432 288.679 218.425C288.679 217.222 288.993 216.281 289.622 215.602C290.251 214.918 291.046 214.576 292.008 214.576C293.088 214.576 293.94 214.934 294.564 215.649C295.189 216.36 295.487 217.452 295.46 218.924H290.647C290.661 219.493 290.816 219.938 291.112 220.257C291.409 220.571 291.778 220.729 292.22 220.729C292.521 220.729 292.773 220.646 292.979 220.482C293.184 220.318 293.339 220.054 293.443 219.689ZM293.553 217.748C293.539 217.192 293.396 216.771 293.122 216.483C292.849 216.192 292.516 216.046 292.124 216.046C291.705 216.046 291.358 216.199 291.085 216.504C290.812 216.809 290.677 217.224 290.682 217.748H293.553ZM300.361 214.74V216.271H299.049V219.197C299.049 219.79 299.06 220.136 299.083 220.236C299.11 220.332 299.167 220.412 299.254 220.476C299.345 220.539 299.454 220.571 299.582 220.571C299.76 220.571 300.017 220.51 300.354 220.387L300.519 221.877C300.072 222.068 299.566 222.164 299.001 222.164C298.655 222.164 298.342 222.107 298.064 221.993C297.786 221.875 297.581 221.724 297.449 221.542C297.322 221.355 297.233 221.104 297.183 220.79C297.142 220.567 297.121 220.116 297.121 219.437V216.271H296.239V214.74H297.121V213.298L299.049 212.177V214.74H300.361ZM303.533 222H301.612V214.74H303.396V215.772C303.702 215.285 303.975 214.964 304.217 214.809C304.463 214.654 304.741 214.576 305.051 214.576C305.488 214.576 305.91 214.697 306.315 214.938L305.721 216.613C305.397 216.404 305.096 216.299 304.818 216.299C304.549 216.299 304.322 216.374 304.135 216.524C303.948 216.67 303.8 216.937 303.69 217.324C303.586 217.712 303.533 218.523 303.533 219.758V222ZM308.585 216.955L306.842 216.641C307.038 215.939 307.375 215.419 307.854 215.082C308.332 214.745 309.043 214.576 309.986 214.576C310.843 214.576 311.481 214.679 311.9 214.884C312.32 215.084 312.614 215.342 312.782 215.656C312.955 215.966 313.042 216.538 313.042 217.372L313.021 219.614C313.021 220.252 313.051 220.724 313.11 221.029C313.174 221.33 313.29 221.654 313.459 222H311.559C311.508 221.872 311.447 221.683 311.374 221.433C311.342 221.319 311.319 221.243 311.306 221.207C310.978 221.526 310.627 221.765 310.253 221.925C309.879 222.084 309.48 222.164 309.057 222.164C308.309 222.164 307.719 221.961 307.286 221.556C306.858 221.15 306.644 220.637 306.644 220.018C306.644 219.607 306.742 219.243 306.938 218.924C307.133 218.6 307.407 218.354 307.758 218.186C308.113 218.012 308.624 217.862 309.289 217.734C310.187 217.566 310.809 217.409 311.155 217.263V217.071C311.155 216.702 311.064 216.44 310.882 216.285C310.7 216.126 310.355 216.046 309.85 216.046C309.508 216.046 309.241 216.114 309.05 216.251C308.858 216.383 308.703 216.618 308.585 216.955ZM311.155 218.514C310.909 218.596 310.52 218.694 309.986 218.808C309.453 218.922 309.104 219.033 308.94 219.143C308.69 219.32 308.564 219.546 308.564 219.819C308.564 220.088 308.665 220.321 308.865 220.517C309.066 220.713 309.321 220.811 309.631 220.811C309.977 220.811 310.308 220.697 310.622 220.469C310.854 220.296 311.007 220.084 311.08 219.833C311.13 219.669 311.155 219.357 311.155 218.896V218.514ZM314.874 222V211.979H316.795V217.297L319.044 214.74H321.409L318.928 217.393L321.587 222H319.516L317.69 218.739L316.795 219.676V222H314.874ZM326.064 214.74V216.271H324.752V219.197C324.752 219.79 324.763 220.136 324.786 220.236C324.813 220.332 324.87 220.412 324.957 220.476C325.048 220.539 325.158 220.571 325.285 220.571C325.463 220.571 325.72 220.51 326.058 220.387L326.222 221.877C325.775 222.068 325.269 222.164 324.704 222.164C324.358 222.164 324.046 222.107 323.768 221.993C323.49 221.875 323.285 221.724 323.152 221.542C323.025 221.355 322.936 221.104 322.886 220.79C322.845 220.567 322.824 220.116 322.824 219.437V216.271H321.942V214.74H322.824V213.298L324.752 212.177V214.74H326.064ZM331.602 219.689L333.516 220.011C333.27 220.713 332.88 221.248 332.347 221.617C331.818 221.982 331.155 222.164 330.357 222.164C329.095 222.164 328.161 221.752 327.555 220.927C327.076 220.266 326.837 219.432 326.837 218.425C326.837 217.222 327.151 216.281 327.78 215.602C328.409 214.918 329.204 214.576 330.166 214.576C331.246 214.576 332.098 214.934 332.723 215.649C333.347 216.36 333.646 217.452 333.618 218.924H328.806C328.819 219.493 328.974 219.938 329.271 220.257C329.567 220.571 329.936 220.729 330.378 220.729C330.679 220.729 330.932 220.646 331.137 220.482C331.342 220.318 331.497 220.054 331.602 219.689ZM331.711 217.748C331.697 217.192 331.554 216.771 331.28 216.483C331.007 216.192 330.674 216.046 330.282 216.046C329.863 216.046 329.517 216.199 329.243 216.504C328.97 216.809 328.835 217.224 328.84 217.748H331.711ZM337.029 222H335.108V214.74H336.893V215.772C337.198 215.285 337.471 214.964 337.713 214.809C337.959 214.654 338.237 214.576 338.547 214.576C338.984 214.576 339.406 214.697 339.812 214.938L339.217 216.613C338.893 216.404 338.592 216.299 338.314 216.299C338.046 216.299 337.818 216.374 337.631 216.524C337.444 216.67 337.296 216.937 337.187 217.324C337.082 217.712 337.029 218.523 337.029 219.758V222Z" fill="#161225"/>
<path d="M807.028 214.433L805.805 214.528C805.695 214.045 805.54 213.694 805.34 213.476C805.007 213.125 804.597 212.949 804.109 212.949C803.717 212.949 803.373 213.059 803.077 213.277C802.69 213.56 802.384 213.972 802.161 214.515C801.938 215.057 801.822 215.829 801.812 216.832C802.109 216.381 802.471 216.046 802.899 215.827C803.328 215.608 803.777 215.499 804.246 215.499C805.066 215.499 805.764 215.802 806.338 216.408C806.917 217.01 807.206 217.789 807.206 218.746C807.206 219.375 807.069 219.961 806.796 220.503C806.527 221.041 806.156 221.453 805.682 221.74C805.208 222.027 804.67 222.171 804.068 222.171C803.043 222.171 802.207 221.795 801.56 221.043C800.912 220.286 800.589 219.042 800.589 217.311C800.589 215.374 800.947 213.965 801.662 213.086C802.286 212.32 803.127 211.938 804.185 211.938C804.973 211.938 805.618 212.159 806.119 212.601C806.625 213.043 806.928 213.653 807.028 214.433ZM802.004 218.753C802.004 219.177 802.093 219.582 802.271 219.97C802.453 220.357 802.706 220.653 803.029 220.858C803.353 221.059 803.692 221.159 804.048 221.159C804.567 221.159 805.014 220.95 805.388 220.53C805.761 220.111 805.948 219.541 805.948 218.821C805.948 218.129 805.764 217.584 805.395 217.188C805.025 216.786 804.561 216.586 804 216.586C803.444 216.586 802.972 216.786 802.585 217.188C802.198 217.584 802.004 218.106 802.004 218.753ZM808.621 219.683L809.804 219.573C809.904 220.129 810.095 220.533 810.378 220.783C810.66 221.034 811.023 221.159 811.465 221.159C811.843 221.159 812.174 221.073 812.456 220.899C812.743 220.726 812.978 220.496 813.16 220.209C813.342 219.917 813.495 219.525 813.618 219.033C813.741 218.541 813.803 218.04 813.803 217.529C813.803 217.475 813.8 217.393 813.796 217.283C813.55 217.675 813.213 217.994 812.784 218.24C812.36 218.482 811.9 218.603 811.403 218.603C810.574 218.603 809.872 218.302 809.298 217.7C808.724 217.099 808.437 216.306 808.437 215.321C808.437 214.305 808.735 213.487 809.332 212.867C809.934 212.247 810.686 211.938 811.588 211.938C812.24 211.938 812.834 212.113 813.372 212.464C813.914 212.815 814.325 213.316 814.603 213.968C814.885 214.615 815.026 215.554 815.026 216.784C815.026 218.065 814.887 219.086 814.609 219.847C814.331 220.603 813.917 221.18 813.365 221.576C812.818 221.973 812.176 222.171 811.438 222.171C810.654 222.171 810.013 221.954 809.517 221.521C809.02 221.084 808.721 220.471 808.621 219.683ZM813.659 215.26C813.659 214.553 813.47 213.993 813.092 213.578C812.718 213.163 812.267 212.956 811.738 212.956C811.191 212.956 810.715 213.179 810.31 213.626C809.904 214.073 809.701 214.651 809.701 215.362C809.701 216 809.893 216.52 810.275 216.921C810.663 217.317 811.139 217.516 811.704 217.516C812.274 217.516 812.741 217.317 813.105 216.921C813.475 216.52 813.659 215.966 813.659 215.26ZM816.414 219.683L817.597 219.573C817.697 220.129 817.888 220.533 818.171 220.783C818.453 221.034 818.816 221.159 819.258 221.159C819.636 221.159 819.966 221.073 820.249 220.899C820.536 220.726 820.771 220.496 820.953 220.209C821.135 219.917 821.288 219.525 821.411 219.033C821.534 218.541 821.596 218.04 821.596 217.529C821.596 217.475 821.593 217.393 821.589 217.283C821.343 217.675 821.006 217.994 820.577 218.24C820.153 218.482 819.693 218.603 819.196 218.603C818.367 218.603 817.665 218.302 817.091 217.7C816.517 217.099 816.229 216.306 816.229 215.321C816.229 214.305 816.528 213.487 817.125 212.867C817.727 212.247 818.479 211.938 819.381 211.938C820.033 211.938 820.627 212.113 821.165 212.464C821.707 212.815 822.118 213.316 822.396 213.968C822.678 214.615 822.819 215.554 822.819 216.784C822.819 218.065 822.68 219.086 822.402 219.847C822.124 220.603 821.71 221.18 821.158 221.576C820.611 221.973 819.969 222.171 819.23 222.171C818.447 222.171 817.806 221.954 817.31 221.521C816.813 221.084 816.514 220.471 816.414 219.683ZM821.452 215.26C821.452 214.553 821.263 213.993 820.885 213.578C820.511 213.163 820.06 212.956 819.531 212.956C818.984 212.956 818.508 213.179 818.103 213.626C817.697 214.073 817.494 214.651 817.494 215.362C817.494 216 817.686 216.52 818.068 216.921C818.456 217.317 818.932 217.516 819.497 217.516C820.067 217.516 820.534 217.317 820.898 216.921C821.268 216.52 821.452 215.966 821.452 215.26ZM828.268 222V211.979H829.498V217.693L832.41 214.74H834.003L831.228 217.434L834.283 222H832.766L830.366 218.288L829.498 219.122V222H828.268ZM835.247 222V214.74H836.354V215.841C836.637 215.326 836.897 214.986 837.134 214.822C837.375 214.658 837.64 214.576 837.927 214.576C838.341 214.576 838.763 214.708 839.191 214.973L838.768 216.114C838.467 215.937 838.166 215.848 837.865 215.848C837.596 215.848 837.355 215.93 837.141 216.094C836.926 216.253 836.774 216.477 836.683 216.764C836.546 217.201 836.478 217.68 836.478 218.199V222H835.247Z" fill="#161225"/>
<line opacity="0.2" x1="172" y1="181.5" x2="839" y2="181.5" stroke="black"/>
<path d="M262.025 291V280.979H264.049V284.923H268.014V280.979H270.037V291H268.014V286.618H264.049V291H262.025ZM273.558 285.955L271.814 285.641C272.01 284.939 272.348 284.419 272.826 284.082C273.305 283.745 274.016 283.576 274.959 283.576C275.816 283.576 276.454 283.679 276.873 283.884C277.292 284.084 277.586 284.342 277.755 284.656C277.928 284.966 278.015 285.538 278.015 286.372L277.994 288.614C277.994 289.252 278.024 289.724 278.083 290.029C278.147 290.33 278.263 290.654 278.432 291H276.531C276.481 290.872 276.42 290.683 276.347 290.433C276.315 290.319 276.292 290.243 276.278 290.207C275.95 290.526 275.599 290.765 275.226 290.925C274.852 291.084 274.453 291.164 274.029 291.164C273.282 291.164 272.692 290.961 272.259 290.556C271.83 290.15 271.616 289.637 271.616 289.018C271.616 288.607 271.714 288.243 271.91 287.924C272.106 287.6 272.38 287.354 272.73 287.186C273.086 287.012 273.596 286.862 274.262 286.734C275.16 286.566 275.782 286.409 276.128 286.263V286.071C276.128 285.702 276.037 285.44 275.854 285.285C275.672 285.126 275.328 285.046 274.822 285.046C274.48 285.046 274.214 285.114 274.022 285.251C273.831 285.383 273.676 285.618 273.558 285.955ZM276.128 287.514C275.882 287.596 275.492 287.694 274.959 287.808C274.426 287.922 274.077 288.033 273.913 288.143C273.662 288.32 273.537 288.546 273.537 288.819C273.537 289.088 273.637 289.321 273.838 289.517C274.038 289.713 274.294 289.811 274.604 289.811C274.95 289.811 275.28 289.697 275.595 289.469C275.827 289.296 275.98 289.084 276.053 288.833C276.103 288.669 276.128 288.357 276.128 287.896V287.514ZM276.36 281.826C276.36 282.195 276.228 282.512 275.964 282.776C275.704 283.036 275.39 283.166 275.021 283.166C274.651 283.166 274.335 283.036 274.07 282.776C273.811 282.512 273.681 282.195 273.681 281.826C273.681 281.457 273.811 281.143 274.07 280.883C274.335 280.618 274.651 280.486 275.021 280.486C275.39 280.486 275.704 280.616 275.964 280.876C276.228 281.136 276.36 281.452 276.36 281.826ZM275.629 281.826C275.629 281.658 275.57 281.514 275.451 281.396C275.333 281.277 275.189 281.218 275.021 281.218C274.852 281.218 274.708 281.277 274.59 281.396C274.471 281.514 274.412 281.658 274.412 281.826C274.412 281.995 274.471 282.138 274.59 282.257C274.708 282.375 274.852 282.435 275.021 282.435C275.189 282.435 275.333 282.375 275.451 282.257C275.57 282.138 275.629 281.995 275.629 281.826ZM286.519 291H284.598V287.295C284.598 286.511 284.557 286.005 284.475 285.777C284.393 285.545 284.258 285.365 284.071 285.237C283.889 285.11 283.668 285.046 283.408 285.046C283.076 285.046 282.777 285.137 282.513 285.319C282.248 285.502 282.066 285.743 281.966 286.044C281.87 286.345 281.822 286.901 281.822 287.712V291H279.901V283.74H281.686V284.807C282.319 283.986 283.117 283.576 284.078 283.576C284.502 283.576 284.889 283.654 285.24 283.809C285.591 283.959 285.855 284.153 286.033 284.39C286.215 284.627 286.341 284.896 286.409 285.196C286.482 285.497 286.519 285.928 286.519 286.488V291ZM295.132 291H293.348V289.934C293.051 290.348 292.701 290.658 292.295 290.863C291.894 291.064 291.488 291.164 291.078 291.164C290.244 291.164 289.529 290.829 288.932 290.159C288.339 289.485 288.043 288.546 288.043 287.343C288.043 286.112 288.332 285.178 288.911 284.54C289.49 283.897 290.221 283.576 291.105 283.576C291.917 283.576 292.618 283.913 293.211 284.588V280.979H295.132V291ZM290.005 287.213C290.005 287.988 290.112 288.548 290.326 288.895C290.636 289.396 291.069 289.646 291.625 289.646C292.067 289.646 292.443 289.46 292.753 289.086C293.063 288.708 293.218 288.145 293.218 287.397C293.218 286.563 293.067 285.964 292.767 285.6C292.466 285.23 292.081 285.046 291.611 285.046C291.156 285.046 290.773 285.228 290.463 285.593C290.158 285.953 290.005 286.493 290.005 287.213ZM296.964 291V280.979H298.885V286.297L301.134 283.74H303.499L301.018 286.393L303.677 291H301.605L299.78 287.739L298.885 288.676V291H296.964ZM306.821 291L303.896 283.74H305.912L307.279 287.445L307.676 288.683C307.781 288.368 307.847 288.161 307.874 288.061C307.938 287.855 308.006 287.65 308.079 287.445L309.46 283.74H311.436L308.551 291H306.821ZM316.822 288.689L318.736 289.011C318.49 289.713 318.101 290.248 317.567 290.617C317.039 290.982 316.376 291.164 315.578 291.164C314.316 291.164 313.382 290.752 312.775 289.927C312.297 289.266 312.058 288.432 312.058 287.425C312.058 286.222 312.372 285.281 313.001 284.602C313.63 283.918 314.425 283.576 315.387 283.576C316.467 283.576 317.319 283.934 317.943 284.649C318.568 285.36 318.866 286.452 318.839 287.924H314.026C314.04 288.493 314.195 288.938 314.491 289.257C314.787 289.571 315.157 289.729 315.599 289.729C315.899 289.729 316.152 289.646 316.357 289.482C316.562 289.318 316.717 289.054 316.822 288.689ZM316.932 286.748C316.918 286.192 316.774 285.771 316.501 285.483C316.228 285.192 315.895 285.046 315.503 285.046C315.084 285.046 314.737 285.199 314.464 285.504C314.19 285.809 314.056 286.224 314.061 286.748H316.932ZM322.25 291H320.329V283.74H322.113V284.772C322.419 284.285 322.692 283.964 322.934 283.809C323.18 283.654 323.458 283.576 323.768 283.576C324.205 283.576 324.627 283.697 325.032 283.938L324.438 285.613C324.114 285.404 323.813 285.299 323.535 285.299C323.266 285.299 323.038 285.374 322.852 285.524C322.665 285.67 322.517 285.937 322.407 286.324C322.302 286.712 322.25 287.523 322.25 288.758V291ZM332.47 291H330.549V287.295C330.549 286.511 330.508 286.005 330.426 285.777C330.344 285.545 330.209 285.365 330.022 285.237C329.84 285.11 329.619 285.046 329.359 285.046C329.027 285.046 328.728 285.137 328.464 285.319C328.2 285.502 328.017 285.743 327.917 286.044C327.821 286.345 327.773 286.901 327.773 287.712V291H325.853V283.74H327.637V284.807C328.27 283.986 329.068 283.576 330.029 283.576C330.453 283.576 330.84 283.654 331.191 283.809C331.542 283.959 331.807 284.153 331.984 284.39C332.167 284.627 332.292 284.896 332.36 285.196C332.433 285.497 332.47 285.928 332.47 286.488V291Z" fill="#161225"/>
<path d="M800.644 288.375L801.936 288.266C802.031 288.895 802.252 289.368 802.599 289.688C802.95 290.002 803.371 290.159 803.863 290.159C804.456 290.159 804.957 289.936 805.367 289.489C805.777 289.043 805.982 288.45 805.982 287.712C805.982 287.01 805.784 286.456 805.388 286.051C804.996 285.645 804.481 285.442 803.843 285.442C803.446 285.442 803.089 285.534 802.77 285.716C802.451 285.894 802.2 286.126 802.018 286.413L800.862 286.263L801.833 281.115H806.816V282.291H802.817L802.277 284.984C802.879 284.565 803.51 284.355 804.171 284.355C805.046 284.355 805.784 284.659 806.386 285.265C806.987 285.871 807.288 286.65 807.288 287.603C807.288 288.509 807.024 289.293 806.495 289.954C805.853 290.765 804.975 291.171 803.863 291.171C802.952 291.171 802.207 290.916 801.628 290.405C801.054 289.895 800.726 289.218 800.644 288.375ZM808.437 288.375L809.729 288.266C809.824 288.895 810.045 289.368 810.392 289.688C810.743 290.002 811.164 290.159 811.656 290.159C812.249 290.159 812.75 289.936 813.16 289.489C813.57 289.043 813.775 288.45 813.775 287.712C813.775 287.01 813.577 286.456 813.181 286.051C812.789 285.645 812.274 285.442 811.636 285.442C811.239 285.442 810.882 285.534 810.562 285.716C810.243 285.894 809.993 286.126 809.811 286.413L808.655 286.263L809.626 281.115H814.609V282.291H810.61L810.07 284.984C810.672 284.565 811.303 284.355 811.964 284.355C812.839 284.355 813.577 284.659 814.179 285.265C814.78 285.871 815.081 286.65 815.081 287.603C815.081 288.509 814.817 289.293 814.288 289.954C813.646 290.765 812.768 291.171 811.656 291.171C810.745 291.171 810 290.916 809.421 290.405C808.847 289.895 808.519 289.218 808.437 288.375ZM816.229 286.058C816.229 284.873 816.35 283.92 816.592 283.2C816.838 282.476 817.2 281.917 817.679 281.525C818.162 281.133 818.768 280.938 819.497 280.938C820.035 280.938 820.507 281.047 820.912 281.266C821.318 281.48 821.653 281.792 821.917 282.202C822.181 282.608 822.389 283.104 822.539 283.692C822.689 284.276 822.765 285.064 822.765 286.058C822.765 287.233 822.644 288.184 822.402 288.908C822.161 289.628 821.799 290.187 821.315 290.583C820.837 290.975 820.231 291.171 819.497 291.171C818.531 291.171 817.772 290.825 817.221 290.132C816.56 289.298 816.229 287.94 816.229 286.058ZM817.494 286.058C817.494 287.703 817.686 288.799 818.068 289.346C818.456 289.888 818.932 290.159 819.497 290.159C820.062 290.159 820.536 289.886 820.919 289.339C821.306 288.792 821.5 287.698 821.5 286.058C821.5 284.408 821.306 283.312 820.919 282.77C820.536 282.227 820.058 281.956 819.483 281.956C818.918 281.956 818.467 282.195 818.13 282.674C817.706 283.285 817.494 284.412 817.494 286.058ZM828.268 291V280.979H829.498V286.693L832.41 283.74H834.003L831.228 286.434L834.283 291H832.766L830.366 287.288L829.498 288.122V291H828.268ZM835.247 291V283.74H836.354V284.841C836.637 284.326 836.897 283.986 837.134 283.822C837.375 283.658 837.64 283.576 837.927 283.576C838.341 283.576 838.763 283.708 839.191 283.973L838.768 285.114C838.467 284.937 838.166 284.848 837.865 284.848C837.596 284.848 837.355 284.93 837.141 285.094C836.926 285.253 836.774 285.477 836.683 285.764C836.546 286.201 836.478 286.68 836.478 287.199V291H835.247Z" fill="#161225"/>
<line opacity="0.2" x1="172" y1="250.5" x2="839" y2="250.5" stroke="black"/>
<path d="M264.575 360L260.993 349.979H263.188L265.724 357.396L268.178 349.979H270.324L266.735 360H264.575ZM274.768 357.689L276.682 358.011C276.436 358.713 276.046 359.248 275.513 359.617C274.984 359.982 274.321 360.164 273.523 360.164C272.261 360.164 271.327 359.752 270.721 358.927C270.242 358.266 270.003 357.432 270.003 356.425C270.003 355.222 270.317 354.281 270.946 353.602C271.575 352.918 272.37 352.576 273.332 352.576C274.412 352.576 275.264 352.934 275.889 353.649C276.513 354.36 276.812 355.452 276.784 356.924H271.972C271.985 357.493 272.14 357.938 272.437 358.257C272.733 358.571 273.102 358.729 273.544 358.729C273.845 358.729 274.098 358.646 274.303 358.482C274.508 358.318 274.663 358.054 274.768 357.689ZM274.877 355.748C274.863 355.192 274.72 354.771 274.446 354.483C274.173 354.192 273.84 354.046 273.448 354.046C273.029 354.046 272.683 354.199 272.409 354.504C272.136 354.809 272.001 355.224 272.006 355.748H274.877ZM278.288 360V349.979H280.209V355.297L282.458 352.74H284.823L282.342 355.393L285.001 360H282.93L281.104 356.739L280.209 357.676V360H278.288ZM289.479 352.74V354.271H288.166V357.197C288.166 357.79 288.177 358.136 288.2 358.236C288.228 358.332 288.285 358.412 288.371 358.476C288.462 358.539 288.572 358.571 288.699 358.571C288.877 358.571 289.134 358.51 289.472 358.387L289.636 359.877C289.189 360.068 288.683 360.164 288.118 360.164C287.772 360.164 287.46 360.107 287.182 359.993C286.904 359.875 286.699 359.724 286.566 359.542C286.439 359.355 286.35 359.104 286.3 358.79C286.259 358.567 286.238 358.116 286.238 357.437V354.271H285.356V352.74H286.238V351.298L288.166 350.177V352.74H289.479ZM294.564 352.74H296.335V353.731C296.968 352.961 297.723 352.576 298.598 352.576C299.062 352.576 299.466 352.672 299.808 352.863C300.149 353.055 300.43 353.344 300.648 353.731C300.967 353.344 301.312 353.055 301.681 352.863C302.05 352.672 302.444 352.576 302.863 352.576C303.396 352.576 303.848 352.686 304.217 352.904C304.586 353.118 304.862 353.435 305.044 353.854C305.176 354.164 305.242 354.666 305.242 355.358V360H303.321V355.851C303.321 355.131 303.255 354.666 303.123 354.456C302.945 354.183 302.672 354.046 302.303 354.046C302.034 354.046 301.781 354.128 301.544 354.292C301.307 354.456 301.136 354.698 301.031 355.017C300.926 355.331 300.874 355.83 300.874 356.514V360H298.953V356.021C298.953 355.315 298.919 354.859 298.851 354.654C298.782 354.449 298.675 354.297 298.529 354.196C298.388 354.096 298.194 354.046 297.948 354.046C297.652 354.046 297.385 354.126 297.148 354.285C296.911 354.445 296.741 354.675 296.636 354.976C296.535 355.276 296.485 355.775 296.485 356.473V360H294.564V352.74ZM306.138 360.171L308.619 349.808H310.062L307.553 360.171H306.138ZM314.389 352.74V354.271H313.076V357.197C313.076 357.79 313.088 358.136 313.11 358.236C313.138 358.332 313.195 358.412 313.281 358.476C313.372 358.539 313.482 358.571 313.609 358.571C313.787 358.571 314.045 358.51 314.382 358.387L314.546 359.877C314.099 360.068 313.593 360.164 313.028 360.164C312.682 360.164 312.37 360.107 312.092 359.993C311.814 359.875 311.609 359.724 311.477 359.542C311.349 359.355 311.26 359.104 311.21 358.79C311.169 358.567 311.148 358.116 311.148 357.437V354.271H310.267V352.74H311.148V351.298L313.076 350.177V352.74H314.389ZM315.722 351.756V349.979H317.643V351.756H315.722ZM315.722 360V352.74H317.643V360H315.722ZM319.475 352.74H321.245V353.731C321.879 352.961 322.633 352.576 323.508 352.576C323.973 352.576 324.376 352.672 324.718 352.863C325.06 353.055 325.34 353.344 325.559 353.731C325.878 353.344 326.222 353.055 326.591 352.863C326.96 352.672 327.354 352.576 327.773 352.576C328.307 352.576 328.758 352.686 329.127 352.904C329.496 353.118 329.772 353.435 329.954 353.854C330.086 354.164 330.152 354.666 330.152 355.358V360H328.231V355.851C328.231 355.131 328.165 354.666 328.033 354.456C327.855 354.183 327.582 354.046 327.213 354.046C326.944 354.046 326.691 354.128 326.454 354.292C326.217 354.456 326.046 354.698 325.941 355.017C325.837 355.331 325.784 355.83 325.784 356.514V360H323.863V356.021C323.863 355.315 323.829 354.859 323.761 354.654C323.692 354.449 323.585 354.297 323.439 354.196C323.298 354.096 323.104 354.046 322.858 354.046C322.562 354.046 322.296 354.126 322.059 354.285C321.822 354.445 321.651 354.675 321.546 354.976C321.446 355.276 321.396 355.775 321.396 356.473V360H319.475V352.74ZM336.277 357.689L338.191 358.011C337.945 358.713 337.556 359.248 337.022 359.617C336.494 359.982 335.831 360.164 335.033 360.164C333.771 360.164 332.837 359.752 332.23 358.927C331.752 358.266 331.513 357.432 331.513 356.425C331.513 355.222 331.827 354.281 332.456 353.602C333.085 352.918 333.88 352.576 334.842 352.576C335.922 352.576 336.774 352.934 337.398 353.649C338.023 354.36 338.321 355.452 338.294 356.924H333.481C333.495 357.493 333.65 357.938 333.946 358.257C334.243 358.571 334.612 358.729 335.054 358.729C335.354 358.729 335.607 358.646 335.812 358.482C336.018 358.318 336.173 358.054 336.277 357.689ZM336.387 355.748C336.373 355.192 336.229 354.771 335.956 354.483C335.683 354.192 335.35 354.046 334.958 354.046C334.539 354.046 334.192 354.199 333.919 354.504C333.646 354.809 333.511 355.224 333.516 355.748H336.387ZM341.705 360H339.784V352.74H341.568V353.772C341.874 353.285 342.147 352.964 342.389 352.809C342.635 352.654 342.913 352.576 343.223 352.576C343.66 352.576 344.082 352.697 344.487 352.938L343.893 354.613C343.569 354.404 343.268 354.299 342.99 354.299C342.721 354.299 342.493 354.374 342.307 354.524C342.12 354.67 341.972 354.937 341.862 355.324C341.757 355.712 341.705 356.523 341.705 357.758V360Z" fill="#161225"/>
<path d="M804.588 360V357.601H800.24V356.473L804.813 349.979H805.818V356.473H807.172V357.601H805.818V360H804.588ZM804.588 356.473V351.954L801.45 356.473H804.588ZM808.621 357.683L809.804 357.573C809.904 358.129 810.095 358.533 810.378 358.783C810.66 359.034 811.023 359.159 811.465 359.159C811.843 359.159 812.174 359.073 812.456 358.899C812.743 358.726 812.978 358.496 813.16 358.209C813.342 357.917 813.495 357.525 813.618 357.033C813.741 356.541 813.803 356.04 813.803 355.529C813.803 355.475 813.8 355.393 813.796 355.283C813.55 355.675 813.213 355.994 812.784 356.24C812.36 356.482 811.9 356.603 811.403 356.603C810.574 356.603 809.872 356.302 809.298 355.7C808.724 355.099 808.437 354.306 808.437 353.321C808.437 352.305 808.735 351.487 809.332 350.867C809.934 350.247 810.686 349.938 811.588 349.938C812.24 349.938 812.834 350.113 813.372 350.464C813.914 350.815 814.325 351.316 814.603 351.968C814.885 352.615 815.026 353.554 815.026 354.784C815.026 356.065 814.887 357.086 814.609 357.847C814.331 358.603 813.917 359.18 813.365 359.576C812.818 359.973 812.176 360.171 811.438 360.171C810.654 360.171 810.013 359.954 809.517 359.521C809.02 359.084 808.721 358.471 808.621 357.683ZM813.659 353.26C813.659 352.553 813.47 351.993 813.092 351.578C812.718 351.163 812.267 350.956 811.738 350.956C811.191 350.956 810.715 351.179 810.31 351.626C809.904 352.073 809.701 352.651 809.701 353.362C809.701 354 809.893 354.52 810.275 354.921C810.663 355.317 811.139 355.516 811.704 355.516C812.274 355.516 812.741 355.317 813.105 354.921C813.475 354.52 813.659 353.966 813.659 353.26ZM816.414 357.683L817.597 357.573C817.697 358.129 817.888 358.533 818.171 358.783C818.453 359.034 818.816 359.159 819.258 359.159C819.636 359.159 819.966 359.073 820.249 358.899C820.536 358.726 820.771 358.496 820.953 358.209C821.135 357.917 821.288 357.525 821.411 357.033C821.534 356.541 821.596 356.04 821.596 355.529C821.596 355.475 821.593 355.393 821.589 355.283C821.343 355.675 821.006 355.994 820.577 356.24C820.153 356.482 819.693 356.603 819.196 356.603C818.367 356.603 817.665 356.302 817.091 355.7C816.517 355.099 816.229 354.306 816.229 353.321C816.229 352.305 816.528 351.487 817.125 350.867C817.727 350.247 818.479 349.938 819.381 349.938C820.033 349.938 820.627 350.113 821.165 350.464C821.707 350.815 822.118 351.316 822.396 351.968C822.678 352.615 822.819 353.554 822.819 354.784C822.819 356.065 822.68 357.086 822.402 357.847C822.124 358.603 821.71 359.18 821.158 359.576C820.611 359.973 819.969 360.171 819.23 360.171C818.447 360.171 817.806 359.954 817.31 359.521C816.813 359.084 816.514 358.471 816.414 357.683ZM821.452 353.26C821.452 352.553 821.263 351.993 820.885 351.578C820.511 351.163 820.06 350.956 819.531 350.956C818.984 350.956 818.508 351.179 818.103 351.626C817.697 352.073 817.494 352.651 817.494 353.362C817.494 354 817.686 354.52 818.068 354.921C818.456 355.317 818.932 355.516 819.497 355.516C820.067 355.516 820.534 355.317 820.898 354.921C821.268 354.52 821.452 353.966 821.452 353.26ZM828.268 360V349.979H829.498V355.693L832.41 352.74H834.003L831.228 355.434L834.283 360H832.766L830.366 356.288L829.498 357.122V360H828.268ZM835.247 360V352.74H836.354V353.841C836.637 353.326 836.897 352.986 837.134 352.822C837.375 352.658 837.64 352.576 837.927 352.576C838.341 352.576 838.763 352.708 839.191 352.973L838.768 354.114C838.467 353.937 838.166 353.848 837.865 353.848C837.596 353.848 837.355 353.93 837.141 354.094C836.926 354.253 836.774 354.477 836.683 354.764C836.546 355.201 836.478 355.68 836.478 356.199V360H835.247Z" fill="#161225"/>
<line opacity="0.2" x1="172" y1="319.5" x2="839" y2="319.5" stroke="black"/>
<line opacity="0.2" x1="172" y1="387.5" x2="839" y2="387.5" stroke="black"/>
<path d="M175.274 429V420.674H172.301V418.979H180.265V420.674H177.298V429H175.274ZM180.08 425.268C180.08 424.63 180.237 424.012 180.552 423.415C180.866 422.818 181.311 422.362 181.885 422.048C182.464 421.733 183.108 421.576 183.819 421.576C184.918 421.576 185.818 421.934 186.52 422.649C187.221 423.36 187.572 424.26 187.572 425.35C187.572 426.448 187.217 427.359 186.506 428.084C185.799 428.804 184.909 429.164 183.833 429.164C183.168 429.164 182.532 429.014 181.926 428.713C181.324 428.412 180.866 427.972 180.552 427.394C180.237 426.81 180.08 426.102 180.08 425.268ZM182.049 425.37C182.049 426.09 182.22 426.642 182.562 427.024C182.903 427.407 183.325 427.599 183.826 427.599C184.327 427.599 184.747 427.407 185.084 427.024C185.426 426.642 185.597 426.086 185.597 425.356C185.597 424.646 185.426 424.099 185.084 423.716C184.747 423.333 184.327 423.142 183.826 423.142C183.325 423.142 182.903 423.333 182.562 423.716C182.22 424.099 182.049 424.65 182.049 425.37ZM192.412 421.74V423.271H191.1V426.197C191.1 426.79 191.111 427.136 191.134 427.236C191.161 427.332 191.218 427.412 191.305 427.476C191.396 427.539 191.505 427.571 191.633 427.571C191.811 427.571 192.068 427.51 192.405 427.387L192.569 428.877C192.123 429.068 191.617 429.164 191.052 429.164C190.705 429.164 190.393 429.107 190.115 428.993C189.837 428.875 189.632 428.724 189.5 428.542C189.372 428.355 189.284 428.104 189.233 427.79C189.192 427.567 189.172 427.116 189.172 426.437V423.271H188.29V421.74H189.172V420.298L191.1 419.177V421.74H192.412ZM195.181 423.955L193.438 423.641C193.633 422.939 193.971 422.419 194.449 422.082C194.928 421.745 195.639 421.576 196.582 421.576C197.439 421.576 198.077 421.679 198.496 421.884C198.915 422.084 199.209 422.342 199.378 422.656C199.551 422.966 199.638 423.538 199.638 424.372L199.617 426.614C199.617 427.252 199.647 427.724 199.706 428.029C199.77 428.33 199.886 428.654 200.055 429H198.154C198.104 428.872 198.043 428.683 197.97 428.433C197.938 428.319 197.915 428.243 197.901 428.207C197.573 428.526 197.222 428.765 196.849 428.925C196.475 429.084 196.076 429.164 195.652 429.164C194.905 429.164 194.315 428.961 193.882 428.556C193.453 428.15 193.239 427.637 193.239 427.018C193.239 426.607 193.337 426.243 193.533 425.924C193.729 425.6 194.003 425.354 194.354 425.186C194.709 425.012 195.219 424.862 195.885 424.734C196.783 424.566 197.405 424.409 197.751 424.263V424.071C197.751 423.702 197.66 423.44 197.478 423.285C197.295 423.126 196.951 423.046 196.445 423.046C196.104 423.046 195.837 423.114 195.646 423.251C195.454 423.383 195.299 423.618 195.181 423.955ZM197.751 425.514C197.505 425.596 197.115 425.694 196.582 425.808C196.049 425.922 195.7 426.033 195.536 426.143C195.285 426.32 195.16 426.546 195.16 426.819C195.16 427.088 195.26 427.321 195.461 427.517C195.661 427.713 195.917 427.811 196.227 427.811C196.573 427.811 196.903 427.697 197.218 427.469C197.45 427.296 197.603 427.084 197.676 426.833C197.726 426.669 197.751 426.357 197.751 425.896V425.514ZM201.538 429V418.979H203.459V429H201.538ZM208.764 421.74V423.271H207.451V426.197C207.451 426.79 207.463 427.136 207.485 427.236C207.513 427.332 207.57 427.412 207.656 427.476C207.747 427.539 207.857 427.571 207.984 427.571C208.162 427.571 208.42 427.51 208.757 427.387L208.921 428.877C208.474 429.068 207.968 429.164 207.403 429.164C207.057 429.164 206.745 429.107 206.467 428.993C206.189 428.875 205.984 428.724 205.852 428.542C205.724 428.355 205.635 428.104 205.585 427.79C205.544 427.567 205.523 427.116 205.523 426.437V423.271H204.642V421.74H205.523V420.298L207.451 419.177V421.74H208.764Z" fill="black"/>
<path d="M792.297 429H790.376V421.761C789.674 422.417 788.847 422.902 787.895 423.217V421.474C788.396 421.31 788.94 421 789.528 420.544C790.116 420.084 790.52 419.548 790.738 418.938H792.297V429ZM799.071 420.899V419.115H805.641V420.51C805.098 421.043 804.547 421.809 803.986 422.807C803.426 423.805 802.997 424.867 802.701 425.992C802.41 427.113 802.266 428.116 802.271 429H800.418C800.45 427.615 800.735 426.202 801.272 424.762C801.815 423.322 802.537 422.034 803.439 420.899H799.071ZM810.631 429V426.983H806.529V425.302L810.877 418.938H812.49V425.295H813.734V426.983H812.49V429H810.631ZM810.631 425.295V421.87L808.327 425.295H810.631ZM816.305 423.593C815.808 423.383 815.446 423.096 815.218 422.731C814.994 422.362 814.883 421.959 814.883 421.521C814.883 420.774 815.143 420.157 815.662 419.669C816.186 419.181 816.929 418.938 817.891 418.938C818.843 418.938 819.581 419.181 820.105 419.669C820.634 420.157 820.898 420.774 820.898 421.521C820.898 421.986 820.778 422.401 820.536 422.766C820.295 423.126 819.955 423.401 819.518 423.593C820.074 423.816 820.495 424.142 820.782 424.57C821.074 424.999 821.22 425.493 821.22 426.054C821.22 426.979 820.924 427.731 820.331 428.31C819.743 428.888 818.959 429.178 817.979 429.178C817.068 429.178 816.309 428.938 815.703 428.46C814.988 427.895 814.63 427.12 814.63 426.136C814.63 425.593 814.764 425.097 815.033 424.646C815.302 424.19 815.726 423.839 816.305 423.593ZM816.701 421.658C816.701 422.041 816.808 422.34 817.022 422.554C817.241 422.768 817.531 422.875 817.891 422.875C818.255 422.875 818.547 422.768 818.766 422.554C818.984 422.335 819.094 422.034 819.094 421.651C819.094 421.291 818.984 421.004 818.766 420.79C818.551 420.571 818.267 420.462 817.911 420.462C817.542 420.462 817.248 420.571 817.029 420.79C816.811 421.009 816.701 421.298 816.701 421.658ZM816.523 425.951C816.523 426.48 816.658 426.892 816.927 427.188C817.2 427.485 817.54 427.633 817.945 427.633C818.342 427.633 818.67 427.492 818.93 427.209C819.189 426.922 819.319 426.509 819.319 425.972C819.319 425.502 819.187 425.126 818.923 424.844C818.659 424.557 818.324 424.413 817.918 424.413C817.449 424.413 817.098 424.575 816.865 424.898C816.637 425.222 816.523 425.573 816.523 425.951ZM826.688 429V418.979H828.609V424.297L830.858 421.74H833.224L830.742 424.393L833.401 429H831.33L829.505 425.739L828.609 426.676V429H826.688ZM836.389 429H834.468V421.74H836.252V422.772C836.557 422.285 836.831 421.964 837.072 421.809C837.318 421.654 837.596 421.576 837.906 421.576C838.344 421.576 838.765 421.697 839.171 421.938L838.576 423.613C838.253 423.404 837.952 423.299 837.674 423.299C837.405 423.299 837.177 423.374 836.99 423.524C836.803 423.67 836.655 423.937 836.546 424.324C836.441 424.712 836.389 425.523 836.389 426.758V429Z" fill="black"/>
<rect x="481" y="497" width="132" height="44" rx="5" fill="#161225"/>
<path d="M523.45 513.979H527.456C528.249 513.979 528.839 514.013 529.227 514.081C529.619 514.145 529.967 514.282 530.273 514.491C530.582 514.701 530.84 514.981 531.045 515.332C531.25 515.678 531.353 516.068 531.353 516.501C531.353 516.97 531.225 517.401 530.97 517.793C530.719 518.185 530.377 518.479 529.944 518.675C530.555 518.853 531.024 519.156 531.353 519.584C531.681 520.012 531.845 520.516 531.845 521.095C531.845 521.55 531.738 521.995 531.523 522.428C531.314 522.856 531.024 523.2 530.655 523.46C530.291 523.715 529.84 523.872 529.302 523.932C528.965 523.968 528.151 523.991 526.861 524H523.45V513.979ZM525.474 515.646V517.964H526.8C527.588 517.964 528.078 517.952 528.27 517.93C528.616 517.889 528.887 517.77 529.083 517.574C529.284 517.374 529.384 517.112 529.384 516.788C529.384 516.478 529.297 516.228 529.124 516.036C528.955 515.84 528.703 515.722 528.365 515.681C528.165 515.658 527.588 515.646 526.636 515.646H525.474ZM525.474 519.632V522.312H527.347C528.076 522.312 528.538 522.291 528.734 522.25C529.035 522.195 529.279 522.063 529.466 521.854C529.657 521.639 529.753 521.354 529.753 520.999C529.753 520.698 529.68 520.443 529.534 520.233C529.388 520.024 529.176 519.871 528.898 519.775C528.625 519.68 528.028 519.632 527.107 519.632H525.474ZM534.261 524V513.979H541.691V515.674H536.284V517.896H541.315V519.584H536.284V522.312H541.883V524H534.261ZM546.554 524V515.674H543.581V513.979H551.545V515.674H548.578V524H546.554ZM561.555 524H559.354L558.479 521.724H554.473L553.646 524H551.499L555.403 513.979H557.542L561.555 524ZM557.83 520.035L556.449 516.316L555.095 520.035H557.83ZM563.39 524V514.061H565.413V522.312H570.445V524H563.39Z" fill="white"/>
<path d="M188.8 299C188.588 299 188.384 299.084 188.234 299.234C188.084 299.384 188 299.588 188 299.8C188 300.012 188.084 300.216 188.234 300.366C188.384 300.516 188.588 300.6 188.8 300.6H212C212.212 300.6 212.416 300.516 212.566 300.366C212.716 300.216 212.8 300.012 212.8 299.8C212.8 299.588 212.716 299.384 212.566 299.234C212.416 299.084 212.212 299 212 299H209.2V280.6H212C212.212 280.6 212.416 280.516 212.566 280.366C212.716 280.216 212.8 280.012 212.8 279.8C212.8 279.588 212.716 279.384 212.566 279.234C212.416 279.084 212.212 279 212 279H207.112C206.651 276.922 204.269 275.337 201.2 275.1V274.6H202.4C202.612 274.6 202.816 274.516 202.966 274.366C203.116 274.216 203.2 274.012 203.2 273.8V272.6H214.4C214.468 272.599 214.535 272.59 214.6 272.572C214.617 272.568 214.633 272.562 214.65 272.556C214.7 272.54 214.749 272.518 214.795 272.492C214.807 272.485 214.819 272.48 214.831 272.472C214.885 272.438 214.935 272.396 214.98 272.35C214.99 272.339 214.998 272.327 215.007 272.316C215.042 272.275 215.073 272.23 215.099 272.183C215.104 272.174 215.112 272.167 215.116 272.158L217.116 268.158C217.177 268.036 217.206 267.9 217.2 267.764C217.194 267.627 217.153 267.495 217.081 267.379C217.009 267.263 216.909 267.167 216.79 267.101C216.671 267.035 216.536 267 216.4 267H212.4C212.264 267 212.129 267.035 212.01 267.101C211.891 267.168 211.791 267.263 211.719 267.379C211.648 267.495 211.607 267.628 211.601 267.764C211.595 267.9 211.623 268.036 211.684 268.158L213.106 271H202.4C202.188 271 201.984 271.084 201.834 271.234C201.684 271.384 201.6 271.588 201.6 271.8V273H200.4C200.188 273 199.984 273.084 199.834 273.234C199.684 273.384 199.6 273.588 199.6 273.8V275.1C196.531 275.337 194.149 276.922 193.688 279H188.8C188.588 279 188.384 279.084 188.234 279.234C188.084 279.384 188 279.588 188 279.8C188 280.012 188.084 280.216 188.234 280.366C188.384 280.516 188.588 280.6 188.8 280.6H191.6V299H188.8ZM215.106 268.6L214.4 270.011L213.694 268.6H215.106ZM200.4 276.667C202.791 276.667 204.862 277.679 205.436 279H195.364C195.938 277.68 198.009 276.667 200.4 276.667ZM193.2 280.6H207.6V299H193.2V280.6Z" fill="#161225"/>
<path d="M204.8 290.2H196C195.788 290.2 195.584 290.284 195.434 290.434C195.284 290.584 195.2 290.788 195.2 291V296.6C195.2 296.812 195.284 297.016 195.434 297.166C195.584 297.316 195.788 297.4 196 297.4H204.8C205.012 297.4 205.216 297.316 205.366 297.166C205.516 297.016 205.6 296.812 205.6 296.6V291C205.6 290.788 205.516 290.584 205.366 290.434C205.216 290.284 205.012 290.2 204.8 290.2ZM204 295.8H196.8V291.8H204V295.8Z" fill="#161225"/>
<path d="M200.4 294.428C200.559 294.428 200.712 294.365 200.824 294.252C200.937 294.14 201 293.987 201 293.828C201 293.669 200.937 293.516 200.824 293.404C200.712 293.291 200.559 293.228 200.4 293.228C200.241 293.228 200.088 293.291 199.976 293.404C199.863 293.516 199.8 293.669 199.8 293.828C199.8 293.987 199.863 294.14 199.976 294.252C200.088 294.365 200.241 294.428 200.4 294.428Z" fill="#161225"/>
<path d="M204.8 285H196C195.788 285 195.584 285.084 195.434 285.234C195.284 285.384 195.2 285.588 195.2 285.8C195.2 286.012 195.284 286.216 195.434 286.366C195.584 286.516 195.788 286.6 196 286.6H204.8C205.012 286.6 205.216 286.516 205.366 286.366C205.516 286.216 205.6 286.012 205.6 285.8C205.6 285.588 205.516 285.384 205.366 285.234C205.216 285.084 205.012 285 204.8 285Z" fill="#161225"/>
<path d="M188.8 230.6H216.748C216.96 230.6 217.164 230.516 217.314 230.366C217.464 230.216 217.548 230.012 217.548 229.8C217.548 229.588 217.464 229.384 217.314 229.234C217.164 229.084 216.96 229 216.748 229H216.484C216.703 228.145 216.7 227.248 216.474 226.395L214.404 218.6H215.2C215.444 218.601 215.68 218.685 215.868 218.84C216.057 218.994 216.186 219.209 216.235 219.448C216.239 219.468 216.243 219.488 216.249 219.508L217.63 224.416C217.657 224.519 217.704 224.615 217.769 224.7C217.833 224.784 217.914 224.855 218.006 224.907C218.099 224.96 218.2 224.994 218.306 225.007C218.411 225.02 218.518 225.012 218.62 224.983C218.723 224.954 218.818 224.905 218.901 224.839C218.984 224.773 219.054 224.691 219.105 224.598C219.156 224.505 219.188 224.403 219.199 224.297C219.21 224.192 219.2 224.085 219.17 223.983L217.797 219.103C217.669 218.509 217.342 217.976 216.869 217.594C216.397 217.211 215.808 217.001 215.2 217H204.986C204.961 217.003 204.936 217.007 204.911 217.012C204.874 217.006 204.837 217.002 204.8 217H201.6C201.47 217 201.342 217.032 201.227 217.092C201.113 217.153 201.014 217.24 200.941 217.347C200.867 217.454 200.821 217.578 200.806 217.706C200.791 217.835 200.807 217.966 200.854 218.087L202.744 223L201.824 226.388C201.82 226.401 201.817 226.414 201.814 226.428C201.594 227.271 201.594 228.156 201.814 228.999H198.4V202.6H203.276L205.272 213.939C205.305 214.124 205.402 214.292 205.546 214.413C205.69 214.534 205.872 214.6 206.06 214.6H212.236C212.424 214.6 212.606 214.534 212.75 214.413C212.894 214.292 212.991 214.124 213.024 213.939L215.02 202.6H216.748C216.96 202.6 217.164 202.516 217.314 202.366C217.464 202.216 217.548 202.012 217.548 201.8C217.548 201.588 217.464 201.384 217.314 201.234C217.164 201.084 216.96 201 216.748 201H188.8C188.588 201 188.384 201.084 188.234 201.234C188.084 201.384 188 201.588 188 201.8V229.8C188 230.012 188.084 230.216 188.234 230.366C188.384 230.516 188.588 230.6 188.8 230.6ZM204.38 223.18L204.528 222.538L205.6 218.6H212.749L214.92 226.771C215.24 228.241 214.88 228.818 214.707 229H203.59C203.418 228.819 203.058 228.246 203.372 226.79L204.301 223.372C204.336 223.312 204.362 223.247 204.38 223.18ZM203.794 218.6L203.408 220.273L202.765 218.6H203.794ZM213.394 202.6L211.564 213H206.732L204.901 202.6H213.394ZM189.6 202.6H196.8V229H189.6V202.6Z" fill="#161225"/>
<path d="M190.4 368.6H215.2C215.836 368.599 216.446 368.346 216.896 367.896C217.346 367.446 217.599 366.836 217.6 366.2V339.8C217.6 339.588 217.516 339.384 217.366 339.234C217.216 339.084 217.012 339 216.8 339H188.8C188.588 339 188.384 339.084 188.234 339.234C188.084 339.384 188 339.588 188 339.8V366.2C188.001 366.836 188.254 367.446 188.704 367.896C189.154 368.346 189.764 368.599 190.4 368.6ZM189.6 340.6H216V366.2C216 366.412 215.916 366.616 215.766 366.766C215.616 366.916 215.412 367 215.2 367H190.4C190.188 367 189.984 366.916 189.834 366.766C189.684 366.616 189.6 366.412 189.6 366.2V340.6Z" fill="#161225"/>
<path d="M192.8 358.6H212.8C213.012 358.6 213.216 358.516 213.366 358.366C213.516 358.216 213.6 358.012 213.6 357.8V343.4C213.6 343.188 213.516 342.984 213.366 342.834C213.216 342.684 213.012 342.6 212.8 342.6H192.8C192.588 342.6 192.384 342.684 192.234 342.834C192.084 342.984 192 343.188 192 343.4V357.8C192 358.012 192.084 358.216 192.234 358.366C192.384 358.516 192.588 358.6 192.8 358.6ZM193.6 344.2H212V357H193.6V344.2Z" fill="#161225"/>
<path d="M202.8 359.8C202.246 359.8 201.705 359.964 201.244 360.272C200.784 360.58 200.425 361.017 200.213 361.528C200.001 362.04 199.946 362.603 200.054 363.146C200.162 363.689 200.429 364.188 200.82 364.58C201.212 364.971 201.711 365.238 202.254 365.346C202.797 365.454 203.36 365.399 203.872 365.187C204.383 364.975 204.82 364.616 205.128 364.156C205.436 363.695 205.6 363.154 205.6 362.6C205.599 361.858 205.304 361.146 204.779 360.621C204.254 360.096 203.542 359.801 202.8 359.8ZM202.8 363.8C202.563 363.8 202.331 363.73 202.133 363.598C201.936 363.466 201.782 363.278 201.691 363.059C201.601 362.84 201.577 362.599 201.623 362.366C201.669 362.133 201.784 361.919 201.951 361.751C202.119 361.584 202.333 361.469 202.566 361.423C202.799 361.377 203.04 361.401 203.259 361.491C203.478 361.582 203.666 361.736 203.798 361.933C203.93 362.131 204 362.363 204 362.6C204 362.918 203.874 363.223 203.649 363.449C203.423 363.674 203.118 363.8 202.8 363.8Z" fill="#161225"/>
<path d="M210.8 359.8C210.246 359.8 209.705 359.964 209.244 360.272C208.784 360.58 208.425 361.017 208.213 361.528C208.001 362.04 207.946 362.603 208.054 363.146C208.162 363.689 208.429 364.188 208.82 364.58C209.212 364.971 209.711 365.238 210.254 365.346C210.797 365.454 211.36 365.399 211.872 365.187C212.383 364.975 212.82 364.616 213.128 364.156C213.436 363.695 213.6 363.154 213.6 362.6C213.599 361.858 213.304 361.146 212.779 360.621C212.254 360.096 211.542 359.801 210.8 359.8ZM210.8 363.8C210.563 363.8 210.331 363.73 210.133 363.598C209.936 363.466 209.782 363.278 209.691 363.059C209.601 362.84 209.577 362.599 209.623 362.366C209.669 362.133 209.784 361.919 209.951 361.751C210.119 361.584 210.333 361.469 210.566 361.423C210.799 361.377 211.04 361.401 211.259 361.491C211.478 361.582 211.666 361.736 211.798 361.933C211.93 362.131 212 362.363 212 362.6C212 362.918 211.874 363.223 211.649 363.449C211.423 363.674 211.118 363.8 210.8 363.8Z" fill="#161225"/>
<path d="M194.8 365.4C195.354 365.4 195.895 365.236 196.356 364.928C196.816 364.62 197.175 364.183 197.387 363.672C197.599 363.16 197.654 362.597 197.546 362.054C197.438 361.511 197.171 361.012 196.78 360.62C196.388 360.229 195.889 359.962 195.346 359.854C194.803 359.746 194.24 359.801 193.728 360.013C193.217 360.225 192.78 360.584 192.472 361.044C192.164 361.505 192 362.046 192 362.6C192.001 363.342 192.296 364.054 192.821 364.579C193.346 365.104 194.058 365.399 194.8 365.4ZM194.8 361.4C195.037 361.4 195.269 361.47 195.467 361.602C195.664 361.734 195.818 361.921 195.909 362.141C195.999 362.36 196.023 362.601 195.977 362.834C195.931 363.067 195.816 363.281 195.649 363.449C195.481 363.616 195.267 363.731 195.034 363.777C194.801 363.823 194.56 363.799 194.341 363.709C194.122 363.618 193.934 363.464 193.802 363.267C193.67 363.069 193.6 362.837 193.6 362.6C193.6 362.282 193.726 361.977 193.951 361.751C194.177 361.526 194.482 361.4 194.8 361.4Z" fill="#161225"/>
<path d="M206.8 349.8C206.588 349.8 206.384 349.884 206.234 350.034C206.084 350.184 206 350.388 206 350.6C206 351.233 205.812 351.852 205.461 352.378C205.109 352.904 204.609 353.314 204.025 353.556C203.44 353.799 202.796 353.862 202.176 353.739C201.555 353.615 200.985 353.31 200.537 352.863C200.09 352.415 199.785 351.845 199.661 351.224C199.538 350.604 199.601 349.96 199.844 349.375C200.086 348.791 200.496 348.291 201.022 347.939C201.548 347.588 202.167 347.4 202.8 347.4C203.012 347.4 203.216 347.316 203.366 347.166C203.516 347.016 203.6 346.812 203.6 346.6C203.6 346.388 203.516 346.184 203.366 346.034C203.216 345.884 203.012 345.8 202.8 345.8C201.851 345.8 200.923 346.082 200.133 346.609C199.344 347.136 198.729 347.886 198.365 348.763C198.002 349.64 197.907 350.605 198.092 351.536C198.277 352.468 198.735 353.323 199.406 353.994C200.077 354.665 200.932 355.123 201.864 355.308C202.795 355.493 203.76 355.398 204.637 355.035C205.514 354.671 206.264 354.056 206.791 353.267C207.318 352.477 207.6 351.549 207.6 350.6C207.6 350.388 207.516 350.184 207.366 350.034C207.216 349.884 207.012 349.8 206.8 349.8Z" fill="#161225"/>
<path d="M203.6 348.6C203.6 348.388 203.516 348.184 203.366 348.034C203.216 347.884 203.012 347.8 202.8 347.8C202.588 347.8 202.384 347.884 202.234 348.034C202.084 348.184 202 348.388 202 348.6V350.6C202 350.812 202.084 351.016 202.234 351.166C202.384 351.316 202.588 351.4 202.8 351.4H204.8C205.012 351.4 205.216 351.316 205.366 351.166C205.516 351.016 205.6 350.812 205.6 350.6C205.6 350.388 205.516 350.184 205.366 350.034C205.216 349.884 205.012 349.8 204.8 349.8H203.6V348.6Z" fill="#161225"/>
<defs>
<filter id="filter0_d" x="627" y="496" width="214" height="48" filterUnits="userSpaceOnUse" color-interpolation-filters="sRGB">
<feFlood flood-opacity="0" result="BackgroundImageFix"/>
<feColorMatrix in="SourceAlpha" type="matrix" values="0 0 0 0 0 0 0 0 0 0 0 0 0 0 0 0 0 0 127 0"/>
<feOffset dy="1"/>
<feGaussianBlur stdDeviation="1"/>
<feColorMatrix type="matrix" values="0 0 0 0 0.0862745 0 0 0 0 0.0705882 0 0 0 0 0.145098 0 0 0 0.07 0"/>
<feBlend mode="normal" in2="BackgroundImageFix" result="effect1_dropShadow"/>
<feBlend mode="normal" in="SourceGraphic" in2="effect1_dropShadow" result="shape"/>
</filter>
</defs>
</svg>
