<svg width="1012" height="610" viewBox="0 0 1012 610" fill="none" xmlns="http://www.w3.org/2000/svg">
<path d="M0 20C0 8.95432 8.95431 0 20 0H992C1003.05 0 1012 8.9543 1012 20V610H0V20Z" fill="#EFEEF3"/>
<rect x="16" y="60" width="980" height="550" fill="white"/>
<circle cx="30" cy="30" r="8" fill="#F36C5D"/>
<circle cx="54" cy="30" r="8" fill="#FABE4D"/>
<circle cx="78" cy="30" r="8" fill="#57C555"/>
<rect width="980" height="550" transform="translate(16 60)" fill="white"/>
<rect x="56" y="100" width="358" height="358" fill="#EFEEF3"/>
<path d="M461.699 143V125.82H466.891L470.008 137.539L473.09 125.82H478.293V143H475.07V129.477L471.66 143H468.32L464.922 129.477V143H461.699ZM480.953 136.602C480.953 135.508 481.223 134.449 481.762 133.426C482.301 132.402 483.062 131.621 484.047 131.082C485.039 130.543 486.145 130.273 487.363 130.273C489.246 130.273 490.789 130.887 491.992 132.113C493.195 133.332 493.797 134.875 493.797 136.742C493.797 138.625 493.188 140.188 491.969 141.43C490.758 142.664 489.23 143.281 487.387 143.281C486.246 143.281 485.156 143.023 484.117 142.508C483.086 141.992 482.301 141.238 481.762 140.246C481.223 139.246 480.953 138.031 480.953 136.602ZM484.328 136.777C484.328 138.012 484.621 138.957 485.207 139.613C485.793 140.27 486.516 140.598 487.375 140.598C488.234 140.598 488.953 140.27 489.531 139.613C490.117 138.957 490.41 138.004 490.41 136.754C490.41 135.535 490.117 134.598 489.531 133.941C488.953 133.285 488.234 132.957 487.375 132.957C486.516 132.957 485.793 133.285 485.207 133.941C484.621 134.598 484.328 135.543 484.328 136.777ZM496.246 143V125.82H499.539V132.008C500.555 130.852 501.758 130.273 503.148 130.273C504.664 130.273 505.918 130.824 506.91 131.926C507.902 133.02 508.398 134.594 508.398 136.648C508.398 138.773 507.891 140.41 506.875 141.559C505.867 142.707 504.641 143.281 503.195 143.281C502.484 143.281 501.781 143.105 501.086 142.754C500.398 142.395 499.805 141.867 499.305 141.172V143H496.246ZM499.516 136.508C499.516 137.797 499.719 138.75 500.125 139.367C500.695 140.242 501.453 140.68 502.398 140.68C503.125 140.68 503.742 140.371 504.25 139.754C504.766 139.129 505.023 138.148 505.023 136.812C505.023 135.391 504.766 134.367 504.25 133.742C503.734 133.109 503.074 132.793 502.27 132.793C501.48 132.793 500.824 133.102 500.301 133.719C499.777 134.328 499.516 135.258 499.516 136.508ZM511.059 128.867V125.82H514.352V128.867H511.059ZM511.059 143V130.555H514.352V143H511.059ZM517.738 143V125.82H521.031V143H517.738ZM535.832 143H532.773V141.172C532.266 141.883 531.664 142.414 530.969 142.766C530.281 143.109 529.586 143.281 528.883 143.281C527.453 143.281 526.227 142.707 525.203 141.559C524.188 140.402 523.68 138.793 523.68 136.73C523.68 134.621 524.176 133.02 525.168 131.926C526.16 130.824 527.414 130.273 528.93 130.273C530.32 130.273 531.523 130.852 532.539 132.008V125.82H535.832V143ZM527.043 136.508C527.043 137.836 527.227 138.797 527.594 139.391C528.125 140.25 528.867 140.68 529.82 140.68C530.578 140.68 531.223 140.359 531.754 139.719C532.285 139.07 532.551 138.105 532.551 136.824C532.551 135.395 532.293 134.367 531.777 133.742C531.262 133.109 530.602 132.793 529.797 132.793C529.016 132.793 528.359 133.105 527.828 133.73C527.305 134.348 527.043 135.273 527.043 136.508ZM546.297 139.039L549.578 139.59C549.156 140.793 548.488 141.711 547.574 142.344C546.668 142.969 545.531 143.281 544.164 143.281C542 143.281 540.398 142.574 539.359 141.16C538.539 140.027 538.129 138.598 538.129 136.871C538.129 134.809 538.668 133.195 539.746 132.031C540.824 130.859 542.188 130.273 543.836 130.273C545.688 130.273 547.148 130.887 548.219 132.113C549.289 133.332 549.801 135.203 549.754 137.727H541.504C541.527 138.703 541.793 139.465 542.301 140.012C542.809 140.551 543.441 140.82 544.199 140.82C544.715 140.82 545.148 140.68 545.5 140.398C545.852 140.117 546.117 139.664 546.297 139.039ZM546.484 135.711C546.461 134.758 546.215 134.035 545.746 133.543C545.277 133.043 544.707 132.793 544.035 132.793C543.316 132.793 542.723 133.055 542.254 133.578C541.785 134.102 541.555 134.812 541.562 135.711H546.484ZM552.332 143V125.82H555.625V134.938L559.48 130.555H563.535L559.281 135.102L563.84 143H560.289L557.16 137.41L555.625 139.016V143H552.332ZM564.648 139.449L567.953 138.945C568.094 139.586 568.379 140.074 568.809 140.41C569.238 140.738 569.84 140.902 570.613 140.902C571.465 140.902 572.105 140.746 572.535 140.434C572.824 140.215 572.969 139.922 572.969 139.555C572.969 139.305 572.891 139.098 572.734 138.934C572.57 138.777 572.203 138.633 571.633 138.5C568.977 137.914 567.293 137.379 566.582 136.895C565.598 136.223 565.105 135.289 565.105 134.094C565.105 133.016 565.531 132.109 566.383 131.375C567.234 130.641 568.555 130.273 570.344 130.273C572.047 130.273 573.312 130.551 574.141 131.105C574.969 131.66 575.539 132.48 575.852 133.566L572.746 134.141C572.613 133.656 572.359 133.285 571.984 133.027C571.617 132.77 571.09 132.641 570.402 132.641C569.535 132.641 568.914 132.762 568.539 133.004C568.289 133.176 568.164 133.398 568.164 133.672C568.164 133.906 568.273 134.105 568.492 134.27C568.789 134.488 569.812 134.797 571.562 135.195C573.32 135.594 574.547 136.082 575.242 136.66C575.93 137.246 576.273 138.062 576.273 139.109C576.273 140.25 575.797 141.23 574.844 142.051C573.891 142.871 572.48 143.281 570.613 143.281C568.918 143.281 567.574 142.938 566.582 142.25C565.598 141.562 564.953 140.629 564.648 139.449ZM586.375 139.039L589.656 139.59C589.234 140.793 588.566 141.711 587.652 142.344C586.746 142.969 585.609 143.281 584.242 143.281C582.078 143.281 580.477 142.574 579.438 141.16C578.617 140.027 578.207 138.598 578.207 136.871C578.207 134.809 578.746 133.195 579.824 132.031C580.902 130.859 582.266 130.273 583.914 130.273C585.766 130.273 587.227 130.887 588.297 132.113C589.367 133.332 589.879 135.203 589.832 137.727H581.582C581.605 138.703 581.871 139.465 582.379 140.012C582.887 140.551 583.52 140.82 584.277 140.82C584.793 140.82 585.227 140.68 585.578 140.398C585.93 140.117 586.195 139.664 586.375 139.039ZM586.562 135.711C586.539 134.758 586.293 134.035 585.824 133.543C585.355 133.043 584.785 132.793 584.113 132.793C583.395 132.793 582.801 133.055 582.332 133.578C581.863 134.102 581.633 134.812 581.641 135.711H586.562ZM592.527 143V125.82H595.82V143H592.527Z" fill="black"/>
<path d="M471.129 294.196V297H460.548C460.662 295.94 461.006 294.938 461.579 293.992C462.152 293.04 463.284 291.779 464.974 290.211C466.334 288.943 467.169 288.084 467.477 287.633C467.892 287.01 468.1 286.394 468.1 285.785C468.1 285.112 467.917 284.596 467.552 284.238C467.194 283.873 466.696 283.69 466.059 283.69C465.428 283.69 464.927 283.88 464.555 284.26C464.182 284.639 463.967 285.27 463.91 286.15L460.902 285.85C461.081 284.188 461.644 282.996 462.589 282.272C463.534 281.549 464.716 281.188 466.134 281.188C467.688 281.188 468.909 281.606 469.797 282.444C470.685 283.282 471.129 284.324 471.129 285.57C471.129 286.279 471 286.956 470.742 287.601C470.492 288.238 470.09 288.908 469.539 289.609C469.174 290.075 468.515 290.744 467.562 291.618C466.61 292.492 466.005 293.072 465.747 293.358C465.496 293.645 465.292 293.924 465.135 294.196H471.129ZM473.245 293.358L476.167 293.036C476.239 293.631 476.425 294.071 476.726 294.357C477.026 294.644 477.424 294.787 477.918 294.787C478.541 294.787 479.071 294.501 479.508 293.928C479.945 293.355 480.224 292.166 480.346 290.361C479.587 291.242 478.638 291.683 477.499 291.683C476.26 291.683 475.189 291.206 474.287 290.254C473.392 289.294 472.944 288.048 472.944 286.516C472.944 284.919 473.417 283.633 474.362 282.659C475.315 281.678 476.525 281.188 477.993 281.188C479.59 281.188 480.901 281.807 481.925 283.046C482.949 284.278 483.461 286.308 483.461 289.137C483.461 292.016 482.927 294.092 481.86 295.367C480.793 296.642 479.404 297.279 477.692 297.279C476.461 297.279 475.465 296.953 474.706 296.302C473.947 295.643 473.46 294.662 473.245 293.358ZM480.077 286.763C480.077 285.789 479.852 285.033 479.4 284.496C478.956 283.959 478.441 283.69 477.854 283.69C477.295 283.69 476.829 283.912 476.457 284.356C476.092 284.793 475.909 285.513 475.909 286.516C475.909 287.533 476.11 288.281 476.511 288.761C476.912 289.233 477.413 289.47 478.015 289.47C478.595 289.47 479.082 289.241 479.476 288.782C479.877 288.324 480.077 287.651 480.077 286.763ZM485.491 293.358L488.413 293.036C488.485 293.631 488.671 294.071 488.972 294.357C489.272 294.644 489.67 294.787 490.164 294.787C490.787 294.787 491.317 294.501 491.754 293.928C492.191 293.355 492.47 292.166 492.592 290.361C491.833 291.242 490.884 291.683 489.745 291.683C488.506 291.683 487.436 291.206 486.533 290.254C485.638 289.294 485.19 288.048 485.19 286.516C485.19 284.919 485.663 283.633 486.608 282.659C487.561 281.678 488.771 281.188 490.239 281.188C491.836 281.188 493.147 281.807 494.171 283.046C495.195 284.278 495.707 286.308 495.707 289.137C495.707 292.016 495.174 294.092 494.106 295.367C493.039 296.642 491.65 297.279 489.938 297.279C488.707 297.279 487.711 296.953 486.952 296.302C486.193 295.643 485.706 294.662 485.491 293.358ZM492.323 286.763C492.323 285.789 492.098 285.033 491.646 284.496C491.202 283.959 490.687 283.69 490.1 283.69C489.541 283.69 489.076 283.912 488.703 284.356C488.338 284.793 488.155 285.513 488.155 286.516C488.155 287.533 488.356 288.281 488.757 288.761C489.158 289.233 489.659 289.47 490.261 289.47C490.841 289.47 491.328 289.241 491.722 288.782C492.123 288.324 492.323 287.651 492.323 286.763ZM504.333 297V281.252H507.352V289.609L510.886 285.592H514.603L510.703 289.76L514.882 297H511.627L508.759 291.876L507.352 293.348V297H504.333ZM519.576 297H516.558V285.592H519.361V287.214C519.841 286.448 520.271 285.943 520.65 285.699C521.037 285.456 521.474 285.334 521.961 285.334C522.648 285.334 523.311 285.524 523.948 285.903L523.014 288.535C522.505 288.206 522.033 288.041 521.596 288.041C521.173 288.041 520.815 288.159 520.521 288.396C520.228 288.625 519.995 289.044 519.823 289.652C519.659 290.261 519.576 291.536 519.576 293.477V297Z" fill="black"/>
<path d="M465.681 316.315V314.627H470.042V318.619C469.618 319.029 469.003 319.392 468.196 319.706C467.394 320.016 466.581 320.171 465.756 320.171C464.708 320.171 463.794 319.952 463.015 319.515C462.235 319.073 461.65 318.444 461.258 317.628C460.866 316.808 460.67 315.917 460.67 314.955C460.67 313.911 460.889 312.984 461.326 312.173C461.764 311.362 462.404 310.74 463.247 310.307C463.89 309.974 464.689 309.808 465.646 309.808C466.891 309.808 467.861 310.07 468.559 310.594C469.26 311.113 469.712 311.833 469.912 312.754L467.902 313.13C467.761 312.638 467.494 312.25 467.103 311.968C466.715 311.681 466.23 311.537 465.646 311.537C464.762 311.537 464.058 311.817 463.534 312.378C463.015 312.938 462.755 313.77 462.755 314.873C462.755 316.062 463.019 316.956 463.548 317.553C464.076 318.145 464.769 318.441 465.626 318.441C466.05 318.441 466.474 318.359 466.897 318.195C467.326 318.027 467.693 317.824 467.998 317.587V316.315H465.681ZM473.74 320H471.819V312.74H473.604V313.772C473.909 313.285 474.182 312.964 474.424 312.809C474.67 312.654 474.948 312.576 475.258 312.576C475.695 312.576 476.117 312.697 476.522 312.938L475.928 314.613C475.604 314.404 475.303 314.299 475.025 314.299C474.757 314.299 474.529 314.374 474.342 314.524C474.155 314.67 474.007 314.937 473.897 315.324C473.793 315.712 473.74 316.523 473.74 317.758V320ZM478.792 314.955L477.049 314.641C477.245 313.939 477.582 313.419 478.061 313.082C478.539 312.745 479.25 312.576 480.193 312.576C481.05 312.576 481.688 312.679 482.107 312.884C482.527 313.084 482.821 313.342 482.989 313.656C483.162 313.966 483.249 314.538 483.249 315.372L483.229 317.614C483.229 318.252 483.258 318.724 483.317 319.029C483.381 319.33 483.497 319.654 483.666 320H481.766C481.715 319.872 481.654 319.683 481.581 319.433C481.549 319.319 481.526 319.243 481.513 319.207C481.185 319.526 480.834 319.765 480.46 319.925C480.086 320.084 479.688 320.164 479.264 320.164C478.516 320.164 477.926 319.961 477.493 319.556C477.065 319.15 476.851 318.637 476.851 318.018C476.851 317.607 476.949 317.243 477.145 316.924C477.34 316.6 477.614 316.354 477.965 316.186C478.32 316.012 478.831 315.862 479.496 315.734C480.394 315.566 481.016 315.409 481.362 315.263V315.071C481.362 314.702 481.271 314.44 481.089 314.285C480.907 314.126 480.562 314.046 480.057 314.046C479.715 314.046 479.448 314.114 479.257 314.251C479.065 314.383 478.91 314.618 478.792 314.955ZM481.362 316.514C481.116 316.596 480.727 316.694 480.193 316.808C479.66 316.922 479.312 317.033 479.147 317.143C478.897 317.32 478.771 317.546 478.771 317.819C478.771 318.088 478.872 318.321 479.072 318.517C479.273 318.713 479.528 318.811 479.838 318.811C480.184 318.811 480.515 318.697 480.829 318.469C481.062 318.296 481.214 318.084 481.287 317.833C481.337 317.669 481.362 317.357 481.362 316.896V316.514ZM488.479 312.74V314.271H487.166V317.197C487.166 317.79 487.177 318.136 487.2 318.236C487.228 318.332 487.285 318.412 487.371 318.476C487.462 318.539 487.572 318.571 487.699 318.571C487.877 318.571 488.134 318.51 488.472 318.387L488.636 319.877C488.189 320.068 487.683 320.164 487.118 320.164C486.772 320.164 486.46 320.107 486.182 319.993C485.904 319.875 485.699 319.724 485.566 319.542C485.439 319.355 485.35 319.104 485.3 318.79C485.259 318.567 485.238 318.116 485.238 317.437V314.271H484.356V312.74H485.238V311.298L487.166 310.177V312.74H488.479ZM489.812 311.756V309.979H491.732V311.756H489.812ZM489.812 320V312.74H491.732V320H489.812ZM493.031 317.929L494.959 317.635C495.041 318.008 495.207 318.293 495.458 318.489C495.709 318.681 496.06 318.776 496.511 318.776C497.007 318.776 497.381 318.685 497.632 318.503C497.8 318.375 497.885 318.204 497.885 317.99C497.885 317.844 497.839 317.724 497.748 317.628C497.652 317.537 497.438 317.452 497.105 317.375C495.556 317.033 494.574 316.721 494.159 316.438C493.585 316.047 493.298 315.502 493.298 314.805C493.298 314.176 493.546 313.647 494.043 313.219C494.54 312.79 495.31 312.576 496.354 312.576C497.347 312.576 498.085 312.738 498.568 313.062C499.051 313.385 499.384 313.864 499.566 314.497L497.755 314.832C497.677 314.549 497.529 314.333 497.311 314.183C497.096 314.032 496.789 313.957 496.388 313.957C495.882 313.957 495.52 314.028 495.301 314.169C495.155 314.269 495.082 314.399 495.082 314.559C495.082 314.695 495.146 314.812 495.273 314.907C495.447 315.035 496.044 315.215 497.064 315.447C498.09 315.68 498.805 315.965 499.211 316.302C499.612 316.644 499.812 317.12 499.812 317.73C499.812 318.396 499.535 318.968 498.979 319.446C498.423 319.925 497.6 320.164 496.511 320.164C495.522 320.164 494.738 319.964 494.159 319.562C493.585 319.161 493.209 318.617 493.031 317.929ZM504.557 312.74H505.623V312.193C505.623 311.583 505.687 311.127 505.814 310.826C505.947 310.525 506.186 310.282 506.532 310.095C506.883 309.903 507.325 309.808 507.858 309.808C508.405 309.808 508.941 309.89 509.465 310.054L509.205 311.394C508.9 311.321 508.606 311.284 508.323 311.284C508.045 311.284 507.845 311.35 507.722 311.482C507.603 311.61 507.544 311.858 507.544 312.228V312.74H508.979V314.251H507.544V320H505.623V314.251H504.557V312.74ZM511.898 320H509.978V312.74H511.762V313.772C512.067 313.285 512.34 312.964 512.582 312.809C512.828 312.654 513.106 312.576 513.416 312.576C513.854 312.576 514.275 312.697 514.681 312.938L514.086 314.613C513.762 314.404 513.462 314.299 513.184 314.299C512.915 314.299 512.687 314.374 512.5 314.524C512.313 314.67 512.165 314.937 512.056 315.324C511.951 315.712 511.898 316.523 511.898 317.758V320ZM516.95 314.955L515.207 314.641C515.403 313.939 515.74 313.419 516.219 313.082C516.697 312.745 517.408 312.576 518.352 312.576C519.208 312.576 519.846 312.679 520.266 312.884C520.685 313.084 520.979 313.342 521.147 313.656C521.321 313.966 521.407 314.538 521.407 315.372L521.387 317.614C521.387 318.252 521.416 318.724 521.476 319.029C521.539 319.33 521.656 319.654 521.824 320H519.924C519.874 319.872 519.812 319.683 519.739 319.433C519.707 319.319 519.685 319.243 519.671 319.207C519.343 319.526 518.992 319.765 518.618 319.925C518.244 320.084 517.846 320.164 517.422 320.164C516.674 320.164 516.084 319.961 515.651 319.556C515.223 319.15 515.009 318.637 515.009 318.018C515.009 317.607 515.107 317.243 515.303 316.924C515.499 316.6 515.772 316.354 516.123 316.186C516.479 316.012 516.989 315.862 517.654 315.734C518.552 315.566 519.174 315.409 519.521 315.263V315.071C519.521 314.702 519.429 314.44 519.247 314.285C519.065 314.126 518.721 314.046 518.215 314.046C517.873 314.046 517.606 314.114 517.415 314.251C517.224 314.383 517.069 314.618 516.95 314.955ZM519.521 316.514C519.274 316.596 518.885 316.694 518.352 316.808C517.818 316.922 517.47 317.033 517.306 317.143C517.055 317.32 516.93 317.546 516.93 317.819C516.93 318.088 517.03 318.321 517.23 318.517C517.431 318.713 517.686 318.811 517.996 318.811C518.342 318.811 518.673 318.697 518.987 318.469C519.22 318.296 519.372 318.084 519.445 317.833C519.495 317.669 519.521 317.357 519.521 316.896V316.514ZM523.239 320V309.979H525.16V315.297L527.409 312.74H529.774L527.293 315.393L529.952 320H527.881L526.056 316.739L525.16 317.676V320H523.239ZM534.43 312.74V314.271H533.117V317.197C533.117 317.79 533.129 318.136 533.151 318.236C533.179 318.332 533.236 318.412 533.322 318.476C533.413 318.539 533.523 318.571 533.65 318.571C533.828 318.571 534.086 318.51 534.423 318.387L534.587 319.877C534.14 320.068 533.634 320.164 533.069 320.164C532.723 320.164 532.411 320.107 532.133 319.993C531.855 319.875 531.65 319.724 531.518 319.542C531.39 319.355 531.301 319.104 531.251 318.79C531.21 318.567 531.189 318.116 531.189 317.437V314.271H530.308V312.74H531.189V311.298L533.117 310.177V312.74H534.43Z" fill="#938FA8"/>
<rect x="460" y="181" width="322" height="8" fill="#938FA8"/>
<rect x="460" y="205" width="394" height="8" fill="#938FA8"/>
<rect x="460" y="229" width="279" height="8" fill="#938FA8"/>
<g filter="url(#filter0_d)">
<rect x="694" y="356" width="220" height="44" rx="5" fill="#FF5B24"/>
</g>
<path d="M797.867 384V370.965H795.546V376.358H789.204V370.965H786.874V384H789.204V378.372H795.546V384H797.867ZM809.257 374.118H807.017V379.872C807.017 381.335 806.222 382.229 804.767 382.229C803.43 382.229 802.807 381.489 802.807 379.98V374.118H800.567V380.54C800.567 382.853 801.832 384.199 803.99 384.199C805.499 384.199 806.466 383.557 806.944 382.428H807.098V384H809.257V374.118ZM811.803 384H814.043V378.291C814.043 376.909 815.055 376.006 816.509 376.006C816.889 376.006 817.485 376.069 817.656 376.132V374.054C817.449 373.991 817.051 373.955 816.726 373.955C815.452 373.955 814.386 374.678 814.115 375.653H813.962V374.118H811.803V384ZM820.465 371.697V374.181H818.902V375.969H820.465V381.362C820.465 383.277 821.368 384.045 823.635 384.045C824.069 384.045 824.484 384 824.809 383.937V382.184C824.538 382.211 824.367 382.229 824.051 382.229C823.111 382.229 822.696 381.796 822.696 380.82V375.969H824.809V374.181H822.696V371.697H820.465ZM826.877 384H829.108V374.118H826.877V384ZM827.988 372.483C828.729 372.483 829.325 371.886 829.325 371.137C829.325 370.387 828.729 369.782 827.988 369.782C827.256 369.782 826.651 370.387 826.651 371.137C826.651 371.886 827.256 372.483 827.988 372.483ZM835.936 382.031C834.373 382.031 833.488 380.838 833.488 378.95C833.488 377.062 834.373 375.861 835.936 375.861C837.49 375.861 838.438 377.062 838.438 378.95C838.438 380.838 837.499 382.031 835.936 382.031ZM835.936 387.758C838.817 387.758 840.642 386.322 840.642 384.036V374.118H838.483V375.698H838.33C837.788 374.624 836.613 373.955 835.267 373.955C832.747 373.955 831.184 375.924 831.184 378.95C831.184 381.922 832.738 383.855 835.231 383.855C836.604 383.855 837.679 383.277 838.248 382.22H838.402V384.09C838.402 385.328 837.508 386.051 835.972 386.051C834.743 386.051 833.949 385.617 833.804 384.939H831.555C831.735 386.638 833.398 387.758 835.936 387.758ZM845.681 378.146H845.528V370.297H843.288V384H845.528V380.558L846.323 379.763L849.493 384H852.203L847.994 378.354L851.932 374.118H849.331L845.681 378.146ZM856.782 382.401C855.788 382.401 855.075 381.904 855.075 381.073C855.075 380.269 855.662 379.818 856.917 379.736L859.149 379.592V380.378C859.149 381.525 858.137 382.401 856.782 382.401ZM856.123 384.163C857.414 384.163 858.498 383.603 859.049 382.645H859.203V384H861.362V377.252C861.362 375.156 859.935 373.919 857.396 373.919C855.048 373.919 853.413 375.03 853.232 376.773H855.346C855.553 376.105 856.258 375.744 857.288 375.744C858.498 375.744 859.149 376.286 859.149 377.252V378.083L856.601 378.237C854.198 378.381 852.852 379.411 852.852 381.2C852.852 383.006 854.216 384.163 856.123 384.163ZM863.637 376.945C863.637 378.436 864.531 379.312 866.428 379.745L868.181 380.152C869.12 380.36 869.545 380.712 869.545 381.272C869.545 382.004 868.759 382.5 867.63 382.5C866.509 382.5 865.814 382.067 865.597 381.335H863.384C863.556 383.133 865.109 384.199 867.575 384.199C870.041 384.199 871.785 382.934 871.785 381.037C871.785 379.583 870.909 378.77 869.021 378.345L867.277 377.948C866.284 377.722 865.814 377.379 865.814 376.819C865.814 376.105 866.582 375.617 867.602 375.617C868.65 375.617 869.31 376.06 869.472 376.755H871.577C871.414 374.958 869.942 373.919 867.593 373.919C865.263 373.919 863.637 375.156 863.637 376.945ZM873.446 376.945C873.446 378.436 874.34 379.312 876.237 379.745L877.989 380.152C878.929 380.36 879.353 380.712 879.353 381.272C879.353 382.004 878.567 382.5 877.438 382.5C876.318 382.5 875.623 382.067 875.406 381.335H873.193C873.364 383.133 874.918 384.199 877.384 384.199C879.85 384.199 881.594 382.934 881.594 381.037C881.594 379.583 880.717 378.77 878.829 378.345L877.086 377.948C876.092 377.722 875.623 377.379 875.623 376.819C875.623 376.105 876.39 375.617 877.411 375.617C878.459 375.617 879.119 376.06 879.281 376.755H881.386C881.223 374.958 879.751 373.919 877.402 373.919C875.072 373.919 873.446 375.156 873.446 376.945ZM887.807 375.698C889.153 375.698 890.038 376.638 890.084 378.101H885.431C885.531 376.656 886.47 375.698 887.807 375.698ZM890.102 381.281C889.776 382.013 889.009 382.419 887.898 382.419C886.425 382.419 885.477 381.389 885.422 379.745V379.628H892.324V378.905C892.324 375.789 890.635 373.919 887.816 373.919C884.953 373.919 883.173 375.915 883.173 379.095C883.173 382.275 884.926 384.199 887.834 384.199C890.165 384.199 891.818 383.079 892.224 381.281H890.102Z" fill="white"/>
<path fill-rule="evenodd" clip-rule="evenodd" d="M779 375.838C778.28 373.091 776.531 372 774.145 372C772.211 372 769.784 373.091 769.784 375.717C769.784 377.414 770.957 378.748 772.869 379.091L774.68 379.414C775.914 379.636 776.264 380.101 776.264 380.727C776.264 381.434 775.503 381.838 774.371 381.838C772.89 381.838 771.965 381.313 771.82 379.838L769.208 380.242C769.619 383.091 772.17 384.263 774.474 384.263C776.655 384.263 778.979 383.01 778.979 380.485C778.979 378.768 777.93 377.515 775.976 377.151L773.98 376.788C772.869 376.586 772.499 376.04 772.499 375.515C772.499 374.848 773.219 374.424 774.207 374.424C775.462 374.424 776.346 374.848 776.387 376.242L779 375.838ZM720.925 380.161L723.64 372.303H726.828L722.097 383.959H719.731L715 372.303H718.188L720.925 380.161ZM737.608 375.636C737.608 376.566 736.868 377.212 736.004 377.212C735.14 377.212 734.399 376.566 734.399 375.636C734.399 374.707 735.14 374.061 736.004 374.061C736.868 374.061 737.609 374.707 737.609 375.636H737.608ZM738.102 379.758C737.032 381.131 735.901 382.081 733.905 382.081C731.869 382.081 730.285 380.869 729.051 379.091C728.557 378.364 727.796 378.202 727.24 378.586C726.726 378.95 726.603 379.717 727.076 380.384C728.783 382.95 731.149 384.444 733.905 384.444C736.436 384.444 738.411 383.232 739.953 381.212C740.529 380.465 740.509 379.697 739.953 379.273C739.439 378.868 738.678 379.01 738.102 379.758ZM745.2 378.101C745.2 380.485 746.599 381.738 748.162 381.738C749.643 381.738 751.166 380.566 751.166 378.101C751.166 375.676 749.643 374.505 748.183 374.505C746.599 374.505 745.2 375.616 745.2 378.101ZM745.2 373.919V372.323H742.3V388H745.2V382.424C746.167 383.717 747.422 384.263 748.841 384.263C751.495 384.263 754.087 382.202 754.087 377.96C754.087 373.899 751.392 372 749.088 372C747.257 372 746.002 372.828 745.2 373.919ZM759.128 378.101C759.128 380.485 760.526 381.738 762.09 381.738C763.571 381.738 765.093 380.566 765.093 378.101C765.093 375.676 763.571 374.505 762.11 374.505C760.526 374.505 759.127 375.616 759.127 378.101H759.128ZM759.128 373.919V372.323H759.127H756.227V388H759.127V382.424C760.094 383.717 761.349 384.263 762.768 384.263C765.422 384.263 768.014 382.202 768.014 377.96C768.014 373.899 765.319 372 763.015 372C761.184 372 759.93 372.828 759.128 373.919Z" fill="white"/>
<rect x="460" y="356" width="218" height="44" rx="5" fill="#59CBE8"/>
<path d="M479.109 383V373.061H481.132V381.312H486.164V383H479.109ZM488.313 383V372.979H495.743V374.674H490.336V376.896H495.368V378.584H490.336V381.312H495.935V383H488.313ZM503.013 379.315V377.627H507.374V381.619C506.95 382.029 506.335 382.392 505.528 382.706C504.726 383.016 503.913 383.171 503.088 383.171C502.04 383.171 501.126 382.952 500.347 382.515C499.568 382.073 498.982 381.444 498.59 380.628C498.198 379.808 498.002 378.917 498.002 377.955C498.002 376.911 498.221 375.984 498.658 375.173C499.096 374.362 499.736 373.74 500.579 373.307C501.222 372.974 502.022 372.808 502.979 372.808C504.223 372.808 505.193 373.07 505.891 373.594C506.593 374.113 507.044 374.833 507.244 375.754L505.234 376.13C505.093 375.638 504.827 375.25 504.435 374.968C504.047 374.681 503.562 374.537 502.979 374.537C502.095 374.537 501.39 374.817 500.866 375.378C500.347 375.938 500.087 376.77 500.087 377.873C500.087 379.062 500.351 379.956 500.88 380.553C501.409 381.145 502.101 381.441 502.958 381.441C503.382 381.441 503.806 381.359 504.23 381.195C504.658 381.027 505.025 380.824 505.33 380.587V379.315H503.013ZM514.609 379.315V377.627H518.971V381.619C518.547 382.029 517.932 382.392 517.125 382.706C516.323 383.016 515.509 383.171 514.684 383.171C513.636 383.171 512.723 382.952 511.943 382.515C511.164 382.073 510.578 381.444 510.186 380.628C509.795 379.808 509.599 378.917 509.599 377.955C509.599 376.911 509.817 375.984 510.255 375.173C510.692 374.362 511.333 373.74 512.176 373.307C512.818 372.974 513.618 372.808 514.575 372.808C515.819 372.808 516.79 373.07 517.487 373.594C518.189 374.113 518.64 374.833 518.841 375.754L516.831 376.13C516.69 375.638 516.423 375.25 516.031 374.968C515.644 374.681 515.158 374.537 514.575 374.537C513.691 374.537 512.987 374.817 512.463 375.378C511.943 375.938 511.684 376.77 511.684 377.873C511.684 379.062 511.948 379.956 512.476 380.553C513.005 381.145 513.698 381.441 514.555 381.441C514.978 381.441 515.402 381.359 515.826 381.195C516.254 381.027 516.621 380.824 516.927 380.587V379.315H514.609ZM526.079 383V372.979H528.102V383H526.079ZM535.34 383V372.979H537.363V376.923H541.328V372.979H543.352V383H541.328V378.618H537.363V383H535.34ZM555.187 383H552.986L552.111 380.724H548.105L547.278 383H545.132L549.035 372.979H551.175L555.187 383ZM551.462 379.035L550.081 375.316L548.727 379.035H551.462ZM556.988 383V372.979H558.957L563.058 379.671V372.979H564.938V383H562.908L558.868 376.465V383H556.988ZM567.778 372.979H571.476C572.31 372.979 572.946 373.042 573.383 373.17C573.971 373.343 574.475 373.651 574.894 374.093C575.313 374.535 575.632 375.077 575.851 375.72C576.07 376.358 576.179 377.146 576.179 378.085C576.179 378.91 576.077 379.621 575.872 380.218C575.621 380.947 575.263 381.537 574.798 381.988C574.447 382.33 573.973 382.597 573.376 382.788C572.93 382.929 572.333 383 571.585 383H567.778V372.979ZM569.801 374.674V381.312H571.312C571.877 381.312 572.285 381.28 572.536 381.216C572.864 381.134 573.135 380.995 573.349 380.799C573.568 380.603 573.746 380.282 573.882 379.835C574.019 379.384 574.087 378.771 574.087 377.996C574.087 377.221 574.019 376.627 573.882 376.212C573.746 375.797 573.554 375.474 573.308 375.241C573.062 375.009 572.75 374.852 572.372 374.77C572.089 374.706 571.535 374.674 570.71 374.674H569.801ZM578.657 383V373.061H580.68V381.312H585.711V383H578.657ZM587.86 383V372.979H595.291V374.674H589.884V376.896H594.915V378.584H589.884V381.312H595.483V383H587.86ZM597.926 383V372.979H599.949V377.429L604.037 372.979H606.758L602.984 376.882L606.963 383H604.345L601.59 378.297L599.949 379.972V383H597.926ZM608.702 372.979H610.725V378.406C610.725 379.268 610.75 379.826 610.801 380.081C610.887 380.491 611.092 380.822 611.416 381.072C611.744 381.318 612.19 381.441 612.756 381.441C613.33 381.441 613.763 381.325 614.054 381.093C614.346 380.856 614.522 380.566 614.581 380.225C614.64 379.883 614.67 379.315 614.67 378.522V372.979H616.693V378.242C616.693 379.445 616.638 380.295 616.529 380.792C616.42 381.289 616.217 381.708 615.921 382.05C615.629 382.392 615.237 382.665 614.745 382.87C614.253 383.071 613.61 383.171 612.817 383.171C611.86 383.171 611.133 383.062 610.636 382.843C610.144 382.619 609.755 382.332 609.467 381.981C609.18 381.626 608.991 381.255 608.9 380.867C608.768 380.293 608.702 379.445 608.702 378.324V372.979ZM619.54 383V372.979H623.798C624.869 372.979 625.646 373.07 626.129 373.252C626.617 373.43 627.007 373.749 627.298 374.209C627.59 374.669 627.736 375.196 627.736 375.788C627.736 376.54 627.515 377.162 627.073 377.654C626.631 378.142 625.97 378.45 625.09 378.577C625.528 378.832 625.888 379.113 626.17 379.418C626.458 379.723 626.843 380.266 627.326 381.045L628.549 383H626.129L624.667 380.819C624.147 380.04 623.792 379.55 623.6 379.35C623.409 379.145 623.206 379.006 622.992 378.933C622.778 378.855 622.438 378.816 621.973 378.816H621.563V383H619.54ZM621.563 377.217H623.06C624.031 377.217 624.637 377.176 624.878 377.094C625.12 377.012 625.309 376.87 625.446 376.67C625.583 376.469 625.651 376.219 625.651 375.918C625.651 375.581 625.56 375.31 625.377 375.104C625.2 374.895 624.947 374.763 624.619 374.708C624.455 374.685 623.962 374.674 623.142 374.674H621.563V377.217ZM632.647 383L629.065 372.979H631.259L633.795 380.396L636.249 372.979H638.396L634.807 383H632.647ZM640.128 383V372.979H647.559V374.674H642.151V376.896H647.183V378.584H642.151V381.312H647.75V383H640.128ZM650.186 383V372.979H652.155L656.257 379.671V372.979H658.137V383H656.106L652.066 376.465V383H650.186Z" fill="white"/>
<path fill-rule="evenodd" clip-rule="evenodd" d="M269.286 191H200.714C193.14 191 187 198.163 187 207V335V351C187 359.837 193.14 367 200.714 367H269.286C276.86 367 283 359.837 283 351V335V207C283 198.163 276.86 191 269.286 191ZM200.714 319H269.286L269.286 207H200.714V319ZM222.286 335C221.733 335 221.286 335.448 221.286 336V350C221.286 350.552 221.733 351 222.286 351H247.714C248.267 351 248.714 350.552 248.714 350V336C248.714 335.448 248.267 335 247.714 335H222.286Z" fill="#938FA8"/>
<defs>
<filter id="filter0_d" x="692" y="355" width="224" height="48" filterUnits="userSpaceOnUse" color-interpolation-filters="sRGB">
<feFlood flood-opacity="0" result="BackgroundImageFix"/>
<feColorMatrix in="SourceAlpha" type="matrix" values="0 0 0 0 0 0 0 0 0 0 0 0 0 0 0 0 0 0 127 0"/>
<feOffset dy="1"/>
<feGaussianBlur stdDeviation="1"/>
<feColorMatrix type="matrix" values="0 0 0 0 0.0862745 0 0 0 0 0.0705882 0 0 0 0 0.145098 0 0 0 0.07 0"/>
<feBlend mode="normal" in2="BackgroundImageFix" result="effect1_dropShadow"/>
<feBlend mode="normal" in="SourceGraphic" in2="effect1_dropShadow" result="shape"/>
</filter>
</defs>
</svg>
