<svg width="1012" height="610" viewBox="0 0 1012 610" fill="none" xmlns="http://www.w3.org/2000/svg">
<path d="M0 20C0 8.95432 8.95431 0 20 0H992C1003.05 0 1012 8.9543 1012 20V610H0V20Z" fill="#EFEEF3"/>
<rect x="16" y="60" width="980" height="550" fill="white"/>
<circle cx="30" cy="30" r="8" fill="#F36C5D"/>
<circle cx="54" cy="30" r="8" fill="#FABE4D"/>
<circle cx="78" cy="30" r="8" fill="#57C555"/>
<rect width="980" height="550" transform="translate(16 60)" fill="white"/>
<rect x="56" y="100" width="358" height="358" fill="#EFEEF3"/>
<path d="M461.734 125.82H468.074C469.504 125.82 470.594 125.93 471.344 126.148C472.352 126.445 473.215 126.973 473.934 127.73C474.652 128.488 475.199 129.418 475.574 130.52C475.949 131.613 476.137 132.965 476.137 134.574C476.137 135.988 475.961 137.207 475.609 138.23C475.18 139.48 474.566 140.492 473.77 141.266C473.168 141.852 472.355 142.309 471.332 142.637C470.566 142.879 469.543 143 468.262 143H461.734V125.82ZM465.203 128.727V140.105H467.793C468.762 140.105 469.461 140.051 469.891 139.941C470.453 139.801 470.918 139.562 471.285 139.227C471.66 138.891 471.965 138.34 472.199 137.574C472.434 136.801 472.551 135.75 472.551 134.422C472.551 133.094 472.434 132.074 472.199 131.363C471.965 130.652 471.637 130.098 471.215 129.699C470.793 129.301 470.258 129.031 469.609 128.891C469.125 128.781 468.176 128.727 466.762 128.727H465.203ZM481.527 134.352L478.539 133.812C478.875 132.609 479.453 131.719 480.273 131.141C481.094 130.562 482.312 130.273 483.93 130.273C485.398 130.273 486.492 130.449 487.211 130.801C487.93 131.145 488.434 131.586 488.723 132.125C489.02 132.656 489.168 133.637 489.168 135.066L489.133 138.91C489.133 140.004 489.184 140.812 489.285 141.336C489.395 141.852 489.594 142.406 489.883 143H486.625C486.539 142.781 486.434 142.457 486.309 142.027C486.254 141.832 486.215 141.703 486.191 141.641C485.629 142.188 485.027 142.598 484.387 142.871C483.746 143.145 483.062 143.281 482.336 143.281C481.055 143.281 480.043 142.934 479.301 142.238C478.566 141.543 478.199 140.664 478.199 139.602C478.199 138.898 478.367 138.273 478.703 137.727C479.039 137.172 479.508 136.75 480.109 136.461C480.719 136.164 481.594 135.906 482.734 135.688C484.273 135.398 485.34 135.129 485.934 134.879V134.551C485.934 133.918 485.777 133.469 485.465 133.203C485.152 132.93 484.562 132.793 483.695 132.793C483.109 132.793 482.652 132.91 482.324 133.145C481.996 133.371 481.73 133.773 481.527 134.352ZM485.934 137.023C485.512 137.164 484.844 137.332 483.93 137.527C483.016 137.723 482.418 137.914 482.137 138.102C481.707 138.406 481.492 138.793 481.492 139.262C481.492 139.723 481.664 140.121 482.008 140.457C482.352 140.793 482.789 140.961 483.32 140.961C483.914 140.961 484.48 140.766 485.02 140.375C485.418 140.078 485.68 139.715 485.805 139.285C485.891 139.004 485.934 138.469 485.934 137.68V137.023ZM492.121 143.82L495.883 144.277C495.945 144.715 496.09 145.016 496.316 145.18C496.629 145.414 497.121 145.531 497.793 145.531C498.652 145.531 499.297 145.402 499.727 145.145C500.016 144.973 500.234 144.695 500.383 144.312C500.484 144.039 500.535 143.535 500.535 142.801V140.984C499.551 142.328 498.309 143 496.809 143C495.137 143 493.812 142.293 492.836 140.879C492.07 139.762 491.688 138.371 491.688 136.707C491.688 134.621 492.188 133.027 493.188 131.926C494.195 130.824 495.445 130.273 496.938 130.273C498.477 130.273 499.746 130.949 500.746 132.301V130.555H503.828V141.723C503.828 143.191 503.707 144.289 503.465 145.016C503.223 145.742 502.883 146.312 502.445 146.727C502.008 147.141 501.422 147.465 500.688 147.699C499.961 147.934 499.039 148.051 497.922 148.051C495.812 148.051 494.316 147.688 493.434 146.961C492.551 146.242 492.109 145.328 492.109 144.219C492.109 144.109 492.113 143.977 492.121 143.82ZM495.062 136.52C495.062 137.84 495.316 138.809 495.824 139.426C496.34 140.035 496.973 140.34 497.723 140.34C498.527 140.34 499.207 140.027 499.762 139.402C500.316 138.77 500.594 137.836 500.594 136.602C500.594 135.312 500.328 134.355 499.797 133.73C499.266 133.105 498.594 132.793 497.781 132.793C496.992 132.793 496.34 133.102 495.824 133.719C495.316 134.328 495.062 135.262 495.062 136.52ZM514.305 139.039L517.586 139.59C517.164 140.793 516.496 141.711 515.582 142.344C514.676 142.969 513.539 143.281 512.172 143.281C510.008 143.281 508.406 142.574 507.367 141.16C506.547 140.027 506.137 138.598 506.137 136.871C506.137 134.809 506.676 133.195 507.754 132.031C508.832 130.859 510.195 130.273 511.844 130.273C513.695 130.273 515.156 130.887 516.227 132.113C517.297 133.332 517.809 135.203 517.762 137.727H509.512C509.535 138.703 509.801 139.465 510.309 140.012C510.816 140.551 511.449 140.82 512.207 140.82C512.723 140.82 513.156 140.68 513.508 140.398C513.859 140.117 514.125 139.664 514.305 139.039ZM514.492 135.711C514.469 134.758 514.223 134.035 513.754 133.543C513.285 133.043 512.715 132.793 512.043 132.793C511.324 132.793 510.73 133.055 510.262 133.578C509.793 134.102 509.562 134.812 509.57 135.711H514.492ZM531.777 143H528.484V136.648C528.484 135.305 528.414 134.438 528.273 134.047C528.133 133.648 527.902 133.34 527.582 133.121C527.27 132.902 526.891 132.793 526.445 132.793C525.875 132.793 525.363 132.949 524.91 133.262C524.457 133.574 524.145 133.988 523.973 134.504C523.809 135.02 523.727 135.973 523.727 137.363V143H520.434V130.555H523.492V132.383C524.578 130.977 525.945 130.273 527.594 130.273C528.32 130.273 528.984 130.406 529.586 130.672C530.188 130.93 530.641 131.262 530.945 131.668C531.258 132.074 531.473 132.535 531.59 133.051C531.715 133.566 531.777 134.305 531.777 135.266V143ZM533.969 139.449L537.273 138.945C537.414 139.586 537.699 140.074 538.129 140.41C538.559 140.738 539.16 140.902 539.934 140.902C540.785 140.902 541.426 140.746 541.855 140.434C542.145 140.215 542.289 139.922 542.289 139.555C542.289 139.305 542.211 139.098 542.055 138.934C541.891 138.777 541.523 138.633 540.953 138.5C538.297 137.914 536.613 137.379 535.902 136.895C534.918 136.223 534.426 135.289 534.426 134.094C534.426 133.016 534.852 132.109 535.703 131.375C536.555 130.641 537.875 130.273 539.664 130.273C541.367 130.273 542.633 130.551 543.461 131.105C544.289 131.66 544.859 132.48 545.172 133.566L542.066 134.141C541.934 133.656 541.68 133.285 541.305 133.027C540.938 132.77 540.41 132.641 539.723 132.641C538.855 132.641 538.234 132.762 537.859 133.004C537.609 133.176 537.484 133.398 537.484 133.672C537.484 133.906 537.594 134.105 537.812 134.27C538.109 134.488 539.133 134.797 540.883 135.195C542.641 135.594 543.867 136.082 544.562 136.66C545.25 137.246 545.594 138.062 545.594 139.109C545.594 140.25 545.117 141.23 544.164 142.051C543.211 142.871 541.801 143.281 539.934 143.281C538.238 143.281 536.895 142.938 535.902 142.25C534.918 141.562 534.273 140.629 533.969 139.449ZM566.582 143H563.523V141.172C563.016 141.883 562.414 142.414 561.719 142.766C561.031 143.109 560.336 143.281 559.633 143.281C558.203 143.281 556.977 142.707 555.953 141.559C554.938 140.402 554.43 138.793 554.43 136.73C554.43 134.621 554.926 133.02 555.918 131.926C556.91 130.824 558.164 130.273 559.68 130.273C561.07 130.273 562.273 130.852 563.289 132.008V125.82H566.582V143ZM557.793 136.508C557.793 137.836 557.977 138.797 558.344 139.391C558.875 140.25 559.617 140.68 560.57 140.68C561.328 140.68 561.973 140.359 562.504 139.719C563.035 139.07 563.301 138.105 563.301 136.824C563.301 135.395 563.043 134.367 562.527 133.742C562.012 133.109 561.352 132.793 560.547 132.793C559.766 132.793 559.109 133.105 558.578 133.73C558.055 134.348 557.793 135.273 557.793 136.508ZM577.047 139.039L580.328 139.59C579.906 140.793 579.238 141.711 578.324 142.344C577.418 142.969 576.281 143.281 574.914 143.281C572.75 143.281 571.148 142.574 570.109 141.16C569.289 140.027 568.879 138.598 568.879 136.871C568.879 134.809 569.418 133.195 570.496 132.031C571.574 130.859 572.938 130.273 574.586 130.273C576.438 130.273 577.898 130.887 578.969 132.113C580.039 133.332 580.551 135.203 580.504 137.727H572.254C572.277 138.703 572.543 139.465 573.051 140.012C573.559 140.551 574.191 140.82 574.949 140.82C575.465 140.82 575.898 140.68 576.25 140.398C576.602 140.117 576.867 139.664 577.047 139.039ZM577.234 135.711C577.211 134.758 576.965 134.035 576.496 133.543C576.027 133.043 575.457 132.793 574.785 132.793C574.066 132.793 573.473 133.055 573.004 133.578C572.535 134.102 572.305 134.812 572.312 135.711H577.234ZM585.66 134.352L582.672 133.812C583.008 132.609 583.586 131.719 584.406 131.141C585.227 130.562 586.445 130.273 588.062 130.273C589.531 130.273 590.625 130.449 591.344 130.801C592.062 131.145 592.566 131.586 592.855 132.125C593.152 132.656 593.301 133.637 593.301 135.066L593.266 138.91C593.266 140.004 593.316 140.812 593.418 141.336C593.527 141.852 593.727 142.406 594.016 143H590.758C590.672 142.781 590.566 142.457 590.441 142.027C590.387 141.832 590.348 141.703 590.324 141.641C589.762 142.188 589.16 142.598 588.52 142.871C587.879 143.145 587.195 143.281 586.469 143.281C585.188 143.281 584.176 142.934 583.434 142.238C582.699 141.543 582.332 140.664 582.332 139.602C582.332 138.898 582.5 138.273 582.836 137.727C583.172 137.172 583.641 136.75 584.242 136.461C584.852 136.164 585.727 135.906 586.867 135.688C588.406 135.398 589.473 135.129 590.066 134.879V134.551C590.066 133.918 589.91 133.469 589.598 133.203C589.285 132.93 588.695 132.793 587.828 132.793C587.242 132.793 586.785 132.91 586.457 133.145C586.129 133.371 585.863 133.773 585.66 134.352ZM590.066 137.023C589.645 137.164 588.977 137.332 588.062 137.527C587.148 137.723 586.551 137.914 586.27 138.102C585.84 138.406 585.625 138.793 585.625 139.262C585.625 139.723 585.797 140.121 586.141 140.457C586.484 140.793 586.922 140.961 587.453 140.961C588.047 140.961 588.613 140.766 589.152 140.375C589.551 140.078 589.812 139.715 589.938 139.285C590.023 139.004 590.066 138.469 590.066 137.68V137.023ZM596.559 143V125.82H599.852V143H596.559Z" fill="#006628"/>
<path d="M460.978 196.95L463.985 196.639C464.071 197.319 464.326 197.86 464.748 198.261C465.171 198.655 465.658 198.852 466.209 198.852C466.839 198.852 467.373 198.597 467.81 198.089C468.246 197.573 468.465 196.8 468.465 195.769C468.465 194.802 468.246 194.078 467.81 193.599C467.38 193.112 466.818 192.868 466.123 192.868C465.257 192.868 464.479 193.251 463.792 194.018L461.343 193.663L462.89 185.467H470.871V188.292H465.178L464.705 190.967C465.378 190.63 466.066 190.462 466.768 190.462C468.107 190.462 469.242 190.949 470.173 191.923C471.104 192.897 471.569 194.161 471.569 195.715C471.569 197.011 471.193 198.168 470.441 199.185C469.417 200.574 467.996 201.269 466.177 201.269C464.723 201.269 463.538 200.878 462.621 200.098C461.704 199.317 461.157 198.268 460.978 196.95ZM473.245 197.358L476.167 197.036C476.239 197.631 476.425 198.071 476.726 198.357C477.026 198.644 477.424 198.787 477.918 198.787C478.541 198.787 479.071 198.501 479.508 197.928C479.945 197.355 480.224 196.166 480.346 194.361C479.587 195.242 478.638 195.683 477.499 195.683C476.26 195.683 475.189 195.206 474.287 194.254C473.392 193.294 472.944 192.048 472.944 190.516C472.944 188.919 473.417 187.633 474.362 186.659C475.315 185.678 476.525 185.188 477.993 185.188C479.59 185.188 480.901 185.807 481.925 187.046C482.949 188.278 483.461 190.308 483.461 193.137C483.461 196.016 482.927 198.092 481.86 199.367C480.793 200.642 479.404 201.279 477.692 201.279C476.461 201.279 475.465 200.953 474.706 200.302C473.947 199.643 473.46 198.662 473.245 197.358ZM480.077 190.763C480.077 189.789 479.852 189.033 479.4 188.496C478.956 187.959 478.441 187.69 477.854 187.69C477.295 187.69 476.829 187.912 476.457 188.356C476.092 188.793 475.909 189.513 475.909 190.516C475.909 191.533 476.11 192.281 476.511 192.761C476.912 193.233 477.413 193.47 478.015 193.47C478.595 193.47 479.082 193.241 479.476 192.782C479.877 192.324 480.077 191.651 480.077 190.763ZM485.491 197.358L488.413 197.036C488.485 197.631 488.671 198.071 488.972 198.357C489.272 198.644 489.67 198.787 490.164 198.787C490.787 198.787 491.317 198.501 491.754 197.928C492.191 197.355 492.47 196.166 492.592 194.361C491.833 195.242 490.884 195.683 489.745 195.683C488.506 195.683 487.436 195.206 486.533 194.254C485.638 193.294 485.19 192.048 485.19 190.516C485.19 188.919 485.663 187.633 486.608 186.659C487.561 185.678 488.771 185.188 490.239 185.188C491.836 185.188 493.147 185.807 494.171 187.046C495.195 188.278 495.707 190.308 495.707 193.137C495.707 196.016 495.174 198.092 494.106 199.367C493.039 200.642 491.65 201.279 489.938 201.279C488.707 201.279 487.711 200.953 486.952 200.302C486.193 199.643 485.706 198.662 485.491 197.358ZM492.323 190.763C492.323 189.789 492.098 189.033 491.646 188.496C491.202 187.959 490.687 187.69 490.1 187.69C489.541 187.69 489.076 187.912 488.703 188.356C488.338 188.793 488.155 189.513 488.155 190.516C488.155 191.533 488.356 192.281 488.757 192.761C489.158 193.233 489.659 193.47 490.261 193.47C490.841 193.47 491.328 193.241 491.722 192.782C492.123 192.324 492.323 191.651 492.323 190.763ZM504.333 201V185.252H507.352V193.609L510.886 189.592H514.603L510.703 193.76L514.882 201H511.627L508.759 195.876L507.352 197.348V201H504.333ZM519.576 201H516.558V189.592H519.361V191.214C519.841 190.448 520.271 189.943 520.65 189.699C521.037 189.456 521.474 189.334 521.961 189.334C522.648 189.334 523.311 189.524 523.948 189.903L523.014 192.535C522.505 192.206 522.033 192.041 521.596 192.041C521.173 192.041 520.815 192.159 520.521 192.396C520.228 192.625 519.995 193.044 519.823 193.652C519.659 194.261 519.576 195.536 519.576 197.477V201Z" fill="#938FA8"/>
<path d="M460 195.223H523.669V196.318H460V195.223Z" fill="#938FA8"/>
<path d="M540.827 196.821L543.749 196.467C543.842 197.212 544.093 197.781 544.501 198.175C544.909 198.569 545.403 198.766 545.983 198.766C546.606 198.766 547.129 198.529 547.552 198.057C547.981 197.584 548.196 196.947 548.196 196.145C548.196 195.385 547.992 194.784 547.584 194.34C547.176 193.896 546.678 193.674 546.091 193.674C545.704 193.674 545.242 193.749 544.705 193.899L545.038 191.439C545.854 191.461 546.478 191.285 546.907 190.913C547.337 190.534 547.552 190.032 547.552 189.409C547.552 188.879 547.394 188.457 547.079 188.142C546.764 187.826 546.345 187.669 545.822 187.669C545.307 187.669 544.866 187.848 544.501 188.206C544.136 188.564 543.914 189.087 543.835 189.774L541.053 189.302C541.246 188.349 541.536 187.59 541.923 187.024C542.317 186.451 542.861 186.004 543.556 185.682C544.257 185.352 545.042 185.188 545.908 185.188C547.391 185.188 548.579 185.66 549.475 186.605C550.212 187.379 550.581 188.253 550.581 189.227C550.581 190.609 549.826 191.712 548.314 192.535C549.217 192.729 549.937 193.162 550.474 193.835C551.018 194.508 551.29 195.321 551.29 196.273C551.29 197.656 550.785 198.834 549.775 199.808C548.766 200.782 547.509 201.269 546.005 201.269C544.58 201.269 543.398 200.86 542.46 200.044C541.522 199.22 540.978 198.146 540.827 196.821ZM559.1 201V197.831H552.654V195.188L559.486 185.188H562.021V195.178H563.977V197.831H562.021V201H559.1ZM559.1 195.178V189.796L555.479 195.178H559.1ZM565.491 197.358L568.413 197.036C568.485 197.631 568.671 198.071 568.972 198.357C569.272 198.644 569.67 198.787 570.164 198.787C570.787 198.787 571.317 198.501 571.754 197.928C572.191 197.355 572.47 196.166 572.592 194.361C571.833 195.242 570.884 195.683 569.745 195.683C568.506 195.683 567.436 195.206 566.533 194.254C565.638 193.294 565.19 192.048 565.19 190.516C565.19 188.919 565.663 187.633 566.608 186.659C567.561 185.678 568.771 185.188 570.239 185.188C571.836 185.188 573.147 185.807 574.171 187.046C575.195 188.278 575.707 190.308 575.707 193.137C575.707 196.016 575.174 198.092 574.106 199.367C573.039 200.642 571.65 201.279 569.938 201.279C568.707 201.279 567.711 200.953 566.952 200.302C566.193 199.643 565.706 198.662 565.491 197.358ZM572.323 190.763C572.323 189.789 572.098 189.033 571.646 188.496C571.202 187.959 570.687 187.69 570.1 187.69C569.541 187.69 569.076 187.912 568.703 188.356C568.338 188.793 568.155 189.513 568.155 190.516C568.155 191.533 568.356 192.281 568.757 192.761C569.158 193.233 569.659 193.47 570.261 193.47C570.841 193.47 571.328 193.241 571.722 192.782C572.123 192.324 572.323 191.651 572.323 190.763ZM584.333 201V185.252H587.352V193.609L590.886 189.592H594.603L590.703 193.76L594.882 201H591.627L588.759 195.876L587.352 197.348V201H584.333ZM599.576 201H596.558V189.592H599.361V191.214C599.841 190.448 600.271 189.943 600.65 189.699C601.037 189.456 601.474 189.334 601.961 189.334C602.648 189.334 603.311 189.524 603.948 189.903L603.014 192.535C602.505 192.206 602.033 192.041 601.596 192.041C601.173 192.041 600.815 192.159 600.521 192.396C600.228 192.625 599.995 193.044 599.823 193.652C599.659 194.261 599.576 195.536 599.576 197.477V201Z" fill="#006628"/>
<rect x="460" y="223" width="394" height="4" fill="#938FA8"/>
<rect x="460" y="243" width="341" height="4" fill="#938FA8"/>
<path d="M461.172 281.547H465.75C466.656 281.547 467.331 281.586 467.773 281.664C468.221 281.737 468.62 281.893 468.969 282.133C469.323 282.372 469.617 282.693 469.852 283.094C470.086 283.49 470.203 283.935 470.203 284.43C470.203 284.966 470.057 285.458 469.766 285.906C469.479 286.354 469.089 286.69 468.594 286.914C469.292 287.117 469.828 287.464 470.203 287.953C470.578 288.443 470.766 289.018 470.766 289.68C470.766 290.201 470.643 290.708 470.398 291.203C470.159 291.693 469.828 292.086 469.406 292.383C468.99 292.674 468.474 292.854 467.859 292.922C467.474 292.964 466.544 292.99 465.07 293H461.172V281.547ZM463.484 283.453V286.102H465C465.901 286.102 466.461 286.089 466.68 286.062C467.076 286.016 467.385 285.88 467.609 285.656C467.839 285.427 467.953 285.128 467.953 284.758C467.953 284.404 467.854 284.117 467.656 283.898C467.464 283.674 467.174 283.539 466.789 283.492C466.56 283.466 465.901 283.453 464.812 283.453H463.484ZM463.484 288.008V291.07H465.625C466.458 291.07 466.987 291.047 467.211 291C467.555 290.938 467.833 290.786 468.047 290.547C468.266 290.302 468.375 289.977 468.375 289.57C468.375 289.227 468.292 288.935 468.125 288.695C467.958 288.456 467.716 288.281 467.398 288.172C467.086 288.062 466.404 288.008 465.352 288.008H463.484ZM477.516 290.359L479.703 290.727C479.422 291.529 478.977 292.141 478.367 292.562C477.763 292.979 477.005 293.188 476.094 293.188C474.651 293.188 473.583 292.716 472.891 291.773C472.344 291.018 472.07 290.065 472.07 288.914C472.07 287.539 472.43 286.464 473.148 285.688C473.867 284.906 474.776 284.516 475.875 284.516C477.109 284.516 478.083 284.924 478.797 285.742C479.51 286.555 479.852 287.802 479.82 289.484H474.32C474.336 290.135 474.513 290.643 474.852 291.008C475.19 291.367 475.612 291.547 476.117 291.547C476.461 291.547 476.75 291.453 476.984 291.266C477.219 291.078 477.396 290.776 477.516 290.359ZM477.641 288.141C477.625 287.505 477.461 287.023 477.148 286.695C476.836 286.362 476.456 286.195 476.008 286.195C475.529 286.195 475.133 286.37 474.82 286.719C474.508 287.068 474.354 287.542 474.359 288.141H477.641ZM480.844 290.633L483.047 290.297C483.141 290.724 483.331 291.049 483.617 291.273C483.904 291.492 484.305 291.602 484.82 291.602C485.388 291.602 485.815 291.497 486.102 291.289C486.294 291.143 486.391 290.948 486.391 290.703C486.391 290.536 486.339 290.398 486.234 290.289C486.125 290.185 485.88 290.089 485.5 290C483.729 289.609 482.607 289.253 482.133 288.93C481.477 288.482 481.148 287.859 481.148 287.062C481.148 286.344 481.432 285.74 482 285.25C482.568 284.76 483.448 284.516 484.641 284.516C485.776 284.516 486.62 284.701 487.172 285.07C487.724 285.44 488.104 285.987 488.312 286.711L486.242 287.094C486.154 286.771 485.984 286.523 485.734 286.352C485.49 286.18 485.138 286.094 484.68 286.094C484.102 286.094 483.688 286.174 483.438 286.336C483.271 286.451 483.188 286.599 483.188 286.781C483.188 286.938 483.26 287.07 483.406 287.18C483.604 287.326 484.286 287.531 485.453 287.797C486.625 288.062 487.443 288.388 487.906 288.773C488.365 289.164 488.594 289.708 488.594 290.406C488.594 291.167 488.276 291.82 487.641 292.367C487.005 292.914 486.065 293.188 484.82 293.188C483.69 293.188 482.794 292.958 482.133 292.5C481.477 292.042 481.047 291.419 480.844 290.633ZM490.445 293V281.547H492.641V287.625L495.211 284.703H497.914L495.078 287.734L498.117 293H495.75L493.664 289.273L492.641 290.344V293H490.445ZM501.531 293H499.336V284.703H501.375V285.883C501.724 285.326 502.036 284.958 502.312 284.781C502.594 284.604 502.911 284.516 503.266 284.516C503.766 284.516 504.247 284.654 504.711 284.93L504.031 286.844C503.661 286.604 503.318 286.484 503 286.484C502.693 286.484 502.432 286.57 502.219 286.742C502.005 286.909 501.836 287.214 501.711 287.656C501.591 288.099 501.531 289.026 501.531 290.438V293ZM505.664 283.578V281.547H507.859V283.578H505.664ZM505.664 293V284.703H507.859V293H505.664ZM512.398 293L509.055 284.703H511.359L512.922 288.938L513.375 290.352C513.495 289.992 513.57 289.755 513.602 289.641C513.674 289.406 513.753 289.172 513.836 288.938L515.414 284.703H517.672L514.375 293H512.398ZM523.828 290.359L526.016 290.727C525.734 291.529 525.289 292.141 524.68 292.562C524.076 292.979 523.318 293.188 522.406 293.188C520.964 293.188 519.896 292.716 519.203 291.773C518.656 291.018 518.383 290.065 518.383 288.914C518.383 287.539 518.742 286.464 519.461 285.688C520.18 284.906 521.089 284.516 522.188 284.516C523.422 284.516 524.396 284.924 525.109 285.742C525.823 286.555 526.164 287.802 526.133 289.484H520.633C520.648 290.135 520.826 290.643 521.164 291.008C521.503 291.367 521.924 291.547 522.43 291.547C522.773 291.547 523.062 291.453 523.297 291.266C523.531 291.078 523.708 290.776 523.828 290.359ZM523.953 288.141C523.938 287.505 523.773 287.023 523.461 286.695C523.148 286.362 522.768 286.195 522.32 286.195C521.841 286.195 521.445 286.37 521.133 286.719C520.82 287.068 520.667 287.542 520.672 288.141H523.953ZM527.93 293V281.547H530.125V293H527.93ZM531.609 290.633L533.812 290.297C533.906 290.724 534.096 291.049 534.383 291.273C534.669 291.492 535.07 291.602 535.586 291.602C536.154 291.602 536.581 291.497 536.867 291.289C537.06 291.143 537.156 290.948 537.156 290.703C537.156 290.536 537.104 290.398 537 290.289C536.891 290.185 536.646 290.089 536.266 290C534.495 289.609 533.372 289.253 532.898 288.93C532.242 288.482 531.914 287.859 531.914 287.062C531.914 286.344 532.198 285.74 532.766 285.25C533.333 284.76 534.214 284.516 535.406 284.516C536.542 284.516 537.385 284.701 537.938 285.07C538.49 285.44 538.87 285.987 539.078 286.711L537.008 287.094C536.919 286.771 536.75 286.523 536.5 286.352C536.255 286.18 535.904 286.094 535.445 286.094C534.867 286.094 534.453 286.174 534.203 286.336C534.036 286.451 533.953 286.599 533.953 286.781C533.953 286.938 534.026 287.07 534.172 287.18C534.37 287.326 535.052 287.531 536.219 287.797C537.391 288.062 538.208 288.388 538.672 288.773C539.13 289.164 539.359 289.708 539.359 290.406C539.359 291.167 539.042 291.82 538.406 292.367C537.771 292.914 536.831 293.188 535.586 293.188C534.456 293.188 533.56 292.958 532.898 292.5C532.242 292.042 531.812 291.419 531.609 290.633ZM546.094 290.359L548.281 290.727C548 291.529 547.555 292.141 546.945 292.562C546.341 292.979 545.583 293.188 544.672 293.188C543.229 293.188 542.161 292.716 541.469 291.773C540.922 291.018 540.648 290.065 540.648 288.914C540.648 287.539 541.008 286.464 541.727 285.688C542.445 284.906 543.354 284.516 544.453 284.516C545.688 284.516 546.661 284.924 547.375 285.742C548.089 286.555 548.43 287.802 548.398 289.484H542.898C542.914 290.135 543.091 290.643 543.43 291.008C543.768 291.367 544.19 291.547 544.695 291.547C545.039 291.547 545.328 291.453 545.562 291.266C545.797 291.078 545.974 290.776 546.094 290.359ZM546.219 288.141C546.203 287.505 546.039 287.023 545.727 286.695C545.414 286.362 545.034 286.195 544.586 286.195C544.107 286.195 543.711 286.37 543.398 286.719C543.086 287.068 542.932 287.542 542.938 288.141H546.219Z" fill="#938FA8"/>
<rect x="460" y="314" width="370" height="4" fill="#938FA8"/>
<rect x="460" y="334" width="387" height="4" fill="#938FA8"/>
<path d="M235 194C222.79 194 215.241 196.693 213.22 197.5C212.863 197.596 212.533 197.746 212.23 197.938C212.189 197.938 212.161 197.938 212.12 197.938C212.051 197.965 211.969 198.006 211.9 198.047C211.859 198.088 211.831 198.115 211.79 198.156C211.721 198.184 211.639 198.225 211.57 198.266C211.529 198.307 211.501 198.334 211.46 198.375C211.336 198.471 211.226 198.58 211.13 198.703C211.089 198.771 211.048 198.854 211.02 198.922C210.979 198.963 210.951 198.99 210.91 199.031C210.869 199.1 210.828 199.182 210.8 199.25L204.53 208.438L188.47 213.578C188.25 213.633 188.016 213.701 187.81 213.797C184.689 214.809 181.004 217.105 176.92 221.234C172.465 225.746 167.79 232.309 164.38 241.469C161.74 248.551 157.478 259.666 153.82 269.797C151.991 274.869 150.314 279.613 149.09 283.688C147.866 287.762 147 290.824 147 293.531V344.5C147 346.428 148.581 348 150.52 348H175.16C177.099 348 178.68 346.428 178.68 344.5V295.609C178.68 295.623 178.68 295.609 178.68 295.5C178.708 295.336 178.804 294.926 179.01 294.406C179.34 293.572 179.904 292.492 180.55 291.234C181.829 288.705 183.616 285.561 185.39 282.594C185.555 282.307 185.555 282.334 185.72 282.047V358.5C185.72 360.428 187.301 362 189.24 362H280.76C282.699 362 284.28 360.428 284.28 358.5L284.06 288.828V288.719L284.17 281.828C284.404 282.211 284.376 282.197 284.61 282.594C286.384 285.561 288.171 288.705 289.45 291.234C290.096 292.492 290.66 293.572 290.99 294.406C291.238 295.035 291.306 295.555 291.32 295.609V344.5C291.32 346.428 292.901 348 294.84 348H319.48C321.419 348 323 346.428 323 344.5V293.531C323 290.824 322.134 287.762 320.91 283.688C319.686 279.613 318.009 274.869 316.18 269.797C312.523 259.666 308.26 248.551 305.62 241.469C302.21 232.309 297.535 225.746 293.08 221.234C288.955 217.064 285.229 214.781 282.08 213.797C281.901 213.715 281.723 213.633 281.53 213.578L265.47 208.438L259.31 199.359C259.241 199.25 259.173 199.141 259.09 199.031C259.021 198.949 258.952 198.881 258.87 198.812C258.87 198.771 258.87 198.744 258.87 198.703C258.54 198.334 258.128 198.033 257.66 197.828C257.66 197.828 257.564 197.719 257.55 197.719C257.344 197.623 257.11 197.555 256.89 197.5C255.048 196.762 247.444 194 235 194ZM235 201C243.539 201 248.984 202.244 251.94 203.188C251.431 204.965 250.634 207.275 249.19 209.75C246.495 214.371 242.494 218.5 235 218.5C227.506 218.5 223.505 214.371 220.81 209.75C219.366 207.275 218.569 204.965 218.06 203.188C221.016 202.244 226.461 201 235 201ZM212.89 208.875C213.481 210.338 213.839 211.664 214.76 213.25C216.919 216.955 220.315 220.934 225.1 223.312L215.75 232.609L210.69 212.266L212.89 208.875ZM257.11 208.875L259.31 212.266L254.25 232.609L244.9 223.312C249.685 220.934 253.081 216.955 255.24 213.25C256.161 211.664 256.519 210.338 257.11 208.875ZM204.31 215.984L210.47 240.375C210.773 241.619 211.721 242.604 212.959 242.945C214.183 243.273 215.516 242.932 216.41 242.016L233.24 225.281C233.831 225.322 234.381 225.5 235 225.5C235.619 225.5 236.169 225.322 236.76 225.281L253.59 242.016C254.484 242.932 255.817 243.273 257.041 242.945C258.279 242.604 259.228 241.619 259.53 240.375L265.69 215.984L276.58 219.375C276.113 221.59 275.026 226.416 274.27 235.672C273.445 245.803 273.555 258.189 276.69 269.031C276.717 269.141 276.759 269.25 276.8 269.359C276.814 269.387 276.786 269.441 276.8 269.469C276.855 269.811 276.965 270.139 277.13 270.453C277.185 270.631 277.185 270.822 277.24 271L277.02 288.719L277.24 355H192.76V271.438C197.806 261.949 197.628 248.838 196.5 237.531C195.496 227.551 194.08 221.74 193.53 219.375L204.31 215.984ZM187.04 222.109C187.838 225.773 188.855 231.051 189.57 238.188C190.533 247.826 190.299 258.941 187.7 266.078C187.233 266.42 186.847 266.871 186.6 267.391C186.6 267.391 182.97 273.01 179.34 279.094C177.525 282.143 175.683 285.287 174.28 288.062C173.579 289.457 172.974 290.715 172.52 291.891C172.066 293.066 171.64 293.982 171.64 295.5V341H154.04V293.531C154.04 292.848 154.631 289.635 155.8 285.766C156.969 281.896 158.619 277.098 160.42 272.094C164.036 262.086 168.299 251.176 170.98 243.984C174.06 235.74 178.226 229.957 181.98 226.156C183.768 224.352 185.583 223.08 187.04 222.109ZM283.07 222.109C284.514 223.066 286.26 224.379 288.02 226.156C291.774 229.957 295.94 235.74 299.02 243.984C301.701 251.176 305.964 262.086 309.58 272.094C311.381 277.098 313.031 281.896 314.2 285.766C315.369 289.635 315.96 292.848 315.96 293.531V341H298.36V295.5C298.36 293.982 297.934 293.066 297.48 291.891C297.026 290.715 296.421 289.457 295.72 288.062C294.318 285.287 292.475 282.143 290.66 279.094C287.03 273.01 283.4 267.391 283.4 267.391C283.304 267.199 283.194 267.021 283.07 266.844C280.471 257.479 280.526 245.816 281.31 236.219C281.819 230.053 282.479 225.445 283.07 222.109Z" fill="#706B8B"/>
<g filter="url(#filter0_d)">
<rect x="460" y="378" width="220" height="44" rx="5" fill="#FF5B24"/>
</g>
<path d="M563.867 406V392.965H561.546V398.358H555.204V392.965H552.874V406H555.204V400.372H561.546V406H563.867ZM575.257 396.118H573.017V401.872C573.017 403.335 572.222 404.229 570.767 404.229C569.43 404.229 568.807 403.489 568.807 401.98V396.118H566.567V402.54C566.567 404.853 567.832 406.199 569.99 406.199C571.499 406.199 572.466 405.557 572.944 404.428H573.098V406H575.257V396.118ZM577.803 406H580.043V400.291C580.043 398.909 581.055 398.006 582.509 398.006C582.889 398.006 583.485 398.069 583.656 398.132V396.054C583.449 395.991 583.051 395.955 582.726 395.955C581.452 395.955 580.386 396.678 580.115 397.653H579.962V396.118H577.803V406ZM586.465 393.697V396.181H584.902V397.969H586.465V403.362C586.465 405.277 587.368 406.045 589.635 406.045C590.069 406.045 590.484 406 590.809 405.937V404.184C590.538 404.211 590.367 404.229 590.051 404.229C589.111 404.229 588.696 403.796 588.696 402.82V397.969H590.809V396.181H588.696V393.697H586.465ZM592.877 406H595.108V396.118H592.877V406ZM593.988 394.483C594.729 394.483 595.325 393.886 595.325 393.137C595.325 392.387 594.729 391.782 593.988 391.782C593.256 391.782 592.651 392.387 592.651 393.137C592.651 393.886 593.256 394.483 593.988 394.483ZM601.936 404.031C600.373 404.031 599.488 402.838 599.488 400.95C599.488 399.062 600.373 397.861 601.936 397.861C603.49 397.861 604.438 399.062 604.438 400.95C604.438 402.838 603.499 404.031 601.936 404.031ZM601.936 409.758C604.817 409.758 606.642 408.322 606.642 406.036V396.118H604.483V397.698H604.33C603.788 396.624 602.613 395.955 601.267 395.955C598.747 395.955 597.184 397.924 597.184 400.95C597.184 403.922 598.738 405.855 601.231 405.855C602.604 405.855 603.679 405.277 604.248 404.22H604.402V406.09C604.402 407.328 603.508 408.051 601.972 408.051C600.743 408.051 599.949 407.617 599.804 406.939H597.555C597.735 408.638 599.398 409.758 601.936 409.758ZM611.681 400.146H611.528V392.297H609.288V406H611.528V402.558L612.323 401.763L615.493 406H618.203L613.994 400.354L617.932 396.118H615.331L611.681 400.146ZM622.782 404.401C621.788 404.401 621.075 403.904 621.075 403.073C621.075 402.269 621.662 401.818 622.917 401.736L625.149 401.592V402.378C625.149 403.525 624.137 404.401 622.782 404.401ZM622.123 406.163C623.414 406.163 624.498 405.603 625.049 404.645H625.203V406H627.362V399.252C627.362 397.156 625.935 395.919 623.396 395.919C621.048 395.919 619.413 397.03 619.232 398.773H621.346C621.553 398.105 622.258 397.744 623.288 397.744C624.498 397.744 625.149 398.286 625.149 399.252V400.083L622.601 400.237C620.198 400.381 618.852 401.411 618.852 403.2C618.852 405.006 620.216 406.163 622.123 406.163ZM629.637 398.945C629.637 400.436 630.531 401.312 632.428 401.745L634.181 402.152C635.12 402.36 635.545 402.712 635.545 403.272C635.545 404.004 634.759 404.5 633.63 404.5C632.509 404.5 631.814 404.067 631.597 403.335H629.384C629.556 405.133 631.109 406.199 633.575 406.199C636.041 406.199 637.785 404.934 637.785 403.037C637.785 401.583 636.909 400.77 635.021 400.345L633.277 399.948C632.284 399.722 631.814 399.379 631.814 398.819C631.814 398.105 632.582 397.617 633.602 397.617C634.65 397.617 635.31 398.06 635.472 398.755H637.577C637.414 396.958 635.942 395.919 633.593 395.919C631.263 395.919 629.637 397.156 629.637 398.945ZM639.446 398.945C639.446 400.436 640.34 401.312 642.237 401.745L643.989 402.152C644.929 402.36 645.353 402.712 645.353 403.272C645.353 404.004 644.567 404.5 643.438 404.5C642.318 404.5 641.623 404.067 641.406 403.335H639.193C639.364 405.133 640.918 406.199 643.384 406.199C645.85 406.199 647.594 404.934 647.594 403.037C647.594 401.583 646.717 400.77 644.829 400.345L643.086 399.948C642.092 399.722 641.623 399.379 641.623 398.819C641.623 398.105 642.39 397.617 643.411 397.617C644.459 397.617 645.119 398.06 645.281 398.755H647.386C647.223 396.958 645.751 395.919 643.402 395.919C641.072 395.919 639.446 397.156 639.446 398.945ZM653.807 397.698C655.153 397.698 656.038 398.638 656.084 400.101H651.431C651.531 398.656 652.47 397.698 653.807 397.698ZM656.102 403.281C655.776 404.013 655.009 404.419 653.898 404.419C652.425 404.419 651.477 403.389 651.422 401.745V401.628H658.324V400.905C658.324 397.789 656.635 395.919 653.816 395.919C650.953 395.919 649.173 397.915 649.173 401.095C649.173 404.275 650.926 406.199 653.834 406.199C656.165 406.199 657.818 405.079 658.224 403.281H656.102Z" fill="white"/>
<path fill-rule="evenodd" clip-rule="evenodd" d="M545 397.838C544.28 395.091 542.531 394 540.145 394C538.211 394 535.784 395.091 535.784 397.717C535.784 399.414 536.957 400.748 538.869 401.091L540.68 401.414C541.914 401.636 542.264 402.101 542.264 402.727C542.264 403.434 541.503 403.838 540.371 403.838C538.89 403.838 537.965 403.313 537.82 401.838L535.208 402.242C535.619 405.091 538.17 406.263 540.474 406.263C542.655 406.263 544.979 405.01 544.979 402.485C544.979 400.768 543.93 399.515 541.976 399.151L539.98 398.788C538.869 398.586 538.499 398.04 538.499 397.515C538.499 396.848 539.219 396.424 540.207 396.424C541.462 396.424 542.346 396.848 542.387 398.242L545 397.838ZM486.925 402.161L489.64 394.303H492.828L488.097 405.959H485.731L481 394.303H484.188L486.925 402.161ZM503.608 397.636C503.608 398.566 502.868 399.212 502.004 399.212C501.14 399.212 500.399 398.566 500.399 397.636C500.399 396.707 501.14 396.061 502.004 396.061C502.868 396.061 503.609 396.707 503.609 397.636H503.608ZM504.102 401.758C503.032 403.131 501.901 404.081 499.905 404.081C497.869 404.081 496.285 402.869 495.051 401.091C494.557 400.364 493.796 400.202 493.24 400.586C492.726 400.95 492.603 401.717 493.076 402.384C494.783 404.95 497.149 406.444 499.905 406.444C502.436 406.444 504.411 405.232 505.953 403.212C506.529 402.465 506.509 401.697 505.953 401.273C505.439 400.868 504.678 401.01 504.102 401.758ZM511.2 400.101C511.2 402.485 512.599 403.738 514.162 403.738C515.643 403.738 517.166 402.566 517.166 400.101C517.166 397.676 515.643 396.505 514.183 396.505C512.599 396.505 511.2 397.616 511.2 400.101ZM511.2 395.919V394.323H508.3V410H511.2V404.424C512.167 405.717 513.422 406.263 514.841 406.263C517.495 406.263 520.087 404.202 520.087 399.96C520.087 395.899 517.392 394 515.088 394C513.257 394 512.002 394.828 511.2 395.919ZM525.128 400.101C525.128 402.485 526.526 403.738 528.09 403.738C529.571 403.738 531.093 402.566 531.093 400.101C531.093 397.676 529.571 396.505 528.11 396.505C526.526 396.505 525.127 397.616 525.127 400.101H525.128ZM525.128 395.919V394.323H525.127H522.227V410H525.127V404.424C526.094 405.717 527.349 406.263 528.768 406.263C531.422 406.263 534.014 404.202 534.014 399.96C534.014 395.899 531.319 394 529.015 394C527.184 394 525.93 394.828 525.128 395.919Z" fill="white"/>
<defs>
<filter id="filter0_d" x="458" y="377" width="224" height="48" filterUnits="userSpaceOnUse" color-interpolation-filters="sRGB">
<feFlood flood-opacity="0" result="BackgroundImageFix"/>
<feColorMatrix in="SourceAlpha" type="matrix" values="0 0 0 0 0 0 0 0 0 0 0 0 0 0 0 0 0 0 127 0"/>
<feOffset dy="1"/>
<feGaussianBlur stdDeviation="1"/>
<feColorMatrix type="matrix" values="0 0 0 0 0.0862745 0 0 0 0 0.0705882 0 0 0 0 0.145098 0 0 0 0.07 0"/>
<feBlend mode="normal" in2="BackgroundImageFix" result="effect1_dropShadow"/>
<feBlend mode="normal" in="SourceGraphic" in2="effect1_dropShadow" result="shape"/>
</filter>
</defs>
</svg>
