<?xml version="1.0" encoding="utf-8"?>
<!-- Generator: Adobe Illustrator 21.1.0, SVG Export Plug-In . SVG Version: 6.00 Build 0)  -->
<svg version="1.1" id="Layer_1" xmlns="http://www.w3.org/2000/svg" xmlns:xlink="http://www.w3.org/1999/xlink" x="0px" y="0px"
	 width="350px" height="400px" viewBox="0 0 350 400" style="enable-background:new 0 0 350 400;" xml:space="preserve">
<style type="text/css">
	.st0{fill:#FF6633;}
	.st1{fill:#FFFFFF;}
	.st2{fill:#49367E;}
	.st3{fill:none;}
</style>
<path class="st2" d="M29.9,24.3L35,39.2l5.1-14.9H46l-8.8,22.1h-4.4L24,24.3C24,24.3,29.9,24.3,29.9,24.3z"/>
<path class="st2" d="M59.2,42.9c3.7,0,5.8-1.8,7.8-4.4c1.1-1.4,2.5-1.7,3.5-0.9s1.1,2.3,0,3.7c-2.9,3.8-6.6,6.1-11.3,6.1
	c-5.1,0-9.6-2.8-12.7-7.7c-0.9-1.3-0.7-2.7,0.3-3.4s2.5-0.4,3.4,1C52.4,40.6,55.4,42.9,59.2,42.9z M66.1,30.6c0,1.8-1.4,3-3,3
	s-3-1.2-3-3s1.4-3,3-3S66.1,28.9,66.1,30.6z"/>
<path class="st2" d="M80.2,24.3v3c1.5-2.1,3.8-3.6,7.2-3.6c4.3,0,9.3,3.6,9.3,11.3c0,8.1-4.8,12-9.8,12c-2.6,0-5-1-6.8-3.5v10.6
	h-5.4V24.3H80.2z M80.2,35.3c0,4.5,2.6,6.9,5.5,6.9c2.8,0,5.6-2.2,5.6-6.9c0-4.6-2.8-6.8-5.6-6.8C82.8,28.5,80.2,30.6,80.2,35.3z"/>
<path class="st2" d="M106.2,24.3v3c1.5-2.1,3.8-3.6,7.2-3.6c4.3,0,9.3,3.6,9.3,11.3c0,8.1-4.8,12-9.8,12c-2.6,0-5-1-6.8-3.5v10.6
	h-5.4V24.3H106.2z M106.2,35.3c0,4.5,2.6,6.9,5.5,6.9c2.8,0,5.6-2.2,5.6-6.9c0-4.6-2.8-6.8-5.6-6.8
	C108.8,28.5,106.2,30.6,106.2,35.3z"/>
<path class="st2" d="M134.2,23.7c4.5,0,7.7,2.1,9.1,7.3l-4.9,0.8c-0.1-2.6-1.7-3.5-4.1-3.5c-1.8,0-3.2,0.8-3.2,2.1
	c0,1,0.7,2,2.8,2.4l3.7,0.7c3.6,0.7,5.6,3.1,5.6,6.3c0,4.8-4.3,7.2-8.4,7.2c-4.3,0-9.1-2.2-9.8-7.6l4.9-0.8c0.3,2.8,2,3.8,4.8,3.8
	c2.1,0,3.5-0.8,3.5-2.1c0-1.2-0.7-2.1-3-2.5l-3.4-0.6c-3.6-0.7-5.8-3.2-5.8-6.4C126.1,25.8,130.6,23.7,134.2,23.7z"/>
<path class="st2" d="M29.9,70.3L35,85.2l5.1-14.9H46l-8.8,22.1h-4.4L24,70.3H29.9z"/>
<path class="st2" d="M58,87.9c-3.7,0-5.8,1.8-7.8,4.4c-1.1,1.4-2.5,1.6-3.5,0.9c-1-0.8-1.1-2.3,0-3.7c2.9-3.8,6.6-6.1,11.3-6.1
	c5.1,0,9.6,2.8,12.7,7.7c0.9,1.3,0.7,2.8-0.3,3.5s-2.5,0.4-3.4-1C64.8,90.2,61.8,87.9,58,87.9z M66.1,76.7c0,1.8-1.4,3-3,3
	s-3-1.2-3-3s1.4-3,3-3S66.1,74.9,66.1,76.7z"/>
<path class="st2" d="M80.2,70.4v3c1.5-2.1,3.8-3.6,7.2-3.6c4.3,0,9.3,3.6,9.3,11.3c0,8.1-4.8,12-9.8,12c-2.6,0-5-1-6.8-3.5v10.5
	h-5.4V70.3h5.5V70.4z M80.2,81.3c0,4.5,2.6,6.9,5.5,6.9c2.8,0,5.6-2.2,5.6-6.9c0-4.6-2.8-6.8-5.6-6.8C82.8,74.5,80.2,76.6,80.2,81.3
	z"/>
<path class="st2" d="M106.2,70.4v3c1.5-2.1,3.8-3.6,7.2-3.6c4.3,0,9.3,3.6,9.3,11.3c0,8.1-4.8,12-9.8,12c-2.6,0-5-1-6.8-3.5v10.5
	h-5.4V70.3h5.5V70.4z M106.2,81.3c0,4.5,2.6,6.9,5.5,6.9c2.8,0,5.6-2.2,5.6-6.9c0-4.6-2.8-6.8-5.6-6.8
	C108.8,74.5,106.2,76.6,106.2,81.3z"/>
<path class="st2" d="M134.2,69.8c4.5,0,7.7,2.1,9.1,7.3l-4.9,0.8c-0.1-2.6-1.7-3.5-4.1-3.5c-1.8,0-3.2,0.8-3.2,2.1
	c0,1,0.7,2,2.8,2.4l3.7,0.7c3.6,0.7,5.6,3.1,5.6,6.3c0,4.8-4.3,7.2-8.4,7.2c-4.3,0-9.1-2.2-9.8-7.6l4.9-0.8c0.3,2.8,2,3.8,4.8,3.8
	c2.1,0,3.5-0.8,3.5-2.1c0-1.2-0.7-2.1-3-2.5l-3.4-0.6c-3.6-0.7-5.8-3.2-5.8-6.4C126.1,71.8,130.6,69.8,134.2,69.8z"/>
<path class="st2" d="M29.9,116.4l5.1,14.9l5.1-14.9H46l-8.8,22.1h-4.4L24,116.4H29.9z"/>
<path class="st2" d="M66.8,137.2c0,4.4-3.6,8-8,8s-8-3.6-8-8s3.6-8,8-8S66.8,132.8,66.8,137.2z M55.2,137.2c0,2.1,1.6,3.6,3.6,3.6
	s3.6-1.6,3.6-3.6s-1.6-3.6-3.6-3.6C56.9,133.6,55.2,135.1,55.2,137.2z M66.1,122.7c0,1.8-1.4,3-3,3s-3-1.2-3-3s1.4-3,3-3
	S66.1,120.9,66.1,122.7z"/>
<path class="st2" d="M80.2,116.4v3c1.5-2.1,3.8-3.6,7.2-3.6c4.3,0,9.3,3.6,9.3,11.3c0,8.1-4.8,12-9.8,12c-2.6,0-5-1-6.8-3.5v10.6
	h-5.4v-29.8H80.2z M80.2,127.4c0,4.5,2.6,6.9,5.5,6.9c2.8,0,5.6-2.2,5.6-6.9c0-4.6-2.8-6.8-5.6-6.8
	C82.8,120.5,80.2,122.6,80.2,127.4z"/>
<path class="st2" d="M106.2,116.4v3c1.5-2.1,3.8-3.6,7.2-3.6c4.3,0,9.3,3.6,9.3,11.3c0,8.1-4.8,12-9.8,12c-2.6,0-5-1-6.8-3.5v10.6
	h-5.4v-29.8H106.2z M106.2,127.4c0,4.5,2.6,6.9,5.5,6.9c2.8,0,5.6-2.2,5.6-6.9c0-4.6-2.8-6.8-5.6-6.8
	C108.8,120.5,106.2,122.6,106.2,127.4z"/>
<path class="st2" d="M134.2,115.8c4.5,0,7.7,2.1,9.1,7.3l-4.9,0.8c-0.1-2.6-1.7-3.5-4.1-3.5c-1.8,0-3.2,0.8-3.2,2.1
	c0,1,0.7,2,2.8,2.4l3.7,0.7c3.6,0.7,5.6,3.1,5.6,6.3c0,4.8-4.3,7.2-8.4,7.2c-4.3,0-9.1-2.2-9.8-7.6l4.9-0.8c0.3,2.8,2,3.8,4.8,3.8
	c2.1,0,3.5-0.8,3.5-2.1c0-1.2-0.7-2.1-3-2.5l-3.4-0.6c-3.6-0.7-5.8-3.2-5.8-6.4C126.1,117.9,130.6,115.8,134.2,115.8z"/>
<path class="st2" d="M29.9,162.4l5.1,14.9l5.1-14.9H46l-8.8,22.1h-4.4L24,162.4H29.9z"/>
<path class="st2" d="M67.6,177.1c1.8,0,2.6,1,2.6,2.2s-0.8,2.2-2.6,2.2H48.5c-1.8,0-2.6-1-2.6-2.2s0.8-2.2,2.6-2.2H67.6z
	 M66.1,168.7c0,1.8-1.3,3-3,3s-3-1.2-3-3s1.3-3,3-3S66.1,166.9,66.1,168.7z"/>
<path class="st2" d="M80.2,162.4v3c1.5-2.1,3.8-3.6,7.2-3.6c4.3,0,9.3,3.6,9.3,11.3c0,8.1-4.8,12-9.8,12c-2.6,0-5-1-6.8-3.5v10.6
	h-5.4v-29.8H80.2z M80.2,173.4c0,4.5,2.6,6.9,5.5,6.9c2.8,0,5.6-2.2,5.6-6.9c0-4.6-2.8-6.8-5.6-6.8
	C82.8,166.6,80.2,168.7,80.2,173.4z"/>
<path class="st2" d="M106.2,162.4v3c1.5-2.1,3.8-3.6,7.2-3.6c4.3,0,9.3,3.6,9.3,11.3c0,8.1-4.8,12-9.8,12c-2.6,0-5-1-6.8-3.5v10.6
	h-5.4v-29.8H106.2z M106.2,173.4c0,4.5,2.6,6.9,5.5,6.9c2.8,0,5.6-2.2,5.6-6.9c0-4.6-2.8-6.8-5.6-6.8
	C108.8,166.6,106.2,168.7,106.2,173.4z"/>
<path class="st2" d="M134.2,161.8c4.5,0,7.7,2.1,9.1,7.3l-4.9,0.8c-0.1-2.6-1.7-3.5-4.1-3.5c-1.8,0-3.2,0.8-3.2,2.1
	c0,1,0.7,2,2.8,2.4l3.7,0.7c3.6,0.7,5.6,3.1,5.6,6.3c0,4.8-4.3,7.2-8.4,7.2c-4.3,0-9.1-2.2-9.8-7.6l4.9-0.8c0.3,2.8,2,3.8,4.8,3.8
	c2.1,0,3.5-0.8,3.5-2.1c0-1.2-0.7-2.1-3-2.5l-3.4-0.6c-3.6-0.7-5.8-3.2-5.8-6.4C126.1,163.9,130.6,161.8,134.2,161.8z"/>
<path class="st2" d="M29.9,208.4l5.1,14.9l5.1-14.9H46l-8.8,22.1h-4.4L24,208.4H29.9z"/>
<path class="st2" d="M64.2,226.2c1.6-0.3,3,0.3,3.2,1.5c0.2,1.3-0.6,2.5-2.2,2.8c-7.5,1.6-13.5-1.9-16.7-9.9c-0.6-1.5-0.2-2.8,1-3.3
	c1.3-0.5,2.6,0.1,3.1,1.5C54.9,224.6,58.9,227.4,64.2,226.2z M66.1,214.7c0,1.8-1.4,3-3,3s-3-1.2-3-3s1.4-3,3-3S66.1,213,66.1,214.7
	z"/>
<path class="st2" d="M80.2,208.5v3c1.5-2.1,3.8-3.6,7.2-3.6c4.3,0,9.3,3.6,9.3,11.3c0,8.1-4.8,12-9.8,12c-2.6,0-5-1-6.8-3.5v10.6
	h-5.4v-29.8H80.2z M80.2,219.4c0,4.5,2.6,6.9,5.5,6.9c2.8,0,5.6-2.2,5.6-6.9c0-4.6-2.8-6.8-5.6-6.8
	C82.8,212.6,80.2,214.7,80.2,219.4z"/>
<path class="st2" d="M106.2,208.5v3c1.5-2.1,3.8-3.6,7.2-3.6c4.3,0,9.3,3.6,9.3,11.3c0,8.1-4.8,12-9.8,12c-2.6,0-5-1-6.8-3.5v10.6
	h-5.4v-29.8H106.2z M106.2,219.4c0,4.5,2.6,6.9,5.5,6.9c2.8,0,5.6-2.2,5.6-6.9c0-4.6-2.8-6.8-5.6-6.8
	C108.8,212.6,106.2,214.7,106.2,219.4z"/>
<path class="st2" d="M134.2,207.8c4.5,0,7.7,2.1,9.1,7.3l-4.9,0.8c-0.1-2.6-1.7-3.5-4.1-3.5c-1.8,0-3.2,0.8-3.2,2.1
	c0,1,0.7,2,2.8,2.4l3.7,0.7c3.6,0.7,5.6,3.1,5.6,6.3c0,4.8-4.3,7.2-8.4,7.2c-4.3,0-9.1-2.2-9.8-7.6l4.9-0.8c0.3,2.8,2,3.8,4.8,3.8
	c2.1,0,3.5-0.8,3.5-2.1c0-1.2-0.7-2.1-3-2.5l-3.4-0.6c-3.6-0.7-5.8-3.2-5.8-6.4C126.1,209.9,130.6,207.8,134.2,207.8z"/>
<path class="st2" d="M29.9,254.4l5.1,14.9l5.1-14.9H46l-8.8,22.1h-4.4L24,254.4H29.9z"/>
<path class="st2" d="M46.7,266.4c1-0.7,2.5-0.4,3.4,1c2.3,3.4,5.3,5.7,9.1,5.7c3.7,0,5.8-1.8,7.8-4.4c1.1-1.4,2.5-1.7,3.5-0.9
	c1,0.8,1.1,2.3,0,3.7c-2.9,3.8-6.3,6.1-11.3,6.1c-5.1,0-9.6-2.8-12.7-7.7C45.5,268.5,45.8,267.1,46.7,266.4z M64.1,259.7
	c-0.3,0.1-0.3,0.4,0,0.5l2.5,0.3c1.5,0.2,2.1,1.3,1.9,2.4c-0.3,1.2-1.3,1.8-2.9,1.4l-5.6-1.4c-1.7-0.4-2.2-1.3-2.2-2.3
	c0-0.8,0.4-1.5,1.7-2.2l4.8-2.6c1.8-1,3.2-0.7,3.8,0.3c0.6,1.2,0,2.4-1.3,2.8L64.1,259.7z"/>
<path class="st2" d="M80.2,254.5v3c1.5-2.1,3.8-3.6,7.2-3.6c4.3,0,9.3,3.6,9.3,11.3c0,8.1-4.8,12-9.8,12c-2.6,0-5-1-6.8-3.5v10.6
	h-5.4v-29.8H80.2z M80.2,265.5c0,4.5,2.6,6.9,5.5,6.9c2.8,0,5.6-2.2,5.6-6.9c0-4.6-2.8-6.8-5.6-6.8
	C82.8,258.6,80.2,260.7,80.2,265.5z"/>
<path class="st2" d="M106.2,254.5v3c1.5-2.1,3.8-3.6,7.2-3.6c4.3,0,9.3,3.6,9.3,11.3c0,8.1-4.8,12-9.8,12c-2.6,0-5-1-6.8-3.5v10.6
	h-5.4v-29.8H106.2z M106.2,265.5c0,4.5,2.6,6.9,5.5,6.9c2.8,0,5.6-2.2,5.6-6.9c0-4.6-2.8-6.8-5.6-6.8
	C108.8,258.6,106.2,260.7,106.2,265.5z"/>
<path class="st2" d="M134.2,253.9c4.5,0,7.7,2.1,9.1,7.3l-4.9,0.8c-0.1-2.6-1.7-3.5-4.1-3.5c-1.8,0-3.2,0.8-3.2,2.1
	c0,1,0.7,2,2.8,2.4l3.7,0.7c3.6,0.7,5.6,3.1,5.6,6.3c0,4.8-4.3,7.2-8.4,7.2c-4.3,0-9.1-2.2-9.8-7.6l4.9-0.8c0.3,2.8,2,3.8,4.8,3.8
	c2.1,0,3.5-0.8,3.5-2.1c0-1.2-0.7-2.1-3-2.5l-3.4-0.6c-3.6-0.7-5.8-3.2-5.8-6.4C126.1,255.9,130.6,253.9,134.2,253.9z"/>
<path class="st2" d="M29.9,300.5l5.1,14.9l5.1-14.9H46l-8.8,22.1h-4.4L24,300.5H29.9z"/>
<path class="st2" d="M63.3,318.1c0,1.3-0.6,2.5-2.2,3.6c1.6,1.1,2.2,2.4,2.2,3.9c0,3.3-3.3,4.8-6.5,4.8c-2.1,0-3.4-1-3.4-2.3
	c0-1.1,0.9-2,2.3-2h1.5c1,0,2-0.1,2-1.2c0-1-1.1-1.1-2.1-1.1h-1.4c-1.5,0-2.2-1-2.2-2s0.8-2,2.2-2h1.4c1,0,2.1-0.1,2.1-1.1
	c0-1.2-1-1.2-2-1.2h-1.5c-1.4,0-2.2-0.8-2.2-2.1c0-1.3,1.3-2.3,3.4-2.3C59.9,313,63.3,314.2,63.3,318.1z M66.1,306.8
	c0,1.8-1.4,3-3,3s-3-1.2-3-3s1.4-3,3-3S66.1,305,66.1,306.8z"/>
<path class="st2" d="M80.2,300.5v3c1.5-2.1,3.8-3.6,7.2-3.6c4.3,0,9.3,3.6,9.3,11.3c0,8.1-4.8,12-9.8,12c-2.6,0-5-1-6.8-3.5v10.6
	h-5.4v-29.8H80.2z M80.2,311.5c0,4.5,2.6,6.9,5.5,6.9c2.8,0,5.6-2.2,5.6-6.9c0-4.6-2.8-6.8-5.6-6.8
	C82.8,304.7,80.2,306.8,80.2,311.5z"/>
<path class="st2" d="M106.2,300.5v3c1.5-2.1,3.8-3.6,7.2-3.6c4.3,0,9.3,3.6,9.3,11.3c0,8.1-4.8,12-9.8,12c-2.6,0-5-1-6.8-3.5v10.6
	h-5.4v-29.8H106.2z M106.2,311.5c0,4.5,2.6,6.9,5.5,6.9c2.8,0,5.6-2.2,5.6-6.9c0-4.6-2.8-6.8-5.6-6.8
	C108.8,304.7,106.2,306.8,106.2,311.5z"/>
<path class="st2" d="M134.2,299.9c4.5,0,7.7,2.1,9.1,7.3l-4.9,0.8c-0.1-2.6-1.7-3.5-4.1-3.5c-1.8,0-3.2,0.8-3.2,2.1
	c0,1,0.7,2,2.8,2.4l3.7,0.7c3.6,0.7,5.6,3.1,5.6,6.3c0,4.8-4.3,7.2-8.4,7.2c-4.3,0-9.1-2.2-9.8-7.6l4.9-0.8c0.3,2.8,2,3.8,4.8,3.8
	c2.1,0,3.5-0.8,3.5-2.1c0-1.2-0.7-2.1-3-2.5l-3.4-0.6c-3.6-0.7-5.8-3.2-5.8-6.4C126.1,302,130.6,299.9,134.2,299.9z"/>
<path class="st2" d="M212.5,24.3l5.1,14.9l5.1-14.9h5.9l-8.8,22.1h-4.4l-8.8-22.1C206.6,24.3,212.5,24.3,212.5,24.3z"/>
<path class="st2" d="M243.4,41.3c2.1,0,3.6-0.4,4.5-0.9c1.6-0.8,3-0.7,3.6,0.4c0.7,1.1,0.3,2.6-1.6,3.6c-1.7,0.8-3,1.3-6.6,1.3
	c-4.9,0-9.9-1.4-12.9-4.3c-1.2-1.1-1.3-2.5-0.5-3.5c0.9-0.9,2.4-0.8,3.7,0.3C235.5,39.9,239.8,41.3,243.4,41.3z M248.8,30.6
	c0,1.8-1.4,3-3,3s-3-1.2-3-3s1.4-3,3-3S248.8,28.9,248.8,30.6z"/>
<path class="st2" d="M262.9,24.3v3c1.5-2.1,3.8-3.6,7.2-3.6c4.3,0,9.3,3.6,9.3,11.3c0,8.1-4.8,12-9.8,12c-2.6,0-5-1-6.8-3.5v10.6
	h-5.4V24.3H262.9z M262.9,35.3c0,4.5,2.6,6.9,5.5,6.9c2.8,0,5.6-2.2,5.6-6.9c0-4.6-2.8-6.8-5.6-6.8
	C265.5,28.5,262.9,30.6,262.9,35.3z"/>
<path class="st2" d="M288.9,24.3v3c1.5-2.1,3.8-3.6,7.2-3.6c4.3,0,9.3,3.6,9.3,11.3c0,8.1-4.8,12-9.8,12c-2.6,0-5-1-6.8-3.5v10.6
	h-5.4V24.3H288.9z M288.9,35.3c0,4.5,2.6,6.9,5.5,6.9c2.8,0,5.6-2.2,5.6-6.9c0-4.6-2.8-6.8-5.6-6.8
	C291.4,28.5,288.9,30.6,288.9,35.3z"/>
<path class="st2" d="M316.9,23.7c4.5,0,7.7,2.1,9.1,7.3l-4.9,0.8c-0.1-2.6-1.7-3.5-4.1-3.5c-1.8,0-3.2,0.8-3.2,2.1
	c0,1,0.7,2,2.8,2.4l3.7,0.7c3.6,0.7,5.6,3.1,5.6,6.3c0,4.8-4.3,7.2-8.4,7.2c-4.3,0-9.1-2.2-9.8-7.6l4.9-0.8c0.3,2.8,2,3.8,4.8,3.8
	c2.1,0,3.5-0.8,3.5-2.1c0-1.2-0.7-2.1-3-2.5l-3.4-0.6c-3.6-0.7-5.8-3.2-5.8-6.4C308.8,25.8,313.2,23.7,316.9,23.7z"/>
<path class="st2" d="M212.5,70.3l5.1,14.9l5.1-14.9h5.9l-8.8,22.1h-4.4l-8.8-22.1H212.5z"/>
<path class="st2" d="M241.9,88.2c3.7,0,5.7-1.1,7.7-3.5c1.2-1.5,2.6-1.8,3.6-1.1c1.1,0.9,1,2.4-0.1,3.8c-1.5,1.8-3,3.1-4.9,4
	c-1.2,5.7-4.9,8.4-9.2,8.4c-4.6,0-7.3-3.2-7.3-6.5c0-1.2,0.3-2.4,0.9-3.8c-1.2-1-2.4-2.2-3.4-3.8c-0.9-1.4-0.7-2.7,0.3-3.5
	c1-0.7,2.4-0.4,3.4,1C235.1,86.5,238,88.2,241.9,88.2z M239.4,95.7c2.1,0,3.6-1.3,4.2-3.3c-0.5,0-1.2,0.1-1.8,0.1
	c-2,0-3.9-0.3-5.6-0.9c-0.2,0.5-0.3,0.9-0.3,1.4C235.9,94.6,237,95.7,239.4,95.7z M248.8,76.7c0,1.8-1.4,3-3,3s-3-1.2-3-3s1.4-3,3-3
	S248.8,74.9,248.8,76.7z"/>
<path class="st2" d="M262.9,70.4v3c1.5-2.1,3.8-3.6,7.2-3.6c4.3,0,9.3,3.6,9.3,11.3c0,8.1-4.8,12-9.8,12c-2.6,0-5-1-6.8-3.5v10.5
	h-5.4V70.3h5.5L262.9,70.4L262.9,70.4z M262.9,81.3c0,4.5,2.6,6.9,5.5,6.9c2.8,0,5.6-2.2,5.6-6.9c0-4.6-2.8-6.8-5.6-6.8
	C265.5,74.5,262.9,76.6,262.9,81.3z"/>
<path class="st2" d="M288.9,70.4v3c1.5-2.1,3.8-3.6,7.2-3.6c4.3,0,9.3,3.6,9.3,11.3c0,8.1-4.8,12-9.8,12c-2.6,0-5-1-6.8-3.5v10.5
	h-5.4V70.3h5.5L288.9,70.4L288.9,70.4z M288.9,81.3c0,4.5,2.6,6.9,5.5,6.9c2.8,0,5.6-2.2,5.6-6.9c0-4.6-2.8-6.8-5.6-6.8
	C291.4,74.5,288.9,76.6,288.9,81.3z"/>
<path class="st2" d="M316.9,69.8c4.5,0,7.7,2.1,9.1,7.3l-4.9,0.8c-0.1-2.6-1.7-3.5-4.1-3.5c-1.8,0-3.2,0.8-3.2,2.1
	c0,1,0.7,2,2.8,2.4l3.7,0.7c3.6,0.7,5.6,3.1,5.6,6.3c0,4.8-4.3,7.2-8.4,7.2c-4.3,0-9.1-2.2-9.8-7.6l4.9-0.8c0.3,2.8,2,3.8,4.8,3.8
	c2.1,0,3.5-0.8,3.5-2.1c0-1.2-0.7-2.1-3-2.5l-3.4-0.6c-3.6-0.7-5.8-3.2-5.8-6.4C308.8,71.8,313.2,69.8,316.9,69.8z"/>
<path class="st2" d="M212.5,116.4l5.1,14.9l5.1-14.9h5.9l-8.8,22.1h-4.4l-8.8-22.1H212.5z"/>
<path class="st2" d="M250.4,131c1.8,0,2.6,1,2.6,2.2s-0.8,2.2-2.6,2.2h-4.3v3.2c0,2.9-2,6.7-6.7,6.7s-6.7-3.8-6.7-6.7v-3.2h-1.5
	c-1.8,0-2.6-1-2.6-2.2s0.8-2.2,2.6-2.2H250.4z M239.4,141c1.6,0,2.3-1.1,2.3-2.3v-3.2h-4.5v3.2C237.1,139.9,237.8,141,239.4,141z
	 M248.8,122.7c0,1.8-1.4,3-3,3s-3-1.2-3-3s1.4-3,3-3S248.8,120.9,248.8,122.7z"/>
<path class="st2" d="M262.9,116.4v3c1.5-2.1,3.8-3.6,7.2-3.6c4.3,0,9.3,3.6,9.3,11.3c0,8.1-4.8,12-9.8,12c-2.6,0-5-1-6.8-3.5v10.6
	h-5.4v-29.8H262.9z M262.9,127.4c0,4.5,2.6,6.9,5.5,6.9c2.8,0,5.6-2.2,5.6-6.9c0-4.6-2.8-6.8-5.6-6.8
	C265.5,120.5,262.9,122.6,262.9,127.4z"/>
<path class="st2" d="M288.9,116.4v3c1.5-2.1,3.8-3.6,7.2-3.6c4.3,0,9.3,3.6,9.3,11.3c0,8.1-4.8,12-9.8,12c-2.6,0-5-1-6.8-3.5v10.6
	h-5.4v-29.8H288.9z M288.9,127.4c0,4.5,2.6,6.9,5.5,6.9c2.8,0,5.6-2.2,5.6-6.9c0-4.6-2.8-6.8-5.6-6.8
	C291.4,120.5,288.9,122.6,288.9,127.4z"/>
<path class="st2" d="M316.9,115.8c4.5,0,7.7,2.1,9.1,7.3l-4.9,0.8c-0.1-2.6-1.7-3.5-4.1-3.5c-1.8,0-3.2,0.8-3.2,2.1
	c0,1,0.7,2,2.8,2.4l3.7,0.7c3.6,0.7,5.6,3.1,5.6,6.3c0,4.8-4.3,7.2-8.4,7.2c-4.3,0-9.1-2.2-9.8-7.6l4.9-0.8c0.3,2.8,2,3.8,4.8,3.8
	c2.1,0,3.5-0.8,3.5-2.1c0-1.2-0.7-2.1-3-2.5l-3.4-0.6c-3.6-0.7-5.8-3.2-5.8-6.4C308.8,117.9,313.2,115.8,316.9,115.8z"/>
<path class="st2" d="M212.5,162.4l5.1,14.9l5.1-14.9h5.9l-8.8,22.1h-4.4l-8.8-22.1H212.5z"/>
<path class="st2" d="M250.5,179.5c1.7,0.5,2.2,1.6,1.9,2.8c-0.3,1.1-1.4,2-3.1,1.5l-17.1-4.3c-1.7-0.5-2.2-1.7-1.9-2.9
	c0.3-1.1,1.4-1.9,3.1-1.5L250.5,179.5z M248.8,168.7c0,1.8-1.4,3-3,3s-3-1.2-3-3s1.4-3,3-3S248.8,166.9,248.8,168.7z"/>
<path class="st2" d="M262.9,162.4v3c1.5-2.1,3.8-3.6,7.2-3.6c4.3,0,9.3,3.6,9.3,11.3c0,8.1-4.8,12-9.8,12c-2.6,0-5-1-6.8-3.5v10.6
	h-5.4v-29.8H262.9z M262.9,173.4c0,4.5,2.6,6.9,5.5,6.9c2.8,0,5.6-2.2,5.6-6.9c0-4.6-2.8-6.8-5.6-6.8
	C265.5,166.6,262.9,168.7,262.9,173.4z"/>
<path class="st2" d="M288.9,162.4v3c1.5-2.1,3.8-3.6,7.2-3.6c4.3,0,9.3,3.6,9.3,11.3c0,8.1-4.8,12-9.8,12c-2.6,0-5-1-6.8-3.5v10.6
	h-5.4v-29.8H288.9z M288.9,173.4c0,4.5,2.6,6.9,5.5,6.9c2.8,0,5.6-2.2,5.6-6.9c0-4.6-2.8-6.8-5.6-6.8
	C291.4,166.6,288.9,168.7,288.9,173.4z"/>
<path class="st2" d="M316.9,161.8c4.5,0,7.7,2.1,9.1,7.3l-4.9,0.8c-0.1-2.6-1.7-3.5-4.1-3.5c-1.8,0-3.2,0.8-3.2,2.1
	c0,1,0.7,2,2.8,2.4l3.7,0.7c3.6,0.7,5.6,3.1,5.6,6.3c0,4.8-4.3,7.2-8.4,7.2c-4.3,0-9.1-2.2-9.8-7.6l4.9-0.8c0.3,2.8,2,3.8,4.8,3.8
	c2.1,0,3.5-0.8,3.5-2.1c0-1.2-0.7-2.1-3-2.5l-3.4-0.6c-3.6-0.7-5.8-3.2-5.8-6.4C308.8,163.9,313.2,161.8,316.9,161.8z"/>
<path class="st2" d="M212.5,208.4l5.1,14.9l5.1-14.9h5.9l-8.8,22.1h-4.4l-8.8-22.1H212.5z"/>
<path class="st2" d="M250.2,223.1c1.7,0,2.5,1.1,2.5,2.3v1.6c0,4.9-4.9,10-12,10s-12-5.1-12-10v-1.6c0-1.2,0.8-2.3,2.5-2.3H250.2z
	 M240.8,232.6c5.4,0,7.6-2.6,7.6-5.2v-0.1h-15.2v0.1C233.1,230,235.4,232.6,240.8,232.6z M248.8,214.7c0,1.8-1.4,3-3,3s-3-1.2-3-3
	s1.4-3,3-3S248.8,213,248.8,214.7z"/>
<path class="st2" d="M262.9,208.5v3c1.5-2.1,3.8-3.6,7.2-3.6c4.3,0,9.3,3.6,9.3,11.3c0,8.1-4.8,12-9.8,12c-2.6,0-5-1-6.8-3.5v10.6
	h-5.4v-29.8H262.9z M262.9,219.4c0,4.5,2.6,6.9,5.5,6.9c2.8,0,5.6-2.2,5.6-6.9c0-4.6-2.8-6.8-5.6-6.8
	C265.5,212.6,262.9,214.7,262.9,219.4z"/>
<path class="st2" d="M288.9,208.5v3c1.5-2.1,3.8-3.6,7.2-3.6c4.3,0,9.3,3.6,9.3,11.3c0,8.1-4.8,12-9.8,12c-2.6,0-5-1-6.8-3.5v10.6
	h-5.4v-29.8H288.9z M288.9,219.4c0,4.5,2.6,6.9,5.5,6.9c2.8,0,5.6-2.2,5.6-6.9c0-4.6-2.8-6.8-5.6-6.8
	C291.4,212.6,288.9,214.7,288.9,219.4z"/>
<path class="st2" d="M316.9,207.8c4.5,0,7.7,2.1,9.1,7.3l-4.9,0.8c-0.1-2.6-1.7-3.5-4.1-3.5c-1.8,0-3.2,0.8-3.2,2.1
	c0,1,0.7,2,2.8,2.4l3.7,0.7c3.6,0.7,5.6,3.1,5.6,6.3c0,4.8-4.3,7.2-8.4,7.2c-4.3,0-9.1-2.2-9.8-7.6l4.9-0.8c0.3,2.8,2,3.8,4.8,3.8
	c2.1,0,3.5-0.8,3.5-2.1c0-1.2-0.7-2.1-3-2.5l-3.4-0.6c-3.6-0.7-5.8-3.2-5.8-6.4C308.8,209.9,313.2,207.8,316.9,207.8z"/>
<path class="st2" d="M212.5,254.4l5.1,14.9l5.1-14.9h5.9l-8.8,22.1h-4.4l-8.8-22.1H212.5z"/>
<path class="st2" d="M241.4,273l7.1-3.4c1.5-0.7,2.7-0.2,3.2,0.9s0.2,2.3-1.3,3l-4,1.9l3.9,1.9c1.6,0.8,1.9,2.1,1.4,3.1
	s-1.7,1.5-3.1,0.8l-7.1-3.4l-7,3.4c-1.6,0.8-2.8,0.2-3.2-0.8c-0.5-1.1-0.2-2.3,1.4-3.1l3.9-1.9l-4-1.9c-1.5-0.7-1.8-1.9-1.3-3
	c0.5-1,1.7-1.6,3.2-0.8L241.4,273z M248.8,260.8c0,1.8-1.4,3-3,3s-3-1.2-3-3s1.4-3,3-3S248.8,259,248.8,260.8z"/>
<path class="st2" d="M262.9,254.5v3c1.5-2.1,3.8-3.6,7.2-3.6c4.3,0,9.3,3.6,9.3,11.3c0,8.1-4.8,12-9.8,12c-2.6,0-5-1-6.8-3.5v10.6
	h-5.4v-29.8H262.9z M262.9,265.5c0,4.5,2.6,6.9,5.5,6.9c2.8,0,5.6-2.2,5.6-6.9c0-4.6-2.8-6.8-5.6-6.8
	C265.5,258.6,262.9,260.7,262.9,265.5z"/>
<path class="st2" d="M288.9,254.5v3c1.5-2.1,3.8-3.6,7.2-3.6c4.3,0,9.3,3.6,9.3,11.3c0,8.1-4.8,12-9.8,12c-2.6,0-5-1-6.8-3.5v10.6
	h-5.4v-29.8H288.9z M288.9,265.5c0,4.5,2.6,6.9,5.5,6.9c2.8,0,5.6-2.2,5.6-6.9c0-4.6-2.8-6.8-5.6-6.8
	C291.4,258.6,288.9,260.7,288.9,265.5z"/>
<path class="st2" d="M316.9,253.9c4.5,0,7.7,2.1,9.1,7.3l-4.9,0.8c-0.1-2.6-1.7-3.5-4.1-3.5c-1.8,0-3.2,0.8-3.2,2.1
	c0,1,0.7,2,2.8,2.4l3.7,0.7c3.6,0.7,5.6,3.1,5.6,6.3c0,4.8-4.3,7.2-8.4,7.2c-4.3,0-9.1-2.2-9.8-7.6l4.9-0.8c0.3,2.8,2,3.8,4.8,3.8
	c2.1,0,3.5-0.8,3.5-2.1c0-1.2-0.7-2.1-3-2.5l-3.4-0.6c-3.6-0.7-5.8-3.2-5.8-6.4C308.8,255.9,313.2,253.9,316.9,253.9z"/>
<path class="st2" d="M212.5,300.5l5.1,14.9l5.1-14.9h5.9l-8.8,22.1h-4.4l-8.8-22.1H212.5z"/>
<path class="st2" d="M242.2,316.7c3.3,0,5.5-0.7,7.4-1.6c1.5-0.8,3.1-0.6,3.7,0.5s0.1,2.6-1.4,3.4c-3.3,1.8-6,2.2-9.7,2.2
	c-3.3,0-8.6-0.9-12.2-3.8c-1.2-0.9-1.5-2.4-0.7-3.4s2.3-1,3.6,0C235.4,315.7,239.5,316.7,242.2,316.7z M248.8,306.8c0,1.8-1.4,3-3,3
	s-3-1.2-3-3s1.4-3,3-3S248.8,305,248.8,306.8z"/>
<path class="st2" d="M262.9,300.5v3c1.5-2.1,3.8-3.6,7.2-3.6c4.3,0,9.3,3.6,9.3,11.3c0,8.1-4.8,12-9.8,12c-2.6,0-5-1-6.8-3.5v10.6
	h-5.4v-29.8H262.9z M262.9,311.5c0,4.5,2.6,6.9,5.5,6.9c2.8,0,5.6-2.2,5.6-6.9c0-4.6-2.8-6.8-5.6-6.8
	C265.5,304.7,262.9,306.8,262.9,311.5z"/>
<path class="st2" d="M288.9,300.5v3c1.5-2.1,3.8-3.6,7.2-3.6c4.3,0,9.3,3.6,9.3,11.3c0,8.1-4.8,12-9.8,12c-2.6,0-5-1-6.8-3.5v10.6
	h-5.4v-29.8H288.9z M288.9,311.5c0,4.5,2.6,6.9,5.5,6.9c2.8,0,5.6-2.2,5.6-6.9c0-4.6-2.8-6.8-5.6-6.8
	C291.4,304.7,288.9,306.8,288.9,311.5z"/>
<path class="st2" d="M316.9,299.9c4.5,0,7.7,2.1,9.1,7.3l-4.9,0.8c-0.1-2.6-1.7-3.5-4.1-3.5c-1.8,0-3.2,0.8-3.2,2.1
	c0,1,0.7,2,2.8,2.4l3.7,0.7c3.6,0.7,5.6,3.1,5.6,6.3c0,4.8-4.3,7.2-8.4,7.2c-4.3,0-9.1-2.2-9.8-7.6l4.9-0.8c0.3,2.8,2,3.8,4.8,3.8
	c2.1,0,3.5-0.8,3.5-2.1c0-1.2-0.7-2.1-3-2.5l-3.4-0.6c-3.6-0.7-5.8-3.2-5.8-6.4C308.8,302,313.2,299.9,316.9,299.9z"/>
<path class="st2" d="M212.5,346.5l5.1,14.9l5.1-14.9h5.9l-8.8,22.1h-4.4l-8.8-22.1H212.5z"/>
<path class="st2" d="M235.9,360c5.6,0,6,5.1,9.3,5.1c1.7,0,2.2-1.6,2.4-2.7c0.2-1.3,1.3-2.1,2.5-2c1.3,0.2,1.9,1.5,1.7,2.7
	c-0.5,3.5-2.7,6.4-6.6,6.4c-5.6,0-6-5.1-9.3-5.1c-1.7,0-2.1,1.6-2.4,2.7c-0.3,1.3-1.3,2.1-2.5,2c-1.3-0.2-1.9-1.5-1.7-2.7
	C229.9,363,232,360,235.9,360z M248.8,352.8c0,1.8-1.4,3-3,3s-3-1.2-3-3s1.4-3,3-3S248.8,351.1,248.8,352.8z"/>
<path class="st2" d="M262.9,346.5v3c1.5-2.1,3.8-3.6,7.2-3.6c4.3,0,9.3,3.6,9.3,11.3c0,8.1-4.8,12-9.8,12c-2.6,0-5-1-6.8-3.5v10.6
	h-5.4v-29.8H262.9z M262.9,357.5c0,4.5,2.6,6.9,5.5,6.9c2.8,0,5.6-2.2,5.6-6.9c0-4.6-2.8-6.8-5.6-6.8
	C265.5,350.7,262.9,352.8,262.9,357.5z"/>
<path class="st2" d="M288.9,346.5v3c1.5-2.1,3.8-3.6,7.2-3.6c4.3,0,9.3,3.6,9.3,11.3c0,8.1-4.8,12-9.8,12c-2.6,0-5-1-6.8-3.5v10.6
	h-5.4v-29.8H288.9z M288.9,357.5c0,4.5,2.6,6.9,5.5,6.9c2.8,0,5.6-2.2,5.6-6.9c0-4.6-2.8-6.8-5.6-6.8
	C291.4,350.7,288.9,352.8,288.9,357.5z"/>
<path class="st2" d="M316.9,345.9c4.5,0,7.7,2.1,9.1,7.3l-4.9,0.8c-0.1-2.6-1.7-3.5-4.1-3.5c-1.8,0-3.2,0.8-3.2,2.1
	c0,1,0.7,2,2.8,2.4l3.7,0.7c3.6,0.7,5.6,3.1,5.6,6.3c0,4.8-4.3,7.2-8.4,7.2c-4.3,0-9.1-2.2-9.8-7.6l4.9-0.8c0.3,2.8,2,3.8,4.8,3.8
	c2.1,0,3.5-0.8,3.5-2.1c0-1.2-0.7-2.1-3-2.5l-3.4-0.6c-3.6-0.7-5.8-3.2-5.8-6.4C308.8,348,313.2,345.9,316.9,345.9z"/>
</svg>
