<svg xmlns="http://www.w3.org/2000/svg" viewBox="0 0 450.5 134.67"><defs><style>.cls-1{fill:#fff;}.cls-2{fill:#ff5b24;}.cls-3{fill:#000046;}.cls-4{fill:none;}</style></defs><title>Vipps eFaktura_Horizontal neg</title><g id="Horizontal_negative" data-name="Horizontal negative"><rect class="cls-1" x="25.25" y="25.25" width="400" height="84.17"/><path class="cls-2" d="M57.24,55.18l5.82,17,5.72-17h6.74L65.46,80.43h-5L50.38,55.18Z"/><path class="cls-2" d="M90.71,76.43c4.23,0,6.63-2.05,8.91-5,1.26-1.6,2.86-2,4-1s1.26,2.63,0,4.23c-3.31,4.34-7.54,7-12.91,7-5.83,0-11-3.19-14.51-8.79-1-1.49-.8-3.09.34-3.89s2.86-.45,3.89,1.15C82.94,73.81,86.37,76.43,90.71,76.43Zm7.88-14.05A3.43,3.43,0,1,1,95.17,59,3.44,3.44,0,0,1,98.59,62.38Z"/><path class="cls-2" d="M114.7,55.18v3.43a9.58,9.58,0,0,1,8.23-4.11c4.91,0,10.62,4.11,10.62,12.91,0,9.25-5.48,13.71-11.19,13.71a9.16,9.16,0,0,1-7.77-4V89.23h-6.17V55.18Zm0,12.57c0,5.14,3,7.88,6.28,7.88s6.4-2.51,6.4-7.88S124.18,60,121,60,114.7,62.38,114.7,67.75Z"/><path class="cls-2" d="M144.4,55.18v3.43a9.61,9.61,0,0,1,8.23-4.11c4.91,0,10.63,4.11,10.63,12.91,0,9.25-5.49,13.71-11.2,13.71a9.17,9.17,0,0,1-7.77-4V89.23h-6.17V55.18Zm0,12.57c0,5.14,3,7.88,6.29,7.88s6.4-2.51,6.4-7.88-3.2-7.77-6.4-7.77S144.4,62.38,144.4,67.75Z"/><path class="cls-2" d="M176.39,54.5c5.14,0,8.8,2.4,10.4,8.34l-5.6.91c-.11-3-1.94-4-4.68-4-2.06,0-3.66.92-3.66,2.4,0,1.15.8,2.29,3.2,2.74l4.23.8c4.11.8,6.4,3.55,6.4,7.2,0,5.49-4.92,8.23-9.6,8.23-4.91,0-10.4-2.52-11.2-8.69l5.6-.91c.34,3.2,2.29,4.34,5.48,4.34,2.4,0,4-.91,4-2.4s-.8-2.4-3.42-2.85l-3.89-.69c-4.11-.8-6.62-3.65-6.62-7.31C167.14,56.9,172.28,54.5,176.39,54.5Z"/><path class="cls-3" d="M385.6,80.82a8.07,8.07,0,0,1-5.31-1.8c-2-1.7-3-4.5-3-8.33,0-11.79,6.51-16,12.08-16a12.5,12.5,0,0,1,6.37,1.87l.3-1.37H400l-2.93,20.64a3.54,3.54,0,0,0,0,.86,3.51,3.51,0,0,0,1.31-.19l1.52-.44L399.34,80l-.61.2a5.84,5.84,0,0,1-1.91.28,3.77,3.77,0,0,1-2.95-1.14,3.16,3.16,0,0,1-.66-1.21,12.07,12.07,0,0,1-7.61,2.71M397,76.76l-.46.39.46-.39Zm-8-18c-6,0-7.55,7.52-7.55,12,0,5.42,2.39,6.12,4.48,6.12s4-.59,7.35-3.68L395,60.83a10.19,10.19,0,0,0-6-2"/><path class="cls-3" d="M365.63,80.28h-4.31l.17-1.18,3.33-23.88H369l-.29,2.06a8.53,8.53,0,0,1,6.07-2.56,7.33,7.33,0,0,1,1.1.06l1,.15-.65,4.49-1-.1c-2.57-.29-4.67,1.09-7.2,3.42Z"/><path class="cls-3" d="M342.49,80.82c-2.48,0-4.35-.7-5.56-2.08-1.34-1.54-1.81-3.9-1.4-7l2.3-16.51h4.31l-2.29,16.52c-.31,2.14-.16,3.54.48,4.27a2.93,2.93,0,0,0,2.34.79c2.66,0,5.15-1.1,8.3-3.67l2.47-17.91h4.31L354.2,80.28h-4.12l.26-2a15.45,15.45,0,0,1-7.85,2.54"/><path class="cls-3" d="M324.56,80.82c-2.45,0-4.14-.58-5.16-1.76s-1.35-2.89-1-5.26l2.05-14.61h-3.59l.47-4H321l1.23-9.17,4.4-.61-1.32,9.78h6.52l-.56,4h-6.52l-2.09,14.54c-.14,1.09-.24,2.27.15,2.72.18.2.64.44,1.81.44a9.45,9.45,0,0,0,4-1.09l1.19-.65.88,3.82-.64.39a11.52,11.52,0,0,1-5.47,1.46"/><polygon class="cls-3" points="311.44 80.28 307.07 80.28 301.25 67.58 297.56 70.74 296.27 80.28 291.96 80.28 296.85 45.44 301.16 45.44 298.42 65.01 309.41 55.22 315.21 55.22 304.3 64.93 311.44 80.28"/><path class="cls-3" d="M273,80.82a8,8,0,0,1-5.3-1.8c-2-1.7-3-4.5-3-8.33,0-11.79,6.5-16,12.07-16a12.51,12.51,0,0,1,6.38,1.87l.3-1.37h3.93l-2.93,20.64a3.05,3.05,0,0,0,0,.86,3.51,3.51,0,0,0,1.31-.19l1.52-.44L286.71,80l-.62.2a5.84,5.84,0,0,1-1.91.28,3.73,3.73,0,0,1-2.94-1.14,3.18,3.18,0,0,1-.67-1.21A12,12,0,0,1,273,80.82m3.44-22c-6,0-7.56,7.52-7.56,12,0,5.42,2.4,6.12,4.48,6.12s4.05-.59,7.35-3.68l1.69-12.34a10.22,10.22,0,0,0-6-2"/><polygon class="cls-3" points="246.03 80.28 241.81 80.28 246.48 45.45 265.39 45.45 264.84 49.37 250.23 49.37 248.62 61.05 262.33 61.05 261.76 65.12 248.11 65.12 246.03 80.28"/><path class="cls-3" d="M229.14,71.93h0a5.09,5.09,0,0,1-5.07,3.68c-4,0-4.54-2.65-4.6-5.25v-.22l.63,0c2.51-.21,6.71-.55,10.05-2,3.62-1.49,5.38-3.83,5.38-7.16,0-2.59-1.17-6.94-8.95-6.94-8.69,0-14.52,6.32-14.52,15.72,0,4.13,1.4,11.06,10.8,11.06,5.87,0,10.17-2.74,11.84-7.53h0l.47-1.35Zm-9.37-6.47c.53-4.12,2.88-6.68,6.16-6.68,2.39,0,2.89,1.36,2.89,2.49,0,1.79-1.12,2.94-3.53,3.64a23.68,23.68,0,0,1-5.27.81h-.28Z"/><path class="cls-4" d="M113.9,89.22l4.66,13.62,4.57-13.62h5.49l-8.14,20.2h-4l-8-20.2Z"/><path class="cls-4" d="M261.39,45.45l-4.67-13.62-4.57,13.62h-5.48l8.14-20.2h4l8,20.2Z"/><path class="cls-4" d="M68.66,25.25l-5.83-17-5.71,17H50.38L60.44,0h5L75.52,25.25Z"/><path class="cls-4" d="M68.66,109.42l-5.83,17-5.71-17H50.38l10.06,25.25h5l10.06-25.25Z"/><path class="cls-4" d="M186.79,73.58l17-5.83-17-5.71V55.18L212,65.24v5L186.79,80.32Z"/><path class="cls-4" d="M50.5,62l-17,5.82,17,5.83v6.74L25.25,70.38v-5L50.5,55.18Z"/><path class="cls-4" d="M25.25,62l-17,5.82,17,5.83v6.74L0,70.38v-5L25.25,55.18Z"/><path class="cls-4" d="M400,62l17,5.82-17,5.83v6.74l25.25-10.05v-5L400,55.18Z"/><path class="cls-4" d="M425.25,62l17,5.82-17,5.83v6.74L450.5,70.38v-5L425.25,55.18Z"/></g></svg>