<svg id="Primary_positive" data-name="Primary positive" xmlns="http://www.w3.org/2000/svg" viewBox="0 0 230 147.3"><defs><style>.cls-1{fill:#ff5b24;}.cls-2{fill:#000046;}.cls-3{fill:none;}</style></defs><title>Vipps eFaktura_Primary pos</title><path class="cls-1" d="M39.39,31.09l7.17,21,7-21h8.3L49.52,62.18H43.33L31,31.09Z"/><path class="cls-1" d="M80.61,57.25c5.2,0,8.15-2.53,11-6.19,1.55-2,3.51-2.39,4.92-1.26s1.55,3.23,0,5.2c-4.08,5.35-9.28,8.58-15.89,8.58-7.18,0-13.51-3.93-17.87-10.83-1.27-1.83-1-3.8.42-4.78s3.52-.56,4.78,1.41C71,54,75.26,57.25,80.61,57.25ZM90.31,40a4.22,4.22,0,1,1-4.22-4.22A4.23,4.23,0,0,1,90.31,40Z"/><path class="cls-1" d="M110.15,31.09v4.22a11.79,11.79,0,0,1,10.13-5.07c6,0,13.08,5.07,13.08,15.9,0,11.4-6.75,16.88-13.79,16.88A11.26,11.26,0,0,1,110,58.1V73h-7.6V31.09Zm0,15.47c0,6.33,3.65,9.71,7.73,9.71s7.88-3.1,7.88-9.71S121.82,37,117.88,37,110.15,40,110.15,46.56Z"/><path class="cls-1" d="M146.72,31.09v4.22a11.81,11.81,0,0,1,10.13-5.07c6.05,0,13.08,5.07,13.08,15.9,0,11.4-6.75,16.88-13.78,16.88a11.27,11.27,0,0,1-9.57-4.92V73H139V31.09Zm0,15.47c0,6.33,3.66,9.71,7.74,9.71s7.88-3.1,7.88-9.71S158.4,37,154.46,37,146.72,40,146.72,46.56Z"/><path class="cls-1" d="M186.11,30.24c6.33,0,10.83,3,12.8,10.27L192,41.64c-.14-3.66-2.39-4.92-5.77-4.92-2.53,0-4.5,1.12-4.5,3,0,1.41,1,2.81,3.94,3.38l5.2,1c5.07,1,7.88,4.36,7.88,8.86C198.77,59.65,192.72,63,187,63c-6,0-12.8-3.09-13.78-10.69l6.89-1.13c.42,3.94,2.81,5.35,6.75,5.35,3,0,4.93-1.12,4.93-2.95s-1-3-4.22-3.52l-4.79-.84c-5.06-1-8.16-4.51-8.16-9C174.72,33.2,181.05,30.24,186.11,30.24Z"/><path class="cls-2" d="M186.24,116.69a7.1,7.1,0,0,1-4.67-1.58c-1.74-1.5-2.62-4-2.62-7.35,0-10.39,5.73-14.08,10.64-14.08a11,11,0,0,1,5.63,1.65l.26-1.21H199l-2.59,18.2a2.57,2.57,0,0,0,0,.76,2.91,2.91,0,0,0,1.15-.17l1.35-.39-.47,3.43-.54.18a5.15,5.15,0,0,1-1.68.24,3.28,3.28,0,0,1-2.6-1,2.82,2.82,0,0,1-.59-1.06,10.66,10.66,0,0,1-6.71,2.38m10.08-3.58-.4.35.4-.35Zm-7-15.85c-5.27,0-6.67,6.63-6.67,10.54,0,4.78,2.11,5.39,3.95,5.39s3.57-.52,6.48-3.24l1.49-10.88a9,9,0,0,0-5.25-1.81"/><path class="cls-2" d="M168.64,116.22h-3.8l.14-1,3-21.06h3.71l-.25,1.82a7.53,7.53,0,0,1,5.35-2.26,6.91,6.91,0,0,1,1,0l.9.13-.57,4-.88-.09c-2.26-.26-4.11,1-6.34,3Z"/><path class="cls-2" d="M148.23,116.69a6.19,6.19,0,0,1-4.9-1.83c-1.19-1.36-1.6-3.44-1.23-6.18l2-14.56h3.8l-2,14.57c-.27,1.89-.13,3.12.43,3.77a2.61,2.61,0,0,0,2.06.69c2.34,0,4.54-1,7.32-3.24l2.17-15.79h3.81l-3.13,22.1h-3.63l.23-1.76a13.73,13.73,0,0,1-6.93,2.23"/><path class="cls-2" d="M132.43,116.69c-2.17,0-3.66-.5-4.56-1.55s-1.19-2.55-.9-4.63l1.81-12.89h-3.17l.42-3.5h3.24L130.36,86l3.88-.54-1.17,8.62h5.75l-.49,3.5h-5.75l-1.84,12.82c-.13,1-.21,2,.13,2.4.16.18.56.39,1.59.39a8.11,8.11,0,0,0,3.52-1l1.05-.57.78,3.37-.56.35a10.12,10.12,0,0,1-4.82,1.28"/><polygon class="cls-2" points="120.85 116.22 116.99 116.22 111.87 105.02 108.61 107.81 107.47 116.22 103.67 116.22 107.99 85.5 111.79 85.5 109.37 102.75 119.06 94.12 124.18 94.12 114.55 102.69 120.85 116.22"/><path class="cls-2" d="M86.92,116.69a7.14,7.14,0,0,1-4.68-1.58c-1.74-1.5-2.62-4-2.62-7.35,0-10.39,5.74-14.08,10.65-14.08a11,11,0,0,1,5.63,1.65l.26-1.21h3.46L97,112.32a2.57,2.57,0,0,0,0,.76,2.91,2.91,0,0,0,1.15-.17l1.34-.39L99,116l-.54.18a5.15,5.15,0,0,1-1.68.24,3.27,3.27,0,0,1-2.6-1,2.82,2.82,0,0,1-.59-1.06,10.66,10.66,0,0,1-6.71,2.38m3-19.43c-5.26,0-6.66,6.63-6.66,10.54,0,4.78,2.11,5.39,3.95,5.39s3.56-.52,6.48-3.24l1.49-10.88A9,9,0,0,0,90,97.26"/><polygon class="cls-2" points="63.17 116.22 59.45 116.22 63.57 85.5 80.24 85.5 79.75 88.96 66.88 88.96 65.45 99.27 77.55 99.27 77.04 102.85 65 102.85 63.17 116.22"/><path class="cls-2" d="M48.28,108.85h0a4.47,4.47,0,0,1-4.46,3.24c-3.49,0-4-2.34-4.06-4.63v-.19l.55,0a30.12,30.12,0,0,0,8.87-1.72c3.19-1.32,4.74-3.39,4.74-6.32,0-2.28-1-6.12-7.89-6.12-7.66,0-12.8,5.57-12.8,13.87,0,3.64,1.23,9.74,9.52,9.74,5.18,0,9-2.41,10.44-6.63h0l.42-1.2ZM40,103.15c.46-3.63,2.54-5.89,5.42-5.89,2.11,0,2.55,1.2,2.55,2.2,0,1.57-1,2.59-3.11,3.2a20.88,20.88,0,0,1-4.65.72H40Z"/><path class="cls-3" d="M198.91,53.74l21-7.18-21-7V31.09L230,43.47v6.19L198.91,62Z"/><path class="cls-3" d="M39.39,62l7.17,21,7-21h8.3L49.52,93.13H43.33L31,62Z"/><path class="cls-3" d="M39.39,116.22l7.17,21,7-21h8.3L49.52,147.3H43.33L31,116.22Z"/><path class="cls-3" d="M31.09,39.53l-21,7.17,21,7.18v8.3L0,49.8V43.61L31.09,31.09Z"/><path class="cls-3" d="M39.39,31.09l7.17-21,7,21h8.3L49.52,0H43.33L31,31.09Z"/></svg>