<svg xmlns="http://www.w3.org/2000/svg" viewBox="0 0 292.18 209.48"><defs><style>.cls-1{fill:none;}.cls-2{fill:#fff;}.cls-3{fill:#ff5b24;}.cls-4{fill:#000046;}</style></defs><title>Vipps eFaktura_Primary neg</title><g id="Primary_negative" data-name="Primary negative"><path class="cls-1" d="M230,84.83l21-7.18-21-7V62.18l31.09,12.38v6.19L230,93.13Z"/><path class="cls-1" d="M261.09,84.83l21-7.18-21-7V62.18l31.09,12.38v6.19L261.09,93.13Z"/><path class="cls-1" d="M70.48,93.13l7.17,21,7-21H93L80.61,124.21H74.42L62,93.13Z"/><path class="cls-1" d="M71.75,147.3l7.17,21,7-21h8.3L81.88,178.39H75.69L63.31,147.3Z"/><path class="cls-1" d="M71.75,178.39l7.17,21,7-21h8.3L81.88,209.48H75.69L63.31,178.39Z"/><path class="cls-1" d="M84.69,62.18l-7.18-21-7,21H62L74.56,31.09h6.19L93.13,62.18Z"/><path class="cls-1" d="M84.69,31.09l-7.18-21-7,21H62L74.56,0h6.19L93.13,31.09Z"/><path class="cls-1" d="M62.18,70.62l-21,7.17,21,7.18v8.3L31.09,80.89V74.7L62.18,62.18Z"/><path class="cls-1" d="M31.09,70.62l-21,7.17,21,7.18v8.3L0,80.89V74.7L31.09,62.18Z"/><rect class="cls-2" x="31.09" y="31.09" width="230" height="147.3"/><path class="cls-3" d="M70.48,62.18l7.17,21,7-21H93L80.61,93.27H74.42L62,62.18Z"/><path class="cls-3" d="M111.69,88.34c5.21,0,8.16-2.53,11-6.19,1.54-2,3.51-2.39,4.92-1.26s1.55,3.23,0,5.2c-4.08,5.35-9.28,8.58-15.9,8.58-7.17,0-13.5-3.94-17.86-10.83-1.27-1.83-1-3.8.42-4.78s3.52-.56,4.78,1.4C102.13,85.11,106.35,88.34,111.69,88.34ZM121.4,71a4.22,4.22,0,1,1-4.22-4.22A4.23,4.23,0,0,1,121.4,71Z"/><path class="cls-3" d="M141.24,62.18V66.4a11.79,11.79,0,0,1,10.12-5.07c6,0,13.09,5.07,13.09,15.9,0,11.39-6.76,16.88-13.79,16.88a11.29,11.29,0,0,1-9.57-4.92V104.1H133.5V62.18Zm0,15.47c0,6.33,3.65,9.71,7.73,9.71s7.88-3.1,7.88-9.71-3.94-9.56-7.88-9.56S141.24,71,141.24,77.65Z"/><path class="cls-3" d="M177.81,62.18V66.4a11.81,11.81,0,0,1,10.13-5.07C194,61.33,201,66.4,201,77.23c0,11.39-6.75,16.88-13.78,16.88a11.27,11.27,0,0,1-9.57-4.92V104.1h-7.6V62.18Zm0,15.47c0,6.33,3.66,9.71,7.74,9.71s7.88-3.1,7.88-9.71-3.94-9.56-7.88-9.56S177.81,71,177.81,77.65Z"/><path class="cls-3" d="M217.2,61.33c6.33,0,10.83,3,12.8,10.27l-6.89,1.13c-.14-3.66-2.39-4.93-5.77-4.93-2.53,0-4.5,1.13-4.5,3,0,1.41,1,2.81,3.94,3.37l5.2,1c5.07,1,7.88,4.36,7.88,8.86,0,6.75-6.05,10.13-11.82,10.13-6,0-12.8-3.09-13.78-10.69l6.89-1.13c.42,3.94,2.81,5.35,6.75,5.35,3,0,4.93-1.13,4.93-3s-1-3-4.22-3.52l-4.79-.85c-5.06-1-8.16-4.5-8.16-9C205.8,64.29,212.13,61.33,217.2,61.33Z"/><path class="cls-4" d="M217.33,147.78a7.1,7.1,0,0,1-4.68-1.59c-1.73-1.5-2.62-4-2.62-7.34,0-10.39,5.74-14.08,10.65-14.08a11,11,0,0,1,5.63,1.65l.26-1.21H230l-2.58,18.2a2.58,2.58,0,0,0,0,.76,2.91,2.91,0,0,0,1.15-.17l1.34-.39-.46,3.43-.54.18a5.15,5.15,0,0,1-1.68.24,3.27,3.27,0,0,1-2.6-1,2.9,2.9,0,0,1-.59-1.06,10.66,10.66,0,0,1-6.71,2.38m10.08-3.58-.4.35.4-.35Zm-7-15.85c-5.26,0-6.66,6.63-6.66,10.54,0,4.78,2.11,5.39,4,5.39s3.56-.52,6.48-3.24l1.49-10.88a9,9,0,0,0-5.26-1.81"/><path class="cls-4" d="M199.73,147.3h-3.8l.14-1L199,125.21h3.72l-.25,1.82a7.47,7.47,0,0,1,5.35-2.26,6.91,6.91,0,0,1,1,0l.9.13-.58,4-.87-.09c-2.26-.26-4.12.95-6.35,3Z"/><path class="cls-4" d="M179.32,147.78a6.17,6.17,0,0,1-4.9-1.83c-1.19-1.36-1.6-3.44-1.23-6.18l2-14.56H179l-2,14.56c-.27,1.89-.13,3.13.43,3.78a2.59,2.59,0,0,0,2.06.69c2.34,0,4.54-1,7.32-3.24L189,125.21h3.81l-3.13,22.09H186l.23-1.76a13.64,13.64,0,0,1-6.93,2.24"/><path class="cls-4" d="M163.51,147.78c-2.16,0-3.65-.5-4.55-1.55s-1.19-2.55-.9-4.63l1.81-12.89H156.7l.42-3.5h3.24l1.09-8.08,3.87-.54-1.16,8.62h5.75l-.5,3.5h-5.74l-1.84,12.82c-.13,1-.21,2,.13,2.4.16.18.56.39,1.59.39a8.14,8.14,0,0,0,3.52-1l1.05-.57.78,3.37-.56.34a10.14,10.14,0,0,1-4.83,1.29"/><polygon class="cls-4" points="151.94 147.3 148.08 147.3 142.96 136.11 139.7 138.89 138.56 147.3 134.76 147.3 139.08 116.59 142.88 116.59 140.46 133.84 150.15 125.21 155.26 125.21 145.64 133.78 151.94 147.3"/><path class="cls-4" d="M118,147.78a7.08,7.08,0,0,1-4.68-1.59c-1.74-1.5-2.62-4-2.62-7.34,0-10.39,5.74-14.08,10.65-14.08a11,11,0,0,1,5.63,1.65l.26-1.21h3.46l-2.58,18.2a2.58,2.58,0,0,0,0,.76,2.92,2.92,0,0,0,1.15-.17l1.34-.39-.46,3.43-.54.18a5.2,5.2,0,0,1-1.69.24,3.26,3.26,0,0,1-2.59-1,2.82,2.82,0,0,1-.59-1.06,10.68,10.68,0,0,1-6.71,2.38m3-19.43c-5.26,0-6.66,6.63-6.66,10.54,0,4.78,2.11,5.39,4,5.39s3.56-.52,6.48-3.24l1.49-10.88a9,9,0,0,0-5.26-1.81"/><polygon class="cls-4" points="94.26 147.3 90.54 147.3 94.66 116.59 111.33 116.59 110.84 120.05 97.97 120.05 96.54 130.35 108.64 130.35 108.13 133.94 96.09 133.94 94.26 147.3"/><path class="cls-4" d="M79.36,139.94h0a4.48,4.48,0,0,1-4.47,3.24c-3.48,0-4-2.34-4-4.63v-.19l.55-.05a30.12,30.12,0,0,0,8.87-1.72c3.19-1.32,4.74-3.39,4.74-6.32,0-2.28-1-6.12-7.89-6.12-7.66,0-12.81,5.57-12.81,13.87,0,3.64,1.24,9.74,9.53,9.74,5.18,0,9-2.41,10.44-6.63h0l.42-1.2Zm-8.25-5.7c.46-3.63,2.54-5.89,5.42-5.89,2.11,0,2.55,1.19,2.55,2.2,0,1.57-1,2.59-3.11,3.2a20.88,20.88,0,0,1-4.65.72h-.24Z"/></g></svg>