<svg xmlns="http://www.w3.org/2000/svg" viewBox="0 0 108 108"><defs><style>.cls-1{fill:#ff5b24;}.cls-2{fill:#fff;}.cls-3{fill:none;}</style></defs><title>Vipps eFaktura_Primary icon</title><g id="Primary_icon" data-name="Primary icon"><path class="cls-1" d="M36.12,82H71.88A10.31,10.31,0,0,0,82,71.56V36.44A10.31,10.31,0,0,0,71.88,26H36.12A10.31,10.31,0,0,0,26,36.44V71.56A10.31,10.31,0,0,0,36.12,82Z"/><path class="cls-2" d="M61.35,60.51h0c-1.29,3.44-3.71,5.19-7.17,5.19-5.59,0-6.42-3.75-6.5-7.42V58l.89-.07c3.56-.29,9.51-.78,14.23-2.77,5.11-2.11,7.6-5.43,7.6-10.13,0-3.67-1.64-9.82-12.66-9.82-12.28,0-20.53,8.94-20.53,22.24,0,5.84,2,15.64,15.28,15.64,8.3,0,14.38-3.88,16.75-10.65h0l.66-1.91ZM48.1,51.36c.74-5.83,4.07-9.45,8.7-9.45,3.38,0,4.09,1.92,4.09,3.53,0,2.52-1.58,4.15-5,5.14a32.87,32.87,0,0,1-7.46,1.15h-.39Z"/><rect class="cls-3" width="108" height="108"/></g></svg>