<svg xmlns="http://www.w3.org/2000/svg" viewBox="0 0 400 84.17"><defs><style>.cls-1{fill:#ff5b24;}.cls-2{fill:#000046;}.cls-3{fill:none;}</style></defs><title>Vipps eFaktura_Horizontal pos</title><g id="Horizontal_positive" data-name="Horizontal positive"><path class="cls-1" d="M32,29.94l5.82,17,5.72-17h6.74L40.21,55.18h-5L25.13,29.94Z"/><path class="cls-1" d="M32,29.94l5.82,17,5.72-17h6.74L40.21,55.18h-5L25.13,29.94Z"/><path class="cls-1" d="M65.46,51.19c4.23,0,6.63-2.06,8.91-5,1.26-1.6,2.86-1.94,4-1s1.26,2.63,0,4.23c-3.31,4.34-7.54,7-12.91,7-5.82,0-11-3.2-14.51-8.8-1-1.49-.8-3.09.35-3.89s2.85-.45,3.88,1.15C57.69,48.56,61.12,51.19,65.46,51.19Zm7.88-14.06a3.43,3.43,0,1,1-3.42-3.42A3.42,3.42,0,0,1,73.34,37.13Z"/><path class="cls-1" d="M89.45,29.94v3.42a9.6,9.6,0,0,1,8.23-4.11c4.91,0,10.62,4.11,10.62,12.91,0,9.25-5.48,13.71-11.19,13.71a9.14,9.14,0,0,1-7.77-4V64H83.17v-34Zm0,12.56c0,5.14,3,7.89,6.29,7.89s6.39-2.52,6.39-7.89-3.19-7.77-6.39-7.77S89.45,37.13,89.45,42.5Z"/><path class="cls-1" d="M119.16,29.94v3.42a9.58,9.58,0,0,1,8.22-4.11c4.91,0,10.63,4.11,10.63,12.91,0,9.25-5.49,13.71-11.2,13.71a9.14,9.14,0,0,1-7.77-4V64h-6.17v-34Zm0,12.56c0,5.14,3,7.89,6.28,7.89s6.4-2.52,6.4-7.89-3.2-7.77-6.4-7.77S119.16,37.13,119.16,42.5Z"/><path class="cls-1" d="M151.15,29.25c5.14,0,8.79,2.4,10.39,8.34l-5.6.91c-.11-3-1.94-4-4.68-4-2.06,0-3.66.91-3.66,2.39,0,1.15.8,2.29,3.2,2.75l4.23.8c4.11.8,6.4,3.54,6.4,7.19,0,5.49-4.92,8.23-9.6,8.23-4.91,0-10.4-2.51-11.2-8.68l5.6-.92c.35,3.2,2.29,4.34,5.49,4.34,2.4,0,4-.91,4-2.4s-.79-2.39-3.42-2.85l-3.89-.69c-4.11-.8-6.62-3.65-6.62-7.31C141.89,31.65,147,29.25,151.15,29.25Z"/><path class="cls-2" d="M360.35,55.57a8.07,8.07,0,0,1-5.31-1.8c-2-1.7-3-4.5-3-8.33,0-11.78,6.51-16,12.08-16a12.57,12.57,0,0,1,6.38,1.88l.3-1.38h3.92l-2.92,20.64a3.34,3.34,0,0,0-.05.87,3.4,3.4,0,0,0,1.31-.2l1.53-.44-.53,3.89-.61.2a5.58,5.58,0,0,1-1.91.28,3.73,3.73,0,0,1-2.95-1.14,3.16,3.16,0,0,1-.66-1.21,12.05,12.05,0,0,1-7.61,2.71m11.43-4.06-.46.39.46-.39Zm-8-18c-6,0-7.56,7.51-7.56,12,0,5.42,2.39,6.11,4.48,6.11s4-.59,7.35-3.68l1.68-12.34a10.18,10.18,0,0,0-5.95-2"/><path class="cls-2" d="M340.38,55h-4.3l.16-1.18L339.57,30h4.22L343.5,32a8.55,8.55,0,0,1,6.07-2.56,7.33,7.33,0,0,1,1.1.06l1,.15-.65,4.5-1-.11c-2.57-.29-4.67,1.09-7.2,3.42Z"/><path class="cls-2" d="M317.24,55.57c-2.48,0-4.35-.7-5.55-2.08-1.35-1.54-1.82-3.9-1.41-7L312.58,30h4.31L314.6,46.49c-.31,2.14-.15,3.54.48,4.28a3,3,0,0,0,2.34.78c2.66,0,5.15-1.1,8.3-3.67L328.19,30h4.31L329,55h-4.11l.25-2a15.45,15.45,0,0,1-7.85,2.54"/><path class="cls-2" d="M299.32,55.57c-2.45,0-4.14-.57-5.17-1.76s-1.35-2.89-1-5.25l2.05-14.62h-3.59l.47-4h3.68L297,20.81l4.39-.62L300.05,30h6.52l-.56,4h-6.52L297.4,48.48c-.14,1.09-.23,2.27.16,2.72.18.2.63.45,1.8.45a9.45,9.45,0,0,0,4-1.1l1.19-.65.88,3.82-.64.39a11.48,11.48,0,0,1-5.46,1.46"/><polygon class="cls-2" points="286.19 55.03 281.82 55.03 276.01 42.33 272.31 45.49 271.02 55.03 266.71 55.03 271.61 20.19 275.92 20.19 273.17 39.76 284.16 29.97 289.96 29.97 279.05 39.69 286.19 55.03"/><path class="cls-2" d="M247.71,55.57a8.06,8.06,0,0,1-5.3-1.8c-2-1.7-3-4.5-3-8.33,0-11.78,6.5-16,12.08-16a12.5,12.5,0,0,1,6.37,1.88l.3-1.38h3.93l-2.93,20.64a3.12,3.12,0,0,0,0,.87,3.4,3.4,0,0,0,1.31-.2l1.52-.44-.52,3.89-.61.2a5.67,5.67,0,0,1-1.92.28A3.71,3.71,0,0,1,256,54.07a3.16,3.16,0,0,1-.66-1.21,12.08,12.08,0,0,1-7.62,2.71m3.44-22c-6,0-7.56,7.51-7.56,12,0,5.42,2.4,6.11,4.49,6.11s4-.59,7.34-3.68l1.69-12.34a10.22,10.22,0,0,0-6-2"/><polygon class="cls-2" points="220.78 55.03 216.56 55.03 221.23 20.2 240.14 20.2 239.59 24.13 224.98 24.13 223.37 35.81 237.08 35.81 236.51 39.87 222.86 39.87 220.78 55.03"/><path class="cls-2" d="M203.89,46.68h0a5.09,5.09,0,0,1-5.07,3.67c-4,0-4.54-2.65-4.6-5.25v-.22l.63,0c2.51-.2,6.72-.55,10.05-2,3.62-1.5,5.38-3.84,5.38-7.16,0-2.6-1.16-6.95-8.95-6.95-8.68,0-14.52,6.32-14.52,15.73,0,4.13,1.41,11.05,10.81,11.05,5.86,0,10.16-2.74,11.84-7.53h0l.46-1.35Zm-9.36-6.47c.52-4.12,2.88-6.68,6.15-6.68,2.39,0,2.89,1.36,2.89,2.5,0,1.78-1.12,2.93-3.53,3.63a23.09,23.09,0,0,1-5.27.81l-.28,0Z"/><path class="cls-3" d="M161.54,48.33l17-5.83-17-5.71V29.94L186.79,40v5l-25.25,10Z"/><path class="cls-3" d="M88.65,64l4.66,13.61L97.88,64h5.49L95.23,84.17h-4L83.17,64Z"/><path class="cls-3" d="M235.94,20.2,231.28,6.58,226.71,20.2h-5.48L229.36,0h4l8,20.2Z"/><path class="cls-3" d="M25.25,36.79l-17,5.83,17,5.82v6.74L0,45.13v-5L25.25,29.94Z"/><path class="cls-3" d="M374.75,36.79l17,5.83-17,5.82v6.74l25.25-10v-5L374.75,29.94Z"/></g></svg>