<?xml version="1.0" encoding="utf-8"?>
<!-- Generator: Adobe Illustrator 21.1.0, SVG Export Plug-In . SVG Version: 6.00 Build 0)  -->
<svg version="1.1" id="Layer_1" xmlns="http://www.w3.org/2000/svg" xmlns:xlink="http://www.w3.org/1999/xlink" x="0px" y="0px"
	 viewBox="0 0 163.5 66.3" style="enable-background:new 0 0 163.5 66.3;" xml:space="preserve">
<style type="text/css">
	.st0{fill:none;}
	.st1{fill:#FF5B24;}
</style>
<path class="st0" d="M38.2,22.1L33.1,7.2L28,22.1h-5.9L30.9,0h4.4l8.8,22.1H38.2z"/>
<path class="st0" d="M28,44.2l5.1,14.9l5.1-14.9h5.9l-8.8,22.1h-4.4l-8.8-22.1C22.1,44.2,28,44.2,28,44.2z"/>
<path class="st0" d="M22.1,28.1L7.2,33.2l14.9,5.1v5.9L0,35.3v-4.4l22.1-8.8C22.1,22.2,22.1,28.1,22.1,28.1z"/>
<path class="st0" d="M141.4,38.2l14.9-5.1L141.4,28v-5.9l22.1,8.8v4.4l-22.1,8.8C141.4,44.1,141.4,38.2,141.4,38.2z"/>
<path class="st1" d="M57.3,40c3.7,0,5.7-1.1,7.7-3.5c1.2-1.5,2.6-1.8,3.6-1.1c1.1,0.9,1,2.4-0.1,3.8c-1.5,1.8-3,3.1-4.9,4
	c-1.2,5.7-4.9,8.4-9.2,8.4c-4.6,0-7.3-3.2-7.3-6.5c0-1.2,0.3-2.4,0.9-3.8c-1.2-1-2.4-2.2-3.4-3.8c-0.9-1.4-0.7-2.7,0.3-3.5
	c1-0.7,2.4-0.4,3.4,1C50.6,38.3,53.5,40,57.3,40z M54.8,47.5c2.1,0,3.6-1.3,4.2-3.3c-0.5,0-1.2,0.1-1.8,0.1c-2,0-3.9-0.3-5.6-0.9
	c-0.2,0.5-0.3,0.9-0.3,1.4C51.4,46.4,52.5,47.5,54.8,47.5z M64.2,28.5c0,1.8-1.4,3-3,3s-3-1.2-3-3s1.4-3,3-3S64.2,26.7,64.2,28.5z"
	/>
</svg>
