<?xml version="1.0" encoding="utf-8"?>
<!-- Generator: Adobe Illustrator 21.1.0, SVG Export Plug-In . SVG Version: 6.00 Build 0)  -->
<svg version="1.1" id="Layer_1" xmlns="http://www.w3.org/2000/svg" xmlns:xlink="http://www.w3.org/1999/xlink" x="0px" y="0px"
	 width="163.5px" height="66.3px" viewBox="0 0 163.5 66.3" style="enable-background:new 0 0 163.5 66.3;" xml:space="preserve">
<style type="text/css">
	.st0{fill:#FF6633;}
	.st1{fill:#FFFFFF;}
	.st2{fill:none;}
</style>
<path class="st2" d="M38.2,22.1L33.1,7.2L28,22.1h-5.9L30.9,0h4.4l8.8,22.1C44.1,22.1,38.2,22.1,38.2,22.1z"/>
<path class="st2" d="M28,44.2l5.1,14.9l5.1-14.9h5.9l-8.8,22.1h-4.4l-8.8-22.1C22.1,44.2,28,44.2,28,44.2z"/>
<path class="st2" d="M22.1,28.1L7.2,33.2l14.9,5.1v5.9L0,35.3l0-4.4l22.1-8.8C22.1,22.2,22.1,28.1,22.1,28.1z"/>
<path class="st2" d="M141.4,38.2l14.9-5.1L141.4,28v-5.9l22.1,8.8v4.4l-22.1,8.8C141.4,44.1,141.4,38.2,141.4,38.2z"/>
<path class="st1" d="M28,22.1L33.1,37l5.1-14.9h5.9l-8.8,22.1h-4.4l-8.8-22.1H28z"/>
<path class="st1" d="M65.7,36.9c1.8,0,2.6,1,2.6,2.2s-0.8,2.2-2.6,2.2H46.6c-1.8,0-2.6-1-2.6-2.2s0.8-2.2,2.6-2.2H65.7z M64.2,28.5
	c0,1.8-1.3,3-3,3s-3-1.2-3-3s1.3-3,3-3S64.2,26.6,64.2,28.5z"/>
<path class="st1" d="M78.3,22.1v3c1.5-2.1,3.8-3.6,7.2-3.6c4.3,0,9.3,3.6,9.3,11.3c0,8.1-4.8,12-9.8,12c-2.6,0-5-1-6.8-3.5v10.6
	h-5.4V22.1H78.3z M78.3,33.1c0,4.5,2.6,6.9,5.5,6.9c2.8,0,5.6-2.2,5.6-6.9c0-4.6-2.8-6.8-5.6-6.8C80.9,26.4,78.3,28.5,78.3,33.1z"/>
<path class="st1" d="M104.3,22.1v3c1.5-2.1,3.8-3.6,7.2-3.6c4.3,0,9.3,3.6,9.3,11.3c0,8.1-4.8,12-9.8,12c-2.6,0-5-1-6.8-3.5v10.6
	h-5.4V22.1H104.3z M104.3,33.1c0,4.5,2.6,6.9,5.5,6.9c2.8,0,5.6-2.2,5.6-6.9c0-4.6-2.8-6.8-5.6-6.8
	C106.9,26.4,104.3,28.5,104.3,33.1z"/>
<path class="st1" d="M132.3,21.6c4.5,0,7.7,2.1,9.1,7.3l-4.9,0.8c-0.1-2.6-1.7-3.5-4.1-3.5c-1.8,0-3.2,0.8-3.2,2.1
	c0,1,0.7,2,2.8,2.4l3.7,0.7c3.6,0.7,5.6,3.1,5.6,6.3c0,4.8-4.3,7.2-8.4,7.2c-4.3,0-9.1-2.2-9.8-7.6l4.9-0.8c0.3,2.8,2,3.8,4.8,3.8
	c2.1,0,3.5-0.8,3.5-2.1c0-1.2-0.7-2.1-3-2.5l-3.4-0.6c-3.6-0.7-5.8-3.2-5.8-6.4C124.2,23.6,128.7,21.6,132.3,21.6z"/>
</svg>
