<svg fill="none" height="16" viewBox="0 0 64 16" width="64" xmlns="http://www.w3.org/2000/svg"><path clip-rule="evenodd" d="m64 3.83839c-.7202-2.74771-2.4686-3.83839-4.8553-3.83839-1.9336 0-4.3605 1.09068-4.3605 3.71715 0 1.69686 1.1723 3.03045 3.0852 3.37402l1.8103.32301c1.2344.22211 1.5842.68692 1.5842 1.31323 0 .70706-.7612 1.11103-1.8926 1.11103-1.4809 0-2.4067-.5252-2.5508-2.00016l-2.6124.40419c.4112 2.84833 2.9619 4.02043 5.2658 4.02043 2.1808 0 4.5053-1.2528 4.5053-3.77796 0-1.71743-1.0494-2.96961-3.0036-3.33375l-1.9951-.36327c-1.1111-.20199-1.4812-.74754-1.4812-1.27275 0-.6668.7198-1.09068 1.7073-1.09068 1.255 0 2.1395.42388 2.1806 1.81787zm-58.075 4.32289 2.7149-7.858411h3.1884l-4.73144 11.656531h-2.3654l-4.73146-11.656312h3.18843zm16.6834-4.52488c0 .92918-.7406 1.57562-1.6047 1.57562-.864 0-1.6043-.64644-1.6043-1.57562 0-.92939.7403-1.57562 1.6043-1.57562.8641 0 1.6049.64623 1.6049 1.57562zm.4936 4.12135c-1.0699 1.37336-2.2013 2.32285-4.1967 2.32295-2.036 0-3.6204-1.21214-4.8546-2.98975-.4939-.72741-1.255-.88891-1.8105-.50507-.5142.36371-.6374 1.13138-.1645 1.79818 1.7073 2.56564 4.0729 4.06024 6.8294 4.06024 2.5305 0 4.5055-1.2119 6.0481-3.23217.5759-.74732.5553-1.515 0-1.93932-.5144-.40441-1.2755-.26239-1.8512.48494zm7.098-1.65681c0 2.384 1.3989 3.63662 2.9625 3.63662 1.4809 0 3.0034-1.17187 3.0034-3.63662 0-2.42449-1.5225-3.59592-2.9831-3.59592-1.5839 0-2.9828 1.11103-2.9828 3.59592zm0-4.18153v-1.596408h-2.9004v15.676998h2.9004v-5.576c.9669 1.2932 2.2217 1.8389 3.6409 1.8389 2.6541 0 5.2459-2.0608 5.2459-6.30311 0-4.06095-2.6948-5.95957116-4.9989-5.95957116-1.8309 0-3.0855.82807716-3.8879 1.91919116zm13.9275 4.18153c0 2.384 1.3987 3.63662 2.9623 3.63662 1.4809 0 3.0032-1.17187 3.0032-3.63662 0-2.42449-1.5223-3.59592-2.9828-3.59592-1.584 0-2.9829 1.11103-2.9829 3.59592zm0-4.18153v-1.596408h-.0002-2.9004v15.676998h2.9004v-5.576c.967 1.2932 2.2217 1.8389 3.641 1.8389 2.6539 0 5.2459-2.0608 5.2459-6.30311 0-4.06095-2.6948-5.95957116-4.999-5.95957116-1.8309 0-3.0854.82807716-3.8877 1.91919116z" fill="#ff5b24" fill-rule="evenodd"/></svg>